<svg width="512" height="512" viewBox="0 0 512 512" fill="none" xmlns="http://www.w3.org/2000/svg">
<g clip-path="url(#clip0_601_3)">
<path fill-rule="evenodd" clip-rule="evenodd" d="M246.172 34.3882C249.61 31.946 254.018 31.3201 258.001 32.7089L365.978 70.3659C385.557 69.0686 405.283 74.4407 421.484 91.1983C437.361 107.62 442.824 126.924 441.906 146.107L479.663 254.371C481.052 258.353 480.426 262.762 477.984 266.2C475.541 269.638 471.585 271.681 467.368 271.681L369.597 271.681L334.752 306.525C329.711 290.782 314.957 279.385 297.541 279.385C275.966 279.385 258.477 296.874 258.477 318.449C258.477 335.865 269.874 350.62 285.617 355.66L236.111 405.166C230.78 410.498 229.29 415.222 229.173 418.478C229.052 421.817 230.308 424.686 232.336 426.717C234.364 428.747 237.226 430.001 240.557 429.882C243.806 429.765 248.533 428.277 253.877 422.933C258.962 417.848 267.207 417.848 272.292 422.933C277.377 428.018 277.377 436.263 272.292 441.348C263.047 450.593 252.314 455.52 241.49 455.908C230.748 456.293 220.924 452.142 213.912 445.122C206.899 438.103 202.76 428.277 203.147 417.54C203.536 406.721 208.457 395.99 217.696 386.751L259.817 344.63L251.877 336.69C230.121 356.841 214.731 365.327 200.8 372.334L197.523 373.973C184.248 380.598 173.149 386.137 157.002 402.284C151.875 407.411 150.516 412.092 150.525 415.542C150.534 419.171 152.054 422.641 154.674 425.261C157.294 427.881 160.764 429.401 164.394 429.41C167.843 429.419 172.524 428.06 177.652 422.933C182.737 417.848 190.981 417.848 196.067 422.933C201.152 428.018 201.152 436.263 196.067 441.348C186.621 450.794 175.488 455.482 164.326 455.453C153.344 455.425 143.405 450.822 136.259 443.676C129.113 436.53 124.51 426.591 124.482 415.609C124.453 404.447 129.141 393.314 138.587 383.868C157.749 364.707 171.943 357.628 185.848 350.693C186.932 350.152 188.015 349.612 189.098 349.067C201.135 343.014 214.24 335.93 233.448 318.261L196.907 281.72C179.836 300.763 173.622 314.743 167.227 329.212L167.102 329.494C159.127 347.536 150.771 366.44 124.449 392.763C115.019 402.194 103.895 406.861 92.7426 406.813C81.775 406.766 71.8521 402.154 64.716 395.017C57.5799 387.881 52.9673 377.959 52.9202 366.991C52.8723 355.839 57.5388 344.715 66.9696 335.284C72.0548 330.199 80.2995 330.199 85.3847 335.284C90.4699 340.369 90.4698 348.614 85.3846 353.699C80.2914 358.792 78.948 363.444 78.9628 366.879C78.9784 370.498 80.5009 373.972 83.131 376.602C85.7611 379.232 89.2353 380.755 92.8542 380.77C96.2887 380.785 100.941 379.442 106.034 374.349C128.923 351.459 135.781 335.94 143.137 319.295L143.407 318.683C150.511 302.613 158.134 285.705 178.469 263.282L167.742 252.555L123.792 296.505C106.099 314.197 82.0653 311.033 68.2941 297.713C61.3999 291.045 56.7748 281.606 56.8486 270.866C56.9232 260.011 61.771 249.333 71.0241 240.08C76.1093 234.995 84.354 234.995 89.4392 240.08C94.5243 245.165 94.5243 253.41 89.4392 258.495C84.1026 263.831 82.9101 268.239 82.8908 271.045C82.8707 273.967 84.0981 276.767 86.3999 278.994C91.0208 283.463 98.7527 284.714 105.377 278.09L156.435 227.032C161.721 242.344 176.261 253.342 193.37 253.342C214.944 253.342 232.434 235.852 232.434 214.278C232.434 197.169 221.436 182.629 206.124 177.343L240.691 142.775L240.691 45.0041C240.691 40.7867 242.734 36.8305 246.172 34.3882ZM266.734 118.961C271.199 115.284 276.212 111.338 281.648 107.346C293.168 98.8865 307.162 89.7847 322.276 82.7058L266.734 63.3358L266.734 118.961ZM393.815 245.638L449.036 245.638L429.865 190.666C422.86 205.758 413.787 219.642 405.324 231.046C401.379 236.362 397.471 241.263 393.815 245.638Z" fill="#7730E2"/>
<path d="M206.391 214.278C206.391 221.469 200.561 227.299 193.37 227.299C186.178 227.299 180.348 221.469 180.348 214.278C180.348 207.086 186.178 201.256 193.37 201.256C200.561 201.256 206.391 207.086 206.391 214.278Z" fill="#7730E2"/>
<path d="M310.562 318.449C310.562 325.641 304.732 331.47 297.541 331.47C290.349 331.47 284.519 325.641 284.519 318.449C284.519 311.258 290.349 305.428 297.541 305.428C304.732 305.428 310.562 311.258 310.562 318.449Z" fill="#7730E2"/>
</g>
<defs>
<clipPath id="clip0_601_3">
<rect width="512" height="512" fill="white"/>
</clipPath>
</defs>
</svg>
