<svg width="112" height="45" viewBox="0 0 112 45" fill="none" xmlns="http://www.w3.org/2000/svg">
<path d="M32.3918 7.5C31.9775 7.5 31.5989 7.4 31.2561 7.2C30.9203 7 30.6525 6.73214 30.4525 6.39643C30.2525 6.05357 30.1525 5.675 30.1525 5.26071C30.1525 4.96071 30.2168 4.67857 30.3453 4.41429C30.4739 4.15 30.6489 3.91786 30.8703 3.71786C30.6489 3.51786 30.4739 3.28571 30.3453 3.02143C30.2168 2.75714 30.1525 2.47857 30.1525 2.18571C30.1525 1.77857 30.2489 1.41071 30.4418 1.08214C30.6418 0.753571 30.9061 0.492857 31.2346 0.3C31.5703 0.1 31.9382 0 32.3382 0H35.4239V1.35H32.5096C32.3596 1.35 32.2203 1.38929 32.0918 1.46786C31.9703 1.53929 31.8703 1.63929 31.7918 1.76786C31.7203 1.88929 31.6846 2.02857 31.6846 2.18571C31.6846 2.33571 31.7203 2.475 31.7918 2.60357C31.8703 2.725 31.9703 2.825 32.0918 2.90357C32.2203 2.975 32.3596 3.01071 32.5096 3.01071H35.0596V4.36071H32.5739C32.4096 4.36071 32.2596 4.40357 32.1239 4.48929C31.9882 4.56786 31.8811 4.675 31.8025 4.81071C31.7239 4.94643 31.6846 5.09643 31.6846 5.26071C31.6846 5.425 31.7239 5.575 31.8025 5.71071C31.8811 5.84643 31.9882 5.95357 32.1239 6.03214C32.2596 6.11071 32.4096 6.15 32.5739 6.15H35.4239V7.5H32.3918Z" fill="#FBFEF9"/>
<path d="M22.6265 7.5V0H24.1587V3.01071H27.4372V0H28.9694V7.5H27.4372V4.36071H24.1587V7.5H22.6265Z" fill="#FBFEF9"/>
<path d="M20.3179 7.5C19.875 7.5 19.4857 7.4 19.15 7.2C18.8143 6.99286 18.5536 6.72143 18.3679 6.38571C18.1821 6.04286 18.0893 5.66786 18.0893 5.26071V1.35H16V0H21.7107V1.35H19.6214V5.44286C19.6214 5.63571 19.6893 5.80357 19.825 5.94643C19.9607 6.08214 20.125 6.15 20.3179 6.15H22.8125L22.7239 7.5H20.3179Z" fill="#FBFEF9"/>
<path fill-rule="evenodd" clip-rule="evenodd" d="M86.0295 33C86.5655 33 87 33.4345 87 33.9705L87 39.2793C87 39.2793 85.5951 39.2793 85.0591 39.2793L85.0591 36.3133L80.3133 41.0566L84.421 41.0566C84.421 41.0566 84.421 42.4615 84.421 42.9975L77.9705 42.9975C77.4345 42.9975 77 42.563 77 42.0271L77 36.7182L78.9409 36.7182L78.9409 39.6842L83.6867 34.9409L80.7207 34.9409C80.7207 34.9409 80.7207 33.536 80.7207 33L86.0295 33Z" fill="#FBFEF9"/>
<path d="M16 25.6778V17.19C16 16.0022 16.2469 14.9812 16.7407 14.1271C17.2478 13.2597 17.9351 12.5924 18.8026 12.1253C19.6834 11.6582 20.691 11.4246 21.8254 11.4246C22.9598 11.4246 23.9607 11.6582 24.8282 12.1253C25.709 12.5924 26.3963 13.2597 26.8901 14.1271C27.3972 14.9812 27.6508 16.0022 27.6508 17.19V25.6778H24.7881V17.0098C24.7881 16.4493 24.668 15.9355 24.4278 15.4684C24.1876 15.0013 23.8473 14.6343 23.4069 14.3673C22.9664 14.0871 22.4393 13.947 21.8254 13.947C21.2248 13.947 20.6977 14.0871 20.2439 14.3673C19.8035 14.6343 19.4632 15.0013 19.223 15.4684C18.9828 15.9355 18.8626 16.4493 18.8626 17.0098V25.6778H16Z" fill="#FBFEF9"/>
<path d="M24.7881 25.6778V17.19C24.7881 16.0022 25.035 14.9812 25.5288 14.1271C26.0359 13.2597 26.7232 12.5924 27.5907 12.1253C28.4715 11.6582 29.4791 11.4246 30.6135 11.4246C31.7479 11.4246 32.7488 11.6582 33.6163 12.1253C34.4971 12.5924 35.1844 13.2597 35.6782 14.1271C36.1853 14.9812 36.4389 16.0022 36.4389 17.19V25.6778H33.5763V17.0098C33.5763 16.4493 33.4561 15.9355 33.2159 15.4684C32.9757 15.0013 32.6354 14.6343 32.195 14.3673C31.7546 14.0871 31.2274 13.947 30.6135 13.947C30.013 13.947 29.4858 14.0871 29.0321 14.3673C28.5916 14.6343 28.2513 15.0013 28.0111 15.4684C27.7709 15.9355 27.6508 16.4493 27.6508 17.0098L27.6508 25.6778H24.7881Z" fill="#FBFEF9"/>
<path d="M105.801 25.8139C105.027 25.8139 104.32 25.627 103.679 25.2533C103.052 24.8797 102.552 24.3792 102.178 23.752C101.804 23.1114 101.617 22.404 101.617 21.63C101.617 21.0695 101.738 20.5423 101.978 20.0485C102.218 19.5547 102.545 19.121 102.959 18.7473C102.545 18.3737 102.218 17.9399 101.978 17.4461C101.738 16.9523 101.617 16.4319 101.617 15.8847C101.617 15.124 101.798 14.4367 102.158 13.8228C102.532 13.2089 103.025 12.7218 103.639 12.3614C104.267 11.9877 104.954 11.8009 105.701 11.8009H111.467V14.3232H106.022C105.741 14.3232 105.481 14.3966 105.241 14.5434C105.014 14.6769 104.827 14.8637 104.68 15.104C104.547 15.3308 104.48 15.5911 104.48 15.8847C104.48 16.1649 104.547 16.4252 104.68 16.6654C104.827 16.8923 105.014 17.0791 105.241 17.2259C105.481 17.3594 105.741 17.4261 106.022 17.4261H110.786V19.9484H106.142C105.835 19.9484 105.554 20.0285 105.301 20.1887C105.047 20.3355 104.847 20.5357 104.7 20.7892C104.554 21.0428 104.48 21.323 104.48 21.63C104.48 21.9369 104.554 22.2172 104.7 22.4708C104.847 22.7243 105.047 22.9245 105.301 23.0713C105.554 23.2181 105.835 23.2915 106.142 23.2915H111.467V25.8139H105.801Z" fill="#FBFEF9"/>
<path d="M97.9045 25.8139C97.0771 25.8139 96.3497 25.627 95.7225 25.2533C95.0952 24.8663 94.6081 24.3592 94.2611 23.7319C93.9141 23.0913 93.7407 22.3907 93.7407 21.63V14.3232H89.837V11.8009H100.507V14.3232H96.6033V21.9703C96.6033 22.3306 96.7301 22.6443 96.9837 22.9112C97.2372 23.1648 97.5442 23.2915 97.9045 23.2915H103.366L106.042 25.8139H97.9045Z" fill="#FBFEF9"/>
<path d="M86.4909 14.3031C86.0504 14.3031 85.6634 14.143 85.3298 13.8227C85.0095 13.5024 84.8493 13.1154 84.8493 12.6616C84.8493 12.2078 85.0095 11.8208 85.3298 11.5005C85.6634 11.1669 86.0504 11.0001 86.4909 11.0001C86.9446 11.0001 87.3316 11.1669 87.6519 11.5005C87.9856 11.8208 88.1524 12.2078 88.1524 12.6616C88.1524 13.1154 87.9856 13.5024 87.6519 13.8227C87.3316 14.143 86.9446 14.3031 86.4909 14.3031ZM88.0323 25.8138C87.1248 25.8138 86.4108 25.5535 85.8903 25.033C85.3832 24.5126 85.1296 23.8052 85.1296 22.9111V15.6043H87.8721V22.831C87.8721 23.0045 87.9322 23.158 88.0523 23.2914C88.1858 23.4115 88.3392 23.4716 88.5127 23.4716H89.1333V25.8138H88.0323Z" fill="#FBFEF9"/>
<path d="M80.9162 25.8139C80.0887 25.8139 79.3614 25.627 78.7341 25.2533C78.1069 24.8663 77.6198 24.3592 77.2728 23.7319C76.9258 23.0913 76.7523 22.3907 76.7523 21.63V14.3232H72.8487V11.8009H83.5186V14.3232H79.6149V21.9703C79.6149 22.3306 79.7417 22.6443 79.9953 22.9112C80.2489 23.1648 80.5558 23.2915 80.9162 23.2915H81.9171V25.8139H80.9162Z" fill="#FBFEF9"/>
<path d="M63.5996 25.8139V23.2915H66.122V14.3232H63.5996V11.8009H72.973V14.3232H68.9846V23.2915H71.5069V25.8139H63.5996Z" fill="#FBFEF9"/>
<path d="M50.295 25.8139V11.8009H56.5608C57.4816 11.8009 58.3158 12.0078 59.0631 12.4215C59.8238 12.8218 60.4244 13.3824 60.8648 14.103C61.3185 14.8237 61.5454 15.6645 61.5454 16.6254C61.5454 17.5596 61.3252 18.387 60.8848 19.1077C60.4444 19.815 59.8638 20.3755 59.1432 20.7892L60.4244 23.0313C60.4778 23.1114 60.5445 23.1781 60.6246 23.2315C60.7046 23.2715 60.798 23.2915 60.9048 23.2915H63.6144V25.8139H60.4644C59.9039 25.8139 59.3901 25.6737 58.923 25.3935C58.4692 25.1132 58.1089 24.7462 57.842 24.2925L56.2605 21.4498C56.1404 21.4498 56.0136 21.4498 55.8802 21.4498C55.7601 21.4498 55.6399 21.4498 55.5198 21.4498H53.1576V25.8139H50.295ZM53.1576 18.9275H56.2205C56.6742 18.9275 57.0879 18.8407 57.4616 18.6673C57.8353 18.4804 58.1289 18.2135 58.3424 17.8665C58.5693 17.5195 58.6828 17.1058 58.6828 16.6254C58.6828 16.1449 58.5693 15.7312 58.3424 15.3842C58.1156 15.0372 57.8153 14.777 57.4416 14.6035C57.0813 14.4167 56.6742 14.3232 56.2205 14.3232H53.1576V18.9275Z" fill="#FBFEF9"/>
<path d="M42.4224 25.8139C41.6484 25.8139 40.941 25.627 40.3004 25.2533C39.6732 24.8797 39.1727 24.3792 38.7991 23.752C38.4254 23.1114 38.2385 22.404 38.2385 21.63C38.2385 21.0695 38.3587 20.5423 38.5989 20.0485C38.8391 19.5547 39.1661 19.121 39.5798 18.7473C39.1661 18.3737 38.8391 17.9399 38.5989 17.4461C38.3587 16.9523 38.2385 16.4319 38.2385 15.8847C38.2385 15.124 38.4187 14.4367 38.779 13.8228C39.1527 13.2089 39.6465 12.7218 40.2604 12.3614C40.8877 11.9877 41.575 11.8009 42.3223 11.8009H48.0877V14.3232H42.6426C42.3624 14.3232 42.1021 14.3966 41.8619 14.5434C41.635 14.6769 41.4482 14.8637 41.3014 15.104C41.1679 15.3308 41.1012 15.5911 41.1012 15.8847C41.1012 16.1649 41.1679 16.4252 41.3014 16.6654C41.4482 16.8923 41.635 17.0791 41.8619 17.2259C42.1021 17.3594 42.3624 17.4261 42.6426 17.4261H47.407V19.9484H42.7627C42.4558 19.9484 42.1755 20.0285 41.9219 20.1887C41.6684 20.3355 41.4682 20.5357 41.3214 20.7892C41.1746 21.0428 41.1012 21.323 41.1012 21.63C41.1012 21.9369 41.1746 22.2172 41.3214 22.4708C41.4682 22.7243 41.6684 22.9245 41.9219 23.0713C42.1755 23.2181 42.4558 23.2915 42.7627 23.2915H48.0877V25.8139H42.4224Z" fill="#FBFEF9"/>
<path d="M60.3393 44.6037V36.1158C60.3393 34.928 60.5862 33.9071 61.08 33.053C61.5872 32.1855 62.2745 31.5182 63.1419 31.0511C64.0227 30.584 65.0304 30.3505 66.1647 30.3505C67.2991 30.3505 68.3 30.584 69.1675 31.0511C70.0483 31.5182 70.7356 32.1855 71.2294 33.053C71.7366 33.9071 71.9901 34.928 71.9901 36.1158V44.6037H69.1275V35.9356C69.1275 35.3751 69.0074 34.8613 68.7671 34.3942C68.5269 33.9271 68.1866 33.5601 67.7462 33.2932C67.3058 33.0129 66.7786 32.8728 66.1647 32.8728C65.5642 32.8728 65.037 33.0129 64.5833 33.2932C64.1429 33.5601 63.8025 33.9271 63.5623 34.3942C63.3221 34.8613 63.202 35.3751 63.202 35.9356V44.6037H60.3393Z" fill="#FBFEF9"/>
<path d="M51.0919 44.864C49.9709 44.864 48.9566 44.6772 48.0491 44.3035C47.155 43.9165 46.3876 43.3893 45.747 42.722C45.1064 42.0547 44.6126 41.2807 44.2656 40.3999C43.9186 39.5191 43.7451 38.5782 43.7451 37.5773C43.7451 36.5763 43.9186 35.6421 44.2656 34.7747C44.6126 33.8939 45.1064 33.1198 45.747 32.4525C46.3876 31.7852 47.155 31.2648 48.0491 30.8911C48.9566 30.5174 49.9709 30.3306 51.0919 30.3306C52.213 30.3306 53.2206 30.5174 54.1147 30.8911C55.0222 31.2648 55.7963 31.7852 56.4369 32.4525C57.0775 33.1198 57.5713 33.8939 57.9183 34.7747C58.2652 35.6421 58.4387 36.5763 58.4387 37.5773C58.4387 38.5782 58.2652 39.5191 57.9183 40.3999C57.5713 41.2807 57.0775 42.0547 56.4369 42.722C55.7963 43.3893 55.0222 43.9165 54.1147 44.3035C53.2206 44.6772 52.213 44.864 51.0919 44.864ZM51.0919 42.3217C51.7325 42.3217 52.3264 42.2082 52.8736 41.9813C53.4208 41.7411 53.8945 41.4075 54.2949 40.9804C54.7086 40.54 55.0222 40.0329 55.2358 39.459C55.4627 38.8851 55.5761 38.2579 55.5761 37.5773C55.5761 36.8966 55.4627 36.2694 55.2358 35.6955C55.0222 35.1217 54.7086 34.6212 54.2949 34.1941C53.8945 33.7671 53.4208 33.4401 52.8736 33.2132C52.3264 32.973 51.7325 32.8529 51.0919 32.8529C50.4513 32.8529 49.8575 32.973 49.3103 33.2132C48.7631 33.4401 48.2827 33.7671 47.869 34.1941C47.4686 34.6212 47.155 35.1217 46.9281 35.6955C46.7146 36.2694 46.6078 36.8966 46.6078 37.5773C46.6078 38.2579 46.7146 38.8851 46.9281 39.459C47.155 40.0329 47.4686 40.54 47.869 40.9804C48.2827 41.4075 48.7631 41.7411 49.3103 41.9813C49.8575 42.2082 50.4513 42.3217 51.0919 42.3217Z" fill="#FBFEF9"/>
<path d="M21.8254 44.8636C20.691 44.8636 19.6834 44.6301 18.8026 44.163C17.9351 43.6959 17.2478 43.0353 16.7407 42.1812C16.2469 41.3137 16 40.2861 16 39.0983V30.6105H18.8626V39.2785C18.8626 39.839 18.9828 40.3528 19.223 40.8199C19.4632 41.2737 19.8035 41.6407 20.2439 41.9209C20.6977 42.2012 21.2248 42.3413 21.8254 42.3413C22.4393 42.3413 22.9664 42.2012 23.4069 41.9209C23.8473 41.6407 24.1876 41.2737 24.4278 40.8199C24.668 40.3528 24.7881 39.839 24.7881 39.2785V35.6151H27.6508V39.0983C27.6508 40.2861 27.3972 41.3137 26.8901 42.1812C26.3963 43.0353 25.709 43.6959 24.8282 44.163C23.9607 44.6301 22.9598 44.8636 21.8254 44.8636Z" fill="#FBFEF9"/>
<path d="M24.7881 39.2785V35.7952C24.7881 34.6075 25.035 33.5865 25.5288 32.7324C26.036 31.8649 26.7233 31.1977 27.5907 30.7306C28.4715 30.2635 29.4791 30.0299 30.6135 30.0299C31.7479 30.0299 32.7488 30.2635 33.6163 30.7306C34.4971 31.1977 35.1844 31.8649 35.6782 32.7324C36.1853 33.5865 36.4389 34.6075 36.4389 35.7952V44.743H33.5763V35.6151C33.5763 35.0546 33.4562 34.5407 33.2159 34.0736C32.9757 33.6065 32.6354 33.2395 32.195 32.9726C31.7546 32.6924 31.2274 32.5522 30.6135 32.5522C30.013 32.5522 29.4858 32.6924 29.0321 32.9726C28.5916 33.2395 28.2513 33.6065 28.0111 34.0736C27.7709 34.5407 27.6508 35.0546 27.6508 35.6151L27.6508 39.2785L24.7881 39.2785Z" fill="#FBFEF9"/>
<path d="M40.1389 33.3031C39.6985 33.3031 39.3115 33.1429 38.9779 32.8226C38.6576 32.5023 38.4974 32.1153 38.4974 31.6615C38.4974 31.2078 38.6576 30.8208 38.9779 30.5005C39.3115 30.1668 39.6985 30 40.1389 30C40.5927 30 40.9797 30.1668 41.3 30.5005C41.6336 30.8208 41.8005 31.2078 41.8005 31.6615C41.8005 32.1153 41.6336 32.5023 41.3 32.8226C40.9797 33.1429 40.5927 33.3031 40.1389 33.3031ZM41.6803 44.8137C40.7728 44.8137 40.0589 44.5535 39.5384 44.033C39.0312 43.5125 38.7777 42.8052 38.7777 41.911V34.6043H41.5202V41.8309C41.5202 42.0044 41.5803 42.1579 41.7004 42.2914C41.8338 42.4115 41.9873 42.4715 42.1608 42.4715H42.7814V44.8137H41.6803Z" fill="#FBFEF9"/>
</svg>
