<svg width="158" height="16" viewBox="0 0 158 16" fill="none" xmlns="http://www.w3.org/2000/svg">
<path d="M0.306152 15.1632V6.61871C0.306152 5.42303 0.553048 4.39528 1.04684 3.53546C1.55397 2.66221 2.24128 1.99047 3.10875 1.52026C3.98956 1.05005 4.99716 0.814941 6.13154 0.814941C7.26593 0.814941 8.26685 1.05005 9.13432 1.52026C10.0151 1.99047 10.7024 2.66221 11.1962 3.53546C11.7034 4.39528 11.9569 5.42303 11.9569 6.61871V15.1632H9.09428V6.43734C9.09428 5.87309 8.97417 5.35585 8.73395 4.88564C8.49373 4.41543 8.15342 4.04598 7.71301 3.77728C7.2726 3.49515 6.74544 3.35409 6.13154 3.35409C5.53099 3.35409 5.00384 3.49515 4.55008 3.77728C4.10968 4.04598 3.76936 4.41543 3.52914 4.88564C3.28892 5.35585 3.1688 5.87309 3.1688 6.43734V15.1632H0.306152Z" fill="#191923"/>
<path d="M9.09428 15.1632V6.61871C9.09428 5.42303 9.34117 4.39528 9.83496 3.53546C10.3421 2.66221 11.0294 1.99047 11.8969 1.52026C12.7777 1.05005 13.7853 0.814941 14.9197 0.814941C16.0541 0.814941 17.055 1.05005 17.9224 1.52026C18.8033 1.99047 19.4906 2.66221 19.9844 3.53546C20.4915 4.39528 20.7451 5.42303 20.7451 6.61871V15.1632H17.8824V6.43734C17.8824 5.87309 17.7623 5.35585 17.5221 4.88564C17.2819 4.41543 16.9415 4.04598 16.5011 3.77728C16.0607 3.49515 15.5336 3.35409 14.9197 3.35409C14.3191 3.35409 13.792 3.49515 13.3382 3.77728C12.8978 4.04598 12.5575 4.41543 12.3173 4.88564C12.077 5.35585 11.9569 5.87309 11.9569 6.43734L11.9569 15.1632H9.09428Z" fill="#191923"/>
<path d="M90.1075 15.3001C89.3335 15.3001 88.6261 15.112 87.9856 14.7359C87.3583 14.3597 86.8578 13.8559 86.4842 13.2245C86.1105 12.5796 85.9236 11.8676 85.9236 11.0883C85.9236 10.5241 86.0438 9.99342 86.284 9.49634C86.5242 8.99926 86.8512 8.56263 87.2649 8.18646C86.8512 7.81029 86.5242 7.37366 86.284 6.87658C86.0438 6.3795 85.9236 5.85555 85.9236 5.30473C85.9236 4.53895 86.1038 3.84707 86.4641 3.22908C86.8378 2.61108 87.3316 2.12072 87.9455 1.75798C88.5728 1.38181 89.2601 1.19373 90.0074 1.19373H95.7728V3.73288H90.3277C90.0475 3.73288 89.7872 3.80677 89.547 3.95455C89.3201 4.08889 89.1333 4.27698 88.9865 4.5188C88.853 4.74719 88.7863 5.00917 88.7863 5.30473C88.7863 5.58686 88.853 5.84883 88.9865 6.09066C89.1333 6.31904 89.3201 6.50713 89.547 6.65491C89.7872 6.78926 90.0475 6.85643 90.3277 6.85643H95.0921V9.39558H90.4478C90.1409 9.39558 89.8606 9.47619 89.6071 9.6374C89.3535 9.78518 89.1533 9.9867 89.0065 10.242C88.8597 10.4972 88.7863 10.7793 88.7863 11.0883C88.7863 11.3973 88.8597 11.6795 89.0065 11.9347C89.1533 12.19 89.3535 12.3915 89.6071 12.5393C89.8606 12.6871 90.1409 12.761 90.4478 12.761H95.7728V15.3001H90.1075Z" fill="#191923"/>
<path d="M82.2107 15.3001C81.3832 15.3001 80.6559 15.112 80.0286 14.7359C79.4014 14.3462 78.9143 13.8357 78.5673 13.2043C78.2203 12.5594 78.0468 11.8541 78.0468 11.0883V3.73288H74.1432V1.19373H84.8131V3.73288H80.9094V11.4309C80.9094 11.7937 81.0362 12.1094 81.2898 12.3781C81.5434 12.6333 81.8503 12.761 82.2107 12.761H87.6717L90.3482 15.3001H82.2107Z" fill="#191923"/>
<path d="M70.797 3.71253C70.3566 3.71253 69.9696 3.55131 69.6359 3.22888C69.3156 2.90645 69.1555 2.51684 69.1555 2.06007C69.1555 1.60329 69.3156 1.21368 69.6359 0.89125C69.9696 0.555384 70.3566 0.387451 70.797 0.387451C71.2508 0.387451 71.6378 0.555384 71.9581 0.89125C72.2917 1.21368 72.4585 1.60329 72.4585 2.06007C72.4585 2.51684 72.2917 2.90645 71.9581 3.22888C71.6378 3.55131 71.2508 3.71253 70.797 3.71253ZM72.3384 15.2999C71.4309 15.2999 70.7169 15.0379 70.1965 14.514C69.6893 13.99 69.4357 13.278 69.4357 12.3779V5.0224H72.1783V12.2973C72.1783 12.4719 72.2383 12.6264 72.3584 12.7608C72.4919 12.8817 72.6454 12.9421 72.8189 12.9421H73.4395V15.2999H72.3384Z" fill="#191923"/>
<path d="M65.2223 15.3001C64.3949 15.3001 63.6675 15.112 63.0403 14.7359C62.413 14.3462 61.9259 13.8357 61.5789 13.2043C61.232 12.5594 61.0585 11.8541 61.0585 11.0883V3.73288H57.1548V1.19373H67.8247V3.73288H63.9211V11.4309C63.9211 11.7937 64.0479 12.1094 64.3015 12.3781C64.555 12.6333 64.862 12.761 65.2223 12.761H66.2232V15.3001H65.2223Z" fill="#191923"/>
<path d="M47.9058 15.3001V12.761H50.4281V3.73288H47.9058V1.19373H57.2792V3.73288H53.2908V12.761H55.8131V15.3001H47.9058Z" fill="#191923"/>
<path d="M34.6012 15.3001V1.19373H40.867C41.7878 1.19373 42.6219 1.40196 43.3693 1.81844C44.13 2.22148 44.7305 2.78573 45.1709 3.5112C45.6247 4.23667 45.8516 5.08306 45.8516 6.05035C45.8516 6.99078 45.6314 7.82373 45.191 8.5492C44.7506 9.26123 44.17 9.82549 43.4493 10.242L44.7305 12.499C44.7839 12.5796 44.8506 12.6468 44.9307 12.7005C45.0108 12.7408 45.1042 12.761 45.211 12.761H47.9206V15.3001H44.7706C44.2101 15.3001 43.6962 15.159 43.2291 14.8769C42.7754 14.5948 42.4151 14.2253 42.1481 13.7686L40.5667 10.907C40.4466 10.907 40.3198 10.907 40.1863 10.907C40.0662 10.907 39.9461 10.907 39.826 10.907H37.4638V15.3001H34.6012ZM37.4638 8.36783H40.5266C40.9804 8.36783 41.3941 8.2805 41.7678 8.10585C42.1415 7.91777 42.4351 7.64908 42.6486 7.29977C42.8755 6.95047 42.9889 6.534 42.9889 6.05035C42.9889 5.5667 42.8755 5.15023 42.6486 4.80093C42.4217 4.45163 42.1215 4.18965 41.7478 4.015C41.3874 3.82692 40.9804 3.73288 40.5266 3.73288H37.4638V8.36783Z" fill="#191923"/>
<path d="M26.7285 15.3001C25.9545 15.3001 25.2472 15.112 24.6066 14.7359C23.9793 14.3597 23.4789 13.8559 23.1052 13.2245C22.7315 12.5796 22.5447 11.8676 22.5447 11.0883C22.5447 10.5241 22.6648 9.99342 22.905 9.49634C23.1452 8.99926 23.4722 8.56263 23.8859 8.18646C23.4722 7.81029 23.1452 7.37366 22.905 6.87658C22.6648 6.3795 22.5447 5.85555 22.5447 5.30473C22.5447 4.53895 22.7248 3.84707 23.0852 3.22908C23.4589 2.61108 23.9526 2.12072 24.5665 1.75798C25.1938 1.38181 25.8811 1.19373 26.6285 1.19373H32.3938V3.73288H26.9488C26.6685 3.73288 26.4083 3.80677 26.168 3.95455C25.9412 4.08889 25.7543 4.27698 25.6075 4.5188C25.4741 4.74719 25.4073 5.00917 25.4073 5.30473C25.4073 5.58686 25.4741 5.84883 25.6075 6.09066C25.7543 6.31904 25.9412 6.50713 26.168 6.65491C26.4083 6.78926 26.6685 6.85643 26.9488 6.85643H31.7132V9.39558H27.0689C26.7619 9.39558 26.4817 9.47619 26.2281 9.6374C25.9745 9.78518 25.7743 9.9867 25.6275 10.242C25.4807 10.4972 25.4073 10.7793 25.4073 11.0883C25.4073 11.3973 25.4807 11.6795 25.6275 11.9347C25.7743 12.19 25.9745 12.3915 26.2281 12.5393C26.4817 12.6871 26.7619 12.761 27.0689 12.761H32.3938V15.3001H26.7285Z" fill="#191923"/>
<path d="M146.149 14.9008V6.35638C146.149 5.1607 146.396 4.13295 146.89 3.27313C147.397 2.39988 148.084 1.72814 148.952 1.25793C149.832 0.787718 150.84 0.552612 151.974 0.552612C153.109 0.552612 154.11 0.787718 154.977 1.25793C155.858 1.72814 156.545 2.39988 157.039 3.27313C157.546 4.13295 157.8 5.1607 157.8 6.35638V14.9008H154.937V6.17501C154.937 5.61076 154.817 5.09352 154.577 4.62331C154.337 4.1531 153.996 3.78365 153.556 3.51495C153.115 3.23283 152.588 3.09176 151.974 3.09176C151.374 3.09176 150.847 3.23283 150.393 3.51495C149.953 3.78365 149.612 4.1531 149.372 4.62331C149.132 5.09352 149.012 5.61076 149.012 6.17501V14.9008H146.149Z" fill="#191923"/>
<path d="M136.902 15.1631C135.781 15.1631 134.766 14.975 133.859 14.5988C132.965 14.2092 132.197 13.6785 131.557 13.0068C130.916 12.3351 130.422 11.5558 130.075 10.6692C129.728 9.78247 129.555 8.83533 129.555 7.82773C129.555 6.82013 129.728 5.87971 130.075 5.00645C130.422 4.11977 130.916 3.34056 131.557 2.66882C132.197 1.99709 132.965 1.47314 133.859 1.09697C134.766 0.7208 135.781 0.532715 136.902 0.532715C138.023 0.532715 139.03 0.7208 139.924 1.09697C140.832 1.47314 141.606 1.99709 142.247 2.66882C142.887 3.34056 143.381 4.11977 143.728 5.00645C144.075 5.87971 144.248 6.82013 144.248 7.82773C144.248 8.83533 144.075 9.78247 143.728 10.6692C143.381 11.5558 142.887 12.3351 142.247 13.0068C141.606 13.6785 140.832 14.2092 139.924 14.5988C139.03 14.975 138.023 15.1631 136.902 15.1631ZM136.902 12.6037C137.542 12.6037 138.136 12.4896 138.683 12.2612C139.23 12.0193 139.704 11.6835 140.105 11.2536C140.518 10.8102 140.832 10.2997 141.045 9.72202C141.272 9.14433 141.386 8.5129 141.386 7.82773C141.386 7.14256 141.272 6.51114 141.045 5.93345C140.832 5.35576 140.518 4.85196 140.105 4.42205C139.704 3.99214 139.23 3.66299 138.683 3.4346C138.136 3.19278 137.542 3.07186 136.902 3.07186C136.261 3.07186 135.667 3.19278 135.12 3.4346C134.573 3.66299 134.092 3.99214 133.679 4.42205C133.278 4.85196 132.965 5.35576 132.738 5.93345C132.524 6.51114 132.417 7.14256 132.417 7.82773C132.417 8.5129 132.524 9.14433 132.738 9.72202C132.965 10.2997 133.278 10.8102 133.679 11.2536C134.092 11.6835 134.573 12.0193 135.12 12.2612C135.667 12.4896 136.261 12.6037 136.902 12.6037Z" fill="#191923"/>
<path d="M107.635 15.1625C106.501 15.1625 105.493 14.9274 104.612 14.4572C103.745 13.987 103.057 13.3219 102.55 12.4621C102.057 11.5889 101.81 10.5544 101.81 9.35871V0.814274H104.672V9.54008C104.672 10.1043 104.792 10.6216 105.033 11.0918C105.273 11.5486 105.613 11.918 106.054 12.2001C106.507 12.4823 107.034 12.6233 107.635 12.6233C108.249 12.6233 108.776 12.4823 109.216 12.2001C109.657 11.918 109.997 11.5486 110.237 11.0918C110.478 10.6216 110.598 10.1043 110.598 9.54008V5.85227H113.46V9.35871C113.46 10.5544 113.207 11.5889 112.7 12.4621C112.206 13.3219 111.519 13.987 110.638 14.4572C109.77 14.9274 108.769 15.1625 107.635 15.1625Z" fill="#191923"/>
<path d="M110.598 9.54008V6.03363C110.598 4.83794 110.845 3.81019 111.338 2.95037C111.846 2.07712 112.533 1.40539 113.4 0.935177C114.281 0.464965 115.289 0.229858 116.423 0.229858C117.558 0.229858 118.558 0.464965 119.426 0.935177C120.307 1.40539 120.994 2.07712 121.488 2.95037C121.995 3.81019 122.249 4.83794 122.249 6.03363V15.041H119.386V5.85226C119.386 5.288 119.266 4.77077 119.026 4.30056C118.785 3.83034 118.445 3.46089 118.005 3.1922C117.564 2.91007 117.037 2.76901 116.423 2.76901C115.823 2.76901 115.295 2.91007 114.842 3.1922C114.401 3.46089 114.061 3.83034 113.821 4.30056C113.581 4.77077 113.46 5.28801 113.46 5.85227L113.46 9.54007L110.598 9.54008Z" fill="#191923"/>
<path d="M125.949 3.52503C125.508 3.52503 125.121 3.36381 124.787 3.04138C124.467 2.71895 124.307 2.32934 124.307 1.87257C124.307 1.41579 124.467 1.02618 124.787 0.70375C125.121 0.367884 125.508 0.199951 125.949 0.199951C126.402 0.199951 126.789 0.367884 127.11 0.70375C127.443 1.02618 127.61 1.41579 127.61 1.87257C127.61 2.32934 127.443 2.71895 127.11 3.04138C126.789 3.36381 126.402 3.52503 125.949 3.52503ZM127.49 15.1124C126.582 15.1124 125.868 14.8504 125.348 14.3265C124.841 13.8025 124.587 13.0905 124.587 12.1904V4.8349H127.33V12.1098C127.33 12.2844 127.39 12.4389 127.51 12.5733C127.643 12.6942 127.797 12.7546 127.97 12.7546H128.591V15.1124H127.49Z" fill="#191923"/>
</svg>
