<svg width="148" height="61" viewBox="0 0 148 61" fill="none" xmlns="http://www.w3.org/2000/svg">
<path fill-rule="evenodd" clip-rule="evenodd" d="M21.147 11.8891C21.4684 11.6608 21.8804 11.6023 22.2526 11.7321L32.345 15.2518C34.1749 15.1306 36.0186 15.6327 37.5329 17.199C39.0169 18.7339 39.5275 20.5381 39.4417 22.3311L42.9707 32.4503C43.1005 32.8225 43.042 33.2345 42.8138 33.5559C42.5855 33.8772 42.2157 34.0681 41.8215 34.0681L32.6831 34.0681L29.4263 37.325C28.9552 35.8535 27.5761 34.7882 25.9483 34.7882C23.9318 34.7882 22.2971 36.4229 22.2971 38.4394C22.2971 40.0673 23.3624 41.4463 24.8338 41.9175L20.2066 46.5447C19.7083 47.043 19.5691 47.4845 19.5581 47.7889C19.5469 48.101 19.6642 48.3691 19.8538 48.5589C20.0434 48.7487 20.3108 48.8659 20.6221 48.8547C20.9258 48.8439 21.3676 48.7048 21.8672 48.2052C22.3425 47.7299 23.1131 47.7299 23.5884 48.2052C24.0637 48.6805 24.0637 49.4511 23.5884 49.9264C22.7242 50.7906 21.721 51.251 20.7094 51.2873C19.7054 51.3233 18.7872 50.9354 18.1317 50.2792C17.4763 49.6231 17.0894 48.7047 17.1255 47.7012C17.162 46.69 17.6219 45.687 18.4854 44.8235L22.4224 40.8865L21.6803 40.1444C19.6468 42.0278 18.2083 42.821 16.9062 43.4759L16.6 43.6291C15.3591 44.2483 14.3218 44.766 12.8126 46.2752C12.3333 46.7545 12.2063 47.192 12.2071 47.5144C12.208 47.8536 12.35 48.178 12.5949 48.4229C12.8398 48.6678 13.1642 48.8098 13.5034 48.8107C13.8258 48.8115 14.2633 48.6845 14.7426 48.2052C15.2179 47.7299 15.9885 47.7299 16.4638 48.2052C16.9391 48.6805 16.9391 49.4511 16.4638 49.9264C15.5809 50.8093 14.5404 51.2475 13.4971 51.2448C12.4707 51.2422 11.5416 50.812 10.8737 50.1441C10.2058 49.4762 9.77562 48.5471 9.77297 47.5207C9.77028 46.4774 10.2085 45.4369 11.0914 44.554C12.8824 42.763 14.2091 42.1014 15.5087 41.4532C15.61 41.4027 15.7112 41.3522 15.8125 41.3013C16.9375 40.7355 18.1624 40.0733 19.9577 38.4218L16.5424 35.0065C14.9468 36.7864 14.366 38.0931 13.7682 39.4454L13.7566 39.4718C13.0112 41.1581 12.2301 42.925 9.76991 45.3854C8.88846 46.2669 7.84873 46.703 6.80639 46.6986C5.78129 46.6942 4.85382 46.2631 4.18683 45.5961C3.51984 44.9291 3.08871 44.0016 3.08431 42.9765C3.07983 41.9342 3.516 40.8944 4.39747 40.013C4.87276 39.5377 5.64337 39.5377 6.11867 40.013C6.59397 40.4883 6.59396 41.2589 6.11867 41.7342C5.64262 42.2102 5.51706 42.645 5.51843 42.9661C5.51989 43.3043 5.6622 43.6291 5.90803 43.8749C6.15385 44.1207 6.47857 44.263 6.81682 44.2645C7.13783 44.2658 7.57263 44.1403 8.04867 43.6642C10.188 41.5247 10.829 40.0743 11.5166 38.5185L11.5419 38.4613C12.2058 36.9593 12.9183 35.3789 14.819 33.2831L13.8164 32.2805L9.70846 36.3884C8.05481 38.042 5.80842 37.7463 4.52127 36.5013C3.87688 35.878 3.44458 34.9959 3.45148 33.992C3.45845 32.9774 3.91156 31.9794 4.77643 31.1145C5.25172 30.6392 6.02233 30.6392 6.49763 31.1145C6.97293 31.5898 6.97293 32.3604 6.49763 32.8357C5.99883 33.3345 5.88737 33.7464 5.88557 34.0088C5.88369 34.2818 5.99841 34.5436 6.21356 34.7517C6.64546 35.1694 7.36814 35.2863 7.98725 34.6672L12.7595 29.8949C13.2536 31.3261 14.6126 32.3541 16.2117 32.3541C18.2282 32.3541 19.8629 30.7194 19.8629 28.7029C19.8629 27.1038 18.8349 25.7448 17.4038 25.2507L20.6347 22.0197L20.6347 12.8813C20.6347 12.4871 20.8256 12.1174 21.147 11.8891ZM23.0689 19.7939C23.4862 19.4502 23.9547 19.0814 24.4628 18.7083C25.5396 17.9176 26.8476 17.0669 28.2602 16.4052L23.0689 14.5947L23.0689 19.7939ZM34.9468 31.634L40.1081 31.634L38.3162 26.4959C37.6615 27.9065 36.8134 29.2042 36.0224 30.2701C35.6537 30.767 35.2885 31.2251 34.9468 31.634Z" fill="#7730E2"/>
<path d="M17.4288 28.7029C17.4288 29.375 16.8839 29.9199 16.2117 29.9199C15.5395 29.9199 14.9946 29.375 14.9946 28.7029C14.9946 28.0307 15.5395 27.4858 16.2117 27.4858C16.8839 27.4858 17.4288 28.0307 17.4288 28.7029Z" fill="#7730E2"/>
<path d="M27.1654 38.4394C27.1654 39.1116 26.6205 39.6565 25.9483 39.6565C25.2761 39.6565 24.7312 39.1116 24.7312 38.4394C24.7312 37.7673 25.2761 37.2224 25.9483 37.2224C26.6205 37.2224 27.1654 37.7673 27.1654 38.4394Z" fill="#7730E2"/>
<path d="M51.9396 30.0496V21.5617C51.9396 20.374 52.1865 19.353 52.6803 18.4989C53.1874 17.6314 53.8747 16.9641 54.7422 16.497C55.623 16.0299 56.6306 15.7964 57.765 15.7964C58.8994 15.7964 59.9003 16.0299 60.7678 16.497C61.6486 16.9641 62.3359 17.6314 62.8297 18.4989C63.3368 19.353 63.5904 20.374 63.5904 21.5617V30.0496H60.7277V21.3816C60.7277 20.821 60.6076 20.3072 60.3674 19.8401C60.1272 19.373 59.7869 19.006 59.3465 18.7391C58.9061 18.4588 58.3789 18.3187 57.765 18.3187C57.1644 18.3187 56.6373 18.4588 56.1835 18.7391C55.7431 19.006 55.4028 19.373 55.1626 19.8401C54.9224 20.3072 54.8023 20.821 54.8023 21.3816V30.0496H51.9396Z" fill="#7730E2"/>
<path d="M60.7277 30.0496V21.5617C60.7277 20.374 60.9746 19.353 61.4684 18.4989C61.9756 17.6314 62.6629 16.9641 63.5303 16.497C64.4111 16.0299 65.4187 15.7964 66.5531 15.7964C67.6875 15.7964 68.6884 16.0299 69.5559 16.497C70.4367 16.9641 71.124 17.6314 71.6178 18.4989C72.1249 19.353 72.3785 20.374 72.3785 21.5617V30.0496H69.5159V21.3816C69.5159 20.821 69.3958 20.3072 69.1555 19.8401C68.9153 19.373 68.575 19.006 68.1346 18.7391C67.6942 18.4588 67.167 18.3187 66.5531 18.3187C65.9526 18.3187 65.4254 18.4588 64.9717 18.7391C64.5313 19.006 64.1909 19.373 63.9507 19.8401C63.7105 20.3072 63.5904 20.821 63.5904 21.3816L63.5904 30.0496H60.7277Z" fill="#7730E2"/>
<path d="M141.741 30.1856C140.967 30.1856 140.26 29.9987 139.619 29.6251C138.992 29.2514 138.491 28.7509 138.118 28.1237C137.744 27.4831 137.557 26.7757 137.557 26.0017C137.557 25.4412 137.677 24.914 137.917 24.4202C138.158 23.9264 138.485 23.4927 138.898 23.119C138.485 22.7454 138.158 22.3116 137.917 21.8178C137.677 21.324 137.557 20.8036 137.557 20.2564C137.557 19.4957 137.737 18.8084 138.098 18.1945C138.471 17.5806 138.965 17.0935 139.579 16.7331C140.206 16.3594 140.893 16.1726 141.641 16.1726H147.406V18.6949H141.961C141.681 18.6949 141.421 18.7683 141.18 18.9151C140.954 19.0486 140.767 19.2354 140.62 19.4757C140.486 19.7025 140.42 19.9628 140.42 20.2564C140.42 20.5366 140.486 20.7969 140.62 21.0371C140.767 21.264 140.954 21.4508 141.18 21.5976C141.421 21.7311 141.681 21.7978 141.961 21.7978H146.726V24.3201H142.081C141.774 24.3201 141.494 24.4002 141.24 24.5604C140.987 24.7072 140.787 24.9074 140.64 25.1609C140.493 25.4145 140.42 25.6948 140.42 26.0017C140.42 26.3087 140.493 26.5889 140.64 26.8425C140.787 27.096 140.987 27.2962 141.24 27.443C141.494 27.5898 141.774 27.6632 142.081 27.6632H147.406V30.1856H141.741Z" fill="#7730E2"/>
<path d="M133.844 30.1856C133.017 30.1856 132.289 29.9987 131.662 29.6251C131.035 29.238 130.548 28.7309 130.201 28.1036C129.854 27.4631 129.68 26.7624 129.68 26.0017V18.6949H125.777V16.1726H136.446V18.6949H132.543V26.342C132.543 26.7023 132.67 27.016 132.923 27.2829C133.177 27.5365 133.484 27.6632 133.844 27.6632H139.305L141.982 30.1856H133.844Z" fill="#7730E2"/>
<path d="M122.43 18.6748C121.99 18.6748 121.603 18.5146 121.269 18.1943C120.949 17.874 120.789 17.487 120.789 17.0332C120.789 16.5795 120.949 16.1925 121.269 15.8722C121.603 15.5385 121.99 15.3717 122.43 15.3717C122.884 15.3717 123.271 15.5385 123.592 15.8722C123.925 16.1925 124.092 16.5795 124.092 17.0332C124.092 17.487 123.925 17.874 123.592 18.1943C123.271 18.5146 122.884 18.6748 122.43 18.6748ZM123.972 30.1854C123.064 30.1854 122.35 29.9252 121.83 29.4047C121.323 28.8842 121.069 28.1769 121.069 27.2827V19.976H123.812V27.2026C123.812 27.3761 123.872 27.5296 123.992 27.6631C124.125 27.7832 124.279 27.8432 124.452 27.8432H125.073V30.1854H123.972Z" fill="#7730E2"/>
<path d="M116.856 30.1856C116.028 30.1856 115.301 29.9987 114.674 29.6251C114.046 29.238 113.559 28.7309 113.212 28.1036C112.865 27.4631 112.692 26.7624 112.692 26.0017V18.6949H108.788V16.1726H119.458V18.6949H115.555V26.342C115.555 26.7023 115.681 27.016 115.935 27.2829C116.188 27.5365 116.495 27.6632 116.856 27.6632H117.857V30.1856H116.856Z" fill="#7730E2"/>
<path d="M99.5392 30.1856V27.6632H102.062V18.6949H99.5392V16.1726H108.913V18.6949H104.924V27.6632H107.447V30.1856H99.5392Z" fill="#7730E2"/>
<path d="M86.2346 30.1856V16.1726H92.5004C93.4213 16.1726 94.2554 16.3795 95.0028 16.7932C95.7635 17.1936 96.364 17.7541 96.8044 18.4747C97.2582 19.1954 97.4851 20.0362 97.4851 20.9971C97.4851 21.9313 97.2648 22.7587 96.8244 23.4794C96.384 24.1867 95.8035 24.7472 95.0828 25.1609L96.364 27.403C96.4174 27.4831 96.4841 27.5498 96.5642 27.6032C96.6443 27.6432 96.7377 27.6632 96.8445 27.6632H99.5541V30.1856H96.4041C95.8435 30.1856 95.3297 30.0454 94.8626 29.7652C94.4089 29.4849 94.0485 29.1179 93.7816 28.6642L92.2002 25.8215C92.0801 25.8215 91.9533 25.8215 91.8198 25.8215C91.6997 25.8215 91.5796 25.8215 91.4595 25.8215H89.0973V30.1856H86.2346ZM89.0973 23.2992H92.1601C92.6139 23.2992 93.0276 23.2125 93.4013 23.039C93.775 22.8521 94.0686 22.5852 94.2821 22.2382C94.509 21.8912 94.6224 21.4775 94.6224 20.9971C94.6224 20.5166 94.509 20.1029 94.2821 19.7559C94.0552 19.4089 93.7549 19.1487 93.3813 18.9752C93.0209 18.7884 92.6139 18.6949 92.1601 18.6949H89.0973V23.2992Z" fill="#7730E2"/>
<path d="M78.3621 30.1856C77.588 30.1856 76.8807 29.9987 76.2401 29.6251C75.6128 29.2514 75.1124 28.7509 74.7387 28.1237C74.365 27.4831 74.1782 26.7757 74.1782 26.0017C74.1782 25.4412 74.2983 24.914 74.5385 24.4202C74.7787 23.9264 75.1057 23.4927 75.5194 23.119C75.1057 22.7454 74.7787 22.3116 74.5385 21.8178C74.2983 21.324 74.1782 20.8036 74.1782 20.2564C74.1782 19.4957 74.3583 18.8084 74.7187 18.1945C75.0924 17.5806 75.5861 17.0935 76.2001 16.7331C76.8273 16.3594 77.5146 16.1726 78.262 16.1726H84.0273V18.6949H78.5823C78.302 18.6949 78.0418 18.7683 77.8015 18.9151C77.5747 19.0486 77.3878 19.2354 77.241 19.4757C77.1076 19.7025 77.0408 19.9628 77.0408 20.2564C77.0408 20.5366 77.1076 20.7969 77.241 21.0371C77.3878 21.264 77.5747 21.4508 77.8015 21.5976C78.0418 21.7311 78.302 21.7978 78.5823 21.7978H83.3467V24.3201H78.7024C78.3954 24.3201 78.1152 24.4002 77.8616 24.5604C77.608 24.7072 77.4078 24.9074 77.261 25.1609C77.1142 25.4145 77.0408 25.6947 77.0408 26.0017C77.0408 26.3087 77.1142 26.5889 77.261 26.8425C77.4078 27.096 77.608 27.2962 77.8616 27.443C78.1152 27.5898 78.3954 27.6632 78.7024 27.6632H84.0273V30.1856H78.3621Z" fill="#7730E2"/>
<path d="M96.279 48.9754V40.4875C96.279 39.2997 96.5259 38.2788 97.0196 37.4247C97.5268 36.5572 98.2141 35.8899 99.0815 35.4228C99.9624 34.9557 100.97 34.7222 102.104 34.7222C103.239 34.7222 104.24 34.9557 105.107 35.4228C105.988 35.8899 106.675 36.5572 107.169 37.4247C107.676 38.2788 107.93 39.2997 107.93 40.4875V48.9754H105.067V40.3073C105.067 39.7468 104.947 39.233 104.707 38.7659C104.467 38.2988 104.126 37.9318 103.686 37.6649C103.245 37.3846 102.718 37.2445 102.104 37.2445C101.504 37.2445 100.977 37.3846 100.523 37.6649C100.082 37.9318 99.7422 38.2988 99.5019 38.7659C99.2617 39.233 99.1416 39.7468 99.1416 40.3073V48.9754H96.279Z" fill="#7730E2"/>
<path d="M87.0316 49.2357C85.9105 49.2357 84.8962 49.0489 83.9887 48.6752C83.0946 48.2882 82.3272 47.761 81.6866 47.0937C81.046 46.4265 80.5522 45.6524 80.2052 44.7716C79.8583 43.8908 79.6848 42.9499 79.6848 41.949C79.6848 40.948 79.8583 40.0139 80.2052 39.1464C80.5522 38.2656 81.046 37.4915 81.6866 36.8242C82.3272 36.157 83.0946 35.6365 83.9887 35.2628C84.8962 34.8891 85.9105 34.7023 87.0316 34.7023C88.1526 34.7023 89.1602 34.8891 90.0544 35.2628C90.9619 35.6365 91.7359 36.157 92.3765 36.8242C93.0171 37.4915 93.5109 38.2656 93.8579 39.1464C94.2049 40.0139 94.3784 40.948 94.3784 41.949C94.3784 42.9499 94.2049 43.8908 93.8579 44.7716C93.5109 45.6524 93.0171 46.4265 92.3765 47.0937C91.7359 47.761 90.9619 48.2882 90.0544 48.6752C89.1602 49.0489 88.1526 49.2357 87.0316 49.2357ZM87.0316 46.6934C87.6721 46.6934 88.266 46.5799 88.8132 46.353C89.3604 46.1128 89.8342 45.7792 90.2345 45.3521C90.6482 44.9117 90.9619 44.4046 91.1754 43.8307C91.4023 43.2569 91.5157 42.6296 91.5157 41.949C91.5157 41.2683 91.4023 40.6411 91.1754 40.0672C90.9619 39.4934 90.6482 38.9929 90.2345 38.5658C89.8342 38.1388 89.3604 37.8118 88.8132 37.5849C88.266 37.3447 87.6721 37.2246 87.0316 37.2246C86.391 37.2246 85.7971 37.3447 85.2499 37.5849C84.7027 37.8118 84.2223 38.1388 83.8086 38.5658C83.4082 38.9929 83.0946 39.4934 82.8677 40.0672C82.6542 40.6411 82.5474 41.2683 82.5474 41.949C82.5474 42.6296 82.6542 43.2569 82.8677 43.8307C83.0946 44.4046 83.4082 44.9117 83.8086 45.3521C84.2223 45.7792 84.7027 46.1128 85.2499 46.353C85.7971 46.5799 86.391 46.6934 87.0316 46.6934Z" fill="#7730E2"/>
<path d="M57.765 49.2353C56.6306 49.2353 55.623 49.0018 54.7422 48.5347C53.8747 48.0676 53.1874 47.407 52.6803 46.5529C52.1865 45.6854 51.9396 44.6578 51.9396 43.47V34.9822H54.8023V43.6502C54.8023 44.2107 54.9224 44.7245 55.1626 45.1916C55.4028 45.6454 55.7431 46.0124 56.1835 46.2926C56.6373 46.5729 57.1644 46.713 57.765 46.713C58.3789 46.713 58.9061 46.5729 59.3465 46.2926C59.7869 46.0124 60.1272 45.6454 60.3674 45.1916C60.6076 44.7245 60.7277 44.2107 60.7277 43.6502V39.9868H63.5904V43.47C63.5904 44.6578 63.3368 45.6854 62.8297 46.5529C62.3359 47.407 61.6486 48.0676 60.7678 48.5347C59.9003 49.0018 58.8994 49.2353 57.765 49.2353Z" fill="#7730E2"/>
<path d="M60.7277 43.6502V40.1669C60.7277 38.9792 60.9746 37.9582 61.4684 37.1041C61.9756 36.2366 62.6629 35.5694 63.5303 35.1023C64.4111 34.6352 65.4188 34.4016 66.5531 34.4016C67.6875 34.4016 68.6884 34.6352 69.5559 35.1023C70.4367 35.5694 71.124 36.2366 71.6178 37.1041C72.1249 37.9582 72.3785 38.9792 72.3785 40.1669V49.1147H69.5159V39.9868C69.5159 39.4263 69.3958 38.9125 69.1555 38.4454C68.9153 37.9783 68.575 37.6112 68.1346 37.3443C67.6942 37.0641 67.167 36.9239 66.5531 36.9239C65.9526 36.9239 65.4254 37.0641 64.9717 37.3443C64.5313 37.6112 64.1909 37.9783 63.9507 38.4454C63.7105 38.9125 63.5904 39.4263 63.5904 39.9868L63.5904 43.6502L60.7277 43.6502Z" fill="#7730E2"/>
<path d="M76.0785 37.6748C75.6381 37.6748 75.2511 37.5146 74.9175 37.1943C74.5972 36.874 74.437 36.487 74.437 36.0332C74.437 35.5795 74.5972 35.1925 74.9175 34.8722C75.2511 34.5385 75.6381 34.3717 76.0785 34.3717C76.5323 34.3717 76.9193 34.5385 77.2396 34.8722C77.5732 35.1925 77.7401 35.5795 77.7401 36.0332C77.7401 36.487 77.5732 36.874 77.2396 37.1943C76.9193 37.5146 76.5323 37.6748 76.0785 37.6748ZM77.62 49.1854C76.7125 49.1854 75.9985 48.9252 75.478 48.4047C74.9708 47.8842 74.7173 47.1769 74.7173 46.2827V38.976H77.4598V46.2026C77.4598 46.3761 77.5199 46.5296 77.64 46.6631C77.7734 46.7832 77.9269 46.8432 78.1004 46.8432H78.721V49.1854H77.62Z" fill="#7730E2"/>
</svg>
