<svg width="97" height="35" viewBox="0 0 97 35" fill="none" xmlns="http://www.w3.org/2000/svg">
<path d="M0.552979 15.4061V6.91829C0.552979 5.73052 0.799874 4.70958 1.29366 3.85545C1.8008 2.98798 2.4881 2.3207 3.35557 1.8536C4.23639 1.3865 5.24399 1.15295 6.37837 1.15295C7.51275 1.15295 8.51368 1.3865 9.38115 1.8536C10.262 2.3207 10.9493 2.98798 11.4431 3.85545C11.9502 4.70958 12.2038 5.73052 12.2038 6.91829V15.4061H9.3411V6.73812C9.3411 6.1776 9.221 5.66379 8.98078 5.19669C8.74056 4.7296 8.40024 4.36259 7.95983 4.09568C7.51943 3.81542 6.99227 3.67529 6.37837 3.67529C5.77781 3.67529 5.25066 3.81542 4.79691 4.09568C4.3565 4.36259 4.01619 4.7296 3.77597 5.19669C3.53574 5.66379 3.41563 6.1776 3.41563 6.73812V15.4061H0.552979Z" fill="#8E53E8"/>
<path d="M9.3411 15.4061V6.91829C9.3411 5.73052 9.588 4.70958 10.0818 3.85545C10.5889 2.98798 11.2762 2.3207 12.1437 1.8536C13.0245 1.3865 14.0321 1.15295 15.1665 1.15295C16.3009 1.15295 17.3018 1.3865 18.1693 1.8536C19.0501 2.3207 19.7374 2.98798 20.2312 3.85545C20.7383 4.70958 20.9919 5.73052 20.9919 6.91829V15.4061H18.1292V6.73812C18.1292 6.1776 18.0091 5.66379 17.7689 5.19669C17.5287 4.7296 17.1884 4.36259 16.748 4.09568C16.3076 3.81542 15.7804 3.67529 15.1665 3.67529C14.5659 3.67529 14.0388 3.81542 13.585 4.09568C13.1446 4.36259 12.8043 4.7296 12.5641 5.19669C12.3239 5.66379 12.2038 6.1776 12.2038 6.73812L12.2038 15.4061H9.3411Z" fill="#8E53E8"/>
<path d="M90.3543 15.5421C89.5803 15.5421 88.873 15.3553 88.2324 14.9816C87.6051 14.6079 87.1047 14.1075 86.731 13.4802C86.3573 12.8396 86.1705 12.1323 86.1705 11.3583C86.1705 10.7977 86.2906 10.2706 86.5308 9.7768C86.771 9.28301 87.098 8.84928 87.5117 8.4756C87.098 8.10192 86.771 7.66819 86.5308 7.1744C86.2906 6.68061 86.1705 6.16013 86.1705 5.61295C86.1705 4.85225 86.3506 4.16495 86.711 3.55105C87.0846 2.93714 87.5784 2.45003 88.1923 2.08969C88.8196 1.71601 89.5069 1.52917 90.2542 1.52917H96.0196V4.05151H90.5745C90.2943 4.05151 90.034 4.12491 89.7938 4.27171C89.5669 4.40517 89.3801 4.59201 89.2333 4.83223C89.0998 5.05911 89.0331 5.31935 89.0331 5.61295C89.0331 5.89321 89.0998 6.15345 89.2333 6.39368C89.3801 6.62055 89.5669 6.80739 89.7938 6.95419C90.034 7.08765 90.2943 7.15438 90.5745 7.15438H95.3389V9.67671H90.6946C90.3877 9.67671 90.1074 9.75679 89.8539 9.91693C89.6003 10.0637 89.4001 10.2639 89.2533 10.5175C89.1065 10.7711 89.0331 11.0513 89.0331 11.3583C89.0331 11.6652 89.1065 11.9455 89.2533 12.199C89.4001 12.4526 89.6003 12.6528 89.8539 12.7996C90.1074 12.9464 90.3877 13.0198 90.6946 13.0198H96.0196V15.5421H90.3543Z" fill="#8E53E8"/>
<path d="M82.4575 15.5421C81.6301 15.5421 80.9027 15.3553 80.2755 14.9816C79.6482 14.5946 79.1611 14.0875 78.8141 13.4602C78.4671 12.8196 78.2936 12.119 78.2936 11.3583V4.05151H74.39V1.52917H85.0599V4.05151H81.1563V11.6986C81.1563 12.0589 81.2831 12.3725 81.5366 12.6395C81.7902 12.893 82.0972 13.0198 82.4575 13.0198H87.9185L90.5951 15.5421H82.4575Z" fill="#8E53E8"/>
<path d="M71.0438 4.03133C70.6034 4.03133 70.2164 3.87118 69.8828 3.55088C69.5625 3.23059 69.4023 2.84356 69.4023 2.38981C69.4023 1.93606 69.5625 1.54903 69.8828 1.22873C70.2164 0.895092 70.6034 0.728271 71.0438 0.728271C71.4976 0.728271 71.8846 0.895092 72.2049 1.22873C72.5385 1.54903 72.7054 1.93606 72.7054 2.38981C72.7054 2.84356 72.5385 3.23059 72.2049 3.55088C71.8846 3.87118 71.4976 4.03133 71.0438 4.03133ZM72.5853 15.542C71.6778 15.542 70.9638 15.2817 70.4433 14.7613C69.9361 14.2408 69.6826 13.5335 69.6826 12.6393V5.33253H72.4251V12.5592C72.4251 12.7327 72.4852 12.8862 72.6053 13.0196C72.7387 13.1398 72.8922 13.1998 73.0657 13.1998H73.6863V15.542H72.5853Z" fill="#8E53E8"/>
<path d="M65.4691 15.5421C64.6417 15.5421 63.9144 15.3553 63.2871 14.9816C62.6599 14.5946 62.1728 14.0875 61.8258 13.4602C61.4788 12.8196 61.3053 12.119 61.3053 11.3583V4.05151H57.4017V1.52917H68.0715V4.05151H64.1679V11.6986C64.1679 12.0589 64.2947 12.3725 64.5483 12.6395C64.8019 12.893 65.1088 13.0198 65.4691 13.0198H66.4701V15.5421H65.4691Z" fill="#8E53E8"/>
<path d="M48.1526 15.5421V13.0198H50.675V4.05151H48.1526V1.52917H57.526V4.05151H53.5376V13.0198H56.0599V15.5421H48.1526Z" fill="#8E53E8"/>
<path d="M34.848 15.5421V1.52917H41.1138C42.0346 1.52917 42.8687 1.73603 43.6161 2.14975C44.3768 2.55012 44.9773 3.11064 45.4178 3.8313C45.8715 4.55197 46.0984 5.39275 46.0984 6.35364C46.0984 7.28784 45.8782 8.11527 45.4378 8.83593C44.9974 9.54326 44.4168 10.1038 43.6962 10.5175L44.9773 12.7596C45.0307 12.8396 45.0975 12.9064 45.1775 12.9597C45.2576 12.9998 45.351 13.0198 45.4578 13.0198H48.1674V15.5421H45.0174C44.4569 15.5421 43.9431 15.402 43.476 15.1217C43.0222 14.8415 42.6619 14.4745 42.395 14.0207L40.8135 11.1781C40.6934 11.1781 40.5666 11.1781 40.4331 11.1781C40.313 11.1781 40.1929 11.1781 40.0728 11.1781H37.7106V15.5421H34.848ZM37.7106 8.65577H40.7735C41.2272 8.65577 41.6409 8.56902 42.0146 8.39553C42.3883 8.20869 42.6819 7.94177 42.8954 7.59479C43.1223 7.2478 43.2357 6.83408 43.2357 6.35364C43.2357 5.87319 43.1223 5.45948 42.8954 5.11249C42.6685 4.7655 42.3683 4.50526 41.9946 4.33177C41.6343 4.14493 41.2272 4.05151 40.7735 4.05151H37.7106V8.65577Z" fill="#8E53E8"/>
<path d="M26.9754 15.5421C26.2013 15.5421 25.494 15.3553 24.8534 14.9816C24.2262 14.6079 23.7257 14.1075 23.352 13.4802C22.9784 12.8396 22.7915 12.1323 22.7915 11.3583C22.7915 10.7977 22.9116 10.2706 23.1519 9.7768C23.3921 9.28301 23.719 8.84928 24.1328 8.4756C23.719 8.10192 23.3921 7.66819 23.1519 7.1744C22.9116 6.68061 22.7915 6.16013 22.7915 5.61295C22.7915 4.85225 22.9717 4.16495 23.332 3.55105C23.7057 2.93714 24.1995 2.45003 24.8134 2.08969C25.4406 1.71601 26.1279 1.52917 26.8753 1.52917H32.6406V4.05151H27.1956C26.9153 4.05151 26.6551 4.12491 26.4149 4.27171C26.188 4.40517 26.0012 4.59201 25.8544 4.83223C25.7209 5.05911 25.6542 5.31935 25.6542 5.61295C25.6542 5.89321 25.7209 6.15345 25.8544 6.39368C26.0012 6.62055 26.188 6.80739 26.4149 6.95419C26.6551 7.08765 26.9153 7.15438 27.1956 7.15438H31.96V9.67671H27.3157C27.0088 9.67671 26.7285 9.75679 26.4749 9.91693C26.2214 10.0637 26.0212 10.2639 25.8744 10.5175C25.7276 10.7711 25.6542 11.0513 25.6542 11.3583C25.6542 11.6652 25.7276 11.9455 25.8744 12.199C26.0212 12.4526 26.2214 12.6528 26.4749 12.7996C26.7285 12.9464 27.0088 13.0198 27.3157 13.0198H32.6406V15.5421H26.9754Z" fill="#8E53E8"/>
<path d="M44.8923 34.3319V25.8441C44.8923 24.6563 45.1392 23.6354 45.633 22.7812C46.1401 21.9138 46.8274 21.2465 47.6949 20.7794C48.5757 20.3123 49.5833 20.0787 50.7177 20.0787C51.8521 20.0787 52.853 20.3123 53.7205 20.7794C54.6013 21.2465 55.2886 21.9138 55.7824 22.7812C56.2895 23.6354 56.5431 24.6563 56.5431 25.8441V34.3319H53.6804V25.6639C53.6804 25.1034 53.5603 24.5896 53.3201 24.1225C53.0799 23.6554 52.7396 23.2884 52.2992 23.0215C51.8588 22.7412 51.3316 22.6011 50.7177 22.6011C50.1172 22.6011 49.59 22.7412 49.1362 23.0215C48.6958 23.2884 48.3555 23.6554 48.1153 24.1225C47.8751 24.5896 47.755 25.1034 47.755 25.6639V34.3319H44.8923Z" fill="#8E53E8"/>
<path d="M35.6449 34.5923C34.5239 34.5923 33.5096 34.4054 32.6021 34.0318C31.7079 33.6447 30.9406 33.1176 30.3 32.4503C29.6594 31.783 29.1656 31.009 28.8186 30.1282C28.4716 29.2473 28.2981 28.3065 28.2981 27.3055C28.2981 26.3046 28.4716 25.3704 28.8186 24.5029C29.1656 23.6221 29.6594 22.8481 30.3 22.1808C30.9406 21.5135 31.7079 20.993 32.6021 20.6194C33.5096 20.2457 34.5239 20.0588 35.6449 20.0588C36.766 20.0588 37.7736 20.2457 38.6677 20.6194C39.5752 20.993 40.3493 21.5135 40.9899 22.1808C41.6305 22.8481 42.1242 23.6221 42.4712 24.5029C42.8182 25.3704 42.9917 26.3046 42.9917 27.3055C42.9917 28.3065 42.8182 29.2473 42.4712 30.1282C42.1242 31.009 41.6305 31.783 40.9899 32.4503C40.3493 33.1176 39.5752 33.6447 38.6677 34.0318C37.7736 34.4054 36.766 34.5923 35.6449 34.5923ZM35.6449 32.0499C36.2855 32.0499 36.8794 31.9365 37.4266 31.7096C37.9737 31.4694 38.4475 31.1358 38.8479 30.7087C39.2616 30.2683 39.5752 29.7611 39.7888 29.1873C40.0156 28.6134 40.1291 27.9862 40.1291 27.3055C40.1291 26.6249 40.0156 25.9977 39.7888 25.4238C39.5752 24.8499 39.2616 24.3495 38.8479 23.9224C38.4475 23.4954 37.9737 23.1684 37.4266 22.9415C36.8794 22.7013 36.2855 22.5812 35.6449 22.5812C35.0043 22.5812 34.4104 22.7013 33.8633 22.9415C33.3161 23.1684 32.8357 23.4954 32.4219 23.9224C32.0216 24.3495 31.7079 24.8499 31.4811 25.4238C31.2675 25.9977 31.1608 26.6249 31.1608 27.3055C31.1608 27.9862 31.2675 28.6134 31.4811 29.1873C31.7079 29.7611 32.0216 30.2683 32.4219 30.7087C32.8357 31.1358 33.3161 31.4694 33.8633 31.7096C34.4104 31.9365 35.0043 32.0499 35.6449 32.0499Z" fill="#8E53E8"/>
<path d="M6.37837 34.5919C5.24399 34.5919 4.23639 34.3584 3.35557 33.8913C2.4881 33.4242 1.8008 32.7636 1.29366 31.9094C0.799874 31.042 0.552979 30.0143 0.552979 28.8266V20.3387H3.41563V29.0067C3.41563 29.5673 3.53574 30.0811 3.77596 30.5482C4.01619 31.0019 4.3565 31.3689 4.79691 31.6492C5.25066 31.9295 5.77781 32.0696 6.37837 32.0696C6.99227 32.0696 7.51943 31.9295 7.95983 31.6492C8.40024 31.3689 8.74056 31.0019 8.98078 30.5482C9.221 30.0811 9.34111 29.5673 9.34111 29.0067V25.3434H12.2038V28.8266C12.2038 30.0143 11.9502 31.042 11.4431 31.9094C10.9493 32.7636 10.262 33.4242 9.38114 33.8913C8.51367 34.3584 7.51275 34.5919 6.37837 34.5919Z" fill="#8E53E8"/>
<path d="M9.34111 29.0067V25.5235C9.34111 24.3357 9.58801 23.3148 10.0818 22.4607C10.5889 21.5932 11.2762 20.9259 12.1437 20.4588C13.0245 19.9917 14.0321 19.7582 15.1665 19.7582C16.3009 19.7582 17.3018 19.9917 18.1693 20.4588C19.0501 20.9259 19.7374 21.5932 20.2312 22.4607C20.7383 23.3148 20.9919 24.3357 20.9919 25.5235V34.4713H18.1292V25.3433C18.1292 24.7828 18.0091 24.269 17.7689 23.8019C17.5287 23.3348 17.1884 22.9678 16.748 22.7009C16.3076 22.4206 15.7804 22.2805 15.1665 22.2805C14.566 22.2805 14.0388 22.4206 13.585 22.7009C13.1446 22.9678 12.8043 23.3348 12.5641 23.8019C12.3239 24.269 12.2038 24.7828 12.2038 25.3434L12.2038 29.0067L9.34111 29.0067Z" fill="#8E53E8"/>
<path d="M24.6919 23.0313C24.2515 23.0313 23.8645 22.8712 23.5308 22.5509C23.2105 22.2306 23.0504 21.8436 23.0504 21.3898C23.0504 20.9361 23.2105 20.549 23.5308 20.2287C23.8645 19.8951 24.2515 19.7283 24.6919 19.7283C25.1457 19.7283 25.5327 19.8951 25.853 20.2287C26.1866 20.549 26.3534 20.9361 26.3534 21.3898C26.3534 21.8436 26.1866 22.2306 25.853 22.5509C25.5327 22.8712 25.1457 23.0313 24.6919 23.0313ZM26.2333 34.542C25.3258 34.542 24.6118 34.2817 24.0913 33.7613C23.5842 33.2408 23.3306 32.5335 23.3306 31.6393V24.3325H26.0732V31.5592C26.0732 31.7327 26.1332 31.8862 26.2533 32.0196C26.3868 32.1398 26.5403 32.1998 26.7138 32.1998H27.3343V34.542H26.2333Z" fill="#8E53E8"/>
</svg>
