<svg width="53" height="53" viewBox="0 0 53 53" fill="none" xmlns="http://www.w3.org/2000/svg">
<path fill-rule="evenodd" clip-rule="evenodd" d="M25.3503 5.57062C25.6717 5.34235 26.0837 5.28386 26.4559 5.41366L36.5483 8.93335C38.3782 8.8121 40.2219 9.31421 41.7362 10.8805C43.2202 12.4154 43.7308 14.2196 43.645 16.0126L47.174 26.1318C47.3038 26.504 47.2453 26.916 47.0171 27.2374C46.7888 27.5587 46.419 27.7497 46.0248 27.7497L36.8864 27.7497L33.6296 31.0065C33.1585 29.535 31.7794 28.4697 30.1516 28.4697C28.1351 28.4697 26.5004 30.1044 26.5004 32.121C26.5004 33.7488 27.5657 35.1279 29.0371 35.599L24.4099 40.2262C23.9116 40.7245 23.7724 41.1661 23.7614 41.4704C23.7502 41.7825 23.8675 42.0507 24.0571 42.2405C24.2467 42.4302 24.5141 42.5474 24.8254 42.5363C25.1291 42.5254 25.5709 42.3863 26.0705 41.8867C26.5458 41.4115 27.3164 41.4115 27.7917 41.8867C28.267 42.362 28.267 43.1327 27.7917 43.608C26.9275 44.4721 25.9243 44.9326 24.9127 44.9688C23.9087 45.0049 22.9905 44.6169 22.335 43.9607C21.6796 43.3046 21.2927 42.3862 21.3288 41.3827C21.3653 40.3715 21.8252 39.3685 22.6887 38.505L26.6257 34.568L25.8836 33.8259C23.8501 35.7093 22.4116 36.5025 21.1095 37.1574L20.8033 37.3106C19.5624 37.9298 18.5251 38.4475 17.0159 39.9567C16.5366 40.436 16.4096 40.8735 16.4104 41.1959C16.4113 41.5351 16.5533 41.8595 16.7982 42.1044C17.0431 42.3493 17.3675 42.4913 17.7067 42.4922C18.0291 42.493 18.4666 42.366 18.9459 41.8867C19.4212 41.4115 20.1918 41.4115 20.6671 41.8867C21.1424 42.362 21.1424 43.1327 20.6671 43.608C19.7842 44.4908 18.7437 44.929 17.7004 44.9263C16.674 44.9237 15.7449 44.4935 15.077 43.8256C14.4091 43.1577 13.9789 42.2287 13.9763 41.2022C13.9736 40.1589 14.4118 39.1184 15.2947 38.2355C17.0857 36.4445 18.4124 35.7829 19.712 35.1347C19.8133 35.0842 19.9145 35.0337 20.0158 34.9828C21.1408 34.417 22.3657 33.7548 24.161 32.1034L20.7457 28.688C19.1501 30.4679 18.5693 31.7746 17.9715 33.127L17.9599 33.1533C17.2145 34.8396 16.4334 36.6066 13.9732 39.0669C13.0918 39.9484 12.052 40.3846 11.0097 40.3801C9.98459 40.3757 9.05712 39.9446 8.39013 39.2776C7.72314 38.6106 7.29201 37.6831 7.28761 36.658C7.28313 35.6157 7.7193 34.576 8.60077 33.6945C9.07606 33.2192 9.84667 33.2192 10.322 33.6945C10.7973 34.1698 10.7973 34.9404 10.322 35.4157C9.84592 35.8917 9.72036 36.3265 9.72173 36.6476C9.72319 36.9858 9.8655 37.3106 10.1113 37.5564C10.3572 37.8022 10.6819 37.9445 11.0201 37.946C11.3411 37.9473 11.7759 37.8218 12.252 37.3457C14.3913 35.2063 15.0323 33.7558 15.7199 32.2001L15.7452 32.1428C16.4091 30.6408 17.1216 29.0605 19.0223 26.9647L18.0197 25.962L13.9118 30.0699C12.2581 31.7236 10.0117 31.4278 8.72457 30.1828C8.08018 29.5595 7.64788 28.6774 7.65478 27.6735C7.66175 26.6589 8.11486 25.6609 8.97973 24.796C9.45502 24.3207 10.2256 24.3207 10.7009 24.796C11.1762 25.2713 11.1762 26.0419 10.7009 26.5172C10.2021 27.016 10.0907 27.4279 10.0889 27.6903C10.087 27.9634 10.2017 28.2251 10.4169 28.4332C10.8488 28.8509 11.5714 28.9678 12.1906 28.3487L16.9628 23.5765C17.4569 25.0076 18.8159 26.0356 20.415 26.0356C22.4315 26.0356 24.0662 24.4009 24.0662 22.3844C24.0662 20.7853 23.0382 19.4263 21.6071 18.9322L24.838 15.7012L24.838 6.56285C24.838 6.16867 25.0289 5.79889 25.3503 5.57062ZM27.2722 13.4754C27.6895 13.1317 28.158 12.7629 28.6661 12.3898C29.7429 11.5991 31.0509 10.7484 32.4635 10.0867L27.2722 8.27627L27.2722 13.4754ZM39.1501 25.3155L44.3114 25.3155L42.5195 20.1775C41.8648 21.5881 41.0167 22.8858 40.2257 23.9516C39.857 24.4485 39.4918 24.9066 39.1501 25.3155Z" fill="#FBFEF9"/>
<path d="M21.6321 22.3844C21.6321 23.0565 21.0872 23.6014 20.415 23.6014C19.7428 23.6014 19.1979 23.0565 19.1979 22.3844C19.1979 21.7122 19.7428 21.1673 20.415 21.1673C21.0872 21.1673 21.6321 21.7122 21.6321 22.3844Z" fill="#FBFEF9"/>
<path d="M31.3687 32.121C31.3687 32.7931 30.8238 33.338 30.1516 33.338C29.4794 33.338 28.9345 32.7931 28.9345 32.121C28.9345 31.4488 29.4794 30.9039 30.1516 30.9039C30.8238 30.9039 31.3687 31.4488 31.3687 32.121Z" fill="#FBFEF9"/>
</svg>
