<svg width="53" height="54" viewBox="0 0 53 54" fill="none" xmlns="http://www.w3.org/2000/svg">
<path fill-rule="evenodd" clip-rule="evenodd" d="M25.3503 6.00727C25.6717 5.779 26.0837 5.7205 26.4559 5.8503L36.5483 9.37C38.3782 9.24875 40.2219 9.75086 41.7362 11.3171C43.2202 12.852 43.7308 14.6563 43.645 16.4493L47.174 26.5684C47.3038 26.9406 47.2453 27.3527 47.0171 27.674C46.7888 27.9954 46.419 28.1863 46.0248 28.1863L36.8864 28.1863L33.6296 31.4431C33.1585 29.9717 31.7794 28.9064 30.1516 28.9064C28.1351 28.9064 26.5004 30.5411 26.5004 32.5576C26.5004 34.1855 27.5657 35.5645 29.0371 36.0356L24.4099 40.6628C23.9116 41.1611 23.7724 41.6027 23.7614 41.9071C23.7502 42.2191 23.8675 42.4873 24.0571 42.6771C24.2467 42.8668 24.5141 42.9841 24.8254 42.9729C25.1291 42.962 25.5709 42.8229 26.0705 42.3234C26.5458 41.8481 27.3164 41.8481 27.7917 42.3234C28.267 42.7987 28.267 43.5693 27.7917 44.0446C26.9275 44.9087 25.9243 45.3692 24.9127 45.4055C23.9087 45.4415 22.9905 45.0535 22.335 44.3974C21.6796 43.7413 21.2927 42.8229 21.3288 41.8194C21.3653 40.8082 21.8252 39.8052 22.6887 38.9416L26.6257 35.0047L25.8836 34.2625C23.8501 36.146 22.4116 36.9392 21.1095 37.594L20.8033 37.7473C19.5624 38.3665 18.5251 38.8842 17.0159 40.3934C16.5366 40.8727 16.4096 41.3102 16.4104 41.6326C16.4113 41.9718 16.5533 42.2961 16.7982 42.541C17.0431 42.7859 17.3675 42.928 17.7067 42.9289C18.0291 42.9297 18.4666 42.8027 18.9459 42.3234C19.4212 41.8481 20.1918 41.8481 20.6671 42.3234C21.1424 42.7987 21.1424 43.5693 20.6671 44.0446C19.7842 44.9275 18.7437 45.3657 17.7004 45.363C16.674 45.3603 15.7449 44.9301 15.077 44.2622C14.4091 43.5943 13.9789 42.6653 13.9763 41.6389C13.9736 40.5956 14.4118 39.5551 15.2947 38.6722C17.0857 36.8812 18.4124 36.2195 19.712 35.5714C19.8133 35.5208 19.9145 35.4703 20.0158 35.4194C21.1408 34.8536 22.3657 34.1915 24.161 32.54L20.7457 29.1246C19.1501 30.9046 18.5693 32.2112 17.9715 33.5636L17.9599 33.5899C17.2145 35.2763 16.4334 37.0432 13.9732 39.5035C13.0918 40.385 12.052 40.8212 11.0097 40.8167C9.98459 40.8124 9.05712 40.3812 8.39013 39.7142C7.72314 39.0473 7.29201 38.1198 7.28761 37.0947C7.28313 36.0523 7.7193 35.0126 8.60077 34.1311C9.07606 33.6558 9.84667 33.6558 10.322 34.1311C10.7973 34.6064 10.7973 35.377 10.322 35.8523C9.84592 36.3284 9.72036 36.7632 9.72173 37.0842C9.72319 37.4225 9.8655 37.7472 10.1113 37.993C10.3572 38.2389 10.6819 38.3812 11.0201 38.3826C11.3411 38.384 11.7759 38.2584 12.252 37.7824C14.3913 35.6429 15.0323 34.1924 15.7199 32.6367L15.7452 32.5795C16.4091 31.0775 17.1216 29.4971 19.0223 27.4013L18.0197 26.3986L13.9118 30.5066C12.2581 32.1602 10.0117 31.8644 8.72457 30.6195C8.08018 29.9962 7.64788 29.114 7.65478 28.1102C7.66175 27.0956 8.11486 26.0975 8.97973 25.2327C9.45502 24.7574 10.2256 24.7574 10.7009 25.2327C11.1762 25.708 11.1762 26.4786 10.7009 26.9539C10.2021 27.4527 10.0907 27.8646 10.0889 28.1269C10.087 28.4 10.2017 28.6617 10.4169 28.8698C10.8488 29.2876 11.5714 29.4045 12.1906 28.7854L16.9628 24.0131C17.4569 25.4443 18.8159 26.4722 20.415 26.4722C22.4315 26.4722 24.0662 24.8375 24.0662 22.821C24.0662 21.2219 23.0382 19.8629 21.6071 19.3688L24.838 16.1379L24.838 6.9995C24.838 6.60531 25.0289 6.23554 25.3503 6.00727ZM27.2722 13.912C27.6895 13.5683 28.158 13.1996 28.6661 12.8264C29.7429 12.0357 31.0509 11.185 32.4635 10.5234L27.2722 8.71291L27.2722 13.912ZM39.1501 25.7522L44.3114 25.7522L42.5195 20.6141C41.8648 22.0247 41.0167 23.3224 40.2257 24.3883C39.857 24.8851 39.4918 25.3432 39.1501 25.7522Z" fill="#7730E2"/>
<path d="M21.6321 22.821C21.6321 23.4932 21.0872 24.0381 20.415 24.0381C19.7428 24.0381 19.1979 23.4932 19.1979 22.821C19.1979 22.1488 19.7428 21.6039 20.415 21.6039C21.0872 21.6039 21.6321 22.1488 21.6321 22.821Z" fill="#7730E2"/>
<path d="M31.3687 32.5576C31.3687 33.2298 30.8238 33.7747 30.1516 33.7747C29.4794 33.7747 28.9345 33.2298 28.9345 32.5576C28.9345 31.8854 29.4794 31.3405 30.1516 31.3405C30.8238 31.3405 31.3687 31.8854 31.3687 32.5576Z" fill="#7730E2"/>
</svg>
