<svg width="97" height="35" viewBox="0 0 97 35" fill="none" xmlns="http://www.w3.org/2000/svg">
<path d="M0.552979 15.2703V6.78242C0.552979 5.59466 0.799874 4.57371 1.29366 3.71959C1.8008 2.85212 2.4881 2.18484 3.35557 1.71774C4.23639 1.25064 5.24399 1.01709 6.37837 1.01709C7.51275 1.01709 8.51368 1.25064 9.38115 1.71774C10.262 2.18484 10.9493 2.85212 11.4431 3.71959C11.9502 4.57371 12.2038 5.59466 12.2038 6.78242V15.2703H9.3411V6.60226C9.3411 6.04174 9.221 5.52793 8.98078 5.06083C8.74056 4.59373 8.40024 4.22673 7.95983 3.95981C7.51943 3.67955 6.99227 3.53942 6.37837 3.53942C5.77781 3.53942 5.25066 3.67955 4.79691 3.95981C4.3565 4.22673 4.01619 4.59373 3.77597 5.06083C3.53574 5.52793 3.41563 6.04174 3.41563 6.60226V15.2703H0.552979Z" fill="#7730E2"/>
<path d="M9.3411 15.2703V6.78242C9.3411 5.59466 9.588 4.57371 10.0818 3.71959C10.5889 2.85212 11.2762 2.18484 12.1437 1.71774C13.0245 1.25064 14.0321 1.01709 15.1665 1.01709C16.3009 1.01709 17.3018 1.25064 18.1693 1.71774C19.0501 2.18484 19.7374 2.85212 20.2312 3.71959C20.7383 4.57371 20.9919 5.59466 20.9919 6.78242V15.2703H18.1292V6.60226C18.1292 6.04174 18.0091 5.52793 17.7689 5.06083C17.5287 4.59373 17.1884 4.22673 16.748 3.95981C16.3076 3.67955 15.7804 3.53942 15.1665 3.53942C14.5659 3.53942 14.0388 3.67955 13.585 3.95981C13.1446 4.22673 12.8043 4.59373 12.5641 5.06083C12.3239 5.52793 12.2038 6.04174 12.2038 6.60226L12.2038 15.2703H9.3411Z" fill="#7730E2"/>
<path d="M90.3543 15.4063C89.5803 15.4063 88.873 15.2194 88.2324 14.8458C87.6051 14.4721 87.1047 13.9716 86.731 13.3444C86.3573 12.7038 86.1705 11.9965 86.1705 11.2224C86.1705 10.6619 86.2906 10.1347 86.5308 9.64094C86.771 9.14715 87.098 8.71342 87.5117 8.33974C87.098 7.96606 86.771 7.53232 86.5308 7.03853C86.2906 6.54474 86.1705 6.02426 86.1705 5.47709C86.1705 4.71639 86.3506 4.02908 86.711 3.41518C87.0846 2.80128 87.5784 2.31416 88.1923 1.95383C88.8196 1.58015 89.5069 1.39331 90.2542 1.39331H96.0196V3.91564H90.5745C90.2943 3.91564 90.034 3.98905 89.7938 4.13585C89.5669 4.2693 89.3801 4.45614 89.2333 4.69637C89.0998 4.92324 89.0331 5.18348 89.0331 5.47709C89.0331 5.75735 89.0998 6.01759 89.2333 6.25781C89.3801 6.48469 89.5669 6.67153 89.7938 6.81833C90.034 6.95179 90.2943 7.01851 90.5745 7.01851H95.3389V9.54085H90.6946C90.3877 9.54085 90.1074 9.62092 89.8539 9.78107C89.6003 9.92787 89.4001 10.1281 89.2533 10.3816C89.1065 10.6352 89.0331 10.9155 89.0331 11.2224C89.0331 11.5294 89.1065 11.8096 89.2533 12.0632C89.4001 12.3167 89.6003 12.5169 89.8539 12.6637C90.1074 12.8105 90.3877 12.8839 90.6946 12.8839H96.0196V15.4063H90.3543Z" fill="#7730E2"/>
<path d="M82.4575 15.4063C81.6301 15.4063 80.9027 15.2194 80.2755 14.8458C79.6482 14.4587 79.1611 13.9516 78.8141 13.3243C78.4671 12.6838 78.2936 11.9831 78.2936 11.2224V3.91564H74.39V1.39331H85.0599V3.91564H81.1563V11.5627C81.1563 11.9231 81.2831 12.2367 81.5366 12.5036C81.7902 12.7572 82.0972 12.8839 82.4575 12.8839H87.9185L90.5951 15.4063H82.4575Z" fill="#7730E2"/>
<path d="M71.0438 3.89546C70.6034 3.89546 70.2164 3.73531 69.8828 3.41502C69.5625 3.09472 69.4023 2.7077 69.4023 2.25394C69.4023 1.80019 69.5625 1.41317 69.8828 1.09287C70.2164 0.759228 70.6034 0.592407 71.0438 0.592407C71.4976 0.592407 71.8846 0.759228 72.2049 1.09287C72.5385 1.41317 72.7054 1.80019 72.7054 2.25394C72.7054 2.7077 72.5385 3.09472 72.2049 3.41502C71.8846 3.73531 71.4976 3.89546 71.0438 3.89546ZM72.5853 15.4061C71.6778 15.4061 70.9638 15.1459 70.4433 14.6254C69.9361 14.1049 69.6826 13.3976 69.6826 12.5034V5.19667H72.4251V12.4234C72.4251 12.5968 72.4852 12.7503 72.6053 12.8838C72.7387 13.0039 72.8922 13.0639 73.0657 13.0639H73.6863V15.4061H72.5853Z" fill="#7730E2"/>
<path d="M65.4691 15.4063C64.6417 15.4063 63.9144 15.2194 63.2871 14.8458C62.6599 14.4587 62.1728 13.9516 61.8258 13.3243C61.4788 12.6838 61.3053 11.9831 61.3053 11.2224V3.91564H57.4017V1.39331H68.0715V3.91564H64.1679V11.5627C64.1679 11.9231 64.2947 12.2367 64.5483 12.5036C64.8019 12.7572 65.1088 12.8839 65.4691 12.8839H66.4701V15.4063H65.4691Z" fill="#7730E2"/>
<path d="M48.1526 15.4063V12.8839H50.675V3.91564H48.1526V1.39331H57.526V3.91564H53.5376V12.8839H56.0599V15.4063H48.1526Z" fill="#7730E2"/>
<path d="M34.848 15.4063V1.39331H41.1138C42.0346 1.39331 42.8687 1.60017 43.6161 2.01388C44.3768 2.41425 44.9773 2.97477 45.4178 3.69544C45.8715 4.41611 46.0984 5.25688 46.0984 6.21777C46.0984 7.15197 45.8782 7.9794 45.4378 8.70007C44.9974 9.40739 44.4168 9.96791 43.6962 10.3816L44.9773 12.6237C45.0307 12.7038 45.0975 12.7705 45.1775 12.8239C45.2576 12.8639 45.351 12.8839 45.4578 12.8839H48.1674V15.4063H45.0174C44.4569 15.4063 43.9431 15.2661 43.476 14.9859C43.0222 14.7056 42.6619 14.3386 42.395 13.8849L40.8135 11.0422C40.6934 11.0422 40.5666 11.0422 40.4331 11.0422C40.313 11.0422 40.1929 11.0422 40.0728 11.0422H37.7106V15.4063H34.848ZM37.7106 8.5199H40.7735C41.2272 8.5199 41.6409 8.43316 42.0146 8.25966C42.3883 8.07282 42.6819 7.80591 42.8954 7.45892C43.1223 7.11193 43.2357 6.69822 43.2357 6.21777C43.2357 5.73733 43.1223 5.32361 42.8954 4.97663C42.6685 4.62964 42.3683 4.3694 41.9946 4.1959C41.6343 4.00906 41.2272 3.91564 40.7735 3.91564H37.7106V8.5199Z" fill="#7730E2"/>
<path d="M26.9754 15.4063C26.2013 15.4063 25.494 15.2194 24.8534 14.8458C24.2262 14.4721 23.7257 13.9716 23.352 13.3444C22.9784 12.7038 22.7915 11.9965 22.7915 11.2224C22.7915 10.6619 22.9116 10.1347 23.1519 9.64094C23.3921 9.14715 23.719 8.71342 24.1328 8.33974C23.719 7.96606 23.3921 7.53232 23.1519 7.03853C22.9116 6.54474 22.7915 6.02426 22.7915 5.47709C22.7915 4.71639 22.9717 4.02908 23.332 3.41518C23.7057 2.80128 24.1995 2.31416 24.8134 1.95383C25.4406 1.58015 26.1279 1.39331 26.8753 1.39331H32.6406V3.91564H27.1956C26.9153 3.91564 26.6551 3.98905 26.4149 4.13585C26.188 4.2693 26.0012 4.45614 25.8544 4.69637C25.7209 4.92324 25.6542 5.18348 25.6542 5.47709C25.6542 5.75735 25.7209 6.01759 25.8544 6.25781C26.0012 6.48469 26.188 6.67153 26.4149 6.81833C26.6551 6.95179 26.9153 7.01851 27.1956 7.01851H31.96V9.54085H27.3157C27.0088 9.54085 26.7285 9.62092 26.4749 9.78107C26.2214 9.92787 26.0212 10.1281 25.8744 10.3816C25.7276 10.6352 25.6542 10.9155 25.6542 11.2224C25.6542 11.5294 25.7276 11.8096 25.8744 12.0632C26.0212 12.3167 26.2214 12.5169 26.4749 12.6637C26.7285 12.8105 27.0088 12.8839 27.3157 12.8839H32.6406V15.4063H26.9754Z" fill="#7730E2"/>
<path d="M44.8923 34.1961V25.7082C44.8923 24.5204 45.1392 23.4995 45.633 22.6454C46.1401 21.7779 46.8274 21.1106 47.6949 20.6435C48.5757 20.1764 49.5833 19.9429 50.7177 19.9429C51.8521 19.9429 52.853 20.1764 53.7205 20.6435C54.6013 21.1106 55.2886 21.7779 55.7824 22.6454C56.2895 23.4995 56.5431 24.5204 56.5431 25.7082V34.1961H53.6804V25.528C53.6804 24.9675 53.5603 24.4537 53.3201 23.9866C53.0799 23.5195 52.7396 23.1525 52.2992 22.8856C51.8588 22.6053 51.3316 22.4652 50.7177 22.4652C50.1172 22.4652 49.59 22.6053 49.1362 22.8856C48.6958 23.1525 48.3555 23.5195 48.1153 23.9866C47.8751 24.4537 47.755 24.9675 47.755 25.528V34.1961H44.8923Z" fill="#7730E2"/>
<path d="M35.6449 34.4564C34.5239 34.4564 33.5096 34.2696 32.6021 33.8959C31.7079 33.5089 30.9406 32.9817 30.3 32.3144C29.6594 31.6472 29.1656 30.8731 28.8186 29.9923C28.4716 29.1115 28.2981 28.1706 28.2981 27.1697C28.2981 26.1688 28.4716 25.2346 28.8186 24.3671C29.1656 23.4863 29.6594 22.7122 30.3 22.0449C30.9406 21.3777 31.7079 20.8572 32.6021 20.4835C33.5096 20.1098 34.5239 19.923 35.6449 19.923C36.766 19.923 37.7736 20.1098 38.6677 20.4835C39.5752 20.8572 40.3493 21.3777 40.9899 22.0449C41.6305 22.7122 42.1242 23.4863 42.4712 24.3671C42.8182 25.2346 42.9917 26.1688 42.9917 27.1697C42.9917 28.1706 42.8182 29.1115 42.4712 29.9923C42.1242 30.8731 41.6305 31.6472 40.9899 32.3144C40.3493 32.9817 39.5752 33.5089 38.6677 33.8959C37.7736 34.2696 36.766 34.4564 35.6449 34.4564ZM35.6449 31.9141C36.2855 31.9141 36.8794 31.8006 37.4266 31.5738C37.9737 31.3335 38.4475 30.9999 38.8479 30.5728C39.2616 30.1324 39.5752 29.6253 39.7888 29.0514C40.0156 28.4776 40.1291 27.8503 40.1291 27.1697C40.1291 26.489 40.0156 25.8618 39.7888 25.2879C39.5752 24.7141 39.2616 24.2136 38.8479 23.7865C38.4475 23.3595 37.9737 23.0325 37.4266 22.8056C36.8794 22.5654 36.2855 22.4453 35.6449 22.4453C35.0043 22.4453 34.4104 22.5654 33.8633 22.8056C33.3161 23.0325 32.8357 23.3595 32.4219 23.7865C32.0216 24.2136 31.7079 24.7141 31.4811 25.2879C31.2675 25.8618 31.1608 26.489 31.1608 27.1697C31.1608 27.8503 31.2675 28.4776 31.4811 29.0514C31.7079 29.6253 32.0216 30.1324 32.4219 30.5728C32.8357 30.9999 33.3161 31.3335 33.8633 31.5738C34.4104 31.8006 35.0043 31.9141 35.6449 31.9141Z" fill="#7730E2"/>
<path d="M6.37837 34.456C5.24399 34.456 4.23639 34.2225 3.35557 33.7554C2.4881 33.2883 1.8008 32.6277 1.29366 31.7736C0.799874 30.9061 0.552979 29.8785 0.552979 28.6907V20.2029H3.41563V28.8709C3.41563 29.4314 3.53574 29.9452 3.77596 30.4123C4.01619 30.8661 4.3565 31.2331 4.79691 31.5133C5.25066 31.7936 5.77781 31.9337 6.37837 31.9337C6.99227 31.9337 7.51943 31.7936 7.95983 31.5133C8.40024 31.2331 8.74056 30.8661 8.98078 30.4123C9.221 29.9452 9.34111 29.4314 9.34111 28.8709V25.2075H12.2038V28.6907C12.2038 29.8785 11.9502 30.9061 11.4431 31.7736C10.9493 32.6277 10.262 33.2883 9.38114 33.7554C8.51367 34.2225 7.51275 34.456 6.37837 34.456Z" fill="#7730E2"/>
<path d="M9.34111 28.8709V25.3876C9.34111 24.1999 9.58801 23.1789 10.0818 22.3248C10.5889 21.4573 11.2762 20.7901 12.1437 20.323C13.0245 19.8559 14.0321 19.6223 15.1665 19.6223C16.3009 19.6223 17.3018 19.8559 18.1693 20.323C19.0501 20.7901 19.7374 21.4573 20.2312 22.3248C20.7383 23.1789 20.9919 24.1999 20.9919 25.3876V34.3354H18.1292V25.2075C18.1292 24.647 18.0091 24.1332 17.7689 23.6661C17.5287 23.199 17.1884 22.832 16.748 22.565C16.3076 22.2848 15.7804 22.1446 15.1665 22.1446C14.566 22.1446 14.0388 22.2848 13.585 22.565C13.1446 22.832 12.8043 23.199 12.5641 23.6661C12.3239 24.1332 12.2038 24.647 12.2038 25.2075L12.2038 28.8709L9.34111 28.8709Z" fill="#7730E2"/>
<path d="M24.6919 22.8955C24.2515 22.8955 23.8645 22.7353 23.5308 22.415C23.2105 22.0947 23.0504 21.7077 23.0504 21.2539C23.0504 20.8002 23.2105 20.4132 23.5308 20.0929C23.8645 19.7592 24.2515 19.5924 24.6919 19.5924C25.1457 19.5924 25.5327 19.7592 25.853 20.0929C26.1866 20.4132 26.3534 20.8002 26.3534 21.2539C26.3534 21.7077 26.1866 22.0947 25.853 22.415C25.5327 22.7353 25.1457 22.8955 24.6919 22.8955ZM26.2333 34.4061C25.3258 34.4061 24.6118 34.1459 24.0913 33.6254C23.5842 33.1049 23.3306 32.3976 23.3306 31.5034V24.1967H26.0732V31.4234C26.0732 31.5968 26.1332 31.7503 26.2533 31.8838C26.3868 32.0039 26.5403 32.0639 26.7138 32.0639H27.3343V34.4061H26.2333Z" fill="#7730E2"/>
</svg>
