<svg width="158" height="16" viewBox="0 0 158 16" fill="none" xmlns="http://www.w3.org/2000/svg">
<path d="M0.306152 14.9632V6.41876C0.306152 5.22308 0.553048 4.19532 1.04684 3.33551C1.55397 2.46225 2.24128 1.79052 3.10875 1.32031C3.98956 0.850096 4.99716 0.61499 6.13154 0.61499C7.26593 0.61499 8.26685 0.850096 9.13432 1.32031C10.0151 1.79052 10.7024 2.46225 11.1962 3.33551C11.7034 4.19532 11.9569 5.22308 11.9569 6.41876V14.9632H9.09428V6.23739C9.09428 5.67314 8.97417 5.1559 8.73395 4.68569C8.49373 4.21548 8.15342 3.84602 7.71301 3.57733C7.2726 3.2952 6.74544 3.15414 6.13154 3.15414C5.53099 3.15414 5.00384 3.2952 4.55008 3.57733C4.10968 3.84602 3.76936 4.21548 3.52914 4.68569C3.28892 5.1559 3.1688 5.67314 3.1688 6.23739V14.9632H0.306152Z" fill="white"/>
<path d="M9.09428 14.9632V6.41876C9.09428 5.22308 9.34117 4.19532 9.83496 3.33551C10.3421 2.46225 11.0294 1.79052 11.8969 1.32031C12.7777 0.850096 13.7853 0.61499 14.9197 0.61499C16.0541 0.61499 17.055 0.850096 17.9224 1.32031C18.8033 1.79052 19.4906 2.46225 19.9844 3.33551C20.4915 4.19532 20.7451 5.22308 20.7451 6.41876V14.9632H17.8824V6.23739C17.8824 5.67314 17.7623 5.1559 17.5221 4.68569C17.2819 4.21548 16.9415 3.84602 16.5011 3.57733C16.0607 3.2952 15.5336 3.15414 14.9197 3.15414C14.3191 3.15414 13.792 3.2952 13.3382 3.57733C12.8978 3.84602 12.5575 4.21548 12.3173 4.68569C12.077 5.1559 11.9569 5.67314 11.9569 6.23739L11.9569 14.9632H9.09428Z" fill="white"/>
<path d="M90.1075 15.1002C89.3335 15.1002 88.6261 14.9121 87.9856 14.5359C87.3583 14.1597 86.8578 13.6559 86.4842 13.0245C86.1105 12.3796 85.9236 11.6676 85.9236 10.8884C85.9236 10.3241 86.0438 9.79347 86.284 9.29639C86.5242 8.79931 86.8512 8.36268 87.2649 7.98651C86.8512 7.61034 86.5242 7.17371 86.284 6.67663C86.0438 6.17955 85.9236 5.6556 85.9236 5.10478C85.9236 4.339 86.1038 3.64712 86.4641 3.02912C86.8378 2.41113 87.3316 1.92077 87.9455 1.55803C88.5728 1.18186 89.2601 0.993774 90.0074 0.993774H95.7728V3.53292H90.3277C90.0475 3.53292 89.7872 3.60681 89.547 3.7546C89.3201 3.88894 89.1333 4.07703 88.9865 4.31885C88.853 4.54724 88.7863 4.80922 88.7863 5.10478C88.7863 5.38691 88.853 5.64888 88.9865 5.8907C89.1333 6.11909 89.3201 6.30718 89.547 6.45496C89.7872 6.58931 90.0475 6.65648 90.3277 6.65648H95.0921V9.19563H90.4478C90.1409 9.19563 89.8606 9.27624 89.6071 9.43745C89.3535 9.58523 89.1533 9.78675 89.0065 10.042C88.8597 10.2973 88.7863 10.5794 88.7863 10.8884C88.7863 11.1974 88.8597 11.4795 89.0065 11.7348C89.1533 11.99 89.3535 12.1916 89.6071 12.3393C89.8606 12.4871 90.1409 12.561 90.4478 12.561H95.7728V15.1002H90.1075Z" fill="white"/>
<path d="M82.2107 15.1002C81.3832 15.1002 80.6559 14.9121 80.0286 14.5359C79.4014 14.1463 78.9143 13.6358 78.5673 13.0044C78.2203 12.3595 78.0468 11.6542 78.0468 10.8884V3.53292H74.1432V0.993774H84.8131V3.53292H80.9094V11.231C80.9094 11.5937 81.0362 11.9094 81.2898 12.1781C81.5434 12.4334 81.8503 12.561 82.2107 12.561H87.6717L90.3482 15.1002H82.2107Z" fill="white"/>
<path d="M70.797 3.51258C70.3566 3.51258 69.9696 3.35136 69.6359 3.02893C69.3156 2.7065 69.1555 2.31689 69.1555 1.86011C69.1555 1.40334 69.3156 1.01373 69.6359 0.691299C69.9696 0.355433 70.3566 0.1875 70.797 0.1875C71.2508 0.1875 71.6378 0.355433 71.9581 0.691299C72.2917 1.01373 72.4585 1.40334 72.4585 1.86011C72.4585 2.31689 72.2917 2.7065 71.9581 3.02893C71.6378 3.35136 71.2508 3.51258 70.797 3.51258ZM72.3384 15.1C71.4309 15.1 70.7169 14.838 70.1965 14.314C69.6893 13.7901 69.4357 13.078 69.4357 12.1779V4.82245H72.1783V12.0973C72.1783 12.272 72.2383 12.4265 72.3584 12.5608C72.4919 12.6817 72.6454 12.7422 72.8189 12.7422H73.4395V15.1H72.3384Z" fill="white"/>
<path d="M65.2223 15.1002C64.3949 15.1002 63.6675 14.9121 63.0403 14.5359C62.413 14.1463 61.9259 13.6358 61.5789 13.0044C61.232 12.3595 61.0585 11.6542 61.0585 10.8884V3.53292H57.1548V0.993774H67.8247V3.53292H63.9211V11.231C63.9211 11.5937 64.0479 11.9094 64.3015 12.1781C64.555 12.4334 64.862 12.561 65.2223 12.561H66.2232V15.1002H65.2223Z" fill="white"/>
<path d="M47.9058 15.1002V12.561H50.4281V3.53292H47.9058V0.993774H57.2792V3.53292H53.2908V12.561H55.8131V15.1002H47.9058Z" fill="white"/>
<path d="M34.6012 15.1002V0.993774H40.867C41.7878 0.993774 42.6219 1.20201 43.3693 1.61849C44.13 2.02153 44.7305 2.58578 45.1709 3.31125C45.6247 4.03672 45.8516 4.88311 45.8516 5.8504C45.8516 6.79083 45.6314 7.62377 45.191 8.34925C44.7506 9.06128 44.17 9.62554 43.4493 10.042L44.7305 12.299C44.7839 12.3796 44.8506 12.4468 44.9307 12.5006C45.0108 12.5409 45.1042 12.561 45.211 12.561H47.9206V15.1002H44.7706C44.2101 15.1002 43.6962 14.9591 43.2291 14.677C42.7754 14.3948 42.4151 14.0254 42.1481 13.5686L40.5667 10.707C40.4466 10.707 40.3198 10.707 40.1863 10.707C40.0662 10.707 39.9461 10.707 39.826 10.707H37.4638V15.1002H34.6012ZM37.4638 8.16788H40.5266C40.9804 8.16788 41.3941 8.08055 41.7678 7.9059C42.1415 7.71782 42.4351 7.44912 42.6486 7.09982C42.8755 6.75052 42.9889 6.33405 42.9889 5.8504C42.9889 5.36675 42.8755 4.95028 42.6486 4.60098C42.4217 4.25168 42.1215 3.9897 41.7478 3.81505C41.3874 3.62697 40.9804 3.53292 40.5266 3.53292H37.4638V8.16788Z" fill="white"/>
<path d="M26.7285 15.1002C25.9545 15.1002 25.2472 14.9121 24.6066 14.5359C23.9793 14.1597 23.4789 13.6559 23.1052 13.0245C22.7315 12.3796 22.5447 11.6676 22.5447 10.8884C22.5447 10.3241 22.6648 9.79347 22.905 9.29639C23.1452 8.79931 23.4722 8.36268 23.8859 7.98651C23.4722 7.61034 23.1452 7.17371 22.905 6.67663C22.6648 6.17955 22.5447 5.6556 22.5447 5.10478C22.5447 4.339 22.7248 3.64712 23.0852 3.02912C23.4589 2.41113 23.9526 1.92077 24.5665 1.55803C25.1938 1.18186 25.8811 0.993774 26.6285 0.993774H32.3938V3.53292H26.9488C26.6685 3.53292 26.4083 3.60681 26.168 3.7546C25.9412 3.88894 25.7543 4.07703 25.6075 4.31885C25.4741 4.54724 25.4073 4.80922 25.4073 5.10478C25.4073 5.38691 25.4741 5.64888 25.6075 5.8907C25.7543 6.11909 25.9412 6.30718 26.168 6.45496C26.4083 6.58931 26.6685 6.65648 26.9488 6.65648H31.7132V9.19563H27.0689C26.7619 9.19563 26.4817 9.27624 26.2281 9.43745C25.9745 9.58523 25.7743 9.78675 25.6275 10.042C25.4807 10.2973 25.4073 10.5794 25.4073 10.8884C25.4073 11.1974 25.4807 11.4795 25.6275 11.7348C25.7743 11.99 25.9745 12.1916 26.2281 12.3393C26.4817 12.4871 26.7619 12.561 27.0689 12.561H32.3938V15.1002H26.7285Z" fill="white"/>
<path d="M146.149 14.7009V6.15643C146.149 4.96075 146.396 3.933 146.89 3.07318C147.397 2.19993 148.084 1.52819 148.952 1.05798C149.832 0.587767 150.84 0.352661 151.974 0.352661C153.109 0.352661 154.11 0.587767 154.977 1.05798C155.858 1.52819 156.545 2.19993 157.039 3.07318C157.546 3.933 157.8 4.96075 157.8 6.15643V14.7009H154.937V5.97506C154.937 5.41081 154.817 4.89357 154.577 4.42336C154.337 3.95315 153.996 3.58369 153.556 3.315C153.115 3.03287 152.588 2.89181 151.974 2.89181C151.374 2.89181 150.847 3.03287 150.393 3.315C149.953 3.58369 149.612 3.95315 149.372 4.42336C149.132 4.89357 149.012 5.41081 149.012 5.97506V14.7009H146.149Z" fill="white"/>
<path d="M136.902 14.9631C135.781 14.9631 134.766 14.775 133.859 14.3988C132.965 14.0092 132.197 13.4786 131.557 12.8068C130.916 12.1351 130.422 11.3559 130.075 10.4692C129.728 9.58252 129.555 8.63538 129.555 7.62778C129.555 6.62018 129.728 5.67976 130.075 4.8065C130.422 3.91982 130.916 3.14061 131.557 2.46887C132.197 1.79714 132.965 1.27319 133.859 0.897019C134.766 0.520849 135.781 0.332764 136.902 0.332764C138.023 0.332764 139.03 0.520849 139.924 0.897019C140.832 1.27319 141.606 1.79714 142.247 2.46887C142.887 3.14061 143.381 3.91982 143.728 4.8065C144.075 5.67976 144.248 6.62018 144.248 7.62778C144.248 8.63538 144.075 9.58252 143.728 10.4692C143.381 11.3559 142.887 12.1351 142.247 12.8068C141.606 13.4786 140.832 14.0092 139.924 14.3988C139.03 14.775 138.023 14.9631 136.902 14.9631ZM136.902 12.4038C137.542 12.4038 138.136 12.2896 138.683 12.0612C139.23 11.8194 139.704 11.4835 140.105 11.0536C140.518 10.6103 140.832 10.0998 141.045 9.52207C141.272 8.94438 141.386 8.31295 141.386 7.62778C141.386 6.94261 141.272 6.31118 141.045 5.73349C140.832 5.1558 140.518 4.652 140.105 4.2221C139.704 3.79219 139.23 3.46304 138.683 3.23465C138.136 2.99283 137.542 2.87191 136.902 2.87191C136.261 2.87191 135.667 2.99283 135.12 3.23465C134.573 3.46304 134.092 3.79219 133.679 4.2221C133.278 4.652 132.965 5.1558 132.738 5.73349C132.524 6.31118 132.417 6.94261 132.417 7.62778C132.417 8.31295 132.524 8.94438 132.738 9.52207C132.965 10.0998 133.278 10.6103 133.679 11.0536C134.092 11.4835 134.573 11.8194 135.12 12.0612C135.667 12.2896 136.261 12.4038 136.902 12.4038Z" fill="white"/>
<path d="M107.635 14.9625C106.501 14.9625 105.493 14.7274 104.612 14.2572C103.745 13.787 103.057 13.122 102.55 12.2622C102.057 11.3889 101.81 10.3544 101.81 9.15876V0.614323H104.672V9.34013C104.672 9.90439 104.792 10.4216 105.033 10.8918C105.273 11.3486 105.613 11.7181 106.054 12.0002C106.507 12.2823 107.034 12.4234 107.635 12.4234C108.249 12.4234 108.776 12.2823 109.216 12.0002C109.657 11.7181 109.997 11.3486 110.237 10.8918C110.478 10.4216 110.598 9.90439 110.598 9.34013V5.65232H113.46V9.15876C113.46 10.3544 113.207 11.3889 112.7 12.2622C112.206 13.122 111.519 13.787 110.638 14.2572C109.77 14.7274 108.769 14.9625 107.635 14.9625Z" fill="white"/>
<path d="M110.598 9.34013V5.83368C110.598 4.63799 110.845 3.61024 111.338 2.75042C111.846 1.87717 112.533 1.20544 113.4 0.735226C114.281 0.265013 115.289 0.0299072 116.423 0.0299072C117.558 0.0299072 118.558 0.265013 119.426 0.735226C120.307 1.20544 120.994 1.87717 121.488 2.75042C121.995 3.61024 122.249 4.63799 122.249 5.83368V14.8411H119.386V5.65231C119.386 5.08805 119.266 4.57082 119.026 4.10061C118.785 3.63039 118.445 3.26094 118.005 2.99225C117.564 2.71012 117.037 2.56906 116.423 2.56906C115.823 2.56906 115.295 2.71012 114.842 2.99225C114.401 3.26094 114.061 3.63039 113.821 4.10061C113.581 4.57082 113.46 5.08806 113.46 5.65232L113.46 9.34012L110.598 9.34013Z" fill="white"/>
<path d="M125.949 3.32508C125.508 3.32508 125.121 3.16386 124.787 2.84143C124.467 2.519 124.307 2.12939 124.307 1.67261C124.307 1.21584 124.467 0.82623 124.787 0.503799C125.121 0.167933 125.508 0 125.949 0C126.402 0 126.789 0.167933 127.11 0.503799C127.443 0.82623 127.61 1.21584 127.61 1.67261C127.61 2.12939 127.443 2.519 127.11 2.84143C126.789 3.16386 126.402 3.32508 125.949 3.32508ZM127.49 14.9125C126.582 14.9125 125.868 14.6505 125.348 14.1265C124.841 13.6026 124.587 12.8905 124.587 11.9904V4.63495H127.33V11.9098C127.33 12.0845 127.39 12.239 127.51 12.3733C127.643 12.4942 127.797 12.5547 127.97 12.5547H128.591V14.9125H127.49Z" fill="white"/>
</svg>
