<svg width="53" height="53" viewBox="0 0 53 53" fill="none" xmlns="http://www.w3.org/2000/svg">
<path fill-rule="evenodd" clip-rule="evenodd" d="M25.3503 5.69709C25.6717 5.46882 26.0837 5.41032 26.4559 5.54012L36.5483 9.05982C38.3782 8.93856 40.2219 9.44068 41.7362 11.007C43.2202 12.5419 43.7308 14.3461 43.645 16.1391L47.174 26.2583C47.3038 26.6305 47.2453 27.0425 47.0171 27.3638C46.7888 27.6852 46.419 27.8761 46.0248 27.8761L36.8864 27.8761L33.6296 31.133C33.1585 29.6615 31.7794 28.5962 30.1516 28.5962C28.1351 28.5962 26.5004 30.2309 26.5004 32.2474C26.5004 33.8753 27.5657 35.2543 29.0371 35.7254L24.4099 40.3527C23.9116 40.851 23.7724 41.2925 23.7614 41.5969C23.7502 41.909 23.8675 42.1771 24.0571 42.3669C24.2467 42.5567 24.5141 42.6739 24.8254 42.6627C25.1291 42.6518 25.5709 42.5127 26.0705 42.0132C26.5458 41.5379 27.3164 41.5379 27.7917 42.0132C28.267 42.4885 28.267 43.2591 27.7917 43.7344C26.9275 44.5985 25.9243 45.059 24.9127 45.0953C23.9087 45.1313 22.9905 44.7434 22.335 44.0872C21.6796 43.4311 21.2927 42.5127 21.3288 41.5092C21.3653 40.498 21.8252 39.495 22.6887 38.6315L26.6257 34.6945L25.8836 33.9523C23.8501 35.8358 22.4116 36.629 21.1095 37.2839L20.8033 37.4371C19.5624 38.0563 18.5251 38.574 17.0159 40.0832C16.5366 40.5625 16.4096 41 16.4104 41.3224C16.4113 41.6616 16.5533 41.9859 16.7982 42.2308C17.0431 42.4757 17.3675 42.6178 17.7067 42.6187C18.0291 42.6195 18.4666 42.4925 18.9459 42.0132C19.4212 41.5379 20.1918 41.5379 20.6671 42.0132C21.1424 42.4885 21.1424 43.2591 20.6671 43.7344C19.7842 44.6173 18.7437 45.0555 17.7004 45.0528C16.674 45.0502 15.7449 44.6199 15.077 43.952C14.4091 43.2841 13.9789 42.3551 13.9763 41.3287C13.9736 40.2854 14.4118 39.2449 15.2947 38.362C17.0857 36.571 18.4124 35.9093 19.712 35.2612C19.8133 35.2106 19.9145 35.1602 20.0158 35.1092C21.1408 34.5434 22.3657 33.8813 24.161 32.2298L20.7457 28.8145C19.1501 30.5944 18.5693 31.901 17.9715 33.2534L17.9599 33.2797C17.2145 34.9661 16.4334 36.733 13.9732 39.1934C13.0918 40.0748 12.052 40.511 11.0097 40.5066C9.98459 40.5022 9.05712 40.071 8.39013 39.4041C7.72314 38.7371 7.29201 37.8096 7.28761 36.7845C7.28313 35.7422 7.7193 34.7024 8.60077 33.821C9.07606 33.3457 9.84667 33.3457 10.322 33.821C10.7973 34.2962 10.7973 35.0669 10.322 35.5422C9.84592 36.0182 9.72036 36.453 9.72173 36.774C9.72319 37.1123 9.8655 37.437 10.1113 37.6829C10.3572 37.9287 10.6819 38.071 11.0201 38.0724C11.3411 38.0738 11.7759 37.9483 12.252 37.4722C14.3913 35.3327 15.0323 33.8823 15.7199 32.3265L15.7452 32.2693C16.4091 30.7673 17.1216 29.1869 19.0223 27.0911L18.0197 26.0885L13.9118 30.1964C12.2581 31.85 10.0117 31.5542 8.72457 30.3093C8.08018 29.686 7.64788 28.8039 7.65478 27.8C7.66175 26.7854 8.11486 25.7873 8.97973 24.9225C9.45502 24.4472 10.2256 24.4472 10.7009 24.9225C11.1762 25.3978 11.1762 26.1684 10.7009 26.6437C10.2021 27.1425 10.0907 27.5544 10.0889 27.8167C10.087 28.0898 10.2017 28.3515 10.4169 28.5596C10.8488 28.9774 11.5714 29.0943 12.1906 28.4752L16.9628 23.7029C17.4569 25.1341 18.8159 26.1621 20.415 26.1621C22.4315 26.1621 24.0662 24.5274 24.0662 22.5108C24.0662 20.9117 23.0382 19.5528 21.6071 19.0586L24.838 15.8277L24.838 6.68932C24.838 6.29513 25.0289 5.92536 25.3503 5.69709ZM27.2722 13.6018C27.6895 13.2582 28.158 12.8894 28.6661 12.5163C29.7429 11.7256 31.0509 10.8748 32.4635 10.2132L27.2722 8.40273L27.2722 13.6018ZM39.1501 25.442L44.3114 25.442L42.5195 20.3039C41.8648 21.7145 41.0167 23.0122 40.2257 24.0781C39.857 24.575 39.4918 25.033 39.1501 25.442Z" fill="#191923"/>
<path d="M21.6321 22.5108C21.6321 23.183 21.0872 23.7279 20.415 23.7279C19.7428 23.7279 19.1979 23.183 19.1979 22.5108C19.1979 21.8387 19.7428 21.2938 20.415 21.2938C21.0872 21.2938 21.6321 21.8387 21.6321 22.5108Z" fill="#191923"/>
<path d="M31.3687 32.2474C31.3687 32.9196 30.8238 33.4645 30.1516 33.4645C29.4794 33.4645 28.9345 32.9196 28.9345 32.2474C28.9345 31.5753 29.4794 31.0304 30.1516 31.0304C30.8238 31.0304 31.3687 31.5753 31.3687 32.2474Z" fill="#191923"/>
</svg>
