<svg width="97" height="34" viewBox="0 0 97 34" fill="none" xmlns="http://www.w3.org/2000/svg">
<path d="M0.552979 14.6779V6.19002C0.552979 5.00225 0.799874 3.98131 1.29366 3.12718C1.8008 2.25971 2.4881 1.59243 3.35557 1.12533C4.23639 0.658232 5.24399 0.424683 6.37837 0.424683C7.51275 0.424683 8.51368 0.658232 9.38115 1.12533C10.262 1.59243 10.9493 2.25971 11.4431 3.12718C11.9502 3.98131 12.2038 5.00225 12.2038 6.19002V14.6779H9.3411V6.00985C9.3411 5.44933 9.221 4.93552 8.98078 4.46842C8.74056 4.00132 8.40024 3.63432 7.95983 3.36741C7.51943 3.08715 6.99227 2.94702 6.37837 2.94702C5.77781 2.94702 5.25066 3.08715 4.79691 3.36741C4.3565 3.63432 4.01619 4.00132 3.77597 4.46842C3.53574 4.93552 3.41563 5.44933 3.41563 6.00985V14.6779H0.552979Z" fill="#FBFEF9"/>
<path d="M9.3411 14.6779V6.19002C9.3411 5.00225 9.588 3.98131 10.0818 3.12718C10.5889 2.25971 11.2762 1.59243 12.1437 1.12533C13.0245 0.658232 14.0321 0.424683 15.1665 0.424683C16.3009 0.424683 17.3018 0.658232 18.1693 1.12533C19.0501 1.59243 19.7374 2.25971 20.2312 3.12718C20.7383 3.98131 20.9919 5.00225 20.9919 6.19002V14.6779H18.1292V6.00985C18.1292 5.44933 18.0091 4.93552 17.7689 4.46842C17.5287 4.00132 17.1884 3.63432 16.748 3.36741C16.3076 3.08715 15.7804 2.94702 15.1665 2.94702C14.5659 2.94702 14.0388 3.08715 13.585 3.36741C13.1446 3.63432 12.8043 4.00132 12.5641 4.46842C12.3239 4.93552 12.2038 5.44933 12.2038 6.00985L12.2038 14.6779H9.3411Z" fill="#FBFEF9"/>
<path d="M90.3543 14.8139C89.5803 14.8139 88.873 14.627 88.2324 14.2533C87.6051 13.8797 87.1047 13.3792 86.731 12.752C86.3573 12.1114 86.1705 11.404 86.1705 10.63C86.1705 10.0695 86.2906 9.54232 86.5308 9.04853C86.771 8.55474 87.098 8.12101 87.5117 7.74733C87.098 7.37365 86.771 6.93992 86.5308 6.44613C86.2906 5.95234 86.1705 5.43185 86.1705 4.88468C86.1705 4.12398 86.3506 3.43668 86.711 2.82277C87.0846 2.20887 87.5784 1.72176 88.1923 1.36142C88.8196 0.987743 89.5069 0.800903 90.2542 0.800903H96.0196V3.32324H90.5745C90.2943 3.32324 90.034 3.39664 89.7938 3.54344C89.5669 3.6769 89.3801 3.86374 89.2333 4.10396C89.0998 4.33084 89.0331 4.59108 89.0331 4.88468C89.0331 5.16494 89.0998 5.42518 89.2333 5.6654C89.3801 5.89228 89.5669 6.07912 89.7938 6.22592C90.034 6.35938 90.2943 6.42611 90.5745 6.42611H95.3389V8.94844H90.6946C90.3877 8.94844 90.1074 9.02851 89.8539 9.18866C89.6003 9.33547 89.4001 9.53565 89.2533 9.78922C89.1065 10.0428 89.0331 10.323 89.0331 10.63C89.0331 10.9369 89.1065 11.2172 89.2533 11.4708C89.4001 11.7243 89.6003 11.9245 89.8539 12.0713C90.1074 12.2181 90.3877 12.2915 90.6946 12.2915H96.0196V14.8139H90.3543Z" fill="#FBFEF9"/>
<path d="M82.4575 14.8139C81.6301 14.8139 80.9027 14.627 80.2755 14.2533C79.6482 13.8663 79.1611 13.3592 78.8141 12.7319C78.4671 12.0913 78.2936 11.3907 78.2936 10.63V3.32324H74.39V0.800903H85.0599V3.32324H81.1563V10.9703C81.1563 11.3306 81.2831 11.6443 81.5366 11.9112C81.7902 12.1647 82.0972 12.2915 82.4575 12.2915H87.9185L90.5951 14.8139H82.4575Z" fill="#FBFEF9"/>
<path d="M71.0438 3.30305C70.6034 3.30305 70.2164 3.14291 69.8828 2.82261C69.5625 2.50231 69.4023 2.11529 69.4023 1.66154C69.4023 1.20778 69.5625 0.820759 69.8828 0.500462C70.2164 0.166821 70.6034 0 71.0438 0C71.4976 0 71.8846 0.166821 72.2049 0.500462C72.5385 0.820759 72.7054 1.20778 72.7054 1.66154C72.7054 2.11529 72.5385 2.50231 72.2049 2.82261C71.8846 3.14291 71.4976 3.30305 71.0438 3.30305ZM72.5853 14.8137C71.6778 14.8137 70.9638 14.5535 70.4433 14.033C69.9361 13.5125 69.6826 12.8052 69.6826 11.911V4.60426H72.4251V11.8309C72.4251 12.0044 72.4852 12.1579 72.6053 12.2914C72.7387 12.4115 72.8922 12.4715 73.0657 12.4715H73.6863V14.8137H72.5853Z" fill="#FBFEF9"/>
<path d="M65.4691 14.8139C64.6417 14.8139 63.9144 14.627 63.2871 14.2533C62.6599 13.8663 62.1728 13.3592 61.8258 12.7319C61.4788 12.0913 61.3053 11.3907 61.3053 10.63V3.32324H57.4017V0.800903H68.0715V3.32324H64.1679V10.9703C64.1679 11.3306 64.2947 11.6443 64.5483 11.9112C64.8019 12.1647 65.1088 12.2915 65.4691 12.2915H66.4701V14.8139H65.4691Z" fill="#FBFEF9"/>
<path d="M48.1526 14.8139V12.2915H50.675V3.32324H48.1526V0.800903H57.526V3.32324H53.5376V12.2915H56.0599V14.8139H48.1526Z" fill="#FBFEF9"/>
<path d="M34.848 14.8139V0.800903H41.1138C42.0346 0.800903 42.8687 1.00776 43.6161 1.42148C44.3768 1.82185 44.9773 2.38237 45.4178 3.10303C45.8715 3.8237 46.0984 4.66448 46.0984 5.62537C46.0984 6.55956 45.8782 7.387 45.4378 8.10766C44.9974 8.81498 44.4168 9.3755 43.6962 9.78922L44.9773 12.0313C45.0307 12.1114 45.0975 12.1781 45.1775 12.2315C45.2576 12.2715 45.351 12.2915 45.4578 12.2915H48.1674V14.8139H45.0174C44.4569 14.8139 43.9431 14.6737 43.476 14.3935C43.0222 14.1132 42.6619 13.7462 42.395 13.2925L40.8135 10.4498C40.6934 10.4498 40.5666 10.4498 40.4331 10.4498C40.313 10.4498 40.1929 10.4498 40.0728 10.4498H37.7106V14.8139H34.848ZM37.7106 7.9275H40.7735C41.2272 7.9275 41.6409 7.84075 42.0146 7.66726C42.3883 7.48042 42.6819 7.2135 42.8954 6.86652C43.1223 6.51953 43.2357 6.10581 43.2357 5.62537C43.2357 5.14492 43.1223 4.73121 42.8954 4.38422C42.6685 4.03723 42.3683 3.77699 41.9946 3.6035C41.6343 3.41666 41.2272 3.32324 40.7735 3.32324H37.7106V7.9275Z" fill="#FBFEF9"/>
<path d="M26.9754 14.8139C26.2013 14.8139 25.494 14.627 24.8534 14.2533C24.2262 13.8797 23.7257 13.3792 23.352 12.752C22.9784 12.1114 22.7915 11.404 22.7915 10.63C22.7915 10.0695 22.9116 9.54232 23.1519 9.04853C23.3921 8.55474 23.719 8.12101 24.1328 7.74733C23.719 7.37365 23.3921 6.93992 23.1519 6.44613C22.9116 5.95234 22.7915 5.43185 22.7915 4.88468C22.7915 4.12398 22.9717 3.43668 23.332 2.82277C23.7057 2.20887 24.1995 1.72176 24.8134 1.36142C25.4406 0.987743 26.1279 0.800903 26.8753 0.800903H32.6406V3.32324H27.1956C26.9153 3.32324 26.6551 3.39664 26.4149 3.54344C26.188 3.6769 26.0012 3.86374 25.8544 4.10396C25.7209 4.33084 25.6542 4.59108 25.6542 4.88468C25.6542 5.16494 25.7209 5.42518 25.8544 5.6654C26.0012 5.89228 26.188 6.07912 26.4149 6.22592C26.6551 6.35938 26.9153 6.42611 27.1956 6.42611H31.96V8.94844H27.3157C27.0088 8.94844 26.7285 9.02851 26.4749 9.18866C26.2214 9.33547 26.0212 9.53565 25.8744 9.78922C25.7276 10.0428 25.6542 10.323 25.6542 10.63C25.6542 10.9369 25.7276 11.2172 25.8744 11.4708C26.0212 11.7243 26.2214 11.9245 26.4749 12.0713C26.7285 12.2181 27.0088 12.2915 27.3157 12.2915H32.6406V14.8139H26.9754Z" fill="#FBFEF9"/>
<path d="M44.8923 33.6037V25.1158C44.8923 23.928 45.1392 22.9071 45.633 22.053C46.1401 21.1855 46.8274 20.5182 47.6949 20.0511C48.5757 19.584 49.5833 19.3505 50.7177 19.3505C51.8521 19.3505 52.853 19.584 53.7205 20.0511C54.6013 20.5182 55.2886 21.1855 55.7824 22.053C56.2895 22.9071 56.5431 23.928 56.5431 25.1158V33.6037H53.6804V24.9356C53.6804 24.3751 53.5603 23.8613 53.3201 23.3942C53.0799 22.9271 52.7396 22.5601 52.2992 22.2932C51.8588 22.0129 51.3316 21.8728 50.7177 21.8728C50.1172 21.8728 49.59 22.0129 49.1362 22.2932C48.6958 22.5601 48.3555 22.9271 48.1153 23.3942C47.8751 23.8613 47.755 24.3751 47.755 24.9356V33.6037H44.8923Z" fill="#FBFEF9"/>
<path d="M35.6449 33.864C34.5239 33.864 33.5096 33.6772 32.6021 33.3035C31.7079 32.9165 30.9406 32.3893 30.3 31.722C29.6594 31.0547 29.1656 30.2807 28.8186 29.3999C28.4716 28.5191 28.2981 27.5782 28.2981 26.5773C28.2981 25.5763 28.4716 24.6421 28.8186 23.7747C29.1656 22.8939 29.6594 22.1198 30.3 21.4525C30.9406 20.7852 31.7079 20.2648 32.6021 19.8911C33.5096 19.5174 34.5239 19.3306 35.6449 19.3306C36.766 19.3306 37.7736 19.5174 38.6677 19.8911C39.5752 20.2648 40.3493 20.7852 40.9899 21.4525C41.6305 22.1198 42.1242 22.8939 42.4712 23.7747C42.8182 24.6421 42.9917 25.5763 42.9917 26.5773C42.9917 27.5782 42.8182 28.5191 42.4712 29.3999C42.1242 30.2807 41.6305 31.0547 40.9899 31.722C40.3493 32.3893 39.5752 32.9165 38.6677 33.3035C37.7736 33.6772 36.766 33.864 35.6449 33.864ZM35.6449 31.3217C36.2855 31.3217 36.8794 31.2082 37.4266 30.9813C37.9737 30.7411 38.4475 30.4075 38.8479 29.9804C39.2616 29.54 39.5752 29.0329 39.7888 28.459C40.0156 27.8851 40.1291 27.2579 40.1291 26.5773C40.1291 25.8966 40.0156 25.2694 39.7888 24.6955C39.5752 24.1217 39.2616 23.6212 38.8479 23.1941C38.4475 22.7671 37.9737 22.4401 37.4266 22.2132C36.8794 21.973 36.2855 21.8529 35.6449 21.8529C35.0043 21.8529 34.4104 21.973 33.8633 22.2132C33.3161 22.4401 32.8357 22.7671 32.4219 23.1941C32.0216 23.6212 31.7079 24.1217 31.4811 24.6955C31.2675 25.2694 31.1608 25.8966 31.1608 26.5773C31.1608 27.2579 31.2675 27.8851 31.4811 28.459C31.7079 29.0329 32.0216 29.54 32.4219 29.9804C32.8357 30.4075 33.3161 30.7411 33.8633 30.9813C34.4104 31.2082 35.0043 31.3217 35.6449 31.3217Z" fill="#FBFEF9"/>
<path d="M6.37837 33.8636C5.24399 33.8636 4.23639 33.6301 3.35557 33.163C2.4881 32.6959 1.8008 32.0353 1.29366 31.1812C0.799874 30.3137 0.552979 29.2861 0.552979 28.0983V19.6105H3.41563V28.2785C3.41563 28.839 3.53574 29.3528 3.77596 29.8199C4.01619 30.2737 4.3565 30.6407 4.79691 30.9209C5.25066 31.2012 5.77781 31.3413 6.37837 31.3413C6.99227 31.3413 7.51943 31.2012 7.95983 30.9209C8.40024 30.6407 8.74056 30.2737 8.98078 29.8199C9.221 29.3528 9.34111 28.839 9.34111 28.2785V24.6151H12.2038V28.0983C12.2038 29.2861 11.9502 30.3137 11.4431 31.1812C10.9493 32.0353 10.262 32.6959 9.38114 33.163C8.51367 33.6301 7.51275 33.8636 6.37837 33.8636Z" fill="#FBFEF9"/>
<path d="M9.34111 28.2785V24.7952C9.34111 23.6075 9.58801 22.5865 10.0818 21.7324C10.5889 20.8649 11.2762 20.1977 12.1437 19.7306C13.0245 19.2635 14.0321 19.0299 15.1665 19.0299C16.3009 19.0299 17.3018 19.2635 18.1693 19.7306C19.0501 20.1977 19.7374 20.8649 20.2312 21.7324C20.7383 22.5865 20.9919 23.6075 20.9919 24.7952V33.743H18.1292V24.6151C18.1292 24.0546 18.0091 23.5407 17.7689 23.0736C17.5287 22.6065 17.1884 22.2395 16.748 21.9726C16.3076 21.6924 15.7804 21.5522 15.1665 21.5522C14.566 21.5522 14.0388 21.6924 13.585 21.9726C13.1446 22.2395 12.8043 22.6065 12.5641 23.0736C12.3239 23.5407 12.2038 24.0546 12.2038 24.6151L12.2038 28.2785L9.34111 28.2785Z" fill="#FBFEF9"/>
<path d="M24.6919 22.3031C24.2515 22.3031 23.8645 22.1429 23.5308 21.8226C23.2105 21.5023 23.0504 21.1153 23.0504 20.6615C23.0504 20.2078 23.2105 19.8208 23.5308 19.5005C23.8645 19.1668 24.2515 19 24.6919 19C25.1457 19 25.5327 19.1668 25.853 19.5005C26.1866 19.8208 26.3534 20.2078 26.3534 20.6615C26.3534 21.1153 26.1866 21.5023 25.853 21.8226C25.5327 22.1429 25.1457 22.3031 24.6919 22.3031ZM26.2333 33.8137C25.3258 33.8137 24.6118 33.5535 24.0913 33.033C23.5842 32.5125 23.3306 31.8052 23.3306 30.911V23.6043H26.0732V30.8309C26.0732 31.0044 26.1332 31.1579 26.2533 31.2914C26.3868 31.4115 26.5403 31.4715 26.7138 31.4715H27.3343V33.8137H26.2333Z" fill="#FBFEF9"/>
</svg>
