<svg width="236" height="61" viewBox="0 0 236 61" fill="none" xmlns="http://www.w3.org/2000/svg">
<path fill-rule="evenodd" clip-rule="evenodd" d="M21.6804 12.2495C22.0017 12.0212 22.4138 11.9627 22.786 12.0925L32.8783 15.6122C34.7083 15.4909 36.552 15.993 38.0663 17.5593C39.5502 19.0942 40.0608 20.8985 39.975 22.6914L43.5041 32.8106C43.6339 33.1828 43.5754 33.5949 43.3471 33.9162C43.1189 34.2376 42.7491 34.4285 42.3549 34.4285L33.2165 34.4285L29.9597 37.6853C29.4886 36.2139 28.1095 35.1486 26.4817 35.1486C24.4652 35.1486 22.8305 36.7833 22.8305 38.7998C22.8305 40.4276 23.8957 41.8067 25.3672 42.2778L20.74 46.905C20.2417 47.4033 20.1025 47.8449 20.0915 48.1492C20.0802 48.4613 20.1976 48.7295 20.3872 48.9193C20.5767 49.109 20.8442 49.2263 21.1555 49.2151C21.4592 49.2042 21.901 49.0651 22.4005 48.5656C22.8758 48.0903 23.6465 48.0903 24.1218 48.5656C24.597 49.0409 24.597 49.8115 24.1218 50.2868C23.2576 51.1509 22.2544 51.6114 21.2428 51.6477C20.2387 51.6837 19.3205 51.2957 18.6651 50.6396C18.0097 49.9835 17.6228 49.0651 17.6589 48.0616C17.6954 47.0504 18.1552 46.0474 19.0188 45.1838L22.9558 41.2468L22.2136 40.5047C20.1801 42.3882 18.7416 43.1814 17.4395 43.8362L17.1333 43.9894C15.8925 44.6087 14.8552 45.1264 13.3459 46.6356C12.8667 47.1148 12.7397 47.5523 12.7405 47.8748C12.7414 48.214 12.8834 48.5383 13.1283 48.7832C13.3732 49.0281 13.6975 49.1702 14.0368 49.171C14.3592 49.1719 14.7967 49.0449 15.276 48.5656C15.7513 48.0903 16.5219 48.0903 16.9972 48.5656C17.4725 49.0409 17.4725 49.8115 16.9972 50.2868C16.1143 51.1697 15.0738 51.6079 14.0305 51.6052C13.004 51.6025 12.075 51.1723 11.4071 50.5044C10.7392 49.8365 10.309 48.9075 10.3063 47.881C10.3037 46.8378 10.7419 45.7972 11.6247 44.9144C13.4157 43.1234 14.7424 42.4617 16.042 41.8136C16.1434 41.763 16.2446 41.7125 16.3459 41.6616C17.4709 41.0958 18.6958 40.4337 20.4911 38.7822L17.0758 35.3668C15.4801 37.1468 14.8994 38.4534 14.3016 39.8058L14.2899 39.8321C13.5445 41.5185 12.7635 43.2854 10.3033 45.7457C9.42184 46.6272 8.38211 47.0634 7.33977 47.0589C6.31466 47.0545 5.38719 46.6234 4.72021 45.9564C4.05322 45.2894 3.62209 44.362 3.61769 43.3369C3.61321 42.2945 4.04938 41.2548 4.93084 40.3733C5.40614 39.898 6.17675 39.898 6.65205 40.3733C7.12735 40.8486 7.12734 41.6192 6.65204 42.0945C6.176 42.5706 6.05043 43.0054 6.05181 43.3264C6.05327 43.6647 6.19558 43.9894 6.44141 44.2352C6.68723 44.481 7.01195 44.6234 7.3502 44.6248C7.67121 44.6262 8.10601 44.5006 8.58205 44.0246C10.7214 41.8851 11.3624 40.4346 12.0499 38.8789L12.0752 38.8217C12.7392 37.3197 13.4517 35.7393 15.3524 33.6435L14.3497 32.6408L10.2418 36.7487C8.58819 38.4024 6.3418 38.1066 5.05464 36.8616C4.41026 36.2384 3.97796 35.3562 3.98486 34.3524C3.99183 33.3378 4.44494 32.3397 5.3098 31.4748C5.7851 30.9995 6.55571 30.9995 7.03101 31.4748C7.5063 31.9501 7.5063 32.7207 7.03101 33.196C6.53221 33.6948 6.42075 34.1068 6.41895 34.3691C6.41707 34.6422 6.53179 34.9039 6.74694 35.112C7.17884 35.5298 7.90152 35.6467 8.52063 35.0275L13.2929 30.2553C13.787 31.6865 15.146 32.7144 16.7451 32.7144C18.7616 32.7144 20.3963 31.0797 20.3963 29.0632C20.3963 27.4641 19.3683 26.1051 17.9372 25.611L21.1681 22.3801L21.1681 13.2417C21.1681 12.8475 21.359 12.4777 21.6804 12.2495ZM23.6023 20.1542C24.0196 19.8105 24.4881 19.4418 24.9962 19.0686C26.073 18.2779 27.381 17.4272 28.7936 16.7656L23.6023 14.9551L23.6023 20.1542ZM35.4802 31.9943L40.6415 31.9943L38.8496 26.8563C38.1949 28.2669 37.3468 29.5646 36.5558 30.6305C36.1871 31.1273 35.8219 31.5854 35.4802 31.9943Z" fill="#8E53E8"/>
<path d="M17.9622 29.0632C17.9622 29.7354 17.4173 30.2803 16.7451 30.2803C16.0729 30.2803 15.528 29.7354 15.528 29.0632C15.528 28.391 16.0729 27.8461 16.7451 27.8461C17.4173 27.8461 17.9622 28.391 17.9622 29.0632Z" fill="#8E53E8"/>
<path d="M27.6987 38.7998C27.6987 39.472 27.1538 40.0169 26.4817 40.0169C25.8095 40.0169 25.2646 39.472 25.2646 38.7998C25.2646 38.1276 25.8095 37.5827 26.4817 37.5827C27.1538 37.5827 27.6987 38.1276 27.6987 38.7998Z" fill="#8E53E8"/>
<path d="M56.523 40.3935V31.8491C56.523 30.6534 56.7699 29.6256 57.2637 28.7658C57.7708 27.8926 58.4581 27.2208 59.3256 26.7506C60.2064 26.2804 61.214 26.0453 62.3484 26.0453C63.4828 26.0453 64.4837 26.2804 65.3512 26.7506C66.232 27.2208 66.9193 27.8926 67.4131 28.7658C67.9202 29.6256 68.1738 30.6534 68.1738 31.8491V40.3935H65.3111V31.6677C65.3111 31.1034 65.191 30.5862 64.9508 30.116C64.7106 29.6458 64.3703 29.2763 63.9299 29.0076C63.4895 28.7255 62.9623 28.5844 62.3484 28.5844C61.7478 28.5844 61.2207 28.7255 60.7669 29.0076C60.3265 29.2763 59.9862 29.6458 59.746 30.116C59.5058 30.5862 59.3857 31.1034 59.3857 31.6677V40.3935H56.523Z" fill="#191923"/>
<path d="M65.3111 40.3935V31.8491C65.3111 30.6534 65.558 29.6256 66.0518 28.7658C66.559 27.8926 67.2463 27.2208 68.1137 26.7506C68.9945 26.2804 70.0021 26.0453 71.1365 26.0453C72.2709 26.0453 73.2718 26.2804 74.1393 26.7506C75.0201 27.2208 75.7074 27.8926 76.2012 28.7658C76.7083 29.6256 76.9619 30.6534 76.9619 31.8491V40.3935H74.0993V31.6677C74.0993 31.1034 73.9792 30.5862 73.7389 30.116C73.4987 29.6458 73.1584 29.2763 72.718 29.0076C72.2776 28.7255 71.7504 28.5844 71.1365 28.5844C70.536 28.5844 70.0088 28.7255 69.5551 29.0076C69.1147 29.2763 68.7743 29.6458 68.5341 30.116C68.2939 30.5862 68.1738 31.1034 68.1738 31.6677L68.1738 40.3935H65.3111Z" fill="#191923"/>
<path d="M146.324 40.5305C145.55 40.5305 144.843 40.3424 144.202 39.9662C143.575 39.59 143.075 39.0862 142.701 38.4548C142.327 37.8099 142.141 37.0979 142.141 36.3187C142.141 35.7544 142.261 35.2238 142.501 34.7267C142.741 34.2296 143.068 33.793 143.482 33.4168C143.068 33.0406 142.741 32.604 142.501 32.1069C142.261 31.6098 142.141 31.0859 142.141 30.5351C142.141 29.7693 142.321 29.0774 142.681 28.4594C143.055 27.8414 143.548 27.3511 144.162 26.9883C144.79 26.6122 145.477 26.4241 146.224 26.4241H151.99V28.9632H146.545C146.264 28.9632 146.004 29.0371 145.764 29.1849C145.537 29.3192 145.35 29.5073 145.203 29.7491C145.07 29.9775 145.003 30.2395 145.003 30.5351C145.003 30.8172 145.07 31.0792 145.203 31.321C145.35 31.5494 145.537 31.7375 145.764 31.8853C146.004 32.0196 146.264 32.0868 146.545 32.0868H151.309V34.6259H146.665C146.358 34.6259 146.077 34.7065 145.824 34.8678C145.57 35.0155 145.37 35.2171 145.223 35.4723C145.077 35.7276 145.003 36.0097 145.003 36.3187C145.003 36.6277 145.077 36.9098 145.223 37.1651C145.37 37.4203 145.57 37.6219 145.824 37.7696C146.077 37.9174 146.358 37.9913 146.665 37.9913H151.99V40.5305H146.324Z" fill="#191923"/>
<path d="M138.428 40.5305C137.6 40.5305 136.873 40.3424 136.245 39.9662C135.618 39.5766 135.131 39.0661 134.784 38.4346C134.437 37.7898 134.264 37.0845 134.264 36.3187V28.9632H130.36V26.4241H141.03V28.9632H137.126V36.6613C137.126 37.024 137.253 37.3397 137.507 37.6084C137.76 37.8637 138.067 37.9913 138.428 37.9913H143.889L146.565 40.5305H138.428Z" fill="#191923"/>
<path d="M127.014 28.9429C126.573 28.9429 126.186 28.7817 125.853 28.4592C125.532 28.1368 125.372 27.7472 125.372 27.2904C125.372 26.8336 125.532 26.444 125.853 26.1216C126.186 25.7857 126.573 25.6178 127.014 25.6178C127.468 25.6178 127.855 25.7857 128.175 26.1216C128.509 26.444 128.675 26.8336 128.675 27.2904C128.675 27.7472 128.509 28.1368 128.175 28.4592C127.855 28.7817 127.468 28.9429 127.014 28.9429ZM128.555 40.5303C127.648 40.5303 126.934 40.2683 126.413 39.7443C125.906 39.2204 125.653 38.5083 125.653 37.6082V30.2528H128.395V37.5276C128.395 37.7023 128.455 37.8568 128.575 37.9911C128.709 38.112 128.862 38.1725 129.036 38.1725H129.656V40.5303H128.555Z" fill="#191923"/>
<path d="M121.439 40.5305C120.612 40.5305 119.884 40.3424 119.257 39.9662C118.63 39.5766 118.143 39.0661 117.796 38.4346C117.449 37.7898 117.275 37.0845 117.275 36.3187V28.9632H113.372V26.4241H124.042V28.9632H120.138V36.6613C120.138 37.024 120.265 37.3397 120.518 37.6084C120.772 37.8637 121.079 37.9913 121.439 37.9913H122.44V40.5305H121.439Z" fill="#191923"/>
<path d="M104.123 40.5305V37.9913H106.645V28.9632H104.123V26.4241H113.496V28.9632H109.508V37.9913H112.03V40.5305H104.123Z" fill="#191923"/>
<path d="M90.818 40.5305V26.4241H97.0838C98.0047 26.4241 98.8388 26.6323 99.5861 27.0488C100.347 27.4518 100.947 28.0161 101.388 28.7415C101.842 29.467 102.068 30.3134 102.068 31.2807C102.068 32.2211 101.848 33.0541 101.408 33.7795C100.967 34.4916 100.387 35.0558 99.6662 35.4723L100.947 37.7293C101.001 37.8099 101.068 37.8771 101.148 37.9308C101.228 37.9712 101.321 37.9913 101.428 37.9913H104.137V40.5305H100.987C100.427 40.5305 99.9131 40.3894 99.446 40.1073C98.9923 39.8251 98.6319 39.4557 98.365 38.9989L96.7835 36.1373C96.6634 36.1373 96.5366 36.1373 96.4032 36.1373C96.2831 36.1373 96.163 36.1373 96.0429 36.1373H93.6807V40.5305H90.818ZM93.6807 33.5982H96.7435C97.1973 33.5982 97.611 33.5109 97.9847 33.3362C98.3583 33.1481 98.6519 32.8794 98.8655 32.5301C99.0923 32.1808 99.2058 31.7643 99.2058 31.2807C99.2058 30.7971 99.0923 30.3806 98.8655 30.0313C98.6386 29.682 98.3383 29.42 97.9646 29.2453C97.6043 29.0573 97.1973 28.9632 96.7435 28.9632H93.6807V33.5982Z" fill="#191923"/>
<path d="M82.9454 40.5305C82.1714 40.5305 81.464 40.3424 80.8234 39.9662C80.1962 39.59 79.6957 39.0862 79.3221 38.4548C78.9484 37.8099 78.7615 37.0979 78.7615 36.3187C78.7615 35.7544 78.8816 35.2238 79.1219 34.7267C79.3621 34.2296 79.6891 33.793 80.1028 33.4168C79.6891 33.0406 79.3621 32.604 79.1219 32.1069C78.8816 31.6098 78.7615 31.0859 78.7615 30.5351C78.7615 29.7693 78.9417 29.0774 79.302 28.4594C79.6757 27.8414 80.1695 27.3511 80.7834 26.9883C81.4107 26.6122 82.098 26.4241 82.8453 26.4241H88.6106V28.9632H83.1656C82.8854 28.9632 82.6251 29.0371 82.3849 29.1849C82.158 29.3192 81.9712 29.5073 81.8244 29.7491C81.6909 29.9775 81.6242 30.2395 81.6242 30.5351C81.6242 30.8172 81.6909 31.0792 81.8244 31.321C81.9712 31.5494 82.158 31.7375 82.3849 31.8853C82.6251 32.0196 82.8854 32.0868 83.1656 32.0868H87.93V34.6259H83.2857C82.9788 34.6259 82.6985 34.7065 82.4449 34.8678C82.1914 35.0155 81.9912 35.2171 81.8444 35.4723C81.6976 35.7276 81.6242 36.0097 81.6242 36.3187C81.6242 36.6277 81.6976 36.9098 81.8444 37.1651C81.9912 37.4203 82.1914 37.6219 82.4449 37.7696C82.6985 37.9174 82.9788 37.9913 83.2857 37.9913H88.6106V40.5305H82.9454Z" fill="#191923"/>
<path d="M202.366 40.1312V31.5867C202.366 30.391 202.613 29.3633 203.107 28.5035C203.614 27.6302 204.301 26.9585 205.168 26.4883C206.049 26.0181 207.057 25.783 208.191 25.783C209.326 25.783 210.327 26.0181 211.194 26.4883C212.075 26.9585 212.762 27.6302 213.256 28.5035C213.763 29.3633 214.017 30.391 214.017 31.5867V40.1312H211.154V31.4054C211.154 30.8411 211.034 30.3239 210.794 29.8537C210.553 29.3834 210.213 29.014 209.773 28.7453C209.332 28.4632 208.805 28.3221 208.191 28.3221C207.591 28.3221 207.064 28.4632 206.61 28.7453C206.169 29.014 205.829 29.3834 205.589 29.8537C205.349 30.3239 205.228 30.8411 205.228 31.4054V40.1312H202.366Z" fill="#191923"/>
<path d="M193.118 40.3934C191.997 40.3934 190.983 40.2053 190.076 39.8291C189.181 39.4395 188.414 38.9089 187.773 38.2371C187.133 37.5654 186.639 36.7862 186.292 35.8995C185.945 35.0128 185.772 34.0657 185.772 33.0581C185.772 32.0505 185.945 31.1101 186.292 30.2368C186.639 29.3501 187.133 28.5709 187.773 27.8992C188.414 27.2274 189.181 26.7035 190.076 26.3273C190.983 25.9511 191.997 25.7631 193.118 25.7631C194.239 25.7631 195.247 25.9511 196.141 26.3273C197.049 26.7035 197.823 27.2274 198.463 27.8992C199.104 28.5709 199.598 29.3501 199.945 30.2368C200.292 31.1101 200.465 32.0505 200.465 33.0581C200.465 34.0657 200.292 35.0128 199.945 35.8995C199.598 36.7862 199.104 37.5654 198.463 38.2371C197.823 38.9089 197.049 39.4395 196.141 39.8291C195.247 40.2053 194.239 40.3934 193.118 40.3934ZM193.118 37.8341C193.759 37.8341 194.353 37.7199 194.9 37.4915C195.447 37.2497 195.921 36.9138 196.321 36.4839C196.735 36.0406 197.049 35.5301 197.262 34.9524C197.489 34.3747 197.603 33.7432 197.603 33.0581C197.603 32.3729 197.489 31.7415 197.262 31.1638C197.049 30.5861 196.735 30.0823 196.321 29.6524C195.921 29.2225 195.447 28.8933 194.9 28.6649C194.353 28.4231 193.759 28.3022 193.118 28.3022C192.478 28.3022 191.884 28.4231 191.337 28.6649C190.79 28.8933 190.309 29.2225 189.895 29.6524C189.495 30.0823 189.181 30.5861 188.955 31.1638C188.741 31.7415 188.634 32.3729 188.634 33.0581C188.634 33.7432 188.741 34.3747 188.955 34.9524C189.181 35.5301 189.495 36.0406 189.895 36.4839C190.309 36.9138 190.79 37.2497 191.337 37.4915C191.884 37.7199 192.478 37.8341 193.118 37.8341Z" fill="#191923"/>
<path d="M163.852 40.3928C162.717 40.3928 161.71 40.1577 160.829 39.6875C159.962 39.2173 159.274 38.5523 158.767 37.6925C158.273 36.8192 158.026 35.7847 158.026 34.5891V26.0446H160.889V34.7704C160.889 35.3347 161.009 35.8519 161.249 36.3221C161.49 36.7789 161.83 37.1484 162.27 37.4305C162.724 37.7126 163.251 37.8537 163.852 37.8537C164.466 37.8537 164.993 37.7126 165.433 37.4305C165.874 37.1484 166.214 36.7789 166.454 36.3221C166.695 35.8519 166.815 35.3347 166.815 34.7704V31.0826H169.677V34.5891C169.677 35.7847 169.424 36.8192 168.917 37.6925C168.423 38.5523 167.735 39.2173 166.855 39.6875C165.987 40.1577 164.986 40.3928 163.852 40.3928Z" fill="#191923"/>
<path d="M166.815 34.7704V31.264C166.815 30.0683 167.062 29.0405 167.555 28.1807C168.062 27.3075 168.75 26.6357 169.617 26.1655C170.498 25.6953 171.506 25.4602 172.64 25.4602C173.774 25.4602 174.775 25.6953 175.643 26.1655C176.524 26.6357 177.211 27.3075 177.705 28.1807C178.212 29.0405 178.465 30.0683 178.465 31.264V40.2714H175.603V31.0826C175.603 30.5184 175.483 30.0011 175.242 29.5309C175.002 29.0607 174.662 28.6912 174.221 28.4225C173.781 28.1404 173.254 27.9994 172.64 27.9994C172.039 27.9994 171.512 28.1404 171.059 28.4225C170.618 28.6912 170.278 29.0607 170.038 29.5309C169.797 30.0011 169.677 30.5184 169.677 31.0826L169.677 34.7704L166.815 34.7704Z" fill="#191923"/>
<path d="M182.165 28.7554C181.725 28.7554 181.338 28.5942 181.004 28.2717C180.684 27.9493 180.524 27.5597 180.524 27.1029C180.524 26.6461 180.684 26.2565 181.004 25.9341C181.338 25.5982 181.725 25.4303 182.165 25.4303C182.619 25.4303 183.006 25.5982 183.326 25.9341C183.66 26.2565 183.827 26.6461 183.827 27.1029C183.827 27.5597 183.66 27.9493 183.326 28.2717C183.006 28.5942 182.619 28.7554 182.165 28.7554ZM183.707 40.3428C182.799 40.3428 182.085 40.0808 181.565 39.5568C181.058 39.0329 180.804 38.3208 180.804 37.4207V30.0653H183.547V37.3401C183.547 37.5148 183.607 37.6693 183.727 37.8036C183.86 37.9245 184.014 37.985 184.187 37.985H184.808V40.3428H183.707Z" fill="#191923"/>
</svg>
