<svg width="97" height="35" viewBox="0 0 97 35" fill="none" xmlns="http://www.w3.org/2000/svg">
<path d="M0.552979 15.542V7.05415C0.552979 5.86639 0.799874 4.84544 1.29366 3.99132C1.8008 3.12385 2.4881 2.45657 3.35557 1.98947C4.23639 1.52237 5.24399 1.28882 6.37837 1.28882C7.51275 1.28882 8.51368 1.52237 9.38115 1.98947C10.262 2.45657 10.9493 3.12385 11.4431 3.99132C11.9502 4.84544 12.2038 5.86639 12.2038 7.05415V15.542H9.3411V6.87399C9.3411 6.31347 9.221 5.79966 8.98078 5.33256C8.74056 4.86546 8.40024 4.49845 7.95983 4.23154C7.51943 3.95128 6.99227 3.81115 6.37837 3.81115C5.77781 3.81115 5.25066 3.95128 4.79691 4.23154C4.3565 4.49845 4.01619 4.86546 3.77597 5.33256C3.53574 5.79966 3.41563 6.31347 3.41563 6.87399V15.542H0.552979Z" fill="#191923"/>
<path d="M9.3411 15.542V7.05415C9.3411 5.86639 9.588 4.84544 10.0818 3.99132C10.5889 3.12385 11.2762 2.45657 12.1437 1.98947C13.0245 1.52237 14.0321 1.28882 15.1665 1.28882C16.3009 1.28882 17.3018 1.52237 18.1693 1.98947C19.0501 2.45657 19.7374 3.12385 20.2312 3.99132C20.7383 4.84544 20.9919 5.86639 20.9919 7.05415V15.542H18.1292V6.87399C18.1292 6.31347 18.0091 5.79966 17.7689 5.33256C17.5287 4.86546 17.1884 4.49845 16.748 4.23154C16.3076 3.95128 15.7804 3.81115 15.1665 3.81115C14.5659 3.81115 14.0388 3.95128 13.585 4.23154C13.1446 4.49845 12.8043 4.86546 12.5641 5.33256C12.3239 5.79966 12.2038 6.31347 12.2038 6.87399L12.2038 15.542H9.3411Z" fill="#191923"/>
<path d="M90.3543 15.678C89.5803 15.678 88.873 15.4912 88.2324 15.1175C87.6051 14.7438 87.1047 14.2433 86.731 13.6161C86.3573 12.9755 86.1705 12.2682 86.1705 11.4941C86.1705 10.9336 86.2906 10.4065 86.5308 9.91267C86.771 9.41888 87.098 8.98514 87.5117 8.61147C87.098 8.23779 86.771 7.80405 86.5308 7.31026C86.2906 6.81647 86.1705 6.29599 86.1705 5.74882C86.1705 4.98811 86.3506 4.30081 86.711 3.68691C87.0846 3.07301 87.5784 2.58589 88.1923 2.22556C88.8196 1.85188 89.5069 1.66504 90.2542 1.66504H96.0196V4.18737H90.5745C90.2943 4.18737 90.034 4.26077 89.7938 4.40758C89.5669 4.54103 89.3801 4.72787 89.2333 4.96809C89.0998 5.19497 89.0331 5.45521 89.0331 5.74882C89.0331 6.02908 89.0998 6.28932 89.2333 6.52954C89.3801 6.75642 89.5669 6.94326 89.7938 7.09006C90.034 7.22351 90.2943 7.29024 90.5745 7.29024H95.3389V9.81258H90.6946C90.3877 9.81258 90.1074 9.89265 89.8539 10.0528C89.6003 10.1996 89.4001 10.3998 89.2533 10.6534C89.1065 10.9069 89.0331 11.1872 89.0331 11.4941C89.0331 11.8011 89.1065 12.0813 89.2533 12.3349C89.4001 12.5885 89.6003 12.7887 89.8539 12.9355C90.1074 13.0823 90.3877 13.1557 90.6946 13.1557H96.0196V15.678H90.3543Z" fill="#191923"/>
<path d="M82.4575 15.678C81.6301 15.678 80.9027 15.4912 80.2755 15.1175C79.6482 14.7305 79.1611 14.2233 78.8141 13.5961C78.4671 12.9555 78.2936 12.2548 78.2936 11.4941V4.18737H74.39V1.66504H85.0599V4.18737H81.1563V11.8344C81.1563 12.1948 81.2831 12.5084 81.5366 12.7753C81.7902 13.0289 82.0972 13.1557 82.4575 13.1557H87.9185L90.5951 15.678H82.4575Z" fill="#191923"/>
<path d="M71.0438 4.16719C70.6034 4.16719 70.2164 4.00704 69.8828 3.68675C69.5625 3.36645 69.4023 2.97943 69.4023 2.52567C69.4023 2.07192 69.5625 1.68489 69.8828 1.3646C70.2164 1.03096 70.6034 0.864136 71.0438 0.864136C71.4976 0.864136 71.8846 1.03096 72.2049 1.3646C72.5385 1.68489 72.7054 2.07192 72.7054 2.52567C72.7054 2.97943 72.5385 3.36645 72.2049 3.68675C71.8846 4.00704 71.4976 4.16719 71.0438 4.16719ZM72.5853 15.6778C71.6778 15.6778 70.9638 15.4176 70.4433 14.8971C69.9361 14.3766 69.6826 13.6693 69.6826 12.7752V5.46839H72.4251V12.6951C72.4251 12.8686 72.4852 13.022 72.6053 13.1555C72.7387 13.2756 72.8922 13.3357 73.0657 13.3357H73.6863V15.6778H72.5853Z" fill="#191923"/>
<path d="M65.4691 15.678C64.6417 15.678 63.9144 15.4912 63.2871 15.1175C62.6599 14.7305 62.1728 14.2233 61.8258 13.5961C61.4788 12.9555 61.3053 12.2548 61.3053 11.4941V4.18737H57.4017V1.66504H68.0715V4.18737H64.1679V11.8344C64.1679 12.1948 64.2947 12.5084 64.5483 12.7753C64.8019 13.0289 65.1088 13.1557 65.4691 13.1557H66.4701V15.678H65.4691Z" fill="#191923"/>
<path d="M48.1526 15.678V13.1557H50.675V4.18737H48.1526V1.66504H57.526V4.18737H53.5376V13.1557H56.0599V15.678H48.1526Z" fill="#191923"/>
<path d="M34.848 15.678V1.66504H41.1138C42.0346 1.66504 42.8687 1.8719 43.6161 2.28561C44.3768 2.68598 44.9773 3.2465 45.4178 3.96717C45.8715 4.68784 46.0984 5.52861 46.0984 6.4895C46.0984 7.4237 45.8782 8.25113 45.4378 8.9718C44.9974 9.67912 44.4168 10.2396 43.6962 10.6534L44.9773 12.8954C45.0307 12.9755 45.0975 13.0422 45.1775 13.0956C45.2576 13.1357 45.351 13.1557 45.4578 13.1557H48.1674V15.678H45.0174C44.4569 15.678 43.9431 15.5379 43.476 15.2576C43.0222 14.9774 42.6619 14.6103 42.395 14.1566L40.8135 11.314C40.6934 11.314 40.5666 11.314 40.4331 11.314C40.313 11.314 40.1929 11.314 40.0728 11.314H37.7106V15.678H34.848ZM37.7106 8.79163H40.7735C41.2272 8.79163 41.6409 8.70488 42.0146 8.53139C42.3883 8.34455 42.6819 8.07764 42.8954 7.73065C43.1223 7.38366 43.2357 6.96995 43.2357 6.4895C43.2357 6.00906 43.1223 5.59534 42.8954 5.24835C42.6685 4.90137 42.3683 4.64113 41.9946 4.46763C41.6343 4.28079 41.2272 4.18737 40.7735 4.18737H37.7106V8.79163Z" fill="#191923"/>
<path d="M26.9754 15.678C26.2013 15.678 25.494 15.4912 24.8534 15.1175C24.2262 14.7438 23.7257 14.2433 23.352 13.6161C22.9784 12.9755 22.7915 12.2682 22.7915 11.4941C22.7915 10.9336 22.9116 10.4065 23.1519 9.91267C23.3921 9.41888 23.719 8.98514 24.1328 8.61147C23.719 8.23779 23.3921 7.80405 23.1519 7.31026C22.9116 6.81647 22.7915 6.29599 22.7915 5.74882C22.7915 4.98811 22.9717 4.30081 23.332 3.68691C23.7057 3.07301 24.1995 2.58589 24.8134 2.22556C25.4406 1.85188 26.1279 1.66504 26.8753 1.66504H32.6406V4.18737H27.1956C26.9153 4.18737 26.6551 4.26077 26.4149 4.40758C26.188 4.54103 26.0012 4.72787 25.8544 4.96809C25.7209 5.19497 25.6542 5.45521 25.6542 5.74882C25.6542 6.02908 25.7209 6.28932 25.8544 6.52954C26.0012 6.75642 26.188 6.94326 26.4149 7.09006C26.6551 7.22351 26.9153 7.29024 27.1956 7.29024H31.96V9.81258H27.3157C27.0088 9.81258 26.7285 9.89265 26.4749 10.0528C26.2214 10.1996 26.0212 10.3998 25.8744 10.6534C25.7276 10.9069 25.6542 11.1872 25.6542 11.4941C25.6542 11.8011 25.7276 12.0813 25.8744 12.3349C26.0212 12.5885 26.2214 12.7887 26.4749 12.9355C26.7285 13.0823 27.0088 13.1557 27.3157 13.1557H32.6406V15.678H26.9754Z" fill="#191923"/>
<path d="M44.8923 34.4678V25.9799C44.8923 24.7922 45.1392 23.7712 45.633 22.9171C46.1401 22.0496 46.8274 21.3823 47.6949 20.9152C48.5757 20.4481 49.5833 20.2146 50.7177 20.2146C51.8521 20.2146 52.853 20.4481 53.7205 20.9152C54.6013 21.3823 55.2886 22.0496 55.7824 22.9171C56.2895 23.7712 56.5431 24.7922 56.5431 25.9799V34.4678H53.6804V25.7998C53.6804 25.2392 53.5603 24.7254 53.3201 24.2583C53.0799 23.7912 52.7396 23.4242 52.2992 23.1573C51.8588 22.8771 51.3316 22.7369 50.7177 22.7369C50.1172 22.7369 49.59 22.8771 49.1362 23.1573C48.6958 23.4242 48.3555 23.7912 48.1153 24.2583C47.8751 24.7254 47.755 25.2392 47.755 25.7998V34.4678H44.8923Z" fill="#191923"/>
<path d="M35.6449 34.7281C34.5239 34.7281 33.5096 34.5413 32.6021 34.1676C31.7079 33.7806 30.9406 33.2535 30.3 32.5862C29.6594 31.9189 29.1656 31.1448 28.8186 30.264C28.4716 29.3832 28.2981 28.4423 28.2981 27.4414C28.2981 26.4405 28.4716 25.5063 28.8186 24.6388C29.1656 23.758 29.6594 22.9839 30.3 22.3167C30.9406 21.6494 31.7079 21.1289 32.6021 20.7552C33.5096 20.3815 34.5239 20.1947 35.6449 20.1947C36.766 20.1947 37.7736 20.3815 38.6677 20.7552C39.5752 21.1289 40.3493 21.6494 40.9899 22.3167C41.6305 22.9839 42.1242 23.758 42.4712 24.6388C42.8182 25.5063 42.9917 26.4405 42.9917 27.4414C42.9917 28.4423 42.8182 29.3832 42.4712 30.264C42.1242 31.1448 41.6305 31.9189 40.9899 32.5862C40.3493 33.2535 39.5752 33.7806 38.6677 34.1676C37.7736 34.5413 36.766 34.7281 35.6449 34.7281ZM35.6449 32.1858C36.2855 32.1858 36.8794 32.0724 37.4266 31.8455C37.9737 31.6053 38.4475 31.2716 38.8479 30.8446C39.2616 30.4041 39.5752 29.897 39.7888 29.3231C40.0156 28.7493 40.1291 28.122 40.1291 27.4414C40.1291 26.7608 40.0156 26.1335 39.7888 25.5597C39.5752 24.9858 39.2616 24.4853 38.8479 24.0583C38.4475 23.6312 37.9737 23.3042 37.4266 23.0774C36.8794 22.8371 36.2855 22.717 35.6449 22.717C35.0043 22.717 34.4104 22.8371 33.8633 23.0774C33.3161 23.3042 32.8357 23.6312 32.4219 24.0583C32.0216 24.4853 31.7079 24.9858 31.4811 25.5597C31.2675 26.1335 31.1608 26.7608 31.1608 27.4414C31.1608 28.122 31.2675 28.7493 31.4811 29.3231C31.7079 29.897 32.0216 30.4041 32.4219 30.8446C32.8357 31.2716 33.3161 31.6053 33.8633 31.8455C34.4104 32.0724 35.0043 32.1858 35.6449 32.1858Z" fill="#191923"/>
<path d="M6.37837 34.7278C5.24399 34.7278 4.23639 34.4942 3.35557 34.0271C2.4881 33.56 1.8008 32.8994 1.29366 32.0453C0.799874 31.1778 0.552979 30.1502 0.552979 28.9624V20.4746H3.41563V29.1426C3.41563 29.7031 3.53574 30.2169 3.77596 30.684C4.01619 31.1378 4.3565 31.5048 4.79691 31.7851C5.25066 32.0653 5.77781 32.2054 6.37837 32.2054C6.99227 32.2054 7.51943 32.0653 7.95983 31.7851C8.40024 31.5048 8.74056 31.1378 8.98078 30.684C9.221 30.2169 9.34111 29.7031 9.34111 29.1426V25.4792H12.2038V28.9624C12.2038 30.1502 11.9502 31.1778 11.4431 32.0453C10.9493 32.8994 10.262 33.56 9.38114 34.0271C8.51367 34.4942 7.51275 34.7278 6.37837 34.7278Z" fill="#191923"/>
<path d="M9.34111 29.1426V25.6594C9.34111 24.4716 9.58801 23.4507 10.0818 22.5965C10.5889 21.7291 11.2762 21.0618 12.1437 20.5947C13.0245 20.1276 14.0321 19.894 15.1665 19.894C16.3009 19.894 17.3018 20.1276 18.1693 20.5947C19.0501 21.0618 19.7374 21.7291 20.2312 22.5965C20.7383 23.4507 20.9919 24.4716 20.9919 25.6594V34.6071H18.1292V25.4792C18.1292 24.9187 18.0091 24.4049 17.7689 23.9378C17.5287 23.4707 17.1884 23.1037 16.748 22.8368C16.3076 22.5565 15.7804 22.4164 15.1665 22.4164C14.566 22.4164 14.0388 22.5565 13.585 22.8368C13.1446 23.1037 12.8043 23.4707 12.5641 23.9378C12.3239 24.4049 12.2038 24.9187 12.2038 25.4792L12.2038 29.1426L9.34111 29.1426Z" fill="#191923"/>
<path d="M24.6919 23.1672C24.2515 23.1672 23.8645 23.007 23.5308 22.6867C23.2105 22.3665 23.0504 21.9794 23.0504 21.5257C23.0504 21.0719 23.2105 20.6849 23.5308 20.3646C23.8645 20.031 24.2515 19.8641 24.6919 19.8641C25.1457 19.8641 25.5327 20.031 25.853 20.3646C26.1866 20.6849 26.3534 21.0719 26.3534 21.5257C26.3534 21.9794 26.1866 22.3665 25.853 22.6867C25.5327 23.007 25.1457 23.1672 24.6919 23.1672ZM26.2333 34.6778C25.3258 34.6778 24.6118 34.4176 24.0913 33.8971C23.5842 33.3766 23.3306 32.6693 23.3306 31.7752V24.4684H26.0732V31.6951C26.0732 31.8686 26.1332 32.022 26.2533 32.1555C26.3868 32.2756 26.5403 32.3357 26.7138 32.3357H27.3343V34.6778H26.2333Z" fill="#191923"/>
</svg>
