<svg width="158" height="16" viewBox="0 0 158 16" fill="none" xmlns="http://www.w3.org/2000/svg">
<path d="M0.306152 15.0632V6.51873C0.306152 5.32305 0.553048 4.2953 1.04684 3.43548C1.55397 2.56223 2.24128 1.8905 3.10875 1.42028C3.98956 0.950072 4.99716 0.714966 6.13154 0.714966C7.26593 0.714966 8.26685 0.950072 9.13432 1.42028C10.0151 1.8905 10.7024 2.56223 11.1962 3.43548C11.7034 4.2953 11.9569 5.32305 11.9569 6.51873V15.0632H9.09428V6.33737C9.09428 5.77311 8.97417 5.25588 8.73395 4.78566C8.49373 4.31545 8.15342 3.946 7.71301 3.67731C7.2726 3.39518 6.74544 3.25411 6.13154 3.25411C5.53099 3.25411 5.00384 3.39518 4.55008 3.67731C4.10968 3.946 3.76936 4.31545 3.52914 4.78566C3.28892 5.25588 3.1688 5.77311 3.1688 6.33737V15.0632H0.306152Z" fill="#7730E2"/>
<path d="M9.09428 15.0632V6.51873C9.09428 5.32305 9.34117 4.2953 9.83496 3.43548C10.3421 2.56223 11.0294 1.8905 11.8969 1.42028C12.7777 0.950072 13.7853 0.714966 14.9197 0.714966C16.0541 0.714966 17.055 0.950072 17.9224 1.42028C18.8033 1.8905 19.4906 2.56223 19.9844 3.43548C20.4915 4.2953 20.7451 5.32305 20.7451 6.51873V15.0632H17.8824V6.33737C17.8824 5.77311 17.7623 5.25588 17.5221 4.78566C17.2819 4.31545 16.9415 3.946 16.5011 3.67731C16.0607 3.39518 15.5336 3.25411 14.9197 3.25411C14.3191 3.25411 13.792 3.39518 13.3382 3.67731C12.8978 3.946 12.5575 4.31545 12.3173 4.78566C12.077 5.25588 11.9569 5.77311 11.9569 6.33737L11.9569 15.0632H9.09428Z" fill="#7730E2"/>
<path d="M90.1075 15.2001C89.3335 15.2001 88.6261 15.012 87.9856 14.6359C87.3583 14.2597 86.8578 13.7559 86.4842 13.1245C86.1105 12.4796 85.9236 11.7676 85.9236 10.9884C85.9236 10.4241 86.0438 9.89345 86.284 9.39636C86.5242 8.89928 86.8512 8.46266 87.2649 8.08649C86.8512 7.71032 86.5242 7.27369 86.284 6.77661C86.0438 6.27953 85.9236 5.75557 85.9236 5.20475C85.9236 4.43898 86.1038 3.74709 86.4641 3.1291C86.8378 2.51111 87.3316 2.02074 87.9455 1.65801C88.5728 1.28184 89.2601 1.09375 90.0074 1.09375H95.7728V3.6329H90.3277C90.0475 3.6329 89.7872 3.70679 89.547 3.85457C89.3201 3.98892 89.1333 4.177 88.9865 4.41883C88.853 4.64722 88.7863 4.90919 88.7863 5.20475C88.7863 5.48688 88.853 5.74886 88.9865 5.99068C89.1333 6.21907 89.3201 6.40715 89.547 6.55494C89.7872 6.68928 90.0475 6.75646 90.3277 6.75646H95.0921V9.2956H90.4478C90.1409 9.2956 89.8606 9.37621 89.6071 9.53743C89.3535 9.68521 89.1533 9.88673 89.0065 10.142C88.8597 10.3972 88.7863 10.6794 88.7863 10.9884C88.7863 11.2974 88.8597 11.5795 89.0065 11.8348C89.1533 12.09 89.3535 12.2915 89.6071 12.4393C89.8606 12.5871 90.1409 12.661 90.4478 12.661H95.7728V15.2001H90.1075Z" fill="#7730E2"/>
<path d="M82.2107 15.2001C81.3832 15.2001 80.6559 15.012 80.0286 14.6359C79.4014 14.2463 78.9143 13.7358 78.5673 13.1043C78.2203 12.4595 78.0468 11.7541 78.0468 10.9884V3.6329H74.1432V1.09375H84.8131V3.6329H80.9094V11.331C80.9094 11.6937 81.0362 12.0094 81.2898 12.2781C81.5434 12.5334 81.8503 12.661 82.2107 12.661H87.6717L90.3482 15.2001H82.2107Z" fill="#7730E2"/>
<path d="M70.797 3.61255C70.3566 3.61255 69.9696 3.45134 69.6359 3.1289C69.3156 2.80647 69.1555 2.41687 69.1555 1.96009C69.1555 1.50331 69.3156 1.11371 69.6359 0.791274C69.9696 0.455409 70.3566 0.287476 70.797 0.287476C71.2508 0.287476 71.6378 0.455409 71.9581 0.791274C72.2917 1.11371 72.4585 1.50331 72.4585 1.96009C72.4585 2.41687 72.2917 2.80647 71.9581 3.1289C71.6378 3.45134 71.2508 3.61255 70.797 3.61255ZM72.3384 15.1999C71.4309 15.1999 70.7169 14.938 70.1965 14.414C69.6893 13.8901 69.4357 13.178 69.4357 12.2779V4.92243H72.1783V12.1973C72.1783 12.3719 72.2383 12.5264 72.3584 12.6608C72.4919 12.7817 72.6454 12.8422 72.8189 12.8422H73.4395V15.1999H72.3384Z" fill="#7730E2"/>
<path d="M65.2223 15.2001C64.3949 15.2001 63.6675 15.012 63.0403 14.6359C62.413 14.2463 61.9259 13.7358 61.5789 13.1043C61.232 12.4595 61.0585 11.7541 61.0585 10.9884V3.6329H57.1548V1.09375H67.8247V3.6329H63.9211V11.331C63.9211 11.6937 64.0479 12.0094 64.3015 12.2781C64.555 12.5334 64.862 12.661 65.2223 12.661H66.2232V15.2001H65.2223Z" fill="#7730E2"/>
<path d="M47.9058 15.2001V12.661H50.4281V3.6329H47.9058V1.09375H57.2792V3.6329H53.2908V12.661H55.8131V15.2001H47.9058Z" fill="#7730E2"/>
<path d="M34.6012 15.2001V1.09375H40.867C41.7878 1.09375 42.6219 1.30199 43.3693 1.71846C44.13 2.1215 44.7305 2.68576 45.1709 3.41123C45.6247 4.1367 45.8516 4.98308 45.8516 5.95038C45.8516 6.8908 45.6314 7.72375 45.191 8.44922C44.7506 9.16126 44.17 9.72551 43.4493 10.142L44.7305 12.399C44.7839 12.4796 44.8506 12.5468 44.9307 12.6005C45.0108 12.6408 45.1042 12.661 45.211 12.661H47.9206V15.2001H44.7706C44.2101 15.2001 43.6962 15.0591 43.2291 14.7769C42.7754 14.4948 42.4151 14.1254 42.1481 13.6686L40.5667 10.807C40.4466 10.807 40.3198 10.807 40.1863 10.807C40.0662 10.807 39.9461 10.807 39.826 10.807H37.4638V15.2001H34.6012ZM37.4638 8.26785H40.5266C40.9804 8.26785 41.3941 8.18053 41.7678 8.00588C42.1415 7.81779 42.4351 7.5491 42.6486 7.1998C42.8755 6.8505 42.9889 6.43402 42.9889 5.95038C42.9889 5.46673 42.8755 5.05025 42.6486 4.70095C42.4217 4.35165 42.1215 4.08968 41.7478 3.91503C41.3874 3.72694 40.9804 3.6329 40.5266 3.6329H37.4638V8.26785Z" fill="#7730E2"/>
<path d="M26.7285 15.2001C25.9545 15.2001 25.2472 15.012 24.6066 14.6359C23.9793 14.2597 23.4789 13.7559 23.1052 13.1245C22.7315 12.4796 22.5447 11.7676 22.5447 10.9884C22.5447 10.4241 22.6648 9.89345 22.905 9.39636C23.1452 8.89928 23.4722 8.46266 23.8859 8.08649C23.4722 7.71032 23.1452 7.27369 22.905 6.77661C22.6648 6.27953 22.5447 5.75557 22.5447 5.20475C22.5447 4.43898 22.7248 3.74709 23.0852 3.1291C23.4589 2.51111 23.9526 2.02074 24.5665 1.65801C25.1938 1.28184 25.8811 1.09375 26.6285 1.09375H32.3938V3.6329H26.9488C26.6685 3.6329 26.4083 3.70679 26.168 3.85457C25.9412 3.98892 25.7543 4.177 25.6075 4.41883C25.4741 4.64722 25.4073 4.90919 25.4073 5.20475C25.4073 5.48688 25.4741 5.74886 25.6075 5.99068C25.7543 6.21907 25.9412 6.40715 26.168 6.55494C26.4083 6.68928 26.6685 6.75646 26.9488 6.75646H31.7132V9.2956H27.0689C26.7619 9.2956 26.4817 9.37621 26.2281 9.53743C25.9745 9.68521 25.7743 9.88673 25.6275 10.142C25.4807 10.3972 25.4073 10.6794 25.4073 10.9884C25.4073 11.2974 25.4807 11.5795 25.6275 11.8348C25.7743 12.09 25.9745 12.2915 26.2281 12.4393C26.4817 12.5871 26.7619 12.661 27.0689 12.661H32.3938V15.2001H26.7285Z" fill="#7730E2"/>
<path d="M146.149 14.8008V6.25641C146.149 5.06072 146.396 4.03297 146.89 3.17315C147.397 2.2999 148.084 1.62817 148.952 1.15796C149.832 0.687743 150.84 0.452637 151.974 0.452637C153.109 0.452637 154.11 0.687743 154.977 1.15796C155.858 1.62817 156.545 2.2999 157.039 3.17315C157.546 4.03297 157.8 5.06072 157.8 6.25641V14.8008H154.937V6.07504C154.937 5.51078 154.817 4.99355 154.577 4.52334C154.337 4.05312 153.996 3.68367 153.556 3.41498C153.115 3.13285 152.588 2.99179 151.974 2.99179C151.374 2.99179 150.847 3.13285 150.393 3.41498C149.953 3.68367 149.612 4.05312 149.372 4.52334C149.132 4.99355 149.012 5.51078 149.012 6.07504V14.8008H146.149Z" fill="#7730E2"/>
<path d="M136.902 15.0631C135.781 15.0631 134.766 14.875 133.859 14.4988C132.965 14.1092 132.197 13.5785 131.557 12.9068C130.916 12.2351 130.422 11.4559 130.075 10.5692C129.728 9.6825 129.555 8.73535 129.555 7.72776C129.555 6.72016 129.728 5.77973 130.075 4.90648C130.422 4.01979 130.916 3.24058 131.557 2.56885C132.197 1.89712 132.965 1.37317 133.859 0.996995C134.766 0.620824 135.781 0.432739 136.902 0.432739C138.023 0.432739 139.03 0.620824 139.924 0.996995C140.832 1.37317 141.606 1.89712 142.247 2.56885C142.887 3.24058 143.381 4.01979 143.728 4.90648C144.075 5.77973 144.248 6.72016 144.248 7.72776C144.248 8.73535 144.075 9.6825 143.728 10.5692C143.381 11.4559 142.887 12.2351 142.247 12.9068C141.606 13.5785 140.832 14.1092 139.924 14.4988C139.03 14.875 138.023 15.0631 136.902 15.0631ZM136.902 12.5038C137.542 12.5038 138.136 12.3896 138.683 12.1612C139.23 11.9194 139.704 11.5835 140.105 11.1536C140.518 10.7102 140.832 10.1997 141.045 9.62204C141.272 9.04435 141.386 8.41292 141.386 7.72776C141.386 7.04259 141.272 6.41116 141.045 5.83347C140.832 5.25578 140.518 4.75198 140.105 4.32207C139.704 3.89216 139.23 3.56301 138.683 3.33462C138.136 3.0928 137.542 2.97189 136.902 2.97189C136.261 2.97189 135.667 3.0928 135.12 3.33462C134.573 3.56301 134.092 3.89216 133.679 4.32207C133.278 4.75198 132.965 5.25578 132.738 5.83347C132.524 6.41116 132.417 7.04259 132.417 7.72776C132.417 8.41292 132.524 9.04435 132.738 9.62204C132.965 10.1997 133.278 10.7102 133.679 11.1536C134.092 11.5835 134.573 11.9194 135.12 12.1612C135.667 12.3896 136.261 12.5038 136.902 12.5038Z" fill="#7730E2"/>
<path d="M107.635 15.0625C106.501 15.0625 105.493 14.8274 104.612 14.3572C103.745 13.887 103.057 13.222 102.55 12.3621C102.057 11.4889 101.81 10.4544 101.81 9.25874V0.714298H104.672V9.44011C104.672 10.0044 104.792 10.5216 105.033 10.9918C105.273 11.4486 105.613 11.818 106.054 12.1002C106.507 12.3823 107.034 12.5234 107.635 12.5234C108.249 12.5234 108.776 12.3823 109.216 12.1002C109.657 11.818 109.997 11.4486 110.237 10.9918C110.478 10.5216 110.598 10.0044 110.598 9.44011V5.75229H113.46V9.25874C113.46 10.4544 113.207 11.4889 112.7 12.3621C112.206 13.222 111.519 13.887 110.638 14.3572C109.77 14.8274 108.769 15.0625 107.635 15.0625Z" fill="#7730E2"/>
<path d="M110.598 9.44011V5.93365C110.598 4.73797 110.845 3.71022 111.338 2.8504C111.846 1.97715 112.533 1.30541 113.4 0.835201C114.281 0.364989 115.289 0.129883 116.423 0.129883C117.558 0.129883 118.558 0.364989 119.426 0.835201C120.307 1.30541 120.994 1.97715 121.488 2.8504C121.995 3.71022 122.249 4.73797 122.249 5.93365V14.9411H119.386V5.75228C119.386 5.18803 119.266 4.67079 119.026 4.20058C118.785 3.73037 118.445 3.36092 118.005 3.09222C117.564 2.8101 117.037 2.66903 116.423 2.66903C115.823 2.66903 115.295 2.8101 114.842 3.09222C114.401 3.36092 114.061 3.73037 113.821 4.20058C113.581 4.67079 113.46 5.18804 113.46 5.75229L113.46 9.4401L110.598 9.44011Z" fill="#7730E2"/>
<path d="M125.949 3.42505C125.508 3.42505 125.121 3.26384 124.787 2.9414C124.467 2.61897 124.307 2.22937 124.307 1.77259C124.307 1.31581 124.467 0.926206 124.787 0.603774C125.121 0.267909 125.508 0.0999756 125.949 0.0999756C126.402 0.0999756 126.789 0.267909 127.11 0.603774C127.443 0.926206 127.61 1.31581 127.61 1.77259C127.61 2.22937 127.443 2.61897 127.11 2.9414C126.789 3.26384 126.402 3.42505 125.949 3.42505ZM127.49 15.0124C126.582 15.0124 125.868 14.7505 125.348 14.2265C124.841 13.7026 124.587 12.9905 124.587 12.0904V4.73493H127.33V12.0098C127.33 12.1844 127.39 12.3389 127.51 12.4733C127.643 12.5942 127.797 12.6547 127.97 12.6547H128.591V15.0124H127.49Z" fill="#7730E2"/>
</svg>
