<svg width="148" height="61" viewBox="0 0 148 61" fill="none" xmlns="http://www.w3.org/2000/svg">
<path fill-rule="evenodd" clip-rule="evenodd" d="M21.147 11.8692C21.4684 11.6409 21.8804 11.5824 22.2526 11.7122L32.345 15.2319C34.1749 15.1107 36.0186 15.6128 37.5329 17.1791C39.0169 18.714 39.5275 20.5182 39.4417 22.3112L42.9707 32.4304C43.1005 32.8026 43.042 33.2146 42.8138 33.536C42.5855 33.8573 42.2157 34.0482 41.8215 34.0482L32.6831 34.0482L29.4263 37.3051C28.9552 35.8336 27.5761 34.7683 25.9483 34.7683C23.9318 34.7683 22.2971 36.403 22.2971 38.4195C22.2971 40.0474 23.3624 41.4264 24.8338 41.8976L20.2066 46.5248C19.7083 47.0231 19.5691 47.4646 19.5581 47.769C19.5469 48.0811 19.6642 48.3492 19.8538 48.539C20.0434 48.7288 20.3108 48.846 20.6221 48.8348C20.9258 48.824 21.3676 48.6849 21.8672 48.1853C22.3425 47.71 23.1131 47.71 23.5884 48.1853C24.0637 48.6606 24.0637 49.4312 23.5884 49.9065C22.7242 50.7707 21.721 51.2311 20.7094 51.2674C19.7054 51.3034 18.7872 50.9155 18.1317 50.2593C17.4763 49.6032 17.0894 48.6848 17.1255 47.6813C17.162 46.6701 17.6219 45.6671 18.4854 44.8036L22.4224 40.8666L21.6803 40.1245C19.6468 42.0079 18.2083 42.8011 16.9062 43.456L16.6 43.6092C15.3591 44.2284 14.3218 44.7461 12.8126 46.2553C12.3333 46.7346 12.2063 47.1721 12.2071 47.4945C12.208 47.8337 12.35 48.1581 12.5949 48.403C12.8398 48.6479 13.1642 48.7899 13.5034 48.7908C13.8258 48.7916 14.2633 48.6646 14.7426 48.1853C15.2179 47.71 15.9885 47.71 16.4638 48.1853C16.9391 48.6606 16.9391 49.4312 16.4638 49.9065C15.5809 50.7894 14.5404 51.2276 13.4971 51.2249C12.4707 51.2223 11.5416 50.7921 10.8737 50.1242C10.2058 49.4563 9.77562 48.5272 9.77297 47.5008C9.77028 46.4575 10.2085 45.417 11.0914 44.5341C12.8824 42.7431 14.2091 42.0815 15.5087 41.4333C15.61 41.3828 15.7112 41.3323 15.8125 41.2814C16.9375 40.7156 18.1624 40.0534 19.9577 38.4019L16.5424 34.9866C14.9468 36.7665 14.366 38.0732 13.7682 39.4255L13.7566 39.4519C13.0112 41.1382 12.2301 42.9051 9.76991 45.3655C8.88846 46.247 7.84873 46.6831 6.80639 46.6787C5.78129 46.6743 4.85382 46.2432 4.18683 45.5762C3.51984 44.9092 3.08871 43.9817 3.08431 42.9566C3.07983 41.9143 3.516 40.8745 4.39747 39.9931C4.87276 39.5178 5.64337 39.5178 6.11867 39.9931C6.59397 40.4684 6.59396 41.239 6.11867 41.7143C5.64262 42.1903 5.51706 42.6251 5.51843 42.9462C5.51989 43.2844 5.6622 43.6092 5.90803 43.855C6.15385 44.1008 6.47857 44.2431 6.81682 44.2446C7.13783 44.2459 7.57263 44.1204 8.04867 43.6443C10.188 41.5048 10.829 40.0544 11.5166 38.4986L11.5419 38.4414C12.2058 36.9394 12.9183 35.359 14.819 33.2632L13.8164 32.2606L9.70846 36.3685C8.05481 38.0221 5.80842 37.7264 4.52127 36.4814C3.87688 35.8581 3.44458 34.976 3.45148 33.9721C3.45845 32.9575 3.91156 31.9595 4.77643 31.0946C5.25172 30.6193 6.02233 30.6193 6.49763 31.0946C6.97293 31.5699 6.97293 32.3405 6.49763 32.8158C5.99883 33.3146 5.88737 33.7265 5.88557 33.9889C5.88369 34.262 5.99841 34.5237 6.21356 34.7318C6.64546 35.1495 7.36814 35.2664 7.98725 34.6473L12.7595 29.875C13.2536 31.3062 14.6126 32.3342 16.2117 32.3342C18.2282 32.3342 19.8629 30.6995 19.8629 28.683C19.8629 27.0839 18.8349 25.7249 17.4038 25.2308L20.6347 21.9998L20.6347 12.8614C20.6347 12.4673 20.8256 12.0975 21.147 11.8692ZM23.0689 19.774C23.4862 19.4303 23.9547 19.0615 24.4628 18.6884C25.5396 17.8977 26.8476 17.047 28.2602 16.3853L23.0689 14.5749L23.0689 19.774ZM34.9468 31.6141L40.1081 31.6141L38.3162 26.476C37.6615 27.8866 36.8134 29.1843 36.0224 30.2502C35.6537 30.7471 35.2885 31.2052 34.9468 31.6141Z" fill="#FBFEF9"/>
<path d="M17.4288 28.683C17.4288 29.3551 16.8839 29.9 16.2117 29.9C15.5395 29.9 14.9946 29.3551 14.9946 28.683C14.9946 28.0108 15.5395 27.4659 16.2117 27.4659C16.8839 27.4659 17.4288 28.0108 17.4288 28.683Z" fill="#FBFEF9"/>
<path d="M27.1654 38.4195C27.1654 39.0917 26.6205 39.6366 25.9483 39.6366C25.2761 39.6366 24.7312 39.0917 24.7312 38.4195C24.7312 37.7474 25.2761 37.2025 25.9483 37.2025C26.6205 37.2025 27.1654 37.7474 27.1654 38.4195Z" fill="#FBFEF9"/>
<path d="M51.9396 30.0297V21.5418C51.9396 20.3541 52.1865 19.3331 52.6803 18.479C53.1874 17.6115 53.8747 16.9442 54.7422 16.4771C55.623 16.01 56.6306 15.7765 57.765 15.7765C58.8994 15.7765 59.9003 16.01 60.7678 16.4771C61.6486 16.9442 62.3359 17.6115 62.8297 18.479C63.3368 19.3331 63.5904 20.3541 63.5904 21.5418V30.0297H60.7277V21.3617C60.7277 20.8011 60.6076 20.2873 60.3674 19.8202C60.1272 19.3531 59.7869 18.9861 59.3465 18.7192C58.9061 18.439 58.3789 18.2988 57.765 18.2988C57.1644 18.2988 56.6373 18.439 56.1835 18.7192C55.7431 18.9861 55.4028 19.3531 55.1626 19.8202C54.9224 20.2873 54.8023 20.8011 54.8023 21.3617V30.0297H51.9396Z" fill="#FBFEF9"/>
<path d="M60.7277 30.0297V21.5418C60.7277 20.3541 60.9746 19.3331 61.4684 18.479C61.9756 17.6115 62.6629 16.9442 63.5303 16.4771C64.4111 16.01 65.4187 15.7765 66.5531 15.7765C67.6875 15.7765 68.6884 16.01 69.5559 16.4771C70.4367 16.9442 71.124 17.6115 71.6178 18.479C72.1249 19.3331 72.3785 20.3541 72.3785 21.5418V30.0297H69.5159V21.3617C69.5159 20.8011 69.3958 20.2873 69.1555 19.8202C68.9153 19.3531 68.575 18.9861 68.1346 18.7192C67.6942 18.439 67.167 18.2988 66.5531 18.2988C65.9526 18.2988 65.4254 18.439 64.9717 18.7192C64.5313 18.9861 64.1909 19.3531 63.9507 19.8202C63.7105 20.2873 63.5904 20.8011 63.5904 21.3617L63.5904 30.0297H60.7277Z" fill="#FBFEF9"/>
<path d="M141.741 30.1657C140.967 30.1657 140.26 29.9788 139.619 29.6052C138.992 29.2315 138.491 28.731 138.118 28.1038C137.744 27.4632 137.557 26.7559 137.557 25.9818C137.557 25.4213 137.677 24.8941 137.917 24.4003C138.158 23.9065 138.485 23.4728 138.898 23.0991C138.485 22.7255 138.158 22.2917 137.917 21.7979C137.677 21.3041 137.557 20.7837 137.557 20.2365C137.557 19.4758 137.737 18.7885 138.098 18.1746C138.471 17.5607 138.965 17.0736 139.579 16.7132C140.206 16.3395 140.893 16.1527 141.641 16.1527H147.406V18.675H141.961C141.681 18.675 141.421 18.7484 141.18 18.8952C140.954 19.0287 140.767 19.2155 140.62 19.4558C140.486 19.6826 140.42 19.9429 140.42 20.2365C140.42 20.5167 140.486 20.777 140.62 21.0172C140.767 21.2441 140.954 21.4309 141.18 21.5777C141.421 21.7112 141.681 21.7779 141.961 21.7779H146.726V24.3002H142.081C141.774 24.3002 141.494 24.3803 141.24 24.5405C140.987 24.6873 140.787 24.8875 140.64 25.141C140.493 25.3946 140.42 25.6749 140.42 25.9818C140.42 26.2888 140.493 26.569 140.64 26.8226C140.787 27.0761 140.987 27.2763 141.24 27.4231C141.494 27.5699 141.774 27.6433 142.081 27.6433H147.406V30.1657H141.741Z" fill="#FBFEF9"/>
<path d="M133.844 30.1657C133.017 30.1657 132.289 29.9788 131.662 29.6052C131.035 29.2181 130.548 28.711 130.201 28.0837C129.854 27.4432 129.68 26.7425 129.68 25.9818V18.675H125.777V16.1527H136.446V18.675H132.543V26.3221C132.543 26.6825 132.67 26.9961 132.923 27.263C133.177 27.5166 133.484 27.6433 133.844 27.6433H139.305L141.982 30.1657H133.844Z" fill="#FBFEF9"/>
<path d="M122.43 18.6549C121.99 18.6549 121.603 18.4947 121.269 18.1744C120.949 17.8541 120.789 17.4671 120.789 17.0133C120.789 16.5596 120.949 16.1726 121.269 15.8523C121.603 15.5186 121.99 15.3518 122.43 15.3518C122.884 15.3518 123.271 15.5186 123.592 15.8523C123.925 16.1726 124.092 16.5596 124.092 17.0133C124.092 17.4671 123.925 17.8541 123.592 18.1744C123.271 18.4947 122.884 18.6549 122.43 18.6549ZM123.972 30.1655C123.064 30.1655 122.35 29.9053 121.83 29.3848C121.323 28.8643 121.069 28.157 121.069 27.2628V19.9561H123.812V27.1828C123.812 27.3562 123.872 27.5097 123.992 27.6432C124.125 27.7633 124.279 27.8233 124.452 27.8233H125.073V30.1655H123.972Z" fill="#FBFEF9"/>
<path d="M116.856 30.1657C116.028 30.1657 115.301 29.9788 114.674 29.6052C114.046 29.2181 113.559 28.711 113.212 28.0837C112.865 27.4432 112.692 26.7425 112.692 25.9818V18.675H108.788V16.1527H119.458V18.675H115.555V26.3221C115.555 26.6825 115.681 26.9961 115.935 27.263C116.188 27.5166 116.495 27.6433 116.856 27.6433H117.857V30.1657H116.856Z" fill="#FBFEF9"/>
<path d="M99.5392 30.1657V27.6433H102.062V18.675H99.5392V16.1527H108.913V18.675H104.924V27.6433H107.447V30.1657H99.5392Z" fill="#FBFEF9"/>
<path d="M86.2346 30.1657V16.1527H92.5004C93.4213 16.1527 94.2554 16.3596 95.0028 16.7733C95.7635 17.1737 96.364 17.7342 96.8044 18.4548C97.2582 19.1755 97.4851 20.0163 97.4851 20.9772C97.4851 21.9114 97.2648 22.7388 96.8244 23.4595C96.384 24.1668 95.8035 24.7273 95.0828 25.141L96.364 27.3831C96.4174 27.4632 96.4841 27.5299 96.5642 27.5833C96.6443 27.6233 96.7377 27.6433 96.8445 27.6433H99.5541V30.1657H96.4041C95.8435 30.1657 95.3297 30.0255 94.8626 29.7453C94.4089 29.465 94.0485 29.098 93.7816 28.6443L92.2002 25.8016C92.0801 25.8016 91.9533 25.8016 91.8198 25.8016C91.6997 25.8016 91.5796 25.8016 91.4595 25.8016H89.0973V30.1657H86.2346ZM89.0973 23.2793H92.1601C92.6139 23.2793 93.0276 23.1926 93.4013 23.0191C93.775 22.8322 94.0686 22.5653 94.2821 22.2183C94.509 21.8713 94.6224 21.4576 94.6224 20.9772C94.6224 20.4967 94.509 20.083 94.2821 19.736C94.0552 19.389 93.7549 19.1288 93.3813 18.9553C93.0209 18.7685 92.6139 18.675 92.1601 18.675H89.0973V23.2793Z" fill="#FBFEF9"/>
<path d="M78.3621 30.1657C77.588 30.1657 76.8807 29.9788 76.2401 29.6052C75.6128 29.2315 75.1124 28.731 74.7387 28.1038C74.365 27.4632 74.1782 26.7559 74.1782 25.9818C74.1782 25.4213 74.2983 24.8941 74.5385 24.4003C74.7787 23.9065 75.1057 23.4728 75.5194 23.0991C75.1057 22.7255 74.7787 22.2917 74.5385 21.7979C74.2983 21.3041 74.1782 20.7837 74.1782 20.2365C74.1782 19.4758 74.3583 18.7885 74.7187 18.1746C75.0924 17.5607 75.5861 17.0736 76.2001 16.7132C76.8273 16.3395 77.5146 16.1527 78.262 16.1527H84.0273V18.675H78.5823C78.302 18.675 78.0418 18.7484 77.8015 18.8952C77.5747 19.0287 77.3878 19.2155 77.241 19.4558C77.1076 19.6826 77.0408 19.9429 77.0408 20.2365C77.0408 20.5167 77.1076 20.777 77.241 21.0172C77.3878 21.2441 77.5747 21.4309 77.8015 21.5777C78.0418 21.7112 78.302 21.7779 78.5823 21.7779H83.3467V24.3002H78.7024C78.3954 24.3002 78.1152 24.3803 77.8616 24.5405C77.608 24.6873 77.4078 24.8875 77.261 25.141C77.1142 25.3946 77.0408 25.6749 77.0408 25.9818C77.0408 26.2888 77.1142 26.569 77.261 26.8226C77.4078 27.0761 77.608 27.2763 77.8616 27.4231C78.1152 27.5699 78.3954 27.6433 78.7024 27.6433H84.0273V30.1657H78.3621Z" fill="#FBFEF9"/>
<path d="M96.279 48.9555V40.4676C96.279 39.2798 96.5259 38.2589 97.0196 37.4048C97.5268 36.5373 98.2141 35.87 99.0815 35.4029C99.9624 34.9358 100.97 34.7023 102.104 34.7023C103.239 34.7023 104.24 34.9358 105.107 35.4029C105.988 35.87 106.675 36.5373 107.169 37.4048C107.676 38.2589 107.93 39.2798 107.93 40.4676V48.9555H105.067V40.2874C105.067 39.7269 104.947 39.2131 104.707 38.746C104.467 38.2789 104.126 37.9119 103.686 37.645C103.245 37.3647 102.718 37.2246 102.104 37.2246C101.504 37.2246 100.977 37.3647 100.523 37.645C100.082 37.9119 99.7422 38.2789 99.5019 38.746C99.2617 39.2131 99.1416 39.7269 99.1416 40.2874V48.9555H96.279Z" fill="#FBFEF9"/>
<path d="M87.0316 49.2158C85.9105 49.2158 84.8962 49.029 83.9887 48.6553C83.0946 48.2683 82.3272 47.7411 81.6866 47.0738C81.046 46.4066 80.5522 45.6325 80.2052 44.7517C79.8583 43.8709 79.6848 42.93 79.6848 41.9291C79.6848 40.9282 79.8583 39.994 80.2052 39.1265C80.5522 38.2457 81.046 37.4716 81.6866 36.8043C82.3272 36.1371 83.0946 35.6166 83.9887 35.2429C84.8962 34.8692 85.9105 34.6824 87.0316 34.6824C88.1526 34.6824 89.1602 34.8692 90.0544 35.2429C90.9619 35.6166 91.7359 36.1371 92.3765 36.8043C93.0171 37.4716 93.5109 38.2457 93.8579 39.1265C94.2049 39.994 94.3784 40.9282 94.3784 41.9291C94.3784 42.93 94.2049 43.8709 93.8579 44.7517C93.5109 45.6325 93.0171 46.4066 92.3765 47.0738C91.7359 47.7411 90.9619 48.2683 90.0544 48.6553C89.1602 49.029 88.1526 49.2158 87.0316 49.2158ZM87.0316 46.6735C87.6721 46.6735 88.266 46.56 88.8132 46.3332C89.3604 46.0929 89.8342 45.7593 90.2345 45.3322C90.6482 44.8918 90.9619 44.3847 91.1754 43.8108C91.4023 43.237 91.5157 42.6097 91.5157 41.9291C91.5157 41.2484 91.4023 40.6212 91.1754 40.0473C90.9619 39.4735 90.6482 38.973 90.2345 38.5459C89.8342 38.1189 89.3604 37.7919 88.8132 37.565C88.266 37.3248 87.6721 37.2047 87.0316 37.2047C86.391 37.2047 85.7971 37.3248 85.2499 37.565C84.7027 37.7919 84.2223 38.1189 83.8086 38.5459C83.4082 38.973 83.0946 39.4735 82.8677 40.0473C82.6542 40.6212 82.5474 41.2484 82.5474 41.9291C82.5474 42.6097 82.6542 43.237 82.8677 43.8108C83.0946 44.3847 83.4082 44.8918 83.8086 45.3322C84.2223 45.7593 84.7027 46.0929 85.2499 46.3332C85.7971 46.56 86.391 46.6735 87.0316 46.6735Z" fill="#FBFEF9"/>
<path d="M57.765 49.2154C56.6306 49.2154 55.623 48.9819 54.7422 48.5148C53.8747 48.0477 53.1874 47.3871 52.6803 46.533C52.1865 45.6655 51.9396 44.6379 51.9396 43.4501V34.9623H54.8023V43.6303C54.8023 44.1908 54.9224 44.7046 55.1626 45.1717C55.4028 45.6255 55.7431 45.9925 56.1835 46.2727C56.6373 46.553 57.1644 46.6931 57.765 46.6931C58.3789 46.6931 58.9061 46.553 59.3465 46.2727C59.7869 45.9925 60.1272 45.6255 60.3674 45.1717C60.6076 44.7046 60.7277 44.1908 60.7277 43.6303V39.9669H63.5904V43.4501C63.5904 44.6379 63.3368 45.6655 62.8297 46.533C62.3359 47.3871 61.6486 48.0477 60.7678 48.5148C59.9003 48.9819 58.8994 49.2154 57.765 49.2154Z" fill="#FBFEF9"/>
<path d="M60.7277 43.6303V40.147C60.7277 38.9593 60.9746 37.9383 61.4684 37.0842C61.9756 36.2167 62.6629 35.5495 63.5303 35.0824C64.4111 34.6153 65.4188 34.3817 66.5531 34.3817C67.6875 34.3817 68.6884 34.6153 69.5559 35.0824C70.4367 35.5495 71.124 36.2167 71.6178 37.0842C72.1249 37.9383 72.3785 38.9593 72.3785 40.147V49.0948H69.5159V39.9669C69.5159 39.4064 69.3958 38.8926 69.1555 38.4255C68.9153 37.9584 68.575 37.5913 68.1346 37.3244C67.6942 37.0442 67.167 36.904 66.5531 36.904C65.9526 36.904 65.4254 37.0442 64.9717 37.3244C64.5313 37.5913 64.1909 37.9584 63.9507 38.4255C63.7105 38.8926 63.5904 39.4064 63.5904 39.9669L63.5904 43.6303L60.7277 43.6303Z" fill="#FBFEF9"/>
<path d="M76.0785 37.6549C75.6381 37.6549 75.2511 37.4947 74.9175 37.1744C74.5972 36.8541 74.437 36.4671 74.437 36.0133C74.437 35.5596 74.5972 35.1726 74.9175 34.8523C75.2511 34.5186 75.6381 34.3518 76.0785 34.3518C76.5323 34.3518 76.9193 34.5186 77.2396 34.8523C77.5732 35.1726 77.7401 35.5596 77.7401 36.0133C77.7401 36.4671 77.5732 36.8541 77.2396 37.1744C76.9193 37.4947 76.5323 37.6549 76.0785 37.6549ZM77.62 49.1655C76.7125 49.1655 75.9985 48.9053 75.478 48.3848C74.9708 47.8643 74.7173 47.157 74.7173 46.2628V38.9561H77.4598V46.1828C77.4598 46.3562 77.5199 46.5097 77.64 46.6432C77.7734 46.7633 77.9269 46.8233 78.1004 46.8233H78.721V49.1655H77.62Z" fill="#FBFEF9"/>
</svg>
