<svg width="148" height="61" viewBox="0 0 148 61" fill="none" xmlns="http://www.w3.org/2000/svg">
<path fill-rule="evenodd" clip-rule="evenodd" d="M21.147 11.8494C21.4684 11.6212 21.8804 11.5627 22.2526 11.6925L32.345 15.2122C34.1749 15.0909 36.0186 15.593 37.5329 17.1593C39.0169 18.6942 39.5275 20.4984 39.4417 22.2914L42.9707 32.4106C43.1005 32.7828 43.042 33.1948 42.8138 33.5162C42.5855 33.8376 42.2157 34.0285 41.8215 34.0285L32.6831 34.0285L29.4263 37.2853C28.9552 35.8138 27.5761 34.7486 25.9483 34.7486C23.9318 34.7486 22.2971 36.3833 22.2971 38.3998C22.2971 40.0276 23.3624 41.4067 24.8338 41.8778L20.2066 46.505C19.7083 47.0033 19.5691 47.4449 19.5581 47.7492C19.5469 48.0613 19.6642 48.3295 19.8538 48.5193C20.0434 48.709 20.3108 48.8262 20.6221 48.8151C20.9258 48.8042 21.3676 48.6651 21.8672 48.1656C22.3425 47.6903 23.1131 47.6903 23.5884 48.1656C24.0637 48.6409 24.0637 49.4115 23.5884 49.8868C22.7242 50.7509 21.721 51.2114 20.7094 51.2477C19.7054 51.2837 18.7872 50.8957 18.1317 50.2395C17.4763 49.5835 17.0894 48.665 17.1255 47.6616C17.162 46.6503 17.6219 45.6473 18.4854 44.7838L22.4224 40.8468L21.6803 40.1047C19.6468 41.9881 18.2083 42.7813 16.9062 43.4362L16.6 43.5894C15.3591 44.2086 14.3218 44.7263 12.8126 46.2355C12.3333 46.7148 12.2063 47.1523 12.2071 47.4747C12.208 47.814 12.35 48.1383 12.5949 48.3832C12.8398 48.6281 13.1642 48.7701 13.5034 48.771C13.8258 48.7718 14.2633 48.6448 14.7426 48.1656C15.2179 47.6903 15.9885 47.6903 16.4638 48.1656C16.9391 48.6409 16.9391 49.4115 16.4638 49.8868C15.5809 50.7696 14.5404 51.2078 13.4971 51.2052C12.4707 51.2025 11.5416 50.7723 10.8737 50.1044C10.2058 49.4365 9.77562 48.5075 9.77297 47.481C9.77028 46.4377 10.2085 45.3972 11.0914 44.5143C12.8824 42.7233 14.2091 42.0617 15.5087 41.4135C15.61 41.363 15.7112 41.3125 15.8125 41.2616C16.9375 40.6958 18.1624 40.0336 19.9577 38.3822L16.5424 34.9668C14.9468 36.7467 14.366 38.0534 13.7682 39.4058L13.7566 39.4321C13.0112 41.1185 12.2301 42.8854 9.76991 45.3457C8.88846 46.2272 7.84873 46.6634 6.80639 46.6589C5.78129 46.6545 4.85382 46.2234 4.18683 45.5564C3.51984 44.8894 3.08871 43.962 3.08431 42.9368C3.07983 41.8945 3.516 40.8548 4.39747 39.9733C4.87276 39.498 5.64337 39.498 6.11867 39.9733C6.59397 40.4486 6.59396 41.2192 6.11867 41.6945C5.64262 42.1705 5.51706 42.6054 5.51843 42.9264C5.51989 43.2646 5.6622 43.5894 5.90803 43.8352C6.15385 44.081 6.47857 44.2233 6.81682 44.2248C7.13783 44.2262 7.57263 44.1006 8.04867 43.6245C10.188 41.4851 10.829 40.0346 11.5166 38.4789L11.5419 38.4216C12.2058 36.9196 12.9183 35.3393 14.819 33.2435L13.8164 32.2408L9.70846 36.3487C8.05481 38.0024 5.80842 37.7066 4.52127 36.4616C3.87688 35.8384 3.44458 34.9562 3.45148 33.9524C3.45845 32.9377 3.91156 31.9397 4.77643 31.0748C5.25172 30.5995 6.02233 30.5995 6.49763 31.0748C6.97293 31.5501 6.97293 32.3207 6.49763 32.796C5.99883 33.2948 5.88737 33.7068 5.88557 33.9691C5.88369 34.2422 5.99841 34.5039 6.21356 34.712C6.64546 35.1297 7.36814 35.2466 7.98725 34.6275L12.7595 29.8553C13.2536 31.2864 14.6126 32.3144 16.2117 32.3144C18.2282 32.3144 19.8629 30.6797 19.8629 28.6632C19.8629 27.0641 18.8349 25.7051 17.4038 25.211L20.6347 21.98L20.6347 12.8417C20.6347 12.4475 20.8256 12.0777 21.147 11.8494ZM23.0689 19.7542C23.4862 19.4105 23.9547 19.0417 24.4628 18.6686C25.5396 17.8779 26.8476 17.0272 28.2602 16.3655L23.0689 14.5551L23.0689 19.7542ZM34.9468 31.5943L40.1081 31.5943L38.3162 26.4563C37.6615 27.8669 36.8134 29.1646 36.0224 30.2304C35.6537 30.7273 35.2885 31.1854 34.9468 31.5943Z" fill="#7730E2"/>
<path d="M17.4288 28.6632C17.4288 29.3354 16.8839 29.8803 16.2117 29.8803C15.5395 29.8803 14.9946 29.3354 14.9946 28.6632C14.9946 27.991 15.5395 27.4461 16.2117 27.4461C16.8839 27.4461 17.4288 27.991 17.4288 28.6632Z" fill="#7730E2"/>
<path d="M27.1654 38.3998C27.1654 39.0719 26.6205 39.6168 25.9483 39.6168C25.2761 39.6168 24.7312 39.0719 24.7312 38.3998C24.7312 37.7276 25.2761 37.1827 25.9483 37.1827C26.6205 37.1827 27.1654 37.7276 27.1654 38.3998Z" fill="#7730E2"/>
<path d="M51.9396 30.0099V21.522C51.9396 20.3343 52.1865 19.3133 52.6803 18.4592C53.1874 17.5917 53.8747 16.9245 54.7422 16.4574C55.623 15.9903 56.6306 15.7567 57.765 15.7567C58.8994 15.7567 59.9003 15.9903 60.7678 16.4574C61.6486 16.9245 62.3359 17.5917 62.8297 18.4592C63.3368 19.3133 63.5904 20.3343 63.5904 21.522V30.0099H60.7277V21.3419C60.7277 20.7814 60.6076 20.2676 60.3674 19.8005C60.1272 19.3334 59.7869 18.9664 59.3465 18.6994C58.9061 18.4192 58.3789 18.279 57.765 18.279C57.1644 18.279 56.6373 18.4192 56.1835 18.6994C55.7431 18.9664 55.4028 19.3334 55.1626 19.8005C54.9224 20.2676 54.8023 20.7814 54.8023 21.3419V30.0099H51.9396Z" fill="#FBFEF9"/>
<path d="M60.7277 30.0099V21.522C60.7277 20.3343 60.9746 19.3133 61.4684 18.4592C61.9756 17.5917 62.6629 16.9245 63.5303 16.4574C64.4111 15.9903 65.4187 15.7567 66.5531 15.7567C67.6875 15.7567 68.6884 15.9903 69.5559 16.4574C70.4367 16.9245 71.124 17.5917 71.6178 18.4592C72.1249 19.3133 72.3785 20.3343 72.3785 21.522V30.0099H69.5159V21.3419C69.5159 20.7814 69.3958 20.2676 69.1555 19.8005C68.9153 19.3334 68.575 18.9664 68.1346 18.6994C67.6942 18.4192 67.167 18.279 66.5531 18.279C65.9526 18.279 65.4254 18.4192 64.9717 18.6994C64.5313 18.9664 64.1909 19.3334 63.9507 19.8005C63.7105 20.2676 63.5904 20.7814 63.5904 21.3419L63.5904 30.0099H60.7277Z" fill="#FBFEF9"/>
<path d="M141.741 30.1459C140.967 30.1459 140.26 29.9591 139.619 29.5854C138.992 29.2117 138.491 28.7112 138.118 28.084C137.744 27.4434 137.557 26.7361 137.557 25.962C137.557 25.4015 137.677 24.8744 137.917 24.3806C138.158 23.8868 138.485 23.453 138.898 23.0794C138.485 22.7057 138.158 22.2719 137.917 21.7782C137.677 21.2844 137.557 20.7639 137.557 20.2167C137.557 19.456 137.737 18.7687 138.098 18.1548C138.471 17.5409 138.965 17.0538 139.579 16.6935C140.206 16.3198 140.893 16.1329 141.641 16.1329H147.406V18.6553H141.961C141.681 18.6553 141.421 18.7287 141.18 18.8755C140.954 19.0089 140.767 19.1958 140.62 19.436C140.486 19.6629 140.42 19.9231 140.42 20.2167C140.42 20.497 140.486 20.7572 140.62 20.9974C140.767 21.2243 140.954 21.4112 141.18 21.558C141.421 21.6914 141.681 21.7581 141.961 21.7581H146.726V24.2805H142.081C141.774 24.2805 141.494 24.3605 141.24 24.5207C140.987 24.6675 140.787 24.8677 140.64 25.1212C140.493 25.3748 140.42 25.6551 140.42 25.962C140.42 26.269 140.493 26.5492 140.64 26.8028C140.787 27.0564 140.987 27.2566 141.24 27.4034C141.494 27.5502 141.774 27.6236 142.081 27.6236H147.406V30.1459H141.741Z" fill="#FBFEF9"/>
<path d="M133.844 30.1459C133.017 30.1459 132.289 29.9591 131.662 29.5854C131.035 29.1984 130.548 28.6912 130.201 28.064C129.854 27.4234 129.68 26.7227 129.68 25.962V18.6553H125.777V16.1329H136.446V18.6553H132.543V26.3023C132.543 26.6627 132.67 26.9763 132.923 27.2432C133.177 27.4968 133.484 27.6236 133.844 27.6236H139.305L141.982 30.1459H133.844Z" fill="#FBFEF9"/>
<path d="M122.43 18.6351C121.99 18.6351 121.603 18.4749 121.269 18.1546C120.949 17.8343 120.789 17.4473 120.789 16.9936C120.789 16.5398 120.949 16.1528 121.269 15.8325C121.603 15.4989 121.99 15.332 122.43 15.332C122.884 15.332 123.271 15.4989 123.592 15.8325C123.925 16.1528 124.092 16.5398 124.092 16.9936C124.092 17.4473 123.925 17.8343 123.592 18.1546C123.271 18.4749 122.884 18.6351 122.43 18.6351ZM123.972 30.1457C123.064 30.1457 122.35 29.8855 121.83 29.365C121.323 28.8445 121.069 28.1372 121.069 27.2431V19.9363H123.812V27.163C123.812 27.3365 123.872 27.4899 123.992 27.6234C124.125 27.7435 124.279 27.8036 124.452 27.8036H125.073V30.1457H123.972Z" fill="#FBFEF9"/>
<path d="M116.856 30.1459C116.028 30.1459 115.301 29.9591 114.674 29.5854C114.046 29.1984 113.559 28.6912 113.212 28.064C112.865 27.4234 112.692 26.7227 112.692 25.962V18.6553H108.788V16.1329H119.458V18.6553H115.555V26.3023C115.555 26.6627 115.681 26.9763 115.935 27.2432C116.188 27.4968 116.495 27.6236 116.856 27.6236H117.857V30.1459H116.856Z" fill="#FBFEF9"/>
<path d="M99.5392 30.1459V27.6236H102.062V18.6553H99.5392V16.1329H108.913V18.6553H104.924V27.6236H107.447V30.1459H99.5392Z" fill="#FBFEF9"/>
<path d="M86.2346 30.1459V16.1329H92.5004C93.4213 16.1329 94.2554 16.3398 95.0028 16.7535C95.7635 17.1539 96.364 17.7144 96.8044 18.4351C97.2582 19.1557 97.4851 19.9965 97.4851 20.9574C97.4851 21.8916 97.2648 22.719 96.8244 23.4397C96.384 24.147 95.8035 24.7075 95.0828 25.1212L96.364 27.3633C96.4174 27.4434 96.4841 27.5101 96.5642 27.5635C96.6443 27.6035 96.7377 27.6236 96.8445 27.6236H99.5541V30.1459H96.4041C95.8435 30.1459 95.3297 30.0058 94.8626 29.7255C94.4089 29.4452 94.0485 29.0782 93.7816 28.6245L92.2002 25.7819C92.0801 25.7819 91.9533 25.7819 91.8198 25.7819C91.6997 25.7819 91.5796 25.7819 91.4595 25.7819H89.0973V30.1459H86.2346ZM89.0973 23.2595H92.1601C92.6139 23.2595 93.0276 23.1728 93.4013 22.9993C93.775 22.8124 94.0686 22.5455 94.2821 22.1985C94.509 21.8516 94.6224 21.4378 94.6224 20.9574C94.6224 20.477 94.509 20.0632 94.2821 19.7162C94.0552 19.3693 93.7549 19.109 93.3813 18.9355C93.0209 18.7487 92.6139 18.6553 92.1601 18.6553H89.0973V23.2595Z" fill="#FBFEF9"/>
<path d="M78.3621 30.1459C77.588 30.1459 76.8807 29.9591 76.2401 29.5854C75.6128 29.2117 75.1124 28.7112 74.7387 28.084C74.365 27.4434 74.1782 26.7361 74.1782 25.962C74.1782 25.4015 74.2983 24.8744 74.5385 24.3806C74.7787 23.8868 75.1057 23.453 75.5194 23.0794C75.1057 22.7057 74.7787 22.2719 74.5385 21.7782C74.2983 21.2844 74.1782 20.7639 74.1782 20.2167C74.1782 19.456 74.3583 18.7687 74.7187 18.1548C75.0924 17.5409 75.5861 17.0538 76.2001 16.6935C76.8273 16.3198 77.5146 16.1329 78.262 16.1329H84.0273V18.6553H78.5823C78.302 18.6553 78.0418 18.7287 77.8015 18.8755C77.5747 19.0089 77.3878 19.1958 77.241 19.436C77.1076 19.6629 77.0408 19.9231 77.0408 20.2167C77.0408 20.497 77.1076 20.7572 77.241 20.9974C77.3878 21.2243 77.5747 21.4112 77.8015 21.558C78.0418 21.6914 78.302 21.7581 78.5823 21.7581H83.3467V24.2805H78.7024C78.3954 24.2805 78.1152 24.3605 77.8616 24.5207C77.608 24.6675 77.4078 24.8677 77.261 25.1213C77.1142 25.3748 77.0408 25.6551 77.0408 25.962C77.0408 26.269 77.1142 26.5492 77.261 26.8028C77.4078 27.0564 77.608 27.2566 77.8616 27.4034C78.1152 27.5502 78.3954 27.6236 78.7024 27.6236H84.0273V30.1459H78.3621Z" fill="#FBFEF9"/>
<path d="M96.279 48.9357V40.4478C96.279 39.2601 96.5259 38.2391 97.0196 37.385C97.5268 36.5175 98.2141 35.8502 99.0815 35.3831C99.9624 34.916 100.97 34.6825 102.104 34.6825C103.239 34.6825 104.24 34.916 105.107 35.3831C105.988 35.8502 106.675 36.5175 107.169 37.385C107.676 38.2391 107.93 39.2601 107.93 40.4478V48.9357H105.067V40.2677C105.067 39.7071 104.947 39.1933 104.707 38.7262C104.467 38.2591 104.126 37.8921 103.686 37.6252C103.245 37.345 102.718 37.2048 102.104 37.2048C101.504 37.2048 100.977 37.345 100.523 37.6252C100.082 37.8921 99.7422 38.2591 99.5019 38.7262C99.2617 39.1933 99.1416 39.7071 99.1416 40.2677V48.9357H96.279Z" fill="#FBFEF9"/>
<path d="M87.0316 49.196C85.9105 49.196 84.8962 49.0092 83.9887 48.6355C83.0946 48.2485 82.3272 47.7213 81.6866 47.0541C81.046 46.3868 80.5522 45.6127 80.2052 44.7319C79.8583 43.8511 79.6848 42.9102 79.6848 41.9093C79.6848 40.9084 79.8583 39.9742 80.2052 39.1067C80.5522 38.2259 81.046 37.4518 81.6866 36.7846C82.3272 36.1173 83.0946 35.5968 83.9887 35.2231C84.8962 34.8494 85.9105 34.6626 87.0316 34.6626C88.1526 34.6626 89.1602 34.8494 90.0544 35.2231C90.9619 35.5968 91.7359 36.1173 92.3765 36.7846C93.0171 37.4518 93.5109 38.2259 93.8579 39.1067C94.2049 39.9742 94.3784 40.9084 94.3784 41.9093C94.3784 42.9102 94.2049 43.8511 93.8579 44.7319C93.5109 45.6127 93.0171 46.3868 92.3765 47.0541C91.7359 47.7213 90.9619 48.2485 90.0544 48.6355C89.1602 49.0092 88.1526 49.196 87.0316 49.196ZM87.0316 46.6537C87.6721 46.6537 88.266 46.5403 88.8132 46.3134C89.3604 46.0732 89.8342 45.7395 90.2345 45.3125C90.6482 44.872 90.9619 44.3649 91.1754 43.791C91.4023 43.2172 91.5157 42.5899 91.5157 41.9093C91.5157 41.2287 91.4023 40.6014 91.1754 40.0276C90.9619 39.4537 90.6482 38.9532 90.2345 38.5262C89.8342 38.0991 89.3604 37.7721 88.8132 37.5453C88.266 37.305 87.6721 37.1849 87.0316 37.1849C86.391 37.1849 85.7971 37.305 85.2499 37.5453C84.7027 37.7721 84.2223 38.0991 83.8086 38.5262C83.4082 38.9532 83.0946 39.4537 82.8677 40.0276C82.6542 40.6014 82.5474 41.2287 82.5474 41.9093C82.5474 42.5899 82.6542 43.2172 82.8677 43.791C83.0946 44.3649 83.4082 44.872 83.8086 45.3125C84.2223 45.7395 84.7027 46.0732 85.2499 46.3134C85.7971 46.5403 86.391 46.6537 87.0316 46.6537Z" fill="#FBFEF9"/>
<path d="M57.765 49.1957C56.6306 49.1957 55.623 48.9621 54.7422 48.495C53.8747 48.0279 53.1874 47.3673 52.6803 46.5132C52.1865 45.6457 51.9396 44.6181 51.9396 43.4303V34.9425H54.8023V43.6105C54.8023 44.171 54.9224 44.6848 55.1626 45.1519C55.4028 45.6057 55.7431 45.9727 56.1835 46.253C56.6373 46.5332 57.1644 46.6733 57.765 46.6733C58.3789 46.6733 58.9061 46.5332 59.3465 46.253C59.7869 45.9727 60.1272 45.6057 60.3674 45.1519C60.6076 44.6848 60.7277 44.171 60.7277 43.6105V39.9471H63.5904V43.4303C63.5904 44.6181 63.3368 45.6457 62.8297 46.5132C62.3359 47.3673 61.6486 48.0279 60.7678 48.495C59.9003 48.9621 58.8994 49.1957 57.765 49.1957Z" fill="#FBFEF9"/>
<path d="M60.7277 43.6105V40.1273C60.7277 38.9395 60.9746 37.9186 61.4684 37.0644C61.9756 36.197 62.6629 35.5297 63.5303 35.0626C64.4111 34.5955 65.4188 34.3619 66.5531 34.3619C67.6875 34.3619 68.6884 34.5955 69.5559 35.0626C70.4367 35.5297 71.124 36.197 71.6178 37.0644C72.1249 37.9186 72.3785 38.9395 72.3785 40.1273V49.075H69.5159V39.9471C69.5159 39.3866 69.3958 38.8728 69.1555 38.4057C68.9153 37.9386 68.575 37.5716 68.1346 37.3047C67.6942 37.0244 67.167 36.8843 66.5531 36.8843C65.9526 36.8843 65.4254 37.0244 64.9717 37.3047C64.5313 37.5716 64.1909 37.9386 63.9507 38.4057C63.7105 38.8728 63.5904 39.3866 63.5904 39.9471L63.5904 43.6105L60.7277 43.6105Z" fill="#FBFEF9"/>
<path d="M76.0785 37.6351C75.6381 37.6351 75.2511 37.4749 74.9175 37.1546C74.5972 36.8343 74.437 36.4473 74.437 35.9936C74.437 35.5398 74.5972 35.1528 74.9175 34.8325C75.2511 34.4989 75.6381 34.332 76.0785 34.332C76.5323 34.332 76.9193 34.4989 77.2396 34.8325C77.5732 35.1528 77.7401 35.5398 77.7401 35.9936C77.7401 36.4473 77.5732 36.8343 77.2396 37.1546C76.9193 37.4749 76.5323 37.6351 76.0785 37.6351ZM77.62 49.1457C76.7125 49.1457 75.9985 48.8855 75.478 48.365C74.9708 47.8445 74.7173 47.1372 74.7173 46.2431V38.9363H77.4598V46.163C77.4598 46.3365 77.5199 46.4899 77.64 46.6234C77.7734 46.7435 77.9269 46.8036 78.1004 46.8036H78.721V49.1457H77.62Z" fill="#FBFEF9"/>
</svg>
