<svg width="236" height="61" viewBox="0 0 236 61" fill="none" xmlns="http://www.w3.org/2000/svg">
<path fill-rule="evenodd" clip-rule="evenodd" d="M21.6804 12.2493C22.0017 12.0211 22.4138 11.9626 22.786 12.0924L32.8783 15.6121C34.7083 15.4908 36.552 15.9929 38.0663 17.5592C39.5502 19.0941 40.0608 20.8983 39.975 22.6913L43.5041 32.8105C43.6339 33.1827 43.5754 33.5947 43.3471 33.9161C43.1189 34.2375 42.7491 34.4284 42.3549 34.4284L33.2165 34.4284L29.9597 37.6852C29.4886 36.2137 28.1095 35.1485 26.4817 35.1485C24.4652 35.1485 22.8305 36.7832 22.8305 38.7997C22.8305 40.4275 23.8957 41.8066 25.3672 42.2777L20.74 46.9049C20.2417 47.4032 20.1025 47.8448 20.0915 48.1491C20.0802 48.4612 20.1976 48.7294 20.3872 48.9192C20.5767 49.1089 20.8442 49.2261 21.1555 49.215C21.4592 49.2041 21.901 49.065 22.4005 48.5655C22.8758 48.0902 23.6465 48.0902 24.1218 48.5655C24.597 49.0408 24.597 49.8114 24.1218 50.2867C23.2576 51.1508 22.2544 51.6113 21.2428 51.6476C20.2387 51.6836 19.3205 51.2956 18.6651 50.6395C18.0097 49.9834 17.6228 49.0649 17.6589 48.0615C17.6954 47.0502 18.1552 46.0472 19.0188 45.1837L22.9558 41.2467L22.2136 40.5046C20.1801 42.3881 18.7416 43.1812 17.4395 43.8361L17.1333 43.9893C15.8925 44.6085 14.8552 45.1262 13.3459 46.6354C12.8667 47.1147 12.7397 47.5522 12.7405 47.8746C12.7414 48.2139 12.8834 48.5382 13.1283 48.7831C13.3732 49.028 13.6975 49.17 14.0368 49.1709C14.3592 49.1718 14.7967 49.0447 15.276 48.5655C15.7513 48.0902 16.5219 48.0902 16.9972 48.5655C17.4725 49.0408 17.4725 49.8114 16.9972 50.2867C16.1143 51.1695 15.0738 51.6078 14.0305 51.6051C13.004 51.6024 12.075 51.1722 11.4071 50.5043C10.7392 49.8364 10.309 48.9074 10.3063 47.8809C10.3037 46.8376 10.7419 45.7971 11.6247 44.9142C13.4157 43.1232 14.7424 42.4616 16.042 41.8134C16.1434 41.7629 16.2446 41.7124 16.3459 41.6615C17.4709 41.0957 18.6958 40.4335 20.4911 38.7821L17.0758 35.3667C15.4801 37.1466 14.8994 38.4533 14.3016 39.8057L14.2899 39.832C13.5445 41.5184 12.7635 43.2853 10.3033 45.7456C9.42184 46.6271 8.38211 47.0633 7.33977 47.0588C6.31466 47.0544 5.38719 46.6233 4.72021 45.9563C4.05322 45.2893 3.62209 44.3619 3.61769 43.3367C3.61321 42.2944 4.04938 41.2547 4.93084 40.3732C5.40614 39.8979 6.17675 39.8979 6.65205 40.3732C7.12735 40.8485 7.12734 41.6191 6.65204 42.0944C6.176 42.5705 6.05043 43.0053 6.05181 43.3263C6.05327 43.6645 6.19558 43.9893 6.44141 44.2351C6.68723 44.4809 7.01195 44.6232 7.3502 44.6247C7.67121 44.6261 8.10601 44.5005 8.58205 44.0244C10.7214 41.885 11.3624 40.4345 12.0499 38.8788L12.0752 38.8215C12.7392 37.3196 13.4517 35.7392 15.3524 33.6434L14.3497 32.6407L10.2418 36.7486C8.58819 38.4023 6.3418 38.1065 5.05464 36.8615C4.41026 36.2383 3.97796 35.3561 3.98486 34.3523C3.99183 33.3376 4.44494 32.3396 5.3098 31.4747C5.7851 30.9994 6.55571 30.9994 7.03101 31.4747C7.5063 31.95 7.5063 32.7206 7.03101 33.1959C6.53221 33.6947 6.42075 34.1067 6.41895 34.369C6.41707 34.6421 6.53179 34.9038 6.74694 35.1119C7.17884 35.5296 7.90152 35.6465 8.52063 35.0274L13.2929 30.2552C13.787 31.6863 15.146 32.7143 16.7451 32.7143C18.7616 32.7143 20.3963 31.0796 20.3963 29.0631C20.3963 27.464 19.3683 26.105 17.9372 25.6109L21.1681 22.3799L21.1681 13.2416C21.1681 12.8474 21.359 12.4776 21.6804 12.2493ZM23.6023 20.1541C24.0196 19.8104 24.4881 19.4416 24.9962 19.0685C26.073 18.2778 27.381 17.4271 28.7936 16.7654L23.6023 14.955L23.6023 20.1541ZM35.4802 31.9942L40.6415 31.9942L38.8496 26.8562C38.1949 28.2668 37.3468 29.5645 36.5558 30.6303C36.1871 31.1272 35.8219 31.5853 35.4802 31.9942Z" fill="#191923"/>
<path d="M17.9622 29.0631C17.9622 29.7353 17.4173 30.2802 16.7451 30.2802C16.0729 30.2802 15.528 29.7353 15.528 29.0631C15.528 28.3909 16.0729 27.846 16.7451 27.846C17.4173 27.846 17.9622 28.3909 17.9622 29.0631Z" fill="#191923"/>
<path d="M27.6987 38.7997C27.6987 39.4718 27.1538 40.0167 26.4817 40.0168C25.8095 40.0167 25.2646 39.4718 25.2646 38.7997C25.2646 38.1275 25.8095 37.5826 26.4817 37.5826C27.1538 37.5826 27.6987 38.1275 27.6987 38.7997Z" fill="#191923"/>
<path d="M56.523 40.3934V31.8489C56.523 30.6533 56.7699 29.6255 57.2637 28.7657C57.7708 27.8924 58.4581 27.2207 59.3256 26.7505C60.2064 26.2803 61.214 26.0452 62.3484 26.0452C63.4828 26.0452 64.4837 26.2803 65.3512 26.7505C66.232 27.2207 66.9193 27.8924 67.4131 28.7657C67.9202 29.6255 68.1738 30.6533 68.1738 31.8489V40.3934H65.3111V31.6676C65.3111 31.1033 65.191 30.5861 64.9508 30.1159C64.7106 29.6457 64.3703 29.2762 63.9299 29.0075C63.4895 28.7254 62.9623 28.5843 62.3484 28.5843C61.7478 28.5843 61.2207 28.7254 60.7669 29.0075C60.3265 29.2762 59.9862 29.6457 59.746 30.1159C59.5058 30.5861 59.3857 31.1033 59.3857 31.6676V40.3934H56.523Z" fill="#191923"/>
<path d="M65.3111 40.3934V31.8489C65.3111 30.6533 65.558 29.6255 66.0518 28.7657C66.559 27.8924 67.2463 27.2207 68.1137 26.7505C68.9945 26.2803 70.0021 26.0452 71.1365 26.0452C72.2709 26.0452 73.2718 26.2803 74.1393 26.7505C75.0201 27.2207 75.7074 27.8924 76.2012 28.7657C76.7083 29.6255 76.9619 30.6533 76.9619 31.8489V40.3934H74.0993V31.6676C74.0993 31.1033 73.9792 30.5861 73.7389 30.1159C73.4987 29.6457 73.1584 29.2762 72.718 29.0075C72.2776 28.7254 71.7504 28.5843 71.1365 28.5843C70.536 28.5843 70.0088 28.7254 69.5551 29.0075C69.1147 29.2762 68.7743 29.6457 68.5341 30.1159C68.2939 30.5861 68.1738 31.1033 68.1738 31.6676L68.1738 40.3934H65.3111Z" fill="#191923"/>
<path d="M146.324 40.5302C145.55 40.5302 144.843 40.3421 144.202 39.966C143.575 39.5898 143.075 39.086 142.701 38.4546C142.327 37.8097 142.141 37.0977 142.141 36.3184C142.141 35.7542 142.261 35.2235 142.501 34.7264C142.741 34.2294 143.068 33.7927 143.482 33.4166C143.068 33.0404 142.741 32.6038 142.501 32.1067C142.261 31.6096 142.141 31.0857 142.141 30.5348C142.141 29.7691 142.321 29.0772 142.681 28.4592C143.055 27.8412 143.548 27.3508 144.162 26.9881C144.79 26.6119 145.477 26.4238 146.224 26.4238H151.99V28.963H146.545C146.264 28.963 146.004 29.0369 145.764 29.1846C145.537 29.319 145.35 29.5071 145.203 29.7489C145.07 29.9773 145.003 30.2393 145.003 30.5348C145.003 30.817 145.07 31.0789 145.203 31.3208C145.35 31.5491 145.537 31.7372 145.764 31.885C146.004 32.0194 146.264 32.0865 146.545 32.0865H151.309V34.6257H146.665C146.358 34.6257 146.077 34.7063 145.824 34.8675C145.57 35.0153 145.37 35.2168 145.223 35.4721C145.077 35.7273 145.003 36.0095 145.003 36.3184C145.003 36.6274 145.077 36.9096 145.223 37.1648C145.37 37.4201 145.57 37.6216 145.824 37.7694C146.077 37.9172 146.358 37.9911 146.665 37.9911H151.99V40.5302H146.324Z" fill="#191923"/>
<path d="M138.428 40.5302C137.6 40.5302 136.873 40.3421 136.245 39.966C135.618 39.5764 135.131 39.0658 134.784 38.4344C134.437 37.7895 134.264 37.0842 134.264 36.3184V28.963H130.36V26.4238H141.03V28.963H137.126V36.661C137.126 37.0238 137.253 37.3395 137.507 37.6082C137.76 37.8634 138.067 37.9911 138.428 37.9911H143.889L146.565 40.5302H138.428Z" fill="#191923"/>
<path d="M127.014 28.9428C126.573 28.9428 126.186 28.7815 125.853 28.4591C125.532 28.1367 125.372 27.7471 125.372 27.2903C125.372 26.8335 125.532 26.4439 125.853 26.1215C126.186 25.7856 126.573 25.6177 127.014 25.6177C127.468 25.6177 127.855 25.7856 128.175 26.1215C128.509 26.4439 128.675 26.8335 128.675 27.2903C128.675 27.7471 128.509 28.1367 128.175 28.4591C127.855 28.7815 127.468 28.9428 127.014 28.9428ZM128.555 40.5301C127.648 40.5301 126.934 40.2682 126.413 39.7442C125.906 39.2203 125.653 38.5082 125.653 37.6081V30.2526H128.395V37.5275C128.395 37.7021 128.455 37.8566 128.575 37.991C128.709 38.1119 128.862 38.1724 129.036 38.1724H129.656V40.5301H128.555Z" fill="#191923"/>
<path d="M121.439 40.5302C120.612 40.5302 119.884 40.3421 119.257 39.966C118.63 39.5764 118.143 39.0658 117.796 38.4344C117.449 37.7895 117.275 37.0842 117.275 36.3184V28.963H113.372V26.4238H124.042V28.963H120.138V36.661C120.138 37.0238 120.265 37.3395 120.518 37.6082C120.772 37.8634 121.079 37.9911 121.439 37.9911H122.44V40.5302H121.439Z" fill="#191923"/>
<path d="M104.123 40.5302V37.9911H106.645V28.963H104.123V26.4238H113.496V28.963H109.508V37.9911H112.03V40.5302H104.123Z" fill="#191923"/>
<path d="M90.818 40.5302V26.4238H97.0838C98.0047 26.4238 98.8388 26.6321 99.5861 27.0485C100.347 27.4516 100.947 28.0158 101.388 28.7413C101.842 29.4668 102.068 30.3132 102.068 31.2805C102.068 32.2209 101.848 33.0538 101.408 33.7793C100.967 34.4913 100.387 35.0556 99.6662 35.4721L100.947 37.7291C101.001 37.8097 101.068 37.8769 101.148 37.9306C101.228 37.9709 101.321 37.9911 101.428 37.9911H104.137V40.5302H100.987C100.427 40.5302 99.9131 40.3891 99.446 40.107C98.9923 39.8249 98.6319 39.4554 98.365 38.9987L96.7835 36.1371C96.6634 36.1371 96.5366 36.1371 96.4032 36.1371C96.2831 36.1371 96.163 36.1371 96.0429 36.1371H93.6807V40.5302H90.818ZM93.6807 33.5979H96.7435C97.1973 33.5979 97.611 33.5106 97.9847 33.336C98.3583 33.1479 98.6519 32.8792 98.8655 32.5299C99.0923 32.1806 99.2058 31.7641 99.2058 31.2805C99.2058 30.7968 99.0923 30.3803 98.8655 30.031C98.6386 29.6817 98.3383 29.4198 97.9646 29.2451C97.6043 29.057 97.1973 28.963 96.7435 28.963H93.6807V33.5979Z" fill="#191923"/>
<path d="M82.9454 40.5302C82.1714 40.5302 81.464 40.3421 80.8234 39.966C80.1962 39.5898 79.6957 39.086 79.3221 38.4546C78.9484 37.8097 78.7615 37.0977 78.7615 36.3184C78.7615 35.7542 78.8816 35.2235 79.1219 34.7264C79.3621 34.2294 79.6891 33.7927 80.1028 33.4166C79.6891 33.0404 79.3621 32.6038 79.1219 32.1067C78.8816 31.6096 78.7615 31.0857 78.7615 30.5348C78.7615 29.7691 78.9417 29.0772 79.302 28.4592C79.6757 27.8412 80.1695 27.3508 80.7834 26.9881C81.4107 26.6119 82.098 26.4238 82.8453 26.4238H88.6106V28.963H83.1656C82.8854 28.963 82.6251 29.0369 82.3849 29.1846C82.158 29.319 81.9712 29.5071 81.8244 29.7489C81.6909 29.9773 81.6242 30.2393 81.6242 30.5348C81.6242 30.817 81.6909 31.0789 81.8244 31.3208C81.9712 31.5491 82.158 31.7372 82.3849 31.885C82.6251 32.0194 82.8854 32.0865 83.1656 32.0865H87.93V34.6257H83.2857C82.9788 34.6257 82.6985 34.7063 82.4449 34.8675C82.1914 35.0153 81.9912 35.2168 81.8444 35.4721C81.6976 35.7273 81.6242 36.0095 81.6242 36.3184C81.6242 36.6274 81.6976 36.9096 81.8444 37.1648C81.9912 37.4201 82.1914 37.6216 82.4449 37.7694C82.6985 37.9172 82.9788 37.9911 83.2857 37.9911H88.6106V40.5302H82.9454Z" fill="#191923"/>
<path d="M202.366 40.1312V31.5867C202.366 30.391 202.613 29.3633 203.107 28.5035C203.614 27.6302 204.301 26.9585 205.168 26.4883C206.049 26.0181 207.057 25.783 208.191 25.783C209.326 25.783 210.327 26.0181 211.194 26.4883C212.075 26.9585 212.762 27.6302 213.256 28.5035C213.763 29.3633 214.017 30.391 214.017 31.5867V40.1312H211.154V31.4054C211.154 30.8411 211.034 30.3239 210.794 29.8537C210.553 29.3834 210.213 29.014 209.773 28.7453C209.332 28.4632 208.805 28.3221 208.191 28.3221C207.591 28.3221 207.064 28.4632 206.61 28.7453C206.169 29.014 205.829 29.3834 205.589 29.8537C205.349 30.3239 205.228 30.8411 205.228 31.4054V40.1312H202.366Z" fill="#191923"/>
<path d="M193.118 40.3933C191.997 40.3933 190.983 40.2052 190.076 39.829C189.181 39.4394 188.414 38.9087 187.773 38.237C187.133 37.5653 186.639 36.7861 186.292 35.8994C185.945 35.0127 185.772 34.0656 185.772 33.058C185.772 32.0504 185.945 31.1099 186.292 30.2367C186.639 29.35 187.133 28.5708 187.773 27.899C188.414 27.2273 189.181 26.7034 190.076 26.3272C190.983 25.951 191.997 25.7629 193.118 25.7629C194.239 25.7629 195.247 25.951 196.141 26.3272C197.049 26.7034 197.823 27.2273 198.463 27.899C199.104 28.5708 199.598 29.35 199.945 30.2367C200.292 31.1099 200.465 32.0504 200.465 33.058C200.465 34.0656 200.292 35.0127 199.945 35.8994C199.598 36.7861 199.104 37.5653 198.463 38.237C197.823 38.9087 197.049 39.4394 196.141 39.829C195.247 40.2052 194.239 40.3933 193.118 40.3933ZM193.118 37.834C193.759 37.834 194.353 37.7198 194.9 37.4914C195.447 37.2496 195.921 36.9137 196.321 36.4838C196.735 36.0404 197.049 35.5299 197.262 34.9522C197.489 34.3746 197.603 33.7431 197.603 33.058C197.603 32.3728 197.489 31.7414 197.262 31.1637C197.049 30.586 196.735 30.0822 196.321 29.6523C195.921 29.2224 195.447 28.8932 194.9 28.6648C194.353 28.423 193.759 28.3021 193.118 28.3021C192.478 28.3021 191.884 28.423 191.337 28.6648C190.79 28.8932 190.309 29.2224 189.895 29.6523C189.495 30.0822 189.181 30.586 188.955 31.1637C188.741 31.7414 188.634 32.3728 188.634 33.058C188.634 33.7431 188.741 34.3746 188.955 34.9522C189.181 35.5299 189.495 36.0404 189.895 36.4838C190.309 36.9137 190.79 37.2496 191.337 37.4914C191.884 37.7198 192.478 37.834 193.118 37.834Z" fill="#191923"/>
<path d="M163.852 40.3926C162.717 40.3926 161.71 40.1575 160.829 39.6873C159.962 39.2171 159.274 38.552 158.767 37.6922C158.273 36.819 158.026 35.7845 158.026 34.5888V26.0444H160.889V34.7702C160.889 35.3344 161.009 35.8517 161.249 36.3219C161.49 36.7787 161.83 37.1481 162.27 37.4302C162.724 37.7124 163.251 37.8534 163.852 37.8534C164.466 37.8534 164.993 37.7124 165.433 37.4302C165.874 37.1481 166.214 36.7787 166.454 36.3219C166.695 35.8517 166.815 35.3344 166.815 34.7702V31.0824H169.677V34.5888C169.677 35.7845 169.424 36.819 168.917 37.6922C168.423 38.552 167.735 39.2171 166.855 39.6873C165.987 40.1575 164.986 40.3926 163.852 40.3926Z" fill="#191923"/>
<path d="M166.815 34.7702V31.2637C166.815 30.068 167.062 29.0403 167.555 28.1805C168.062 27.3072 168.75 26.6355 169.617 26.1653C170.498 25.6951 171.506 25.46 172.64 25.46C173.774 25.46 174.775 25.6951 175.643 26.1653C176.524 26.6355 177.211 27.3072 177.705 28.1805C178.212 29.0403 178.465 30.068 178.465 31.2637V40.2711H175.603V31.0824C175.603 30.5181 175.483 30.0009 175.242 29.5307C175.002 29.0604 174.662 28.691 174.221 28.4223C173.781 28.1402 173.254 27.9991 172.64 27.9991C172.039 27.9991 171.512 28.1402 171.059 28.4223C170.618 28.691 170.278 29.0604 170.038 29.5307C169.797 30.0009 169.677 30.5181 169.677 31.0824L169.677 34.7702L166.815 34.7702Z" fill="#191923"/>
<path d="M182.165 28.7553C181.725 28.7553 181.338 28.594 181.004 28.2716C180.684 27.9492 180.524 27.5596 180.524 27.1028C180.524 26.646 180.684 26.2564 181.004 25.934C181.338 25.5981 181.725 25.4302 182.165 25.4302C182.619 25.4302 183.006 25.5981 183.326 25.934C183.66 26.2564 183.827 26.646 183.827 27.1028C183.827 27.5596 183.66 27.9492 183.326 28.2716C183.006 28.594 182.619 28.7553 182.165 28.7553ZM183.707 40.3426C182.799 40.3426 182.085 40.0807 181.565 39.5567C181.058 39.0328 180.804 38.3207 180.804 37.4206V30.0651H183.547V37.34C183.547 37.5146 183.607 37.6691 183.727 37.8035C183.86 37.9244 184.014 37.9849 184.187 37.9849H184.808V40.3426H183.707Z" fill="#191923"/>
</svg>
