<svg width="158" height="16" viewBox="0 0 158 16" fill="none" xmlns="http://www.w3.org/2000/svg">
<path d="M0.306152 15.2632V6.71881C0.306152 5.52312 0.553048 4.49537 1.04684 3.63556C1.55397 2.7623 2.24128 2.09057 3.10875 1.62036C3.98956 1.15015 4.99716 0.915039 6.13154 0.915039C7.26593 0.915039 8.26685 1.15015 9.13432 1.62036C10.0151 2.09057 10.7024 2.7623 11.1962 3.63556C11.7034 4.49537 11.9569 5.52312 11.9569 6.71881V15.2632H9.09428V6.53744C9.09428 5.97319 8.97417 5.45595 8.73395 4.98574C8.49373 4.51553 8.15342 4.14607 7.71301 3.87738C7.2726 3.59525 6.74544 3.45419 6.13154 3.45419C5.53099 3.45419 5.00384 3.59525 4.55008 3.87738C4.10968 4.14607 3.76936 4.51553 3.52914 4.98574C3.28892 5.45595 3.1688 5.97319 3.1688 6.53744V15.2632H0.306152Z" fill="#8E53E8"/>
<path d="M9.09428 15.2632V6.71881C9.09428 5.52312 9.34117 4.49537 9.83496 3.63556C10.3421 2.7623 11.0294 2.09057 11.8969 1.62036C12.7777 1.15015 13.7853 0.915039 14.9197 0.915039C16.0541 0.915039 17.055 1.15015 17.9224 1.62036C18.8033 2.09057 19.4906 2.7623 19.9844 3.63556C20.4915 4.49537 20.7451 5.52312 20.7451 6.71881V15.2632H17.8824V6.53744C17.8824 5.97319 17.7623 5.45595 17.5221 4.98574C17.2819 4.51553 16.9415 4.14607 16.5011 3.87738C16.0607 3.59525 15.5336 3.45419 14.9197 3.45419C14.3191 3.45419 13.792 3.59525 13.3382 3.87738C12.8978 4.14607 12.5575 4.51553 12.3173 4.98574C12.077 5.45595 11.9569 5.97319 11.9569 6.53744L11.9569 15.2632H9.09428Z" fill="#8E53E8"/>
<path d="M90.1075 15.4002C89.3335 15.4002 88.6261 15.2121 87.9856 14.836C87.3583 14.4598 86.8578 13.956 86.4842 13.3246C86.1105 12.6797 85.9236 11.9677 85.9236 11.1884C85.9236 10.6242 86.0438 10.0935 86.284 9.59644C86.5242 9.09935 86.8512 8.66273 87.2649 8.28656C86.8512 7.91039 86.5242 7.47376 86.284 6.97668C86.0438 6.4796 85.9236 5.95565 85.9236 5.40483C85.9236 4.63905 86.1038 3.94717 86.4641 3.32917C86.8378 2.71118 87.3316 2.22081 87.9455 1.85808C88.5728 1.48191 89.2601 1.29382 90.0074 1.29382H95.7728V3.83297H90.3277C90.0475 3.83297 89.7872 3.90686 89.547 4.05464C89.3201 4.18899 89.1333 4.37708 88.9865 4.6189C88.853 4.84729 88.7863 5.10926 88.7863 5.40483C88.7863 5.68695 88.853 5.94893 88.9865 6.19075C89.1333 6.41914 89.3201 6.60723 89.547 6.75501C89.7872 6.88936 90.0475 6.95653 90.3277 6.95653H95.0921V9.49568H90.4478C90.1409 9.49568 89.8606 9.57629 89.6071 9.7375C89.3535 9.88528 89.1533 10.0868 89.0065 10.3421C88.8597 10.5973 88.7863 10.8794 88.7863 11.1884C88.7863 11.4974 88.8597 11.7796 89.0065 12.0348C89.1533 12.2901 89.3535 12.4916 89.6071 12.6394C89.8606 12.7872 90.1409 12.8611 90.4478 12.8611H95.7728V15.4002H90.1075Z" fill="#8E53E8"/>
<path d="M82.2107 15.4002C81.3832 15.4002 80.6559 15.2121 80.0286 14.836C79.4014 14.4463 78.9143 13.9358 78.5673 13.3044C78.2203 12.6595 78.0468 11.9542 78.0468 11.1884V3.83297H74.1432V1.29382H84.8131V3.83297H80.9094V11.531C80.9094 11.8938 81.0362 12.2095 81.2898 12.4782C81.5434 12.7334 81.8503 12.8611 82.2107 12.8611H87.6717L90.3482 15.4002H82.2107Z" fill="#8E53E8"/>
<path d="M70.797 3.81262C70.3566 3.81262 69.9696 3.65141 69.6359 3.32898C69.3156 3.00655 69.1555 2.61694 69.1555 2.16016C69.1555 1.70338 69.3156 1.31378 69.6359 0.991348C69.9696 0.655482 70.3566 0.487549 70.797 0.487549C71.2508 0.487549 71.6378 0.655482 71.9581 0.991348C72.2917 1.31378 72.4585 1.70338 72.4585 2.16016C72.4585 2.61694 72.2917 3.00655 71.9581 3.32898C71.6378 3.65141 71.2508 3.81262 70.797 3.81262ZM72.3384 15.4C71.4309 15.4 70.7169 15.138 70.1965 14.6141C69.6893 14.0901 69.4357 13.3781 69.4357 12.478V5.1225H72.1783V12.3974C72.1783 12.572 72.2383 12.7265 72.3584 12.8609C72.4919 12.9818 72.6454 13.0422 72.8189 13.0422H73.4395V15.4H72.3384Z" fill="#8E53E8"/>
<path d="M65.2223 15.4002C64.3949 15.4002 63.6675 15.2121 63.0403 14.836C62.413 14.4463 61.9259 13.9358 61.5789 13.3044C61.232 12.6595 61.0585 11.9542 61.0585 11.1884V3.83297H57.1548V1.29382H67.8247V3.83297H63.9211V11.531C63.9211 11.8938 64.0479 12.2095 64.3015 12.4782C64.555 12.7334 64.862 12.8611 65.2223 12.8611H66.2232V15.4002H65.2223Z" fill="#8E53E8"/>
<path d="M47.9058 15.4002V12.8611H50.4281V3.83297H47.9058V1.29382H57.2792V3.83297H53.2908V12.8611H55.8131V15.4002H47.9058Z" fill="#8E53E8"/>
<path d="M34.6012 15.4002V1.29382H40.867C41.7878 1.29382 42.6219 1.50206 43.3693 1.91853C44.13 2.32157 44.7305 2.88583 45.1709 3.6113C45.6247 4.33677 45.8516 5.18315 45.8516 6.15045C45.8516 7.09087 45.6314 7.92382 45.191 8.64929C44.7506 9.36133 44.17 9.92559 43.4493 10.3421L44.7305 12.5991C44.7839 12.6797 44.8506 12.7469 44.9307 12.8006C45.0108 12.8409 45.1042 12.8611 45.211 12.8611H47.9206V15.4002H44.7706C44.2101 15.4002 43.6962 15.2591 43.2291 14.977C42.7754 14.6949 42.4151 14.3254 42.1481 13.8687L40.5667 11.0071C40.4466 11.0071 40.3198 11.0071 40.1863 11.0071C40.0662 11.0071 39.9461 11.0071 39.826 11.0071H37.4638V15.4002H34.6012ZM37.4638 8.46793H40.5266C40.9804 8.46793 41.3941 8.3806 41.7678 8.20595C42.1415 8.01787 42.4351 7.74917 42.6486 7.39987C42.8755 7.05057 42.9889 6.6341 42.9889 6.15045C42.9889 5.6668 42.8755 5.25033 42.6486 4.90103C42.4217 4.55173 42.1215 4.28975 41.7478 4.1151C41.3874 3.92702 40.9804 3.83297 40.5266 3.83297H37.4638V8.46793Z" fill="#8E53E8"/>
<path d="M26.7285 15.4002C25.9545 15.4002 25.2472 15.2121 24.6066 14.836C23.9793 14.4598 23.4789 13.956 23.1052 13.3246C22.7315 12.6797 22.5447 11.9677 22.5447 11.1884C22.5447 10.6242 22.6648 10.0935 22.905 9.59644C23.1452 9.09935 23.4722 8.66273 23.8859 8.28656C23.4722 7.91039 23.1452 7.47376 22.905 6.97668C22.6648 6.4796 22.5447 5.95565 22.5447 5.40483C22.5447 4.63905 22.7248 3.94717 23.0852 3.32917C23.4589 2.71118 23.9526 2.22081 24.5665 1.85808C25.1938 1.48191 25.8811 1.29382 26.6285 1.29382H32.3938V3.83297H26.9488C26.6685 3.83297 26.4083 3.90686 26.168 4.05464C25.9412 4.18899 25.7543 4.37708 25.6075 4.6189C25.4741 4.84729 25.4073 5.10926 25.4073 5.40483C25.4073 5.68695 25.4741 5.94893 25.6075 6.19075C25.7543 6.41914 25.9412 6.60723 26.168 6.75501C26.4083 6.88936 26.6685 6.95653 26.9488 6.95653H31.7132V9.49568H27.0689C26.7619 9.49568 26.4817 9.57629 26.2281 9.7375C25.9745 9.88528 25.7743 10.0868 25.6275 10.3421C25.4807 10.5973 25.4073 10.8794 25.4073 11.1884C25.4073 11.4974 25.4807 11.7796 25.6275 12.0348C25.7743 12.2901 25.9745 12.4916 26.2281 12.6394C26.4817 12.7872 26.7619 12.8611 27.0689 12.8611H32.3938V15.4002H26.7285Z" fill="#8E53E8"/>
<path d="M146.149 15.0009V6.45648C146.149 5.2608 146.396 4.23304 146.89 3.37323C147.397 2.49997 148.084 1.82824 148.952 1.35803C149.832 0.887816 150.84 0.65271 151.974 0.65271C153.109 0.65271 154.11 0.887816 154.977 1.35803C155.858 1.82824 156.545 2.49997 157.039 3.37323C157.546 4.23304 157.8 5.2608 157.8 6.45648V15.0009H154.937V6.27511C154.937 5.71086 154.817 5.19362 154.577 4.72341C154.337 4.2532 153.996 3.88374 153.556 3.61505C153.115 3.33292 152.588 3.19186 151.974 3.19186C151.374 3.19186 150.847 3.33292 150.393 3.61505C149.953 3.88374 149.612 4.2532 149.372 4.72341C149.132 5.19362 149.012 5.71086 149.012 6.27511V15.0009H146.149Z" fill="#8E53E8"/>
<path d="M136.902 15.2631C135.781 15.2631 134.766 15.0751 133.859 14.6989C132.965 14.3093 132.197 13.7786 131.557 13.1069C130.916 12.4352 130.422 11.6559 130.075 10.7693C129.728 9.88257 129.555 8.93543 129.555 7.92783C129.555 6.92023 129.728 5.9798 130.075 5.10655C130.422 4.21986 130.916 3.44065 131.557 2.76892C132.197 2.09719 132.965 1.57324 133.859 1.19707C134.766 0.820898 135.781 0.632812 136.902 0.632812C138.023 0.632812 139.03 0.820898 139.924 1.19707C140.832 1.57324 141.606 2.09719 142.247 2.76892C142.887 3.44065 143.381 4.21986 143.728 5.10655C144.075 5.9798 144.248 6.92023 144.248 7.92783C144.248 8.93543 144.075 9.88257 143.728 10.7693C143.381 11.6559 142.887 12.4352 142.247 13.1069C141.606 13.7786 140.832 14.3093 139.924 14.6989C139.03 15.0751 138.023 15.2631 136.902 15.2631ZM136.902 12.7038C137.542 12.7038 138.136 12.5897 138.683 12.3613C139.23 12.1194 139.704 11.7836 140.105 11.3537C140.518 10.9103 140.832 10.3998 141.045 9.82211C141.272 9.24442 141.386 8.613 141.386 7.92783C141.386 7.24266 141.272 6.61123 141.045 6.03354C140.832 5.45585 140.518 4.95205 140.105 4.52214C139.704 4.09224 139.23 3.76309 138.683 3.5347C138.136 3.29287 137.542 3.17196 136.902 3.17196C136.261 3.17196 135.667 3.29287 135.12 3.5347C134.573 3.76309 134.092 4.09224 133.679 4.52214C133.278 4.95205 132.965 5.45585 132.738 6.03354C132.524 6.61123 132.417 7.24266 132.417 7.92783C132.417 8.613 132.524 9.24442 132.738 9.82211C132.965 10.3998 133.278 10.9103 133.679 11.3537C134.092 11.7836 134.573 12.1194 135.12 12.3613C135.667 12.5897 136.261 12.7038 136.902 12.7038Z" fill="#8E53E8"/>
<path d="M107.635 15.2626C106.501 15.2626 105.493 15.0275 104.612 14.5573C103.745 14.087 103.057 13.422 102.55 12.5622C102.057 11.689 101.81 10.6545 101.81 9.45881V0.914371H104.672V9.64018C104.672 10.2044 104.792 10.7217 105.033 11.1919C105.273 11.6487 105.613 12.0181 106.054 12.3002C106.507 12.5824 107.034 12.7234 107.635 12.7234C108.249 12.7234 108.776 12.5824 109.216 12.3002C109.657 12.0181 109.997 11.6487 110.237 11.1919C110.478 10.7217 110.598 10.2044 110.598 9.64018V5.95237H113.46V9.45881C113.46 10.6545 113.207 11.689 112.7 12.5622C112.206 13.422 111.519 14.087 110.638 14.5573C109.77 15.0275 108.769 15.2626 107.635 15.2626Z" fill="#8E53E8"/>
<path d="M110.598 9.64018V6.13372C110.598 4.93804 110.845 3.91029 111.338 3.05047C111.846 2.17722 112.533 1.50549 113.4 1.03527C114.281 0.565062 115.289 0.329956 116.423 0.329956C117.558 0.329956 118.558 0.565062 119.426 1.03527C120.307 1.50549 120.994 2.17722 121.488 3.05047C121.995 3.91029 122.249 4.93804 122.249 6.13372V15.1411H119.386V5.95236C119.386 5.3881 119.266 4.87087 119.026 4.40065C118.785 3.93044 118.445 3.56099 118.005 3.2923C117.564 3.01017 117.037 2.8691 116.423 2.8691C115.823 2.8691 115.295 3.01017 114.842 3.2923C114.401 3.56099 114.061 3.93044 113.821 4.40065C113.581 4.87087 113.46 5.38811 113.46 5.95237L113.46 9.64017L110.598 9.64018Z" fill="#8E53E8"/>
<path d="M125.949 3.62512C125.508 3.62512 125.121 3.46391 124.787 3.14148C124.467 2.81905 124.307 2.42944 124.307 1.97266C124.307 1.51588 124.467 1.12628 124.787 0.803848C125.121 0.467982 125.508 0.300049 125.949 0.300049C126.402 0.300049 126.789 0.467982 127.11 0.803848C127.443 1.12628 127.61 1.51588 127.61 1.97266C127.61 2.42944 127.443 2.81905 127.11 3.14148C126.789 3.46391 126.402 3.62512 125.949 3.62512ZM127.49 15.2125C126.582 15.2125 125.868 14.9505 125.348 14.4266C124.841 13.9026 124.587 13.1906 124.587 12.2905V4.935H127.33V12.2099C127.33 12.3845 127.39 12.539 127.51 12.6734C127.643 12.7943 127.797 12.8547 127.97 12.8547H128.591V15.2125H127.49Z" fill="#8E53E8"/>
</svg>
