<svg width="148" height="61" viewBox="0 0 148 61" fill="none" xmlns="http://www.w3.org/2000/svg">
<path fill-rule="evenodd" clip-rule="evenodd" d="M21.147 11.9089C21.4684 11.6806 21.8804 11.6221 22.2526 11.7519L32.345 15.2716C34.1749 15.1504 36.0186 15.6525 37.5329 17.2187C39.0169 18.7537 39.5275 20.5579 39.4417 22.3509L42.9707 32.4701C43.1005 32.8423 43.042 33.2543 42.8138 33.5756C42.5855 33.897 42.2157 34.0879 41.8215 34.0879L32.6831 34.0879L29.4263 37.3448C28.9552 35.8733 27.5761 34.808 25.9483 34.808C23.9318 34.808 22.2971 36.4427 22.2971 38.4592C22.2971 40.0871 23.3624 41.4661 24.8338 41.9372L20.2066 46.5644C19.7083 47.0628 19.5691 47.5043 19.5581 47.8087C19.5469 48.1208 19.6642 48.3889 19.8538 48.5787C20.0434 48.7684 20.3108 48.8857 20.6221 48.8745C20.9258 48.8636 21.3676 48.7245 21.8672 48.225C22.3425 47.7497 23.1131 47.7497 23.5884 48.225C24.0637 48.7003 24.0637 49.4709 23.5884 49.9462C22.7242 50.8103 21.721 51.2708 20.7094 51.3071C19.7054 51.3431 18.7872 50.9552 18.1317 50.299C17.4763 49.6429 17.0894 48.7245 17.1255 47.721C17.162 46.7098 17.6219 45.7068 18.4854 44.8432L22.4224 40.9063L21.6803 40.1641C19.6468 42.0476 18.2083 42.8408 16.9062 43.4956L16.6 43.6489C15.3591 44.2681 14.3218 44.7858 12.8126 46.295C12.3333 46.7743 12.2063 47.2118 12.2071 47.5342C12.208 47.8734 12.35 48.1977 12.5949 48.4426C12.8398 48.6875 13.1642 48.8296 13.5034 48.8305C13.8258 48.8313 14.2633 48.7043 14.7426 48.225C15.2179 47.7497 15.9885 47.7497 16.4638 48.225C16.9391 48.7003 16.9391 49.4709 16.4638 49.9462C15.5809 50.8291 14.5404 51.2673 13.4971 51.2646C12.4707 51.262 11.5416 50.8317 10.8737 50.1638C10.2058 49.4959 9.77562 48.5669 9.77297 47.5405C9.77028 46.4972 10.2085 45.4567 11.0914 44.5738C12.8824 42.7828 14.2091 42.1211 15.5087 41.473C15.61 41.4224 15.7112 41.372 15.8125 41.321C16.9375 40.7552 18.1624 40.0931 19.9577 38.4416L16.5424 35.0263C14.9468 36.8062 14.366 38.1128 13.7682 39.4652L13.7566 39.4915C13.0112 41.1779 12.2301 42.9448 9.76991 45.4052C8.88846 46.2866 7.84873 46.7228 6.80639 46.7184C5.78129 46.714 4.85382 46.2828 4.18683 45.6159C3.51984 44.9489 3.08871 44.0214 3.08431 42.9963C3.07983 41.954 3.516 40.9142 4.39747 40.0327C4.87276 39.5574 5.64337 39.5574 6.11867 40.0327C6.59397 40.508 6.59396 41.2787 6.11867 41.7539C5.64262 42.23 5.51706 42.6648 5.51843 42.9858C5.51989 43.3241 5.6622 43.6488 5.90803 43.8946C6.15385 44.1405 6.47857 44.2828 6.81682 44.2842C7.13783 44.2856 7.57263 44.16 8.04867 43.684C10.188 41.5445 10.829 40.0941 11.5166 38.5383L11.5419 38.4811C12.2058 36.9791 12.9183 35.3987 14.819 33.3029L13.8164 32.3003L9.70846 36.4082C8.05481 38.0618 5.80842 37.766 4.52127 36.5211C3.87688 35.8978 3.44458 35.0157 3.45148 34.0118C3.45845 32.9972 3.91156 31.9991 4.77643 31.1343C5.25172 30.659 6.02233 30.659 6.49763 31.1343C6.97293 31.6096 6.97293 32.3802 6.49763 32.8555C5.99883 33.3543 5.88737 33.7662 5.88557 34.0285C5.88369 34.3016 5.99841 34.5633 6.21356 34.7714C6.64546 35.1892 7.36814 35.3061 7.98725 34.687L12.7595 29.9147C13.2536 31.3459 14.6126 32.3739 16.2117 32.3739C18.2282 32.3739 19.8629 30.7391 19.8629 28.7226C19.8629 27.1235 18.8349 25.7645 17.4038 25.2704L20.6347 22.0395L20.6347 12.9011C20.6347 12.5069 20.8256 12.1371 21.147 11.9089ZM23.0689 19.8136C23.4862 19.4699 23.9547 19.1012 24.4628 18.728C25.5396 17.9373 26.8476 17.0866 28.2602 16.425L23.0689 14.6145L23.0689 19.8136ZM34.9468 31.6538L40.1081 31.6538L38.3162 26.5157C37.6615 27.9263 36.8134 29.224 36.0224 30.2899C35.6537 30.7867 35.2885 31.2448 34.9468 31.6538Z" fill="#8E53E8"/>
<path d="M17.4288 28.7226C17.4288 29.3948 16.8839 29.9397 16.2117 29.9397C15.5395 29.9397 14.9946 29.3948 14.9946 28.7226C14.9946 28.0505 15.5395 27.5056 16.2117 27.5056C16.8839 27.5056 17.4288 28.0505 17.4288 28.7226Z" fill="#8E53E8"/>
<path d="M27.1654 38.4592C27.1654 39.1314 26.6205 39.6763 25.9483 39.6763C25.2761 39.6763 24.7312 39.1314 24.7312 38.4592C24.7312 37.787 25.2761 37.2421 25.9483 37.2421C26.6205 37.2421 27.1654 37.787 27.1654 38.4592Z" fill="#8E53E8"/>
<path d="M51.9396 30.0693V21.5815C51.9396 20.3937 52.1865 19.3728 52.6803 18.5187C53.1874 17.6512 53.8747 16.9839 54.7422 16.5168C55.623 16.0497 56.6306 15.8162 57.765 15.8162C58.8994 15.8162 59.9003 16.0497 60.7678 16.5168C61.6486 16.9839 62.3359 17.6512 62.8297 18.5187C63.3368 19.3728 63.5904 20.3937 63.5904 21.5815V30.0693H60.7277V21.4013C60.7277 20.8408 60.6076 20.327 60.3674 19.8599C60.1272 19.3928 59.7869 19.0258 59.3465 18.7589C58.9061 18.4786 58.3789 18.3385 57.765 18.3385C57.1644 18.3385 56.6373 18.4786 56.1835 18.7589C55.7431 19.0258 55.4028 19.3928 55.1626 19.8599C54.9224 20.327 54.8023 20.8408 54.8023 21.4013V30.0693H51.9396Z" fill="#191923"/>
<path d="M60.7277 30.0693V21.5815C60.7277 20.3937 60.9746 19.3728 61.4684 18.5187C61.9756 17.6512 62.6629 16.9839 63.5303 16.5168C64.4111 16.0497 65.4187 15.8162 66.5531 15.8162C67.6875 15.8162 68.6884 16.0497 69.5559 16.5168C70.4367 16.9839 71.124 17.6512 71.6178 18.5187C72.1249 19.3728 72.3785 20.3937 72.3785 21.5815V30.0693H69.5159V21.4013C69.5159 20.8408 69.3958 20.327 69.1555 19.8599C68.9153 19.3928 68.575 19.0258 68.1346 18.7589C67.6942 18.4786 67.167 18.3385 66.5531 18.3385C65.9526 18.3385 65.4254 18.4786 64.9717 18.7589C64.5313 19.0258 64.1909 19.3928 63.9507 19.8599C63.7105 20.327 63.5904 20.8408 63.5904 21.4013L63.5904 30.0693H60.7277Z" fill="#191923"/>
<path d="M141.741 30.2053C140.967 30.2053 140.26 30.0185 139.619 29.6448C138.992 29.2711 138.491 28.7707 138.118 28.1434C137.744 27.5028 137.557 26.7955 137.557 26.0215C137.557 25.461 137.677 24.9338 137.917 24.44C138.158 23.9462 138.485 23.5125 138.898 23.1388C138.485 22.7651 138.158 22.3314 137.917 21.8376C137.677 21.3438 137.557 20.8233 137.557 20.2762C137.557 19.5155 137.737 18.8282 138.098 18.2143C138.471 17.6004 138.965 17.1132 139.579 16.7529C140.206 16.3792 140.893 16.1924 141.641 16.1924H147.406V18.7147H141.961C141.681 18.7147 141.421 18.7881 141.18 18.9349C140.954 19.0684 140.767 19.2552 140.62 19.4954C140.486 19.7223 140.42 19.9826 140.42 20.2762C140.42 20.5564 140.486 20.8167 140.62 21.0569C140.767 21.2838 140.954 21.4706 141.18 21.6174C141.421 21.7509 141.681 21.8176 141.961 21.8176H146.726V24.3399H142.081C141.774 24.3399 141.494 24.42 141.24 24.5801C140.987 24.7269 140.787 24.9271 140.64 25.1807C140.493 25.4343 140.42 25.7145 140.42 26.0215C140.42 26.3284 140.493 26.6087 140.64 26.8623C140.787 27.1158 140.987 27.316 141.24 27.4628C141.494 27.6096 141.774 27.683 142.081 27.683H147.406V30.2053H141.741Z" fill="#191923"/>
<path d="M133.844 30.2053C133.017 30.2053 132.289 30.0185 131.662 29.6448C131.035 29.2578 130.548 28.7507 130.201 28.1234C129.854 27.4828 129.68 26.7822 129.68 26.0215V18.7147H125.777V16.1924H136.446V18.7147H132.543V26.3618C132.543 26.7221 132.67 27.0357 132.923 27.3027C133.177 27.5562 133.484 27.683 133.844 27.683H139.305L141.982 30.2053H133.844Z" fill="#191923"/>
<path d="M122.43 18.6945C121.99 18.6945 121.603 18.5344 121.269 18.2141C120.949 17.8938 120.789 17.5068 120.789 17.053C120.789 16.5993 120.949 16.2122 121.269 15.8919C121.603 15.5583 121.99 15.3915 122.43 15.3915C122.884 15.3915 123.271 15.5583 123.592 15.8919C123.925 16.2122 124.092 16.5993 124.092 17.053C124.092 17.5068 123.925 17.8938 123.592 18.2141C123.271 18.5344 122.884 18.6945 122.43 18.6945ZM123.972 30.2052C123.064 30.2052 122.35 29.9449 121.83 29.4245C121.323 28.904 121.069 28.1967 121.069 27.3025V19.9957H123.812V27.2224C123.812 27.3959 123.872 27.5494 123.992 27.6829C124.125 27.803 124.279 27.863 124.452 27.863H125.073V30.2052H123.972Z" fill="#191923"/>
<path d="M116.856 30.2053C116.028 30.2053 115.301 30.0185 114.674 29.6448C114.046 29.2578 113.559 28.7507 113.212 28.1234C112.865 27.4828 112.692 26.7822 112.692 26.0215V18.7147H108.788V16.1924H119.458V18.7147H115.555V26.3618C115.555 26.7221 115.681 27.0357 115.935 27.3027C116.188 27.5562 116.495 27.683 116.856 27.683H117.857V30.2053H116.856Z" fill="#191923"/>
<path d="M99.5392 30.2053V27.683H102.062V18.7147H99.5392V16.1924H108.913V18.7147H104.924V27.683H107.447V30.2053H99.5392Z" fill="#191923"/>
<path d="M86.2346 30.2053V16.1924H92.5004C93.4213 16.1924 94.2554 16.3992 95.0028 16.813C95.7635 17.2133 96.364 17.7738 96.8044 18.4945C97.2582 19.2152 97.4851 20.056 97.4851 21.0168C97.4851 21.951 97.2648 22.7785 96.8244 23.4991C96.384 24.2065 95.8035 24.767 95.0828 25.1807L96.364 27.4228C96.4174 27.5028 96.4841 27.5696 96.5642 27.623C96.6443 27.663 96.7377 27.683 96.8445 27.683H99.5541V30.2053H96.4041C95.8435 30.2053 95.3297 30.0652 94.8626 29.785C94.4089 29.5047 94.0485 29.1377 93.7816 28.6839L92.2002 25.8413C92.0801 25.8413 91.9533 25.8413 91.8198 25.8413C91.6997 25.8413 91.5796 25.8413 91.4595 25.8413H89.0973V30.2053H86.2346ZM89.0973 23.319H92.1601C92.6139 23.319 93.0276 23.2322 93.4013 23.0587C93.775 22.8719 94.0686 22.605 94.2821 22.258C94.509 21.911 94.6224 21.4973 94.6224 21.0168C94.6224 20.5364 94.509 20.1227 94.2821 19.7757C94.0552 19.4287 93.7549 19.1685 93.3813 18.995C93.0209 18.8081 92.6139 18.7147 92.1601 18.7147H89.0973V23.319Z" fill="#191923"/>
<path d="M78.3621 30.2053C77.588 30.2053 76.8807 30.0185 76.2401 29.6448C75.6128 29.2711 75.1124 28.7707 74.7387 28.1434C74.365 27.5028 74.1782 26.7955 74.1782 26.0215C74.1782 25.461 74.2983 24.9338 74.5385 24.44C74.7787 23.9462 75.1057 23.5125 75.5194 23.1388C75.1057 22.7651 74.7787 22.3314 74.5385 21.8376C74.2983 21.3438 74.1782 20.8233 74.1782 20.2762C74.1782 19.5155 74.3583 18.8282 74.7187 18.2143C75.0924 17.6004 75.5861 17.1132 76.2001 16.7529C76.8273 16.3792 77.5146 16.1924 78.262 16.1924H84.0273V18.7147H78.5823C78.302 18.7147 78.0418 18.7881 77.8015 18.9349C77.5747 19.0684 77.3878 19.2552 77.241 19.4954C77.1076 19.7223 77.0408 19.9826 77.0408 20.2762C77.0408 20.5564 77.1076 20.8167 77.241 21.0569C77.3878 21.2838 77.5747 21.4706 77.8015 21.6174C78.0418 21.7509 78.302 21.8176 78.5823 21.8176H83.3467V24.3399H78.7024C78.3954 24.3399 78.1152 24.42 77.8616 24.5801C77.608 24.7269 77.4078 24.9271 77.261 25.1807C77.1142 25.4343 77.0408 25.7145 77.0408 26.0215C77.0408 26.3284 77.1142 26.6087 77.261 26.8623C77.4078 27.1158 77.608 27.316 77.8616 27.4628C78.1152 27.6096 78.3954 27.683 78.7024 27.683H84.0273V30.2053H78.3621Z" fill="#191923"/>
<path d="M96.279 48.9951V40.5073C96.279 39.3195 96.5259 38.2986 97.0196 37.4444C97.5268 36.577 98.2141 35.9097 99.0815 35.4426C99.9624 34.9755 100.97 34.7419 102.104 34.7419C103.239 34.7419 104.24 34.9755 105.107 35.4426C105.988 35.9097 106.675 36.577 107.169 37.4444C107.676 38.2986 107.93 39.3195 107.93 40.5073V48.9951H105.067V40.3271C105.067 39.7666 104.947 39.2528 104.707 38.7857C104.467 38.3186 104.126 37.9516 103.686 37.6847C103.245 37.4044 102.718 37.2643 102.104 37.2643C101.504 37.2643 100.977 37.4044 100.523 37.6847C100.082 37.9516 99.7422 38.3186 99.5019 38.7857C99.2617 39.2528 99.1416 39.7666 99.1416 40.3271V48.9951H96.279Z" fill="#191923"/>
<path d="M87.0316 49.2555C85.9105 49.2555 84.8962 49.0687 83.9887 48.695C83.0946 48.3079 82.3272 47.7808 81.6866 47.1135C81.046 46.4462 80.5522 45.6722 80.2052 44.7914C79.8583 43.9105 79.6848 42.9697 79.6848 41.9688C79.6848 40.9678 79.8583 40.0336 80.2052 39.1662C80.5522 38.2853 81.046 37.5113 81.6866 36.844C82.3272 36.1767 83.0946 35.6562 83.9887 35.2826C84.8962 34.9089 85.9105 34.722 87.0316 34.722C88.1526 34.722 89.1602 34.9089 90.0544 35.2826C90.9619 35.6562 91.7359 36.1767 92.3765 36.844C93.0171 37.5113 93.5109 38.2853 93.8579 39.1662C94.2049 40.0336 94.3784 40.9678 94.3784 41.9688C94.3784 42.9697 94.2049 43.9105 93.8579 44.7914C93.5109 45.6722 93.0171 46.4462 92.3765 47.1135C91.7359 47.7808 90.9619 48.3079 90.0544 48.695C89.1602 49.0687 88.1526 49.2555 87.0316 49.2555ZM87.0316 46.7131C87.6721 46.7131 88.266 46.5997 88.8132 46.3728C89.3604 46.1326 89.8342 45.799 90.2345 45.3719C90.6482 44.9315 90.9619 44.4244 91.1754 43.8505C91.4023 43.2766 91.5157 42.6494 91.5157 41.9688C91.5157 41.2881 91.4023 40.6609 91.1754 40.087C90.9619 39.5131 90.6482 39.0127 90.2345 38.5856C89.8342 38.1586 89.3604 37.8316 88.8132 37.6047C88.266 37.3645 87.6721 37.2444 87.0316 37.2444C86.391 37.2444 85.7971 37.3645 85.2499 37.6047C84.7027 37.8316 84.2223 38.1586 83.8086 38.5856C83.4082 39.0127 83.0946 39.5131 82.8677 40.087C82.6542 40.6609 82.5474 41.2881 82.5474 41.9688C82.5474 42.6494 82.6542 43.2766 82.8677 43.8505C83.0946 44.4244 83.4082 44.9315 83.8086 45.3719C84.2223 45.799 84.7027 46.1326 85.2499 46.3728C85.7971 46.5997 86.391 46.7131 87.0316 46.7131Z" fill="#191923"/>
<path d="M57.765 49.2551C56.6306 49.2551 55.623 49.0216 54.7422 48.5545C53.8747 48.0874 53.1874 47.4268 52.6803 46.5726C52.1865 45.7052 51.9396 44.6776 51.9396 43.4898V35.0019H54.8023V43.67C54.8023 44.2305 54.9224 44.7443 55.1626 45.2114C55.4028 45.6651 55.7431 46.0321 56.1835 46.3124C56.6373 46.5927 57.1644 46.7328 57.765 46.7328C58.3789 46.7328 58.9061 46.5927 59.3465 46.3124C59.7869 46.0321 60.1272 45.6651 60.3674 45.2114C60.6076 44.7443 60.7277 44.2305 60.7277 43.67V40.0066H63.5904V43.4898C63.5904 44.6776 63.3368 45.7052 62.8297 46.5726C62.3359 47.4268 61.6486 48.0874 60.7678 48.5545C59.9003 49.0216 58.8994 49.2551 57.765 49.2551Z" fill="#191923"/>
<path d="M60.7277 43.67V40.1867C60.7277 38.999 60.9746 37.978 61.4684 37.1239C61.9756 36.2564 62.6629 35.5891 63.5303 35.122C64.4111 34.6549 65.4188 34.4214 66.5531 34.4214C67.6875 34.4214 68.6884 34.6549 69.5559 35.122C70.4367 35.5891 71.124 36.2564 71.6178 37.1239C72.1249 37.978 72.3785 38.999 72.3785 40.1867V49.1345H69.5159V40.0066C69.5159 39.446 69.3958 38.9322 69.1555 38.4651C68.9153 37.998 68.575 37.631 68.1346 37.3641C67.6942 37.0838 67.167 36.9437 66.5531 36.9437C65.9526 36.9437 65.4254 37.0838 64.9717 37.3641C64.5313 37.631 64.1909 37.998 63.9507 38.4651C63.7105 38.9322 63.5904 39.446 63.5904 40.0066L63.5904 43.6699L60.7277 43.67Z" fill="#191923"/>
<path d="M76.0785 37.6945C75.6381 37.6945 75.2511 37.5344 74.9175 37.2141C74.5972 36.8938 74.437 36.5068 74.437 36.053C74.437 35.5993 74.5972 35.2122 74.9175 34.8919C75.2511 34.5583 75.6381 34.3915 76.0785 34.3915C76.5323 34.3915 76.9193 34.5583 77.2396 34.8919C77.5732 35.2122 77.7401 35.5993 77.7401 36.053C77.7401 36.5068 77.5732 36.8938 77.2396 37.2141C76.9193 37.5344 76.5323 37.6945 76.0785 37.6945ZM77.62 49.2052C76.7125 49.2052 75.9985 48.9449 75.478 48.4245C74.9708 47.904 74.7173 47.1967 74.7173 46.3025V38.9957H77.4598V46.2224C77.4598 46.3959 77.5199 46.5494 77.64 46.6829C77.7734 46.803 77.9269 46.863 78.1004 46.863H78.721V49.2052H77.62Z" fill="#191923"/>
</svg>
