<svg width="148" height="61" viewBox="0 0 148 61" fill="none" xmlns="http://www.w3.org/2000/svg">
<path fill-rule="evenodd" clip-rule="evenodd" d="M21.147 11.9486C21.4684 11.7203 21.8804 11.6618 22.2526 11.7916L32.345 15.3113C34.1749 15.19 36.0186 15.6921 37.5329 17.2584C39.0169 18.7933 39.5275 20.5976 39.4417 22.3905L42.9707 32.5097C43.1005 32.8819 43.042 33.2939 42.8138 33.6153C42.5855 33.9367 42.2157 34.1276 41.8215 34.1276L32.6831 34.1276L29.4263 37.3844C28.9552 35.913 27.5761 34.8477 25.9483 34.8477C23.9318 34.8477 22.2971 36.4824 22.2971 38.4989C22.2971 40.1267 23.3624 41.5058 24.8338 41.9769L20.2066 46.6041C19.7083 47.1024 19.5691 47.544 19.5581 47.8483C19.5469 48.1604 19.6642 48.4286 19.8538 48.6184C20.0434 48.8081 20.3108 48.9254 20.6221 48.9142C20.9258 48.9033 21.3676 48.7642 21.8672 48.2647C22.3425 47.7894 23.1131 47.7894 23.5884 48.2647C24.0637 48.74 24.0637 49.5106 23.5884 49.9859C22.7242 50.85 21.721 51.3105 20.7094 51.3468C19.7054 51.3828 18.7872 50.9948 18.1317 50.3387C17.4763 49.6826 17.0894 48.7642 17.1255 47.7607C17.162 46.7495 17.6219 45.7465 18.4854 44.8829L22.4224 40.9459L21.6803 40.2038C19.6468 42.0873 18.2083 42.8805 16.9062 43.5353L16.6 43.6885C15.3591 44.3078 14.3218 44.8254 12.8126 46.3347C12.3333 46.8139 12.2063 47.2514 12.2071 47.5738C12.208 47.9131 12.35 48.2374 12.5949 48.4823C12.8398 48.7272 13.1642 48.8693 13.5034 48.8701C13.8258 48.871 14.2633 48.744 14.7426 48.2647C15.2179 47.7894 15.9885 47.7894 16.4638 48.2647C16.9391 48.74 16.9391 49.5106 16.4638 49.9859C15.5809 50.8688 14.5404 51.307 13.4971 51.3043C12.4707 51.3016 11.5416 50.8714 10.8737 50.2035C10.2058 49.5356 9.77562 48.6066 9.77297 47.5801C9.77028 46.5369 10.2085 45.4963 11.0914 44.6135C12.8824 42.8225 14.2091 42.1608 15.5087 41.5127C15.61 41.4621 15.7112 41.4116 15.8125 41.3607C16.9375 40.7949 18.1624 40.1328 19.9577 38.4813L16.5424 35.0659C14.9468 36.8459 14.366 38.1525 13.7682 39.5049L13.7566 39.5312C13.0112 41.2176 12.2301 42.9845 9.76991 45.4448C8.88846 46.3263 7.84873 46.7625 6.80639 46.758C5.78129 46.7536 4.85382 46.3225 4.18683 45.6555C3.51984 44.9885 3.08871 44.0611 3.08431 43.036C3.07983 41.9936 3.516 40.9539 4.39747 40.0724C4.87276 39.5971 5.64337 39.5971 6.11867 40.0724C6.59397 40.5477 6.59396 41.3183 6.11867 41.7936C5.64262 42.2697 5.51706 42.7045 5.51843 43.0255C5.51989 43.3638 5.6622 43.6885 5.90803 43.9343C6.15385 44.1801 6.47857 44.3225 6.81682 44.3239C7.13783 44.3253 7.57263 44.1997 8.04867 43.7237C10.188 41.5842 10.829 40.1337 11.5166 38.578L11.5419 38.5208C12.2058 37.0188 12.9183 35.4384 14.819 33.3426L13.8164 32.3399L9.70846 36.4478C8.05481 38.1015 5.80842 37.8057 4.52127 36.5607C3.87688 35.9375 3.44458 35.0553 3.45148 34.0515C3.45845 33.0369 3.91156 32.0388 4.77643 31.1739C5.25172 30.6986 6.02233 30.6986 6.49763 31.1739C6.97293 31.6492 6.97293 32.4198 6.49763 32.8951C5.99883 33.3939 5.88737 33.8059 5.88557 34.0682C5.88369 34.3413 5.99841 34.603 6.21356 34.8111C6.64546 35.2288 7.36814 35.3458 7.98725 34.7266L12.7595 29.9544C13.2536 31.3855 14.6126 32.4135 16.2117 32.4135C18.2282 32.4135 19.8629 30.7788 19.8629 28.7623C19.8629 27.1632 18.8349 25.8042 17.4038 25.3101L20.6347 22.0792L20.6347 12.9408C20.6347 12.5466 20.8256 12.1768 21.147 11.9486ZM23.0689 19.8533C23.4862 19.5096 23.9547 19.1409 24.4628 18.7677C25.5396 17.977 26.8476 17.1263 28.2602 16.4647L23.0689 14.6542L23.0689 19.8533ZM34.9468 31.6934L40.1081 31.6934L38.3162 26.5554C37.6615 27.966 36.8134 29.2637 36.0224 30.3296C35.6537 30.8264 35.2885 31.2845 34.9468 31.6934Z" fill="#8E53E8"/>
<path d="M17.4288 28.7623C17.4288 29.4345 16.8839 29.9794 16.2117 29.9794C15.5395 29.9794 14.9946 29.4345 14.9946 28.7623C14.9946 28.0901 15.5395 27.5452 16.2117 27.5452C16.8839 27.5452 17.4288 28.0901 17.4288 28.7623Z" fill="#8E53E8"/>
<path d="M27.1654 38.4989C27.1654 39.1711 26.6205 39.716 25.9483 39.716C25.2761 39.716 24.7312 39.1711 24.7312 38.4989C24.7312 37.8267 25.2761 37.2818 25.9483 37.2818C26.6205 37.2818 27.1654 37.8267 27.1654 38.4989Z" fill="#8E53E8"/>
<path d="M51.9396 30.109V21.6212C51.9396 20.4334 52.1865 19.4125 52.6803 18.5583C53.1874 17.6909 53.8747 17.0236 54.7422 16.5565C55.623 16.0894 56.6306 15.8558 57.765 15.8558C58.8994 15.8558 59.9003 16.0894 60.7678 16.5565C61.6486 17.0236 62.3359 17.6909 62.8297 18.5583C63.3368 19.4125 63.5904 20.4334 63.5904 21.6212V30.109H60.7277V21.441C60.7277 20.8805 60.6076 20.3667 60.3674 19.8996C60.1272 19.4325 59.7869 19.0655 59.3465 18.7986C58.9061 18.5183 58.3789 18.3782 57.765 18.3782C57.1644 18.3782 56.6373 18.5183 56.1835 18.7986C55.7431 19.0655 55.4028 19.4325 55.1626 19.8996C54.9224 20.3667 54.8023 20.8805 54.8023 21.441V30.109H51.9396Z" fill="#8E53E8"/>
<path d="M60.7277 30.109V21.6212C60.7277 20.4334 60.9746 19.4125 61.4684 18.5583C61.9756 17.6909 62.6629 17.0236 63.5303 16.5565C64.4111 16.0894 65.4187 15.8558 66.5531 15.8558C67.6875 15.8558 68.6884 16.0894 69.5559 16.5565C70.4367 17.0236 71.124 17.6909 71.6178 18.5583C72.1249 19.4125 72.3785 20.4334 72.3785 21.6212V30.109H69.5159V21.441C69.5159 20.8805 69.3958 20.3667 69.1555 19.8996C68.9153 19.4325 68.575 19.0655 68.1346 18.7986C67.6942 18.5183 67.167 18.3782 66.5531 18.3782C65.9526 18.3782 65.4254 18.5183 64.9717 18.7986C64.5313 19.0655 64.1909 19.4325 63.9507 19.8996C63.7105 20.3667 63.5904 20.8805 63.5904 21.441L63.5904 30.109H60.7277Z" fill="#8E53E8"/>
<path d="M141.741 30.245C140.967 30.245 140.26 30.0582 139.619 29.6845C138.992 29.3108 138.491 28.8104 138.118 28.1831C137.744 27.5425 137.557 26.8352 137.557 26.0611C137.557 25.5006 137.677 24.9735 137.917 24.4797C138.158 23.9859 138.485 23.5522 138.898 23.1785C138.485 22.8048 138.158 22.3711 137.917 21.8773C137.677 21.3835 137.557 20.863 137.557 20.3158C137.557 19.5551 137.737 18.8678 138.098 18.2539C138.471 17.64 138.965 17.1529 139.579 16.7926C140.206 16.4189 140.893 16.2321 141.641 16.2321H147.406V18.7544H141.961C141.681 18.7544 141.421 18.8278 141.18 18.9746C140.954 19.108 140.767 19.2949 140.62 19.5351C140.486 19.762 140.42 20.0222 140.42 20.3158C140.42 20.5961 140.486 20.8563 140.62 21.0966C140.767 21.3234 140.954 21.5103 141.18 21.6571C141.421 21.7905 141.681 21.8573 141.961 21.8573H146.726V24.3796H142.081C141.774 24.3796 141.494 24.4597 141.24 24.6198C140.987 24.7666 140.787 24.9668 140.64 25.2204C140.493 25.4739 140.42 25.7542 140.42 26.0611C140.42 26.3681 140.493 26.6484 140.64 26.9019C140.787 27.1555 140.987 27.3557 141.24 27.5025C141.494 27.6493 141.774 27.7227 142.081 27.7227H147.406V30.245H141.741Z" fill="#8E53E8"/>
<path d="M133.844 30.245C133.017 30.245 132.289 30.0582 131.662 29.6845C131.035 29.2975 130.548 28.7903 130.201 28.1631C129.854 27.5225 129.68 26.8219 129.68 26.0611V18.7544H125.777V16.2321H136.446V18.7544H132.543V26.4015C132.543 26.7618 132.67 27.0754 132.923 27.3423C133.177 27.5959 133.484 27.7227 133.844 27.7227H139.305L141.982 30.245H133.844Z" fill="#8E53E8"/>
<path d="M122.43 18.7342C121.99 18.7342 121.603 18.5741 121.269 18.2538C120.949 17.9335 120.789 17.5464 120.789 17.0927C120.789 16.6389 120.949 16.2519 121.269 15.9316C121.603 15.598 121.99 15.4312 122.43 15.4312C122.884 15.4312 123.271 15.598 123.592 15.9316C123.925 16.2519 124.092 16.6389 124.092 17.0927C124.092 17.5464 123.925 17.9335 123.592 18.2538C123.271 18.5741 122.884 18.7342 122.43 18.7342ZM123.972 30.2449C123.064 30.2449 122.35 29.9846 121.83 29.4641C121.323 28.9437 121.069 28.2363 121.069 27.3422V20.0354H123.812V27.2621C123.812 27.4356 123.872 27.5891 123.992 27.7225C124.125 27.8426 124.279 27.9027 124.452 27.9027H125.073V30.2449H123.972Z" fill="#8E53E8"/>
<path d="M116.856 30.245C116.028 30.245 115.301 30.0582 114.674 29.6845C114.046 29.2975 113.559 28.7903 113.212 28.1631C112.865 27.5225 112.692 26.8219 112.692 26.0611V18.7544H108.788V16.2321H119.458V18.7544H115.555V26.4015C115.555 26.7618 115.681 27.0754 115.935 27.3423C116.188 27.5959 116.495 27.7227 116.856 27.7227H117.857V30.245H116.856Z" fill="#8E53E8"/>
<path d="M99.5392 30.245V27.7227H102.062V18.7544H99.5392V16.2321H108.913V18.7544H104.924V27.7227H107.447V30.245H99.5392Z" fill="#8E53E8"/>
<path d="M86.2346 30.245V16.2321H92.5004C93.4213 16.2321 94.2554 16.4389 95.0028 16.8526C95.7635 17.253 96.364 17.8135 96.8044 18.5342C97.2582 19.2549 97.4851 20.0956 97.4851 21.0565C97.4851 21.9907 97.2648 22.8181 96.8244 23.5388C96.384 24.2461 95.8035 24.8067 95.0828 25.2204L96.364 27.4624C96.4174 27.5425 96.4841 27.6092 96.5642 27.6626C96.6443 27.7027 96.7377 27.7227 96.8445 27.7227H99.5541V30.245H96.4041C95.8435 30.245 95.3297 30.1049 94.8626 29.8246C94.4089 29.5444 94.0485 29.1774 93.7816 28.7236L92.2002 25.881C92.0801 25.881 91.9533 25.881 91.8198 25.881C91.6997 25.881 91.5796 25.881 91.4595 25.881H89.0973V30.245H86.2346ZM89.0973 23.3586H92.1601C92.6139 23.3586 93.0276 23.2719 93.4013 23.0984C93.775 22.9116 94.0686 22.6447 94.2821 22.2977C94.509 21.9507 94.6224 21.537 94.6224 21.0565C94.6224 20.5761 94.509 20.1624 94.2821 19.8154C94.0552 19.4684 93.7549 19.2081 93.3813 19.0346C93.0209 18.8478 92.6139 18.7544 92.1601 18.7544H89.0973V23.3586Z" fill="#8E53E8"/>
<path d="M78.3621 30.245C77.588 30.245 76.8807 30.0582 76.2401 29.6845C75.6128 29.3108 75.1124 28.8104 74.7387 28.1831C74.365 27.5425 74.1782 26.8352 74.1782 26.0611C74.1782 25.5006 74.2983 24.9735 74.5385 24.4797C74.7787 23.9859 75.1057 23.5522 75.5194 23.1785C75.1057 22.8048 74.7787 22.3711 74.5385 21.8773C74.2983 21.3835 74.1782 20.863 74.1782 20.3158C74.1782 19.5551 74.3583 18.8678 74.7187 18.2539C75.0924 17.64 75.5861 17.1529 76.2001 16.7926C76.8273 16.4189 77.5146 16.2321 78.262 16.2321H84.0273V18.7544H78.5823C78.302 18.7544 78.0418 18.8278 77.8015 18.9746C77.5747 19.108 77.3878 19.2949 77.241 19.5351C77.1076 19.762 77.0408 20.0222 77.0408 20.3158C77.0408 20.5961 77.1076 20.8563 77.241 21.0966C77.3878 21.3234 77.5747 21.5103 77.8015 21.6571C78.0418 21.7905 78.302 21.8573 78.5823 21.8573H83.3467V24.3796H78.7024C78.3954 24.3796 78.1152 24.4597 77.8616 24.6198C77.608 24.7666 77.4078 24.9668 77.261 25.2204C77.1142 25.4739 77.0408 25.7542 77.0408 26.0611C77.0408 26.3681 77.1142 26.6484 77.261 26.9019C77.4078 27.1555 77.608 27.3557 77.8616 27.5025C78.1152 27.6493 78.3954 27.7227 78.7024 27.7227H84.0273V30.245H78.3621Z" fill="#8E53E8"/>
<path d="M96.279 49.0348V40.5469C96.279 39.3592 96.5259 38.3382 97.0196 37.4841C97.5268 36.6166 98.2141 35.9494 99.0815 35.4823C99.9624 35.0152 100.97 34.7816 102.104 34.7816C103.239 34.7816 104.24 35.0152 105.107 35.4823C105.988 35.9494 106.675 36.6166 107.169 37.4841C107.676 38.3382 107.93 39.3592 107.93 40.5469V49.0348H105.067V40.3668C105.067 39.8063 104.947 39.2925 104.707 38.8254C104.467 38.3583 104.126 37.9913 103.686 37.7243C103.245 37.4441 102.718 37.3039 102.104 37.3039C101.504 37.3039 100.977 37.4441 100.523 37.7243C100.082 37.9913 99.7422 38.3583 99.5019 38.8254C99.2617 39.2925 99.1416 39.8063 99.1416 40.3668V49.0348H96.279Z" fill="#8E53E8"/>
<path d="M87.0316 49.2952C85.9105 49.2952 84.8962 49.1083 83.9887 48.7346C83.0946 48.3476 82.3272 47.8205 81.6866 47.1532C81.046 46.4859 80.5522 45.7118 80.2052 44.831C79.8583 43.9502 79.6848 43.0093 79.6848 42.0084C79.6848 41.0075 79.8583 40.0733 80.2052 39.2058C80.5522 38.325 81.046 37.551 81.6866 36.8837C82.3272 36.2164 83.0946 35.6959 83.9887 35.3222C84.8962 34.9486 85.9105 34.7617 87.0316 34.7617C88.1526 34.7617 89.1602 34.9486 90.0544 35.3222C90.9619 35.6959 91.7359 36.2164 92.3765 36.8837C93.0171 37.551 93.5109 38.325 93.8579 39.2058C94.2049 40.0733 94.3784 41.0075 94.3784 42.0084C94.3784 43.0093 94.2049 43.9502 93.8579 44.831C93.5109 45.7118 93.0171 46.4859 92.3765 47.1532C91.7359 47.8205 90.9619 48.3476 90.0544 48.7346C89.1602 49.1083 88.1526 49.2952 87.0316 49.2952ZM87.0316 46.7528C87.6721 46.7528 88.266 46.6394 88.8132 46.4125C89.3604 46.1723 89.8342 45.8386 90.2345 45.4116C90.6482 44.9712 90.9619 44.464 91.1754 43.8902C91.4023 43.3163 91.5157 42.6891 91.5157 42.0084C91.5157 41.3278 91.4023 40.7005 91.1754 40.1267C90.9619 39.5528 90.6482 39.0524 90.2345 38.6253C89.8342 38.1982 89.3604 37.8713 88.8132 37.6444C88.266 37.4042 87.6721 37.2841 87.0316 37.2841C86.391 37.2841 85.7971 37.4042 85.2499 37.6444C84.7027 37.8713 84.2223 38.1982 83.8086 38.6253C83.4082 39.0524 83.0946 39.5528 82.8677 40.1267C82.6542 40.7005 82.5474 41.3278 82.5474 42.0084C82.5474 42.6891 82.6542 43.3163 82.8677 43.8902C83.0946 44.464 83.4082 44.9712 83.8086 45.4116C84.2223 45.8386 84.7027 46.1723 85.2499 46.4125C85.7971 46.6394 86.391 46.7528 87.0316 46.7528Z" fill="#8E53E8"/>
<path d="M57.765 49.2948C56.6306 49.2948 55.623 49.0612 54.7422 48.5941C53.8747 48.127 53.1874 47.4664 52.6803 46.6123C52.1865 45.7448 51.9396 44.7172 51.9396 43.5295V35.0416H54.8023V43.7096C54.8023 44.2701 54.9224 44.784 55.1626 45.2511C55.4028 45.7048 55.7431 46.0718 56.1835 46.3521C56.6373 46.6323 57.1644 46.7725 57.765 46.7725C58.3789 46.7725 58.9061 46.6323 59.3465 46.3521C59.7869 46.0718 60.1272 45.7048 60.3674 45.2511C60.6076 44.784 60.7277 44.2701 60.7277 43.7096V40.0462H63.5904V43.5295C63.5904 44.7172 63.3368 45.7448 62.8297 46.6123C62.3359 47.4664 61.6486 48.127 60.7678 48.5941C59.9003 49.0612 58.8994 49.2948 57.765 49.2948Z" fill="#8E53E8"/>
<path d="M60.7277 43.7096V40.2264C60.7277 39.0386 60.9746 38.0177 61.4684 37.1636C61.9756 36.2961 62.6629 35.6288 63.5303 35.1617C64.4111 34.6946 65.4188 34.4611 66.5531 34.4611C67.6875 34.4611 68.6884 34.6946 69.5559 35.1617C70.4367 35.6288 71.124 36.2961 71.6178 37.1636C72.1249 38.0177 72.3785 39.0386 72.3785 40.2264V49.1742H69.5159V40.0462C69.5159 39.4857 69.3958 38.9719 69.1555 38.5048C68.9153 38.0377 68.575 37.6707 68.1346 37.4038C67.6942 37.1235 67.167 36.9834 66.5531 36.9834C65.9526 36.9834 65.4254 37.1235 64.9717 37.4038C64.5313 37.6707 64.1909 38.0377 63.9507 38.5048C63.7105 38.9719 63.5904 39.4857 63.5904 40.0462L63.5904 43.7096L60.7277 43.7096Z" fill="#8E53E8"/>
<path d="M76.0785 37.7342C75.6381 37.7342 75.2511 37.5741 74.9175 37.2538C74.5972 36.9335 74.437 36.5464 74.437 36.0927C74.437 35.6389 74.5972 35.2519 74.9175 34.9316C75.2511 34.598 75.6381 34.4312 76.0785 34.4312C76.5323 34.4312 76.9193 34.598 77.2396 34.9316C77.5732 35.2519 77.7401 35.6389 77.7401 36.0927C77.7401 36.5464 77.5732 36.9335 77.2396 37.2538C76.9193 37.5741 76.5323 37.7342 76.0785 37.7342ZM77.62 49.2449C76.7125 49.2449 75.9985 48.9846 75.478 48.4641C74.9708 47.9437 74.7173 47.2363 74.7173 46.3422V39.0354H77.4598V46.2621C77.4598 46.4356 77.5199 46.5891 77.64 46.7225C77.7734 46.8426 77.9269 46.9027 78.1004 46.9027H78.721V49.2449H77.62Z" fill="#8E53E8"/>
</svg>
