<svg width="53" height="54" viewBox="0 0 53 54" fill="none" xmlns="http://www.w3.org/2000/svg">
<path fill-rule="evenodd" clip-rule="evenodd" d="M25.3503 6.13385C25.6717 5.90558 26.0837 5.84709 26.4559 5.97689L36.5483 9.49658C38.3782 9.37533 40.2219 9.87745 41.7362 11.4437C43.2202 12.9786 43.7308 14.7829 43.645 16.5758L47.174 26.695C47.3038 27.0672 47.2453 27.4793 47.0171 27.8006C46.7888 28.122 46.419 28.3129 46.0248 28.3129L36.8864 28.3129L33.6296 31.5697C33.1585 30.0983 31.7794 29.033 30.1516 29.033C28.1351 29.033 26.5004 30.6677 26.5004 32.6842C26.5004 34.312 27.5657 35.6911 29.0371 36.1622L24.4099 40.7894C23.9116 41.2877 23.7724 41.7293 23.7614 42.0336C23.7502 42.3457 23.8675 42.6139 24.0571 42.8037C24.2467 42.9934 24.5141 43.1107 24.8254 43.0995C25.1291 43.0886 25.5709 42.9495 26.0705 42.45C26.5458 41.9747 27.3164 41.9747 27.7917 42.45C28.267 42.9253 28.267 43.6959 27.7917 44.1712C26.9275 45.0353 25.9243 45.4958 24.9127 45.5321C23.9087 45.5681 22.9905 45.1801 22.335 44.524C21.6796 43.8679 21.2927 42.9495 21.3288 41.946C21.3653 40.9348 21.8252 39.9318 22.6887 39.0682L26.6257 35.1312L25.8836 34.3891C23.8501 36.2726 22.4116 37.0658 21.1095 37.7206L20.8033 37.8738C19.5624 38.4931 18.5251 39.0108 17.0159 40.52C16.5366 40.9992 16.4096 41.4367 16.4104 41.7592C16.4113 42.0984 16.5533 42.4227 16.7982 42.6676C17.0431 42.9125 17.3675 43.0546 17.7067 43.0554C18.0291 43.0563 18.4666 42.9293 18.9459 42.45C19.4212 41.9747 20.1918 41.9747 20.6671 42.45C21.1424 42.9253 21.1424 43.6959 20.6671 44.1712C19.7842 45.0541 18.7437 45.4923 17.7004 45.4896C16.674 45.4869 15.7449 45.0567 15.077 44.3888C14.4091 43.7209 13.9789 42.7919 13.9763 41.7654C13.9736 40.7222 14.4118 39.6816 15.2947 38.7988C17.0857 37.0078 18.4124 36.3461 19.712 35.698C19.8133 35.6474 19.9145 35.5969 20.0158 35.546C21.1408 34.9802 22.3657 34.3181 24.161 32.6666L20.7457 29.2512C19.1501 31.0312 18.5693 32.3378 17.9715 33.6902L17.9599 33.7165C17.2145 35.4029 16.4334 37.1698 13.9732 39.6301C13.0918 40.5116 12.052 40.9478 11.0097 40.9433C9.98459 40.9389 9.05712 40.5078 8.39013 39.8408C7.72314 39.1738 7.29201 38.2464 7.28761 37.2213C7.28313 36.1789 7.7193 35.1392 8.60077 34.2577C9.07606 33.7824 9.84667 33.7824 10.322 34.2577C10.7973 34.733 10.7973 35.5036 10.322 35.9789C9.84592 36.455 9.72036 36.8898 9.72173 37.2108C9.72319 37.5491 9.8655 37.8738 10.1113 38.1196C10.3572 38.3654 10.6819 38.5078 11.0201 38.5092C11.3411 38.5106 11.7759 38.385 12.252 37.909C14.3913 35.7695 15.0323 34.319 15.7199 32.7633L15.7452 32.7061C16.4091 31.2041 17.1216 29.6237 19.0223 27.5279L18.0197 26.5252L13.9118 30.6331C12.2581 32.2868 10.0117 31.991 8.72457 30.746C8.08018 30.1228 7.64788 29.2406 7.65478 28.2368C7.66175 27.2222 8.11486 26.2241 8.97973 25.3592C9.45502 24.8839 10.2256 24.8839 10.7009 25.3592C11.1762 25.8345 11.1762 26.6051 10.7009 27.0804C10.2021 27.5792 10.0907 27.9912 10.0889 28.2535C10.087 28.5266 10.2017 28.7883 10.4169 28.9964C10.8488 29.4142 11.5714 29.5311 12.1906 28.9119L16.9628 24.1397C17.4569 25.5709 18.8159 26.5988 20.415 26.5988C22.4315 26.5988 24.0662 24.9641 24.0662 22.9476C24.0662 21.3485 23.0382 19.9895 21.6071 19.4954L24.838 16.2645L24.838 7.12609C24.838 6.7319 25.0289 6.36212 25.3503 6.13385ZM27.2722 14.0386C27.6895 13.6949 28.158 13.3262 28.6661 12.953C29.7429 12.1623 31.0509 11.3116 32.4635 10.65L27.2722 8.8395L27.2722 14.0386ZM39.1501 25.8787L44.3114 25.8787L42.5195 20.7407C41.8648 22.1513 41.0167 23.449 40.2257 24.5149C39.857 25.0117 39.4918 25.4698 39.1501 25.8787Z" fill="#8E53E8"/>
<path d="M21.6321 22.9476C21.6321 23.6198 21.0872 24.1647 20.415 24.1647C19.7428 24.1647 19.1979 23.6198 19.1979 22.9476C19.1979 22.2754 19.7428 21.7305 20.415 21.7305C21.0872 21.7305 21.6321 22.2754 21.6321 22.9476Z" fill="#8E53E8"/>
<path d="M31.3687 32.6842C31.3687 33.3564 30.8238 33.9013 30.1516 33.9013C29.4794 33.9013 28.9345 33.3564 28.9345 32.6842C28.9345 32.012 29.4794 31.4671 30.1516 31.4671C30.8238 31.4671 31.3687 32.012 31.3687 32.6842Z" fill="#8E53E8"/>
</svg>
