<svg width="148" height="61" viewBox="0 0 148 61" fill="none" xmlns="http://www.w3.org/2000/svg">
<path fill-rule="evenodd" clip-rule="evenodd" d="M21.147 11.9287C21.4684 11.7004 21.8804 11.6419 22.2526 11.7717L32.345 15.2914C34.1749 15.1701 36.0186 15.6722 37.5329 17.2385C39.0169 18.7734 39.5275 20.5777 39.4417 22.3706L42.9707 32.4898C43.1005 32.862 43.042 33.2741 42.8138 33.5954C42.5855 33.9168 42.2157 34.1077 41.8215 34.1077L32.6831 34.1077L29.4263 37.3645C28.9552 35.8931 27.5761 34.8278 25.9483 34.8278C23.9318 34.8278 22.2971 36.4625 22.2971 38.479C22.2971 40.1068 23.3624 41.4859 24.8338 41.957L20.2066 46.5842C19.7083 47.0825 19.5691 47.5241 19.5581 47.8284C19.5469 48.1405 19.6642 48.4087 19.8538 48.5985C20.0434 48.7882 20.3108 48.9055 20.6221 48.8943C20.9258 48.8834 21.3676 48.7443 21.8672 48.2448C22.3425 47.7695 23.1131 47.7695 23.5884 48.2448C24.0637 48.7201 24.0637 49.4907 23.5884 49.966C22.7242 50.8301 21.721 51.2906 20.7094 51.3269C19.7054 51.3629 18.7872 50.9749 18.1317 50.3188C17.4763 49.6627 17.0894 48.7443 17.1255 47.7408C17.162 46.7296 17.6219 45.7266 18.4854 44.863L22.4224 40.926L21.6803 40.1839C19.6468 42.0674 18.2083 42.8606 16.9062 43.5154L16.6 43.6686C15.3591 44.2879 14.3218 44.8056 12.8126 46.3148C12.3333 46.794 12.2063 47.2315 12.2071 47.554C12.208 47.8932 12.35 48.2175 12.5949 48.4624C12.8398 48.7073 13.1642 48.8494 13.5034 48.8502C13.8258 48.8511 14.2633 48.7241 14.7426 48.2448C15.2179 47.7695 15.9885 47.7695 16.4638 48.2448C16.9391 48.7201 16.9391 49.4907 16.4638 49.966C15.5809 50.8489 14.5404 51.2871 13.4971 51.2844C12.4707 51.2817 11.5416 50.8515 10.8737 50.1836C10.2058 49.5157 9.77562 48.5867 9.77297 47.5602C9.77028 46.517 10.2085 45.4764 11.0914 44.5936C12.8824 42.8026 14.2091 42.1409 15.5087 41.4928C15.61 41.4422 15.7112 41.3917 15.8125 41.3408C16.9375 40.775 18.1624 40.1129 19.9577 38.4614L16.5424 35.046C14.9468 36.826 14.366 38.1326 13.7682 39.485L13.7566 39.5113C13.0112 41.1977 12.2301 42.9646 9.76991 45.4249C8.88846 46.3064 7.84873 46.7426 6.80639 46.7381C5.78129 46.7337 4.85382 46.3026 4.18683 45.6356C3.51984 44.9686 3.08871 44.0412 3.08431 43.0161C3.07983 41.9737 3.516 40.934 4.39747 40.0525C4.87276 39.5772 5.64337 39.5772 6.11867 40.0525C6.59397 40.5278 6.59396 41.2984 6.11867 41.7737C5.64262 42.2498 5.51706 42.6846 5.51843 43.0056C5.51989 43.3439 5.6622 43.6686 5.90803 43.9144C6.15385 44.1602 6.47857 44.3026 6.81682 44.304C7.13783 44.3054 7.57263 44.1798 8.04867 43.7038C10.188 41.5643 10.829 40.1138 11.5166 38.5581L11.5419 38.5009C12.2058 36.9989 12.9183 35.4185 14.819 33.3227L13.8164 32.32L9.70846 36.4279C8.05481 38.0816 5.80842 37.7858 4.52127 36.5408C3.87688 35.9176 3.44458 35.0354 3.45148 34.0316C3.45845 33.017 3.91156 32.0189 4.77643 31.154C5.25172 30.6787 6.02233 30.6787 6.49763 31.154C6.97293 31.6293 6.97293 32.3999 6.49763 32.8752C5.99883 33.374 5.88737 33.786 5.88557 34.0483C5.88369 34.3214 5.99841 34.5831 6.21356 34.7912C6.64546 35.209 7.36814 35.3259 7.98725 34.7067L12.7595 29.9345C13.2536 31.3657 14.6126 32.3936 16.2117 32.3936C18.2282 32.3936 19.8629 30.7589 19.8629 28.7424C19.8629 27.1433 18.8349 25.7843 17.4038 25.2902L20.6347 22.0593L20.6347 12.9209C20.6347 12.5267 20.8256 12.1569 21.147 11.9287ZM23.0689 19.8334C23.4862 19.4897 23.9547 19.121 24.4628 18.7478C25.5396 17.9571 26.8476 17.1064 28.2602 16.4448L23.0689 14.6343L23.0689 19.8334ZM34.9468 31.6735L40.1081 31.6735L38.3162 26.5355C37.6615 27.9461 36.8134 29.2438 36.0224 30.3097C35.6537 30.8065 35.2885 31.2646 34.9468 31.6735Z" fill="#191923"/>
<path d="M17.4288 28.7424C17.4288 29.4146 16.8839 29.9595 16.2117 29.9595C15.5395 29.9595 14.9946 29.4146 14.9946 28.7424C14.9946 28.0702 15.5395 27.5253 16.2117 27.5253C16.8839 27.5253 17.4288 28.0702 17.4288 28.7424Z" fill="#191923"/>
<path d="M27.1654 38.479C27.1654 39.1512 26.6205 39.6961 25.9483 39.6961C25.2761 39.6961 24.7312 39.1512 24.7312 38.479C24.7312 37.8068 25.2761 37.2619 25.9483 37.2619C26.6205 37.2619 27.1654 37.8068 27.1654 38.479Z" fill="#191923"/>
<path d="M51.9396 30.0891V21.6013C51.9396 20.4135 52.1865 19.3926 52.6803 18.5384C53.1874 17.671 53.8747 17.0037 54.7422 16.5366C55.623 16.0695 56.6306 15.8359 57.765 15.8359C58.8994 15.8359 59.9003 16.0695 60.7678 16.5366C61.6486 17.0037 62.3359 17.671 62.8297 18.5384C63.3368 19.3926 63.5904 20.4135 63.5904 21.6013V30.0891H60.7277V21.4211C60.7277 20.8606 60.6076 20.3468 60.3674 19.8797C60.1272 19.4126 59.7869 19.0456 59.3465 18.7787C58.9061 18.4984 58.3789 18.3583 57.765 18.3583C57.1644 18.3583 56.6373 18.4984 56.1835 18.7787C55.7431 19.0456 55.4028 19.4126 55.1626 19.8797C54.9224 20.3468 54.8023 20.8606 54.8023 21.4211V30.0891H51.9396Z" fill="#191923"/>
<path d="M60.7277 30.0891V21.6013C60.7277 20.4135 60.9746 19.3926 61.4684 18.5384C61.9756 17.671 62.6629 17.0037 63.5303 16.5366C64.4111 16.0695 65.4187 15.8359 66.5531 15.8359C67.6875 15.8359 68.6884 16.0695 69.5559 16.5366C70.4367 17.0037 71.124 17.671 71.6178 18.5384C72.1249 19.3926 72.3785 20.4135 72.3785 21.6013V30.0891H69.5159V21.4211C69.5159 20.8606 69.3958 20.3468 69.1555 19.8797C68.9153 19.4126 68.575 19.0456 68.1346 18.7787C67.6942 18.4984 67.167 18.3583 66.5531 18.3583C65.9526 18.3583 65.4254 18.4984 64.9717 18.7787C64.5313 19.0456 64.1909 19.4126 63.9507 19.8797C63.7105 20.3468 63.5904 20.8606 63.5904 21.4211L63.5904 30.0891H60.7277Z" fill="#191923"/>
<path d="M141.741 30.2251C140.967 30.2251 140.26 30.0383 139.619 29.6646C138.992 29.2909 138.491 28.7905 138.118 28.1632C137.744 27.5226 137.557 26.8153 137.557 26.0413C137.557 25.4807 137.677 24.9536 137.917 24.4598C138.158 23.966 138.485 23.5323 138.898 23.1586C138.485 22.7849 138.158 22.3512 137.917 21.8574C137.677 21.3636 137.557 20.8431 137.557 20.2959C137.557 19.5352 137.737 18.8479 138.098 18.234C138.471 17.6201 138.965 17.133 139.579 16.7727C140.206 16.399 140.893 16.2122 141.641 16.2122H147.406V18.7345H141.961C141.681 18.7345 141.421 18.8079 141.18 18.9547C140.954 19.0882 140.767 19.275 140.62 19.5152C140.486 19.7421 140.42 20.0023 140.42 20.2959C140.42 20.5762 140.486 20.8364 140.62 21.0767C140.767 21.3035 140.954 21.4904 141.18 21.6372C141.421 21.7706 141.681 21.8374 141.961 21.8374H146.726V24.3597H142.081C141.774 24.3597 141.494 24.4398 141.24 24.5999C140.987 24.7467 140.787 24.9469 140.64 25.2005C140.493 25.454 140.42 25.7343 140.42 26.0413C140.42 26.3482 140.493 26.6285 140.64 26.882C140.787 27.1356 140.987 27.3358 141.24 27.4826C141.494 27.6294 141.774 27.7028 142.081 27.7028H147.406V30.2251H141.741Z" fill="#191923"/>
<path d="M133.844 30.2251C133.017 30.2251 132.289 30.0383 131.662 29.6646C131.035 29.2776 130.548 28.7704 130.201 28.1432C129.854 27.5026 129.68 26.802 129.68 26.0413V18.7345H125.777V16.2122H136.446V18.7345H132.543V26.3816C132.543 26.7419 132.67 27.0555 132.923 27.3224C133.177 27.576 133.484 27.7028 133.844 27.7028H139.305L141.982 30.2251H133.844Z" fill="#191923"/>
<path d="M122.43 18.7143C121.99 18.7143 121.603 18.5542 121.269 18.2339C120.949 17.9136 120.789 17.5265 120.789 17.0728C120.789 16.619 120.949 16.232 121.269 15.9117C121.603 15.5781 121.99 15.4113 122.43 15.4113C122.884 15.4113 123.271 15.5781 123.592 15.9117C123.925 16.232 124.092 16.619 124.092 17.0728C124.092 17.5265 123.925 17.9136 123.592 18.2339C123.271 18.5542 122.884 18.7143 122.43 18.7143ZM123.972 30.225C123.064 30.225 122.35 29.9647 121.83 29.4442C121.323 28.9238 121.069 28.2164 121.069 27.3223V20.0155H123.812V27.2422C123.812 27.4157 123.872 27.5692 123.992 27.7026C124.125 27.8227 124.279 27.8828 124.452 27.8828H125.073V30.225H123.972Z" fill="#191923"/>
<path d="M116.856 30.2251C116.028 30.2251 115.301 30.0383 114.674 29.6646C114.046 29.2776 113.559 28.7704 113.212 28.1432C112.865 27.5026 112.692 26.802 112.692 26.0413V18.7345H108.788V16.2122H119.458V18.7345H115.555V26.3816C115.555 26.7419 115.681 27.0555 115.935 27.3224C116.188 27.576 116.495 27.7028 116.856 27.7028H117.857V30.2251H116.856Z" fill="#191923"/>
<path d="M99.5392 30.2251V27.7028H102.062V18.7345H99.5392V16.2122H108.913V18.7345H104.924V27.7028H107.447V30.2251H99.5392Z" fill="#191923"/>
<path d="M86.2346 30.2251V16.2122H92.5004C93.4213 16.2122 94.2554 16.419 95.0028 16.8327C95.7635 17.2331 96.364 17.7936 96.8044 18.5143C97.2582 19.235 97.4851 20.0757 97.4851 21.0366C97.4851 21.9708 97.2648 22.7983 96.8244 23.5189C96.384 24.2262 95.8035 24.7868 95.0828 25.2005L96.364 27.4425C96.4174 27.5226 96.4841 27.5893 96.5642 27.6427C96.6443 27.6828 96.7377 27.7028 96.8445 27.7028H99.5541V30.2251H96.4041C95.8435 30.2251 95.3297 30.085 94.8626 29.8047C94.4089 29.5245 94.0485 29.1575 93.7816 28.7037L92.2002 25.8611C92.0801 25.8611 91.9533 25.8611 91.8198 25.8611C91.6997 25.8611 91.5796 25.8611 91.4595 25.8611H89.0973V30.2251H86.2346ZM89.0973 23.3388H92.1601C92.6139 23.3388 93.0276 23.252 93.4013 23.0785C93.775 22.8917 94.0686 22.6248 94.2821 22.2778C94.509 21.9308 94.6224 21.5171 94.6224 21.0366C94.6224 20.5562 94.509 20.1425 94.2821 19.7955C94.0552 19.4485 93.7549 19.1882 93.3813 19.0148C93.0209 18.8279 92.6139 18.7345 92.1601 18.7345H89.0973V23.3388Z" fill="#191923"/>
<path d="M78.3621 30.2251C77.588 30.2251 76.8807 30.0383 76.2401 29.6646C75.6128 29.2909 75.1124 28.7905 74.7387 28.1632C74.365 27.5226 74.1782 26.8153 74.1782 26.0413C74.1782 25.4807 74.2983 24.9536 74.5385 24.4598C74.7787 23.966 75.1057 23.5323 75.5194 23.1586C75.1057 22.7849 74.7787 22.3512 74.5385 21.8574C74.2983 21.3636 74.1782 20.8431 74.1782 20.2959C74.1782 19.5352 74.3583 18.8479 74.7187 18.234C75.0924 17.6201 75.5861 17.133 76.2001 16.7727C76.8273 16.399 77.5146 16.2122 78.262 16.2122H84.0273V18.7345H78.5823C78.302 18.7345 78.0418 18.8079 77.8015 18.9547C77.5747 19.0882 77.3878 19.275 77.241 19.5152C77.1076 19.7421 77.0408 20.0023 77.0408 20.2959C77.0408 20.5762 77.1076 20.8364 77.241 21.0767C77.3878 21.3035 77.5747 21.4904 77.8015 21.6372C78.0418 21.7706 78.302 21.8374 78.5823 21.8374H83.3467V24.3597H78.7024C78.3954 24.3597 78.1152 24.4398 77.8616 24.5999C77.608 24.7467 77.4078 24.9469 77.261 25.2005C77.1142 25.454 77.0408 25.7343 77.0408 26.0413C77.0408 26.3482 77.1142 26.6285 77.261 26.882C77.4078 27.1356 77.608 27.3358 77.8616 27.4826C78.1152 27.6294 78.3954 27.7028 78.7024 27.7028H84.0273V30.2251H78.3621Z" fill="#191923"/>
<path d="M96.279 49.0149V40.5271C96.279 39.3393 96.5259 38.3183 97.0196 37.4642C97.5268 36.5967 98.2141 35.9295 99.0815 35.4624C99.9624 34.9953 100.97 34.7617 102.104 34.7617C103.239 34.7617 104.24 34.9953 105.107 35.4624C105.988 35.9295 106.675 36.5967 107.169 37.4642C107.676 38.3183 107.93 39.3393 107.93 40.5271V49.0149H105.067V40.3469C105.067 39.7864 104.947 39.2726 104.707 38.8055C104.467 38.3384 104.126 37.9714 103.686 37.7044C103.245 37.4242 102.718 37.2841 102.104 37.2841C101.504 37.2841 100.977 37.4242 100.523 37.7044C100.082 37.9714 99.7422 38.3384 99.5019 38.8055C99.2617 39.2726 99.1416 39.7864 99.1416 40.3469V49.0149H96.279Z" fill="#191923"/>
<path d="M87.0316 49.2753C85.9105 49.2753 84.8962 49.0884 83.9887 48.7147C83.0946 48.3277 82.3272 47.8006 81.6866 47.1333C81.046 46.466 80.5522 45.692 80.2052 44.8111C79.8583 43.9303 79.6848 42.9895 79.6848 41.9885C79.6848 40.9876 79.8583 40.0534 80.2052 39.1859C80.5522 38.3051 81.046 37.5311 81.6866 36.8638C82.3272 36.1965 83.0946 35.676 83.9887 35.3023C84.8962 34.9287 85.9105 34.7418 87.0316 34.7418C88.1526 34.7418 89.1602 34.9287 90.0544 35.3023C90.9619 35.676 91.7359 36.1965 92.3765 36.8638C93.0171 37.5311 93.5109 38.3051 93.8579 39.1859C94.2049 40.0534 94.3784 40.9876 94.3784 41.9885C94.3784 42.9895 94.2049 43.9303 93.8579 44.8111C93.5109 45.692 93.0171 46.466 92.3765 47.1333C91.7359 47.8006 90.9619 48.3277 90.0544 48.7147C89.1602 49.0884 88.1526 49.2753 87.0316 49.2753ZM87.0316 46.7329C87.6721 46.7329 88.266 46.6195 88.8132 46.3926C89.3604 46.1524 89.8342 45.8187 90.2345 45.3917C90.6482 44.9513 90.9619 44.4441 91.1754 43.8703C91.4023 43.2964 91.5157 42.6692 91.5157 41.9885C91.5157 41.3079 91.4023 40.6806 91.1754 40.1068C90.9619 39.5329 90.6482 39.0325 90.2345 38.6054C89.8342 38.1783 89.3604 37.8514 88.8132 37.6245C88.266 37.3843 87.6721 37.2642 87.0316 37.2642C86.391 37.2642 85.7971 37.3843 85.2499 37.6245C84.7027 37.8514 84.2223 38.1783 83.8086 38.6054C83.4082 39.0325 83.0946 39.5329 82.8677 40.1068C82.6542 40.6806 82.5474 41.3079 82.5474 41.9885C82.5474 42.6692 82.6542 43.2964 82.8677 43.8703C83.0946 44.4441 83.4082 44.9513 83.8086 45.3917C84.2223 45.8187 84.7027 46.1524 85.2499 46.3926C85.7971 46.6195 86.391 46.7329 87.0316 46.7329Z" fill="#191923"/>
<path d="M57.765 49.2749C56.6306 49.2749 55.623 49.0413 54.7422 48.5742C53.8747 48.1071 53.1874 47.4465 52.6803 46.5924C52.1865 45.7249 51.9396 44.6973 51.9396 43.5096V35.0217H54.8023V43.6897C54.8023 44.2502 54.9224 44.7641 55.1626 45.2312C55.4028 45.6849 55.7431 46.0519 56.1835 46.3322C56.6373 46.6124 57.1644 46.7526 57.765 46.7526C58.3789 46.7526 58.9061 46.6124 59.3465 46.3322C59.7869 46.0519 60.1272 45.6849 60.3674 45.2312C60.6076 44.7641 60.7277 44.2502 60.7277 43.6897V40.0263H63.5904V43.5096C63.5904 44.6973 63.3368 45.7249 62.8297 46.5924C62.3359 47.4465 61.6486 48.1071 60.7678 48.5742C59.9003 49.0413 58.8994 49.2749 57.765 49.2749Z" fill="#191923"/>
<path d="M60.7277 43.6897V40.2065C60.7277 39.0187 60.9746 37.9978 61.4684 37.1437C61.9756 36.2762 62.6629 35.6089 63.5303 35.1418C64.4111 34.6747 65.4188 34.4412 66.5531 34.4412C67.6875 34.4412 68.6884 34.6747 69.5559 35.1418C70.4367 35.6089 71.124 36.2762 71.6178 37.1437C72.1249 37.9978 72.3785 39.0187 72.3785 40.2065V49.1543H69.5159V40.0263C69.5159 39.4658 69.3958 38.952 69.1555 38.4849C68.9153 38.0178 68.575 37.6508 68.1346 37.3839C67.6942 37.1036 67.167 36.9635 66.5531 36.9635C65.9526 36.9635 65.4254 37.1036 64.9717 37.3839C64.5313 37.6508 64.1909 38.0178 63.9507 38.4849C63.7105 38.952 63.5904 39.4658 63.5904 40.0263L63.5904 43.6897L60.7277 43.6897Z" fill="#191923"/>
<path d="M76.0785 37.7143C75.6381 37.7143 75.2511 37.5542 74.9175 37.2339C74.5972 36.9136 74.437 36.5265 74.437 36.0728C74.437 35.619 74.5972 35.232 74.9175 34.9117C75.2511 34.5781 75.6381 34.4113 76.0785 34.4113C76.5323 34.4113 76.9193 34.5781 77.2396 34.9117C77.5732 35.232 77.7401 35.619 77.7401 36.0728C77.7401 36.5265 77.5732 36.9136 77.2396 37.2339C76.9193 37.5542 76.5323 37.7143 76.0785 37.7143ZM77.62 49.225C76.7125 49.225 75.9985 48.9647 75.478 48.4442C74.9708 47.9238 74.7173 47.2164 74.7173 46.3223V39.0155H77.4598V46.2422C77.4598 46.4157 77.5199 46.5692 77.64 46.7026C77.7734 46.8227 77.9269 46.8828 78.1004 46.8828H78.721V49.225H77.62Z" fill="#191923"/>
</svg>
