<svg width="125" height="26" viewBox="0 0 125 26" fill="none" xmlns="http://www.w3.org/2000/svg">
<path d="M27.43 8.99997C27.1539 8.99997 26.9015 8.9333 26.6729 8.79997C26.4491 8.66664 26.2705 8.48806 26.1372 8.26426C26.0039 8.03568 25.9372 7.7833 25.9372 7.50711C25.9372 7.30711 25.98 7.11902 26.0658 6.94283C26.1515 6.76664 26.2681 6.61187 26.4158 6.47854C26.2681 6.34521 26.1515 6.19045 26.0658 6.01426C25.98 5.83806 25.9372 5.65235 25.9372 5.45711C25.9372 5.18568 26.0015 4.94045 26.13 4.7214C26.2634 4.50235 26.4396 4.32854 26.6586 4.19997C26.8824 4.06664 27.1277 3.99997 27.3943 3.99997H29.4515V4.89997H27.5086C27.4086 4.89997 27.3158 4.92616 27.23 4.97854C27.1491 5.02616 27.0824 5.09283 27.03 5.17854C26.9824 5.25949 26.9586 5.35235 26.9586 5.45711C26.9586 5.55711 26.9824 5.64997 27.03 5.73568C27.0824 5.81664 27.1491 5.8833 27.23 5.93568C27.3158 5.9833 27.4086 6.00711 27.5086 6.00711H29.2086V6.90711H27.5515C27.4419 6.90711 27.3419 6.93568 27.2515 6.99283C27.161 7.04521 27.0896 7.11664 27.0372 7.20711C26.9848 7.29759 26.9586 7.39759 26.9586 7.50711C26.9586 7.61664 26.9848 7.71664 27.0372 7.80711C27.0896 7.89759 27.161 7.96902 27.2515 8.0214C27.3419 8.07378 27.4419 8.09997 27.5515 8.09997H29.4515V8.99997H27.43Z" fill="#191923"/>
<path d="M20.9199 8.99997V3.99997H21.9413V6.00711H24.127V3.99997H25.1485V8.99997H24.127V6.90711H21.9413V8.99997H20.9199Z" fill="#191923"/>
<path d="M19.3808 8.99997C19.0855 8.99997 18.826 8.9333 18.6022 8.79997C18.3784 8.66187 18.2046 8.48092 18.0808 8.25711C17.957 8.02854 17.8951 7.77854 17.8951 7.50711V4.89997H16.5022V3.99997H20.3093V4.89997H18.9165V7.62854C18.9165 7.75711 18.9617 7.86902 19.0522 7.96426C19.1427 8.05473 19.2522 8.09997 19.3808 8.09997H21.0439L20.9848 8.99997H19.3808Z" fill="#191923"/>
<path fill-rule="evenodd" clip-rule="evenodd" d="M12.5317 12C13.0677 12 13.5022 12.4345 13.5022 12.9704L13.5022 18.2793C13.5022 18.2793 12.0973 18.2793 11.5613 18.2793L11.5613 15.3133L6.81548 20.0566L10.9232 20.0566C10.9232 20.0566 10.9232 21.4615 10.9232 21.9974L4.47266 21.9975C3.9367 21.9975 3.50222 21.563 3.50222 21.027L3.5022 15.7182L5.44306 15.7182L5.44308 18.6842L10.1889 13.9409L7.22291 13.9409C7.22291 13.9409 7.22291 12.5359 7.2229 12L12.5317 12Z" fill="#191923"/>
<path d="M16.5022 21.9093V16.2508C16.5022 15.4589 16.6668 14.7783 16.996 14.2089C17.3341 13.6306 17.7923 13.1857 18.3706 12.8743C18.9578 12.5629 19.6295 12.4072 20.3858 12.4072C21.142 12.4072 21.8093 12.5629 22.3876 12.8743C22.9749 13.1857 23.4331 13.6306 23.7622 14.2089C24.1003 14.7783 24.2694 15.4589 24.2694 16.2508V21.9093H22.3609V16.1307C22.3609 15.757 22.2809 15.4144 22.1207 15.103C21.9606 14.7916 21.7337 14.547 21.4401 14.369C21.1465 14.1822 20.7951 14.0888 20.3858 14.0888C19.9854 14.0888 19.634 14.1822 19.3315 14.369C19.0379 14.547 18.811 14.7916 18.6509 15.103C18.4907 15.4144 18.4106 15.757 18.4106 16.1307V21.9093H16.5022Z" fill="#191923"/>
<path d="M22.3609 21.9093V16.2508C22.3609 15.4589 22.5255 14.7783 22.8547 14.2089C23.1928 13.6306 23.651 13.1857 24.2293 12.8743C24.8166 12.5629 25.4883 12.4072 26.2445 12.4072C27.0008 12.4072 27.6681 12.5629 28.2464 12.8743C28.8336 13.1857 29.2918 13.6306 29.621 14.2089C29.9591 14.7783 30.1281 15.4589 30.1281 16.2508V21.9093H28.2197V16.1307C28.2197 15.757 28.1396 15.4144 27.9795 15.103C27.8193 14.7916 27.5925 14.547 27.2989 14.369C27.0052 14.1822 26.6538 14.0888 26.2445 14.0888C25.8442 14.0888 25.4927 14.1822 25.1902 14.369C24.8966 14.547 24.6698 14.7916 24.5096 15.103C24.3495 15.4144 24.2694 15.757 24.2694 16.1307L24.2694 21.9093H22.3609Z" fill="#191923"/>
<path d="M76.3698 22C75.8537 22 75.3822 21.8755 74.9551 21.6264C74.537 21.3772 74.2033 21.0436 73.9542 20.6254C73.7051 20.1984 73.5805 19.7268 73.5805 19.2108C73.5805 18.8371 73.6606 18.4857 73.8207 18.1565C73.9809 17.8273 74.1989 17.5381 74.4747 17.289C74.1989 17.0399 73.9809 16.7507 73.8207 16.4215C73.6606 16.0924 73.5805 15.7454 73.5805 15.3806C73.5805 14.8734 73.7006 14.4152 73.9409 14.006C74.19 13.5967 74.5192 13.272 74.9284 13.0317C75.3466 12.7826 75.8048 12.6581 76.303 12.6581H80.1466V14.3396H76.5166C76.3297 14.3396 76.1562 14.3886 75.9961 14.4864C75.8448 14.5754 75.7203 14.7 75.6224 14.8601C75.5334 15.0114 75.489 15.1848 75.489 15.3806C75.489 15.5674 75.5334 15.7409 75.6224 15.9011C75.7203 16.0523 75.8448 16.1769 75.9961 16.2747C76.1562 16.3637 76.3297 16.4082 76.5166 16.4082H79.6928V18.0898H76.5966C76.392 18.0898 76.2052 18.1431 76.0361 18.2499C75.8671 18.3478 75.7336 18.4812 75.6358 18.6503C75.5379 18.8193 75.489 19.0062 75.489 19.2108C75.489 19.4154 75.5379 19.6023 75.6358 19.7713C75.7336 19.9404 75.8671 20.0738 76.0361 20.1717C76.2052 20.2696 76.392 20.3185 76.5966 20.3185H80.1466V22H76.3698Z" fill="#191923"/>
<path d="M71.1052 22C70.5536 22 70.0687 21.8755 69.6505 21.6264C69.2324 21.3683 68.9076 21.0303 68.6763 20.6121C68.445 20.185 68.3293 19.7179 68.3293 19.2108V14.3396H65.7269V12.6581H72.8401V14.3396H70.2377V19.4377C70.2377 19.6779 70.3223 19.887 70.4913 20.0649C70.6603 20.234 70.865 20.3185 71.1052 20.3185H74.7459L76.5303 22H71.1052Z" fill="#191923"/>
<path d="M63.4961 14.3262C63.2025 14.3262 62.9445 14.2194 62.7221 14.0059C62.5085 13.7924 62.4018 13.5344 62.4018 13.2319C62.4018 12.9294 62.5085 12.6713 62.7221 12.4578C62.9445 12.2354 63.2025 12.1242 63.4961 12.1242C63.7986 12.1242 64.0566 12.2354 64.2702 12.4578C64.4926 12.6713 64.6038 12.9294 64.6038 13.2319C64.6038 13.5344 64.4926 13.7924 64.2702 14.0059C64.0566 14.2194 63.7986 14.3262 63.4961 14.3262ZM64.5237 22C63.9187 22 63.4427 21.8265 63.0957 21.4795C62.7576 21.1325 62.5886 20.661 62.5886 20.0648V15.1937H64.417V20.0115C64.417 20.1271 64.457 20.2294 64.5371 20.3184C64.626 20.3985 64.7284 20.4385 64.844 20.4385H65.2577V22H64.5237Z" fill="#191923"/>
<path d="M59.7796 22C59.228 22 58.7431 21.8755 58.325 21.6264C57.9068 21.3683 57.5821 21.0303 57.3507 20.6121C57.1194 20.185 57.0037 19.7179 57.0037 19.2108V14.3396H54.4013V12.6581H61.5146V14.3396H58.9122V19.4377C58.9122 19.6779 58.9967 19.887 59.1657 20.0649C59.3348 20.234 59.5394 20.3185 59.7796 20.3185H60.4469V22H59.7796Z" fill="#191923"/>
<path d="M48.2353 22V20.3185H49.9169V14.3396H48.2353V12.6581H54.4842V14.3396H51.8253V20.3185H53.5068V22H48.2353Z" fill="#191923"/>
<path d="M39.3655 22V12.6581H43.5427C44.1566 12.6581 44.7127 12.796 45.2109 13.0718C45.7181 13.3387 46.1184 13.7124 46.4121 14.1928C46.7146 14.6733 46.8658 15.2338 46.8658 15.8744C46.8658 16.4972 46.719 17.0488 46.4254 17.5292C46.1318 18.0008 45.7448 18.3745 45.2643 18.6503L46.1184 20.145C46.154 20.1984 46.1985 20.2429 46.2519 20.2784C46.3053 20.3051 46.3676 20.3185 46.4387 20.3185H48.2452V22H46.1451C45.7715 22 45.4289 21.9066 45.1175 21.7198C44.815 21.5329 44.5748 21.2883 44.3969 20.9858L43.3425 19.0907C43.2625 19.0907 43.1779 19.0907 43.089 19.0907C43.0089 19.0907 42.9288 19.0907 42.8488 19.0907H41.274V22H39.3655ZM41.274 17.4091H43.3159C43.6184 17.4091 43.8942 17.3513 44.1433 17.2356C44.3924 17.1111 44.5881 16.9331 44.7305 16.7018C44.8817 16.4705 44.9574 16.1947 44.9574 15.8744C44.9574 15.5541 44.8817 15.2783 44.7305 15.0469C44.5792 14.8156 44.3791 14.6421 44.1299 14.5265C43.8897 14.4019 43.6184 14.3396 43.3159 14.3396H41.274V17.4091Z" fill="#191923"/>
<path d="M34.1171 22C33.6011 22 33.1296 21.8755 32.7025 21.6264C32.2843 21.3772 31.9507 21.0436 31.7016 20.6254C31.4525 20.1984 31.3279 19.7268 31.3279 19.2108C31.3279 18.8371 31.408 18.4857 31.5681 18.1565C31.7283 17.8273 31.9462 17.5381 32.2221 17.289C31.9462 17.0399 31.7283 16.7507 31.5681 16.4215C31.408 16.0924 31.3279 15.7454 31.3279 15.3806C31.3279 14.8734 31.448 14.4152 31.6882 14.006C31.9373 13.5967 32.2665 13.272 32.6758 13.0317C33.094 12.7826 33.5522 12.6581 34.0504 12.6581H37.894V14.3396H34.2639C34.0771 14.3396 33.9036 14.3886 33.7435 14.4864C33.5922 14.5754 33.4677 14.7 33.3698 14.8601C33.2808 15.0114 33.2363 15.1848 33.2363 15.3806C33.2363 15.5674 33.2808 15.7409 33.3698 15.9011C33.4677 16.0523 33.5922 16.1769 33.7435 16.2747C33.9036 16.3637 34.0771 16.4082 34.2639 16.4082H37.4402V18.0898H34.344C34.1394 18.0898 33.9525 18.1431 33.7835 18.2499C33.6145 18.3478 33.481 18.4812 33.3831 18.6503C33.2853 18.8193 33.2363 19.0062 33.2363 19.2108C33.2363 19.4154 33.2853 19.6023 33.3831 19.7713C33.481 19.9404 33.6145 20.0738 33.7835 20.1717C33.9525 20.2696 34.1394 20.3185 34.344 20.3185H37.894V22H34.1171Z" fill="#191923"/>
<path d="M113.731 21.7358V16.0772C113.731 15.2853 113.895 14.6047 114.225 14.0353C114.563 13.457 115.021 13.0121 115.599 12.7007C116.186 12.3893 116.858 12.2336 117.614 12.2336C118.371 12.2336 119.038 12.3893 119.616 12.7007C120.203 13.0121 120.662 13.457 120.991 14.0353C121.329 14.6047 121.498 15.2853 121.498 16.0772V21.7358H119.59V15.9571C119.59 15.5834 119.509 15.2409 119.349 14.9295C119.189 14.6181 118.962 14.3734 118.669 14.1954C118.375 14.0086 118.024 13.9152 117.614 13.9152C117.214 13.9152 116.863 14.0086 116.56 14.1954C116.266 14.3734 116.04 14.6181 115.879 14.9295C115.719 15.2409 115.639 15.5834 115.639 15.9571V21.7358H113.731Z" fill="#191923"/>
<path d="M107.566 21.9093C106.818 21.9093 106.142 21.7848 105.537 21.5356C104.941 21.2776 104.43 20.9262 104.003 20.4813C103.575 20.0365 103.246 19.5204 103.015 18.9332C102.784 18.346 102.668 17.7188 102.668 17.0515C102.668 16.3842 102.784 15.7614 103.015 15.1831C103.246 14.5959 103.575 14.0798 104.003 13.635C104.43 13.1901 104.941 12.8431 105.537 12.594C106.142 12.3449 106.818 12.2203 107.566 12.2203C108.313 12.2203 108.985 12.3449 109.581 12.594C110.186 12.8431 110.702 13.1901 111.129 13.635C111.556 14.0798 111.885 14.5959 112.117 15.1831C112.348 15.7614 112.464 16.3842 112.464 17.0515C112.464 17.7188 112.348 18.346 112.117 18.9332C111.885 19.5204 111.556 20.0365 111.129 20.4813C110.702 20.9262 110.186 21.2776 109.581 21.5356C108.985 21.7848 108.313 21.9093 107.566 21.9093ZM107.566 20.2144C107.993 20.2144 108.389 20.1388 108.754 19.9875C109.118 19.8274 109.434 19.605 109.701 19.3202C109.977 19.0266 110.186 18.6886 110.328 18.306C110.48 17.9234 110.555 17.5052 110.555 17.0515C110.555 16.5977 110.48 16.1796 110.328 15.797C110.186 15.4144 109.977 15.0808 109.701 14.7961C109.434 14.5114 109.118 14.2934 108.754 14.1421C108.389 13.982 107.993 13.9019 107.566 13.9019C107.139 13.9019 106.743 13.982 106.378 14.1421C106.013 14.2934 105.693 14.5114 105.417 14.7961C105.15 15.0808 104.941 15.4144 104.79 15.797C104.648 16.1796 104.576 16.5977 104.576 17.0515C104.576 17.5052 104.648 17.9234 104.79 18.306C104.941 18.6886 105.15 19.0266 105.417 19.3202C105.693 19.605 106.013 19.8274 106.378 19.9875C106.743 20.1388 107.139 20.2144 107.566 20.2144Z" fill="#191923"/>
<path d="M88.0548 21.9091C87.2985 21.9091 86.6268 21.7534 86.0396 21.442C85.4613 21.1306 85.0031 20.6901 84.665 20.1207C84.3358 19.5424 84.1712 18.8573 84.1712 18.0655V12.4069H86.0796V18.1856C86.0796 18.5593 86.1597 18.9018 86.3198 19.2132C86.48 19.5157 86.7069 19.7604 87.0005 19.9472C87.303 20.1341 87.6544 20.2275 88.0548 20.2275C88.4641 20.2275 88.8155 20.1341 89.1091 19.9472C89.4027 19.7604 89.6296 19.5157 89.7897 19.2132C89.9499 18.9018 90.0299 18.5593 90.0299 18.1856V15.7433H91.9384V18.0655C91.9384 18.8573 91.7693 19.5424 91.4312 20.1207C91.1021 20.6901 90.6438 21.1306 90.0566 21.442C89.4783 21.7534 88.811 21.9091 88.0548 21.9091Z" fill="#191923"/>
<path d="M90.0299 18.1856V15.8635C90.0299 15.0716 90.1945 14.391 90.5237 13.8216C90.8618 13.2433 91.32 12.7984 91.8983 12.487C92.4855 12.1756 93.1573 12.0199 93.9135 12.0199C94.6698 12.0199 95.3371 12.1756 95.9154 12.487C96.5026 12.7984 96.9608 13.2433 97.29 13.8216C97.6281 14.391 97.7971 15.0716 97.7971 15.8635V21.8286H95.8887V15.7433C95.8887 15.3697 95.8086 15.0271 95.6485 14.7157C95.4883 14.4043 95.2615 14.1597 94.9678 13.9817C94.6742 13.7949 94.3228 13.7015 93.9135 13.7015C93.5132 13.7015 93.1617 13.7949 92.8592 13.9817C92.5656 14.1597 92.3387 14.4043 92.1786 14.7157C92.0184 15.0271 91.9384 15.3697 91.9384 15.7433L91.9384 18.1856L90.0299 18.1856Z" fill="#191923"/>
<path d="M100.264 14.202C99.9702 14.202 99.7122 14.0952 99.4898 13.8817C99.2762 13.6682 99.1695 13.4102 99.1695 13.1077C99.1695 12.8052 99.2762 12.5471 99.4898 12.3336C99.7122 12.1112 99.9702 12 100.264 12C100.566 12 100.824 12.1112 101.038 12.3336C101.26 12.5471 101.371 12.8052 101.371 13.1077C101.371 13.4102 101.26 13.6682 101.038 13.8817C100.824 14.0952 100.566 14.202 100.264 14.202ZM101.291 21.8758C100.686 21.8758 100.21 21.7023 99.8634 21.3553C99.5253 21.0083 99.3563 20.5368 99.3563 19.9406V15.0695H101.185V19.8873C101.185 20.0029 101.225 20.1052 101.305 20.1942C101.394 20.2743 101.496 20.3143 101.612 20.3143H102.025V21.8758H101.291Z" fill="#191923"/>
</svg>
