<svg width="200" height="40" viewBox="0 0 200 40" fill="none" xmlns="http://www.w3.org/2000/svg">
<path d="M45.6449 14.9999C45.2307 14.9999 44.8521 14.8999 44.5092 14.6999C44.1735 14.4999 43.9057 14.2321 43.7057 13.8964C43.5057 13.5535 43.4057 13.1749 43.4057 12.7607C43.4057 12.4607 43.4699 12.1785 43.5985 11.9142C43.7271 11.6499 43.9021 11.4178 44.1235 11.2178C43.9021 11.0178 43.7271 10.7857 43.5985 10.5214C43.4699 10.2571 43.4057 9.97851 43.4057 9.68565C43.4057 9.27851 43.5021 8.91065 43.6949 8.58208C43.8949 8.25351 44.1592 7.9928 44.4878 7.79994C44.8235 7.59994 45.1914 7.49994 45.5914 7.49994H48.6771V8.84994H45.7628C45.6128 8.84994 45.4735 8.88922 45.3449 8.9678C45.2235 9.03922 45.1235 9.13922 45.0449 9.2678C44.9735 9.38922 44.9378 9.52851 44.9378 9.68565C44.9378 9.83565 44.9735 9.97494 45.0449 10.1035C45.1235 10.2249 45.2235 10.3249 45.3449 10.4035C45.4735 10.4749 45.6128 10.5107 45.7628 10.5107H48.3128V11.8607H45.8271C45.6628 11.8607 45.5128 11.9035 45.3771 11.9892C45.2414 12.0678 45.1342 12.1749 45.0557 12.3107C44.9771 12.4464 44.9378 12.5964 44.9378 12.7607C44.9378 12.9249 44.9771 13.0749 45.0557 13.2107C45.1342 13.3464 45.2414 13.4535 45.3771 13.5321C45.5128 13.6107 45.6628 13.6499 45.8271 13.6499H48.6771V14.9999H45.6449Z" fill="#FBFEF9"/>
<path d="M35.8797 14.9999V7.49994H37.4118V10.5107H40.6904V7.49994H42.2226V14.9999H40.6904V11.8607H37.4118V14.9999H35.8797Z" fill="#FBFEF9"/>
<path d="M33.571 14.9999C33.1282 14.9999 32.7389 14.8999 32.4032 14.6999C32.0675 14.4928 31.8067 14.2214 31.621 13.8857C31.4353 13.5428 31.3425 13.1678 31.3425 12.7607V8.84994H29.2532V7.49994H34.9639V8.84994H32.8746V12.9428C32.8746 13.1357 32.9425 13.3035 33.0782 13.4464C33.2139 13.5821 33.3782 13.6499 33.571 13.6499H36.0657L35.9771 14.9999H33.571Z" fill="#FBFEF9"/>
<path fill-rule="evenodd" clip-rule="evenodd" d="M22.2827 20.5C22.8187 20.5 23.2531 20.9344 23.2531 21.4704L23.2532 26.7792C23.2532 26.7792 21.8483 26.7792 21.3123 26.7792L21.3123 23.8132L16.5665 28.5566L20.6741 28.5565C20.6741 28.5565 20.6742 29.9614 20.6742 30.4974L14.2236 30.4974C13.6877 30.4974 13.2532 30.063 13.2532 29.527L13.2532 24.2182L15.194 24.2182L15.1941 27.1842L19.9399 22.4408L16.9739 22.4409C16.9739 22.4409 16.9739 21.0359 16.9739 20.4999L22.2827 20.5Z" fill="#FBFEF9"/>
<path d="M29.2532 32.364V23.8762C29.2532 22.6884 29.5001 21.6674 29.9939 20.8133C30.501 19.9458 31.1883 19.2786 32.0558 18.8115C32.9366 18.3444 33.9442 18.1108 35.0786 18.1108C36.2129 18.1108 37.2139 18.3444 38.0813 18.8115C38.9622 19.2786 39.6495 19.9458 40.1432 20.8133C40.6504 21.6674 40.904 22.6884 40.904 23.8762V32.364H38.0413V23.696C38.0413 23.1355 37.9212 22.6217 37.681 22.1546C37.4408 21.6875 37.1004 21.3205 36.66 21.0535C36.2196 20.7733 35.6925 20.6332 35.0786 20.6332C34.478 20.6332 33.9509 20.7733 33.4971 21.0535C33.0567 21.3205 32.7164 21.6875 32.4762 22.1546C32.2359 22.6217 32.1158 23.1355 32.1158 23.696V32.364H29.2532Z" fill="#FBFEF9"/>
<path d="M38.0413 32.364V23.8762C38.0413 22.6884 38.2882 21.6674 38.782 20.8133C39.2891 19.9458 39.9764 19.2786 40.8439 18.8115C41.7247 18.3444 42.7323 18.1108 43.8667 18.1108C45.0011 18.1108 46.002 18.3444 46.8695 18.8115C47.7503 19.2786 48.4376 19.9458 48.9314 20.8133C49.4385 21.6674 49.6921 22.6884 49.6921 23.8762V32.364H46.8294V23.696C46.8294 23.1355 46.7093 22.6217 46.4691 22.1546C46.2289 21.6875 45.8886 21.3205 45.4482 21.0535C45.0077 20.7733 44.4806 20.6332 43.8667 20.6332C43.2661 20.6332 42.739 20.7733 42.2852 21.0535C41.8448 21.3205 41.5045 21.6875 41.2643 22.1546C41.0241 22.6217 40.9039 23.1355 40.9039 23.696L40.904 32.364H38.0413Z" fill="#FBFEF9"/>
<path d="M119.055 32.5001C118.28 32.5001 117.573 32.3132 116.933 31.9395C116.305 31.5659 115.805 31.0654 115.431 30.4381C115.057 29.7976 114.871 29.0902 114.871 28.3162C114.871 27.7557 114.991 27.2285 115.231 26.7347C115.471 26.2409 115.798 25.8072 116.212 25.4335C115.798 25.0598 115.471 24.6261 115.231 24.1323C114.991 23.6385 114.871 23.118 114.871 22.5709C114.871 21.8102 115.051 21.1229 115.411 20.509C115.785 19.8951 116.279 19.4079 116.893 19.0476C117.52 18.6739 118.207 18.4871 118.954 18.4871H124.72V21.0094H119.275C118.994 21.0094 118.734 21.0828 118.494 21.2296C118.267 21.3631 118.08 21.5499 117.933 21.7901C117.8 22.017 117.733 22.2773 117.733 22.5709C117.733 22.8511 117.8 23.1114 117.933 23.3516C118.08 23.5785 118.267 23.7653 118.494 23.9121C118.734 24.0456 118.994 24.1123 119.275 24.1123H124.039V26.6346H119.395C119.088 26.6346 118.808 26.7147 118.554 26.8748C118.3 27.0217 118.1 27.2218 117.953 27.4754C117.807 27.729 117.733 28.0092 117.733 28.3162C117.733 28.6231 117.807 28.9034 117.953 29.157C118.1 29.4105 118.3 29.6107 118.554 29.7575C118.808 29.9043 119.088 29.9777 119.395 29.9777H124.72V32.5001H119.055Z" fill="#FBFEF9"/>
<path d="M111.158 32.5001C110.33 32.5001 109.603 32.3132 108.976 31.9395C108.348 31.5525 107.861 31.0454 107.514 30.4181C107.167 29.7775 106.994 29.0769 106.994 28.3162V21.0094H103.09V18.4871H113.76V21.0094H109.856V28.6565C109.856 29.0168 109.983 29.3305 110.237 29.5974C110.49 29.8509 110.797 29.9777 111.158 29.9777H116.619L119.295 32.5001H111.158Z" fill="#FBFEF9"/>
<path d="M99.744 20.9893C99.3036 20.9893 98.9166 20.8291 98.5829 20.5088C98.2627 20.1886 98.1025 19.8015 98.1025 19.3478C98.1025 18.894 98.2627 18.507 98.5829 18.1867C98.9166 17.8531 99.3036 17.6862 99.744 17.6862C100.198 17.6862 100.585 17.8531 100.905 18.1867C101.239 18.507 101.406 18.894 101.406 19.3478C101.406 19.8015 101.239 20.1886 100.905 20.5088C100.585 20.8291 100.198 20.9893 99.744 20.9893ZM101.285 32.4999C100.378 32.4999 99.6639 32.2397 99.1435 31.7192C98.6363 31.1987 98.3828 30.4914 98.3828 29.5973V22.2905H101.125V29.5172C101.125 29.6907 101.185 29.8442 101.305 29.9776C101.439 30.0977 101.592 30.1578 101.766 30.1578H102.386V32.4999H101.285Z" fill="#FBFEF9"/>
<path d="M94.1693 32.5001C93.3419 32.5001 92.6146 32.3132 91.9873 31.9395C91.3601 31.5525 90.8729 31.0454 90.5259 30.4181C90.179 29.7775 90.0055 29.0769 90.0055 28.3162V21.0094H86.1019V18.4871H96.7717V21.0094H92.8681V28.6565C92.8681 29.0168 92.9949 29.3305 93.2485 29.5974C93.502 29.8509 93.809 29.9777 94.1693 29.9777H95.1702V32.5001H94.1693Z" fill="#FBFEF9"/>
<path d="M76.8528 32.5001V29.9777H79.3751V21.0094H76.8528V18.4871H86.2262V21.0094H82.2378V29.9777H84.7601V32.5001H76.8528Z" fill="#FBFEF9"/>
<path d="M63.5482 32.5001V18.4871H69.814C70.7348 18.4871 71.5689 18.6939 72.3163 19.1077C73.077 19.508 73.6775 20.0686 74.1179 20.7892C74.5717 21.5099 74.7986 22.3507 74.7986 23.3116C74.7986 24.2458 74.5784 25.0732 74.138 25.7938C73.6976 26.5012 73.117 27.0617 72.3964 27.4754L73.6775 29.7175C73.7309 29.7976 73.7976 29.8643 73.8777 29.9177C73.9578 29.9577 74.0512 29.9777 74.158 29.9777H76.8676V32.5001H73.7176C73.1571 32.5001 72.6432 32.3599 72.1762 32.0797C71.7224 31.7994 71.3621 31.4324 71.0951 30.9786L69.5137 28.136C69.3936 28.136 69.2668 28.136 69.1333 28.136C69.0132 28.136 68.8931 28.136 68.773 28.136H66.4108V32.5001H63.5482ZM66.4108 25.6137H69.4737C69.9274 25.6137 70.3411 25.5269 70.7148 25.3534C71.0885 25.1666 71.3821 24.8997 71.5956 24.5527C71.8225 24.2057 71.9359 23.792 71.9359 23.3116C71.9359 22.8311 71.8225 22.4174 71.5956 22.0704C71.3687 21.7234 71.0685 21.4632 70.6948 21.2897C70.3344 21.1028 69.9274 21.0094 69.4737 21.0094H66.4108V25.6137Z" fill="#FBFEF9"/>
<path d="M55.6756 32.5001C54.9015 32.5001 54.1942 32.3132 53.5536 31.9395C52.9264 31.5659 52.4259 31.0654 52.0522 30.4381C51.6785 29.7976 51.4917 29.0902 51.4917 28.3162C51.4917 27.7557 51.6118 27.2285 51.852 26.7347C52.0923 26.2409 52.4192 25.8072 52.8329 25.4335C52.4192 25.0598 52.0923 24.6261 51.852 24.1323C51.6118 23.6385 51.4917 23.118 51.4917 22.5709C51.4917 21.8102 51.6719 21.1229 52.0322 20.509C52.4059 19.8951 52.8997 19.4079 53.5136 19.0476C54.1408 18.6739 54.8281 18.4871 55.5755 18.4871H61.3408V21.0094H55.8958C55.6155 21.0094 55.3553 21.0828 55.1151 21.2296C54.8882 21.3631 54.7013 21.5499 54.5545 21.7901C54.4211 22.017 54.3544 22.2773 54.3544 22.5709C54.3544 22.8511 54.4211 23.1114 54.5545 23.3516C54.7013 23.5785 54.8882 23.7653 55.1151 23.9121C55.3553 24.0456 55.6155 24.1123 55.8958 24.1123H60.6602V26.6346H56.0159C55.7089 26.6346 55.4287 26.7147 55.1751 26.8748C54.9215 27.0217 54.7214 27.2218 54.5746 27.4754C54.4278 27.729 54.3544 28.0092 54.3544 28.3162C54.3544 28.6231 54.4278 28.9034 54.5746 29.157C54.7214 29.4105 54.9215 29.6107 55.1751 29.7575C55.4287 29.9043 55.7089 29.9777 56.0159 29.9777H61.3408V32.5001H55.6756Z" fill="#FBFEF9"/>
<path d="M175.096 32.1036V23.6158C175.096 22.428 175.343 21.407 175.837 20.5529C176.344 19.6855 177.031 19.0182 177.899 18.5511C178.779 18.084 179.787 17.8504 180.921 17.8504C182.056 17.8504 183.057 18.084 183.924 18.5511C184.805 19.0182 185.492 19.6855 185.986 20.5529C186.493 21.407 186.747 22.428 186.747 23.6158V32.1036H183.884V23.4356C183.884 22.8751 183.764 22.3613 183.524 21.8942C183.284 21.4271 182.943 21.0601 182.503 20.7931C182.062 20.5129 181.535 20.3728 180.921 20.3728C180.321 20.3728 179.794 20.5129 179.34 20.7931C178.9 21.0601 178.559 21.4271 178.319 21.8942C178.079 22.3613 177.959 22.8751 177.959 23.4356V32.1036H175.096Z" fill="#FBFEF9"/>
<path d="M165.849 32.3639C164.728 32.3639 163.713 32.1771 162.806 31.8034C161.912 31.4164 161.144 30.8893 160.504 30.222C159.863 29.5547 159.369 28.7806 159.022 27.8998C158.675 27.019 158.502 26.0781 158.502 25.0772C158.502 24.0763 158.675 23.1421 159.022 22.2746C159.369 21.3938 159.863 20.6198 160.504 19.9525C161.144 19.2852 161.912 18.7647 162.806 18.391C163.713 18.0173 164.728 17.8305 165.849 17.8305C166.97 17.8305 167.977 18.0173 168.871 18.391C169.779 18.7647 170.553 19.2852 171.194 19.9525C171.834 20.6198 172.328 21.3938 172.675 22.2746C173.022 23.1421 173.195 24.0763 173.195 25.0772C173.195 26.0781 173.022 27.019 172.675 27.8998C172.328 28.7806 171.834 29.5547 171.194 30.222C170.553 30.8893 169.779 31.4164 168.871 31.8034C167.977 32.1771 166.97 32.3639 165.849 32.3639ZM165.849 29.8216C166.489 29.8216 167.083 29.7082 167.63 29.4813C168.177 29.2411 168.651 28.9074 169.052 28.4804C169.465 28.0399 169.779 27.5328 169.992 26.9589C170.219 26.3851 170.333 25.7578 170.333 25.0772C170.333 24.3966 170.219 23.7693 169.992 23.1955C169.779 22.6216 169.465 22.1211 169.052 21.6941C168.651 21.267 168.177 20.94 167.63 20.7132C167.083 20.4729 166.489 20.3528 165.849 20.3528C165.208 20.3528 164.614 20.4729 164.067 20.7132C163.52 20.94 163.039 21.267 162.626 21.6941C162.225 22.1211 161.912 22.6216 161.685 23.1955C161.471 23.7693 161.364 24.3966 161.364 25.0772C161.364 25.7578 161.471 26.3851 161.685 26.9589C161.912 27.5328 162.225 28.0399 162.626 28.4804C163.039 28.9074 163.52 29.2411 164.067 29.4813C164.614 29.7082 165.208 29.8216 165.849 29.8216Z" fill="#FBFEF9"/>
<path d="M136.582 32.3636C135.448 32.3636 134.44 32.13 133.559 31.6629C132.692 31.1958 132.004 30.5352 131.497 29.6811C131.004 28.8136 130.757 27.786 130.757 26.5982V18.1104H133.619V26.7784C133.619 27.3389 133.739 27.8527 133.98 28.3198C134.22 28.7736 134.56 29.1406 135.001 29.4208C135.454 29.7011 135.981 29.8412 136.582 29.8412C137.196 29.8412 137.723 29.7011 138.164 29.4208C138.604 29.1406 138.944 28.7736 139.184 28.3198C139.425 27.8527 139.545 27.3389 139.545 26.7784V23.115H142.407V26.5982C142.407 27.786 142.154 28.8136 141.647 29.6811C141.153 30.5352 140.466 31.1958 139.585 31.6629C138.717 32.13 137.716 32.3636 136.582 32.3636Z" fill="#FBFEF9"/>
<path d="M139.545 26.7784V23.2952C139.545 22.1074 139.792 21.0864 140.285 20.2323C140.793 19.3649 141.48 18.6976 142.347 18.2305C143.228 17.7634 144.236 17.5298 145.37 17.5298C146.505 17.5298 147.505 17.7634 148.373 18.2305C149.254 18.6976 149.941 19.3649 150.435 20.2323C150.942 21.0864 151.196 22.1074 151.196 23.2952V32.2429H148.333V23.115C148.333 22.5545 148.213 22.0407 147.973 21.5736C147.732 21.1065 147.392 20.7395 146.952 20.4725C146.511 20.1923 145.984 20.0522 145.37 20.0522C144.77 20.0522 144.242 20.1923 143.789 20.4725C143.348 20.7395 143.008 21.1065 142.768 21.5736C142.528 22.0407 142.407 22.5545 142.407 23.115V26.7784L139.545 26.7784Z" fill="#FBFEF9"/>
<path d="M154.896 20.803C154.455 20.803 154.068 20.6428 153.735 20.3225C153.414 20.0023 153.254 19.6152 153.254 19.1615C153.254 18.7077 153.414 18.3207 153.735 18.0004C154.068 17.6668 154.455 17.4999 154.896 17.4999C155.349 17.4999 155.736 17.6668 156.057 18.0004C156.39 18.3207 156.557 18.7077 156.557 19.1615C156.557 19.6152 156.39 20.0023 156.057 20.3225C155.736 20.6428 155.349 20.803 154.896 20.803ZM156.437 32.3136C155.53 32.3136 154.816 32.0534 154.295 31.5329C153.788 31.0124 153.534 30.3051 153.534 29.411V22.1042H156.277V29.3309C156.277 29.5044 156.337 29.6579 156.457 29.7913C156.59 29.9114 156.744 29.9715 156.917 29.9715H157.538V32.3136H156.437Z" fill="#FBFEF9"/>
</svg>
