<svg width="100" height="50" viewBox="0 0 100 50" fill="none" xmlns="http://www.w3.org/2000/svg">
<path d="M18.6584 10.068C18.2441 10.068 17.8655 9.96799 17.5227 9.76799C17.187 9.56799 16.9191 9.30014 16.7191 8.96442C16.5191 8.62156 16.4191 8.24299 16.4191 7.82871C16.4191 7.52871 16.4834 7.24656 16.612 6.98228C16.7405 6.71799 16.9155 6.48585 17.137 6.28585C16.9155 6.08585 16.7405 5.85371 16.612 5.58942C16.4834 5.32514 16.4191 5.04656 16.4191 4.75371C16.4191 4.34656 16.5155 3.97871 16.7084 3.65014C16.9084 3.32156 17.1727 3.06085 17.5012 2.86799C17.837 2.66799 18.2048 2.56799 18.6048 2.56799H21.6905V3.91799H18.7762C18.6262 3.91799 18.487 3.95728 18.3584 4.03585C18.237 4.10728 18.137 4.20728 18.0584 4.33585C17.987 4.45728 17.9512 4.59656 17.9512 4.75371C17.9512 4.90371 17.987 5.04299 18.0584 5.17156C18.137 5.29299 18.237 5.39299 18.3584 5.47156C18.487 5.54299 18.6262 5.57871 18.7762 5.57871H21.3262V6.92871H18.8405C18.6762 6.92871 18.5262 6.97156 18.3905 7.05728C18.2548 7.13585 18.1477 7.24299 18.0691 7.37871C17.9905 7.51442 17.9512 7.66442 17.9512 7.82871C17.9512 7.99299 17.9905 8.14299 18.0691 8.27871C18.1477 8.41442 18.2548 8.52156 18.3905 8.60014C18.5262 8.67871 18.6762 8.71799 18.8405 8.71799H21.6905V10.068H18.6584Z" fill="#FBFEF9"/>
<path d="M8.89314 10.068V2.56799H10.4253V5.57871H13.7039V2.56799H15.236V10.068H13.7039V6.92871H10.4253V10.068H8.89314Z" fill="#FBFEF9"/>
<path d="M6.58447 10.068C6.14161 10.068 5.75232 9.96799 5.41661 9.76799C5.08089 9.56085 4.82018 9.28942 4.63447 8.95371C4.44875 8.61085 4.35589 8.23585 4.35589 7.82871V3.91799H2.26661V2.56799H7.97732V3.91799H5.88804V8.01085C5.88804 8.20371 5.95589 8.37156 6.09161 8.51442C6.22732 8.65014 6.39161 8.71799 6.58447 8.71799H9.0791L8.99049 10.068H6.58447Z" fill="#FBFEF9"/>
<path fill-rule="evenodd" clip-rule="evenodd" d="M72.2962 35.568C72.8321 35.568 73.2666 36.0025 73.2666 36.5385L73.2666 41.8473C73.2666 41.8473 71.8617 41.8473 71.3257 41.8473L71.3257 38.8813L66.5799 43.6246L70.6876 43.6246C70.6876 43.6246 70.6876 45.0295 70.6876 45.5655L64.2371 45.5655C63.7011 45.5655 63.2666 45.131 63.2666 44.5951L63.2666 39.2862L65.2075 39.2862L65.2075 42.2522L69.9533 37.5089L66.9873 37.5089C66.9873 37.5089 66.9873 36.1039 66.9873 35.568L72.2962 35.568Z" fill="#FBFEF9"/>
<path d="M2.26661 28.2458V19.758C2.26661 18.5702 2.5135 17.5492 3.00729 16.6951C3.51443 15.8276 4.20173 15.1604 5.0692 14.6933C5.95002 14.2262 6.95762 13.9926 8.092 13.9926C9.22638 13.9926 10.2273 14.2262 11.0948 14.6933C11.9756 15.1604 12.6629 15.8276 13.1567 16.6951C13.6638 17.5492 13.9174 18.5702 13.9174 19.758V28.2458H11.0547V19.5778C11.0547 19.0173 10.9346 18.5035 10.6944 18.0364C10.4542 17.5693 10.1139 17.2023 9.67346 16.9353C9.23306 16.6551 8.7059 16.515 8.092 16.515C7.49144 16.515 6.96429 16.6551 6.51054 16.9353C6.07013 17.2023 5.72982 17.5693 5.48959 18.0364C5.24937 18.5035 5.12926 19.0173 5.12926 19.5778V28.2458H2.26661Z" fill="#FBFEF9"/>
<path d="M11.0547 28.2458V19.758C11.0547 18.5702 11.3016 17.5492 11.7954 16.6951C12.3026 15.8276 12.9899 15.1604 13.8573 14.6933C14.7381 14.2262 15.7457 13.9926 16.8801 13.9926C18.0145 13.9926 19.0154 14.2262 19.8829 14.6933C20.7637 15.1604 21.451 15.8276 21.9448 16.6951C22.4519 17.5492 22.7055 18.5702 22.7055 19.758V28.2458H19.8429V19.5778C19.8429 19.0173 19.7228 18.5035 19.4825 18.0364C19.2423 17.5693 18.902 17.2023 18.4616 16.9353C18.0212 16.6551 17.494 16.515 16.8801 16.515C16.2796 16.515 15.7524 16.6551 15.2987 16.9353C14.8583 17.2023 14.5179 17.5693 14.2777 18.0364C14.0375 18.5035 13.9174 19.0173 13.9174 19.5778L13.9174 28.2458H11.0547Z" fill="#FBFEF9"/>
<path d="M92.068 28.3819C91.2939 28.3819 90.5866 28.195 89.946 27.8213C89.3187 27.4477 88.8183 26.9472 88.4446 26.3199C88.0709 25.6794 87.8841 24.972 87.8841 24.198C87.8841 23.6375 88.0042 23.1103 88.2444 22.6165C88.4846 22.1227 88.8116 21.689 89.2253 21.3153C88.8116 20.9416 88.4846 20.5079 88.2444 20.0141C88.0042 19.5203 87.8841 18.9998 87.8841 18.4527C87.8841 17.692 88.0643 17.0047 88.4246 16.3908C88.7983 15.7769 89.2921 15.2897 89.906 14.9294C90.5332 14.5557 91.2205 14.3689 91.9679 14.3689H97.7332V16.8912H92.2882C92.0079 16.8912 91.7477 16.9646 91.5074 17.1114C91.2806 17.2449 91.0937 17.4317 90.9469 17.6719C90.8135 17.8988 90.7467 18.1591 90.7467 18.4527C90.7467 18.7329 90.8135 18.9932 90.9469 19.2334C91.0937 19.4603 91.2806 19.6471 91.5074 19.7939C91.7477 19.9274 92.0079 19.9941 92.2882 19.9941H97.0526V22.5164H92.4083C92.1013 22.5164 91.8211 22.5965 91.5675 22.7567C91.3139 22.9035 91.1137 23.1036 90.9669 23.3572C90.8201 23.6108 90.7467 23.891 90.7467 24.198C90.7467 24.5049 90.8201 24.7852 90.9669 25.0388C91.1137 25.2923 91.3139 25.4925 91.5675 25.6393C91.8211 25.7861 92.1013 25.8595 92.4083 25.8595H97.7332V28.3819H92.068Z" fill="#FBFEF9"/>
<path d="M84.1711 28.3819C83.3437 28.3819 82.6163 28.195 81.9891 27.8213C81.3618 27.4343 80.8747 26.9272 80.5277 26.2999C80.1808 25.6593 80.0073 24.9587 80.0073 24.198V16.8912H76.1036V14.3689H86.7735V16.8912H82.8699V24.5383C82.8699 24.8986 82.9967 25.2123 83.2503 25.4792C83.5038 25.7327 83.8108 25.8595 84.1711 25.8595H89.6321L92.3087 28.3819H84.1711Z" fill="#FBFEF9"/>
<path d="M72.7575 16.8711C72.317 16.8711 71.93 16.7109 71.5964 16.3906C71.2761 16.0704 71.1159 15.6833 71.1159 15.2296C71.1159 14.7758 71.2761 14.3888 71.5964 14.0685C71.93 13.7349 72.317 13.568 72.7575 13.568C73.2112 13.568 73.5982 13.7349 73.9185 14.0685C74.2522 14.3888 74.419 14.7758 74.419 15.2296C74.419 15.6833 74.2522 16.0704 73.9185 16.3906C73.5982 16.7109 73.2112 16.8711 72.7575 16.8711ZM74.2989 28.3817C73.3914 28.3817 72.6774 28.1215 72.1569 27.601C71.6498 27.0805 71.3962 26.3732 71.3962 25.4791V18.1723H74.1387V25.399C74.1387 25.5725 74.1988 25.726 74.3189 25.8594C74.4524 25.9795 74.6058 26.0396 74.7793 26.0396H75.3999V28.3817H74.2989Z" fill="#FBFEF9"/>
<path d="M67.1828 28.3819C66.3553 28.3819 65.628 28.195 65.0007 27.8213C64.3735 27.4343 63.8864 26.9272 63.5394 26.2999C63.1924 25.6593 63.0189 24.9587 63.0189 24.198V16.8912H59.1153V14.3689H69.7852V16.8912H65.8815V24.5383C65.8815 24.8986 66.0083 25.2123 66.2619 25.4792C66.5155 25.7327 66.8224 25.8595 67.1828 25.8595H68.1837V28.3819H67.1828Z" fill="#FBFEF9"/>
<path d="M49.8662 28.3819V25.8595H52.3886V16.8912H49.8662V14.3689H59.2396V16.8912H55.2512V25.8595H57.7736V28.3819H49.8662Z" fill="#FBFEF9"/>
<path d="M36.5616 28.3819V14.3689H42.8274C43.7483 14.3689 44.5824 14.5758 45.3297 14.9895C46.0904 15.3898 46.691 15.9504 47.1314 16.671C47.5851 17.3917 47.812 18.2325 47.812 19.1934C47.812 20.1276 47.5918 20.955 47.1514 21.6757C46.711 22.383 46.1305 22.9435 45.4098 23.3572L46.691 25.5993C46.7444 25.6794 46.8111 25.7461 46.8912 25.7995C46.9712 25.8395 47.0647 25.8595 47.1714 25.8595H49.881V28.3819H46.731C46.1705 28.3819 45.6567 28.2417 45.1896 27.9615C44.7358 27.6812 44.3755 27.3142 44.1086 26.8604L42.5271 24.0178C42.407 24.0178 42.2802 24.0178 42.1468 24.0178C42.0267 24.0178 41.9065 24.0178 41.7864 24.0178H39.4243V28.3819H36.5616ZM39.4243 21.4955H42.4871C42.9408 21.4955 43.3546 21.4087 43.7282 21.2352C44.1019 21.0484 44.3955 20.7815 44.609 20.4345C44.8359 20.0875 44.9494 19.6738 44.9494 19.1934C44.9494 18.7129 44.8359 18.2992 44.609 17.9522C44.3822 17.6052 44.0819 17.345 43.7082 17.1715C43.3479 16.9846 42.9408 16.8912 42.4871 16.8912H39.4243V21.4955Z" fill="#FBFEF9"/>
<path d="M28.689 28.3819C27.915 28.3819 27.2076 28.195 26.567 27.8213C25.9398 27.4477 25.4393 26.9472 25.0657 26.3199C24.692 25.6794 24.5051 24.972 24.5051 24.198C24.5051 23.6375 24.6253 23.1103 24.8655 22.6165C25.1057 22.1227 25.4327 21.689 25.8464 21.3153C25.4327 20.9416 25.1057 20.5079 24.8655 20.0141C24.6253 19.5203 24.5051 18.9998 24.5051 18.4527C24.5051 17.692 24.6853 17.0047 25.0456 16.3908C25.4193 15.7769 25.9131 15.2897 26.527 14.9294C27.1543 14.5557 27.8416 14.3689 28.5889 14.3689H34.3543V16.8912H28.9092C28.629 16.8912 28.3687 16.9646 28.1285 17.1114C27.9016 17.2449 27.7148 17.4317 27.568 17.6719C27.4345 17.8988 27.3678 18.1591 27.3678 18.4527C27.3678 18.7329 27.4345 18.9932 27.568 19.2334C27.7148 19.4603 27.9016 19.6471 28.1285 19.7939C28.3687 19.9274 28.629 19.9941 28.9092 19.9941H33.6736V22.5164H29.0293C28.7224 22.5164 28.4421 22.5965 28.1885 22.7567C27.935 22.9035 27.7348 23.1036 27.588 23.3572C27.4412 23.6108 27.3678 23.891 27.3678 24.198C27.3678 24.5049 27.4412 24.7852 27.588 25.0388C27.7348 25.2923 27.935 25.4925 28.1885 25.6393C28.4421 25.7861 28.7224 25.8595 29.0293 25.8595H34.3543V28.3819H28.689Z" fill="#FBFEF9"/>
<path d="M46.6059 47.1717V38.6838C46.6059 37.496 46.8528 36.4751 47.3466 35.621C47.8538 34.7535 48.5411 34.0862 49.4085 33.6191C50.2894 33.152 51.297 32.9185 52.4313 32.9185C53.5657 32.9185 54.5666 33.152 55.4341 33.6191C56.3149 34.0862 57.0022 34.7535 57.496 35.621C58.0032 36.4751 58.2567 37.496 58.2567 38.6838V47.1717H55.3941V38.5036C55.3941 37.9431 55.274 37.4293 55.0337 36.9622C54.7935 36.4951 54.4532 36.1281 54.0128 35.8612C53.5724 35.5809 53.0452 35.4408 52.4313 35.4408C51.8308 35.4408 51.3036 35.5809 50.8499 35.8612C50.4095 36.1281 50.0692 36.4951 49.8289 36.9622C49.5887 37.4293 49.4686 37.9431 49.4686 38.5036V47.1717H46.6059Z" fill="#FBFEF9"/>
<path d="M37.3586 47.432C36.2375 47.432 35.2232 47.2452 34.3157 46.8715C33.4216 46.4845 32.6542 45.9573 32.0136 45.29C31.373 44.6227 30.8792 43.8487 30.5322 42.9679C30.1853 42.0871 30.0118 41.1462 30.0118 40.1453C30.0118 39.1443 30.1853 38.2101 30.5322 37.3427C30.8792 36.4619 31.373 35.6878 32.0136 35.0205C32.6542 34.3532 33.4216 33.8328 34.3157 33.4591C35.2232 33.0854 36.2375 32.8986 37.3586 32.8986C38.4796 32.8986 39.4872 33.0854 40.3813 33.4591C41.2889 33.8328 42.0629 34.3532 42.7035 35.0205C43.3441 35.6878 43.8379 36.4619 44.1849 37.3427C44.5319 38.2101 44.7053 39.1443 44.7053 40.1453C44.7053 41.1462 44.5319 42.0871 44.1849 42.9679C43.8379 43.8487 43.3441 44.6227 42.7035 45.29C42.0629 45.9573 41.2889 46.4845 40.3813 46.8715C39.4872 47.2452 38.4796 47.432 37.3586 47.432ZM37.3586 44.8897C37.9991 44.8897 38.593 44.7762 39.1402 44.5493C39.6874 44.3091 40.1611 43.9755 40.5615 43.5484C40.9752 43.108 41.2889 42.6009 41.5024 42.027C41.7293 41.4531 41.8427 40.8259 41.8427 40.1453C41.8427 39.4646 41.7293 38.8374 41.5024 38.2635C41.2889 37.6897 40.9752 37.1892 40.5615 36.7621C40.1611 36.3351 39.6874 36.0081 39.1402 35.7812C38.593 35.541 37.9991 35.4209 37.3586 35.4209C36.718 35.4209 36.1241 35.541 35.5769 35.7812C35.0297 36.0081 34.5493 36.3351 34.1356 36.7621C33.7352 37.1892 33.4216 37.6897 33.1947 38.2635C32.9812 38.8374 32.8744 39.4646 32.8744 40.1453C32.8744 40.8259 32.9812 41.4531 33.1947 42.027C33.4216 42.6009 33.7352 43.108 34.1356 43.5484C34.5493 43.9755 35.0297 44.3091 35.5769 44.5493C36.1241 44.7762 36.718 44.8897 37.3586 44.8897Z" fill="#FBFEF9"/>
<path d="M8.09199 47.4316C6.95761 47.4316 5.95001 47.1981 5.06919 46.731C4.20173 46.2639 3.51442 45.6033 3.00729 44.7491C2.5135 43.8817 2.2666 42.854 2.2666 41.6663V33.1784H5.12925V41.8464C5.12925 42.407 5.24937 42.9208 5.48959 43.3879C5.72981 43.8416 6.07012 44.2086 6.51053 44.4889C6.96428 44.7692 7.49144 44.9093 8.09199 44.9093C8.70589 44.9093 9.23305 44.7692 9.67346 44.4889C10.1139 44.2086 10.4542 43.8416 10.6944 43.3879C10.9346 42.9208 11.0547 42.407 11.0547 41.8464V38.1831H13.9174V41.6663C13.9174 42.854 13.6638 43.8817 13.1567 44.7491C12.6629 45.6033 11.9756 46.2639 11.0948 46.731C10.2273 47.1981 9.22637 47.4316 8.09199 47.4316Z" fill="#FBFEF9"/>
<path d="M11.0547 41.8464V38.3632C11.0547 37.1754 11.3016 36.1545 11.7954 35.3004C12.3026 34.4329 12.9899 33.7656 13.8573 33.2985C14.7381 32.8314 15.7457 32.5979 16.8801 32.5979C18.0145 32.5979 19.0154 32.8314 19.8829 33.2985C20.7637 33.7656 21.451 34.4329 21.9448 35.3004C22.4519 36.1545 22.7055 37.1754 22.7055 38.3632V47.311H19.8429V38.183C19.8429 37.6225 19.7228 37.1087 19.4825 36.6416C19.2423 36.1745 18.902 35.8075 18.4616 35.5406C18.0212 35.2603 17.494 35.1202 16.8801 35.1202C16.2796 35.1202 15.7524 35.2603 15.2987 35.5406C14.8582 35.8075 14.5179 36.1745 14.2777 36.6416C14.0375 37.1087 13.9174 37.6225 13.9174 38.1831L13.9174 41.8464L11.0547 41.8464Z" fill="#FBFEF9"/>
<path d="M26.4055 35.871C25.9651 35.871 25.5781 35.7109 25.2445 35.3906C24.9242 35.0703 24.764 34.6833 24.764 34.2295C24.764 33.7758 24.9242 33.3888 25.2445 33.0685C25.5781 32.7348 25.9651 32.568 26.4055 32.568C26.8593 32.568 27.2463 32.7348 27.5666 33.0685C27.9002 33.3888 28.0671 33.7758 28.0671 34.2295C28.0671 34.6833 27.9002 35.0703 27.5666 35.3906C27.2463 35.7109 26.8593 35.871 26.4055 35.871ZM27.947 47.3817C27.0394 47.3817 26.3255 47.1215 25.805 46.601C25.2978 46.0805 25.0443 45.3732 25.0443 44.479V37.1723H27.7868V44.3989C27.7868 44.5724 27.8469 44.7259 27.967 44.8594C28.1004 44.9795 28.2539 45.0395 28.4274 45.0395H29.048V47.3817H27.947Z" fill="#FBFEF9"/>
</svg>
