<svg width="126" height="25" viewBox="0 0 126 25" fill="none" xmlns="http://www.w3.org/2000/svg">
<path fill-rule="evenodd" clip-rule="evenodd" d="M13.0317 7.49997C13.5677 7.49997 14.0022 7.93444 14.0022 8.4704L14.0022 13.7792C14.0022 13.7792 12.5973 13.7792 12.0613 13.7792L12.0613 10.8132L7.31548 15.5566L11.4232 15.5565C11.4232 15.5565 11.4232 16.9614 11.4232 17.4974L4.97266 17.4974C4.4367 17.4974 4.00222 17.063 4.00222 16.527L4.0022 11.2182L5.94306 11.2182L5.94308 14.1842L10.6889 9.44084L7.72291 9.44086C7.72291 9.44086 7.72291 8.03589 7.7229 7.49994L13.0317 7.49997Z" fill="#7730E2"/>
<path d="M17.0022 17.4093V11.7507C17.0022 10.9589 17.1668 10.2783 17.496 9.70886C17.8341 9.13054 18.2923 8.68569 18.8706 8.37429C19.4578 8.06289 20.1295 7.90719 20.8858 7.90719C21.642 7.90719 22.3093 8.06289 22.8876 8.37429C23.4749 8.68569 23.9331 9.13054 24.2622 9.70886C24.6003 10.2783 24.7694 10.9589 24.7694 11.7507V17.4093H22.8609V11.6306C22.8609 11.257 22.7809 10.9144 22.6207 10.603C22.4606 10.2916 22.2337 10.0469 21.9401 9.86901C21.6465 9.68217 21.2951 9.58875 20.8858 9.58875C20.4854 9.58875 20.134 9.68217 19.8315 9.86901C19.5379 10.0469 19.311 10.2916 19.1509 10.603C18.9907 10.9144 18.9106 11.257 18.9106 11.6306V17.4093H17.0022Z" fill="#7730E2"/>
<path d="M22.8609 17.4093V11.7507C22.8609 10.9589 23.0255 10.2783 23.3547 9.70886C23.6928 9.13054 24.151 8.68569 24.7293 8.37429C25.3166 8.06289 25.9883 7.90719 26.7445 7.90719C27.5008 7.90719 28.1681 8.06289 28.7464 8.37429C29.3336 8.68569 29.7918 9.13054 30.121 9.70886C30.4591 10.2783 30.6281 10.9589 30.6281 11.7507V17.4093H28.7197V11.6306C28.7197 11.257 28.6396 10.9144 28.4795 10.603C28.3193 10.2916 28.0925 10.0469 27.7989 9.86901C27.5052 9.68217 27.1538 9.58875 26.7445 9.58875C26.3442 9.58875 25.9927 9.68217 25.6902 9.86901C25.3966 10.0469 25.1698 10.2916 25.0096 10.603C24.8495 10.9144 24.7694 11.257 24.7694 11.6306L24.7694 17.4093H22.8609Z" fill="#7730E2"/>
<path d="M76.8698 17.5C76.3537 17.5 75.8822 17.3755 75.4551 17.1263C75.037 16.8772 74.7033 16.5436 74.4542 16.1254C74.2051 15.6983 74.0805 15.2268 74.0805 14.7108C74.0805 14.3371 74.1606 13.9856 74.3207 13.6565C74.4809 13.3273 74.6989 13.0381 74.9747 12.789C74.6989 12.5399 74.4809 12.2507 74.3207 11.9215C74.1606 11.5923 74.0805 11.2453 74.0805 10.8806C74.0805 10.3734 74.2006 9.91522 74.4409 9.50595C74.69 9.09668 75.0192 8.77194 75.4284 8.53171C75.8466 8.28259 76.3048 8.15804 76.803 8.15804H80.6466V9.83959H77.0166C76.8297 9.83959 76.6562 9.88853 76.4961 9.98639C76.3448 10.0754 76.2203 10.1999 76.1224 10.3601C76.0334 10.5113 75.989 10.6848 75.989 10.8806C75.989 11.0674 76.0334 11.2409 76.1224 11.401C76.2203 11.5523 76.3448 11.6768 76.4961 11.7747C76.6562 11.8637 76.8297 11.9082 77.0166 11.9082H80.1928V13.5897H77.0966C76.892 13.5897 76.7052 13.6431 76.5361 13.7499C76.3671 13.8477 76.2336 13.9812 76.1358 14.1502C76.0379 14.3193 75.989 14.5061 75.989 14.7108C75.989 14.9154 76.0379 15.1022 76.1358 15.2713C76.2336 15.4403 76.3671 15.5738 76.5361 15.6717C76.7052 15.7695 76.892 15.8185 77.0966 15.8185H80.6466V17.5H76.8698Z" fill="#7730E2"/>
<path d="M71.6052 17.5C71.0536 17.5 70.5687 17.3755 70.1505 17.1263C69.7324 16.8683 69.4076 16.5302 69.1763 16.1121C68.945 15.685 68.8293 15.2179 68.8293 14.7108V9.83959H66.2269V8.15804H73.3401V9.83959H70.7377V14.9376C70.7377 15.1779 70.8223 15.3869 70.9913 15.5649C71.1603 15.7339 71.365 15.8185 71.6052 15.8185H75.2459L77.0303 17.5H71.6052Z" fill="#7730E2"/>
<path d="M63.9961 9.82618C63.7025 9.82618 63.4445 9.71941 63.2221 9.50588C63.0085 9.29235 62.9018 9.03433 62.9018 8.73183C62.9018 8.42933 63.0085 8.17131 63.2221 7.95778C63.4445 7.73535 63.7025 7.62414 63.9961 7.62414C64.2986 7.62414 64.5566 7.73535 64.7702 7.95778C64.9926 8.17131 65.1038 8.42933 65.1038 8.73183C65.1038 9.03433 64.9926 9.29235 64.7702 9.50588C64.5566 9.71941 64.2986 9.82618 63.9961 9.82618ZM65.0237 17.4999C64.4187 17.4999 63.9427 17.3264 63.5957 16.9795C63.2576 16.6325 63.0886 16.1609 63.0886 15.5648V10.6936H64.917V15.5114C64.917 15.6271 64.957 15.7294 65.0371 15.8184C65.126 15.8985 65.2284 15.9385 65.344 15.9385H65.7577V17.4999H65.0237Z" fill="#7730E2"/>
<path d="M60.2796 17.5C59.728 17.5 59.2431 17.3755 58.825 17.1263C58.4068 16.8683 58.0821 16.5302 57.8507 16.1121C57.6194 15.685 57.5037 15.2179 57.5037 14.7108V9.83959H54.9013V8.15804H62.0146V9.83959H59.4122V14.9376C59.4122 15.1779 59.4967 15.3869 59.6657 15.5649C59.8348 15.7339 60.0394 15.8185 60.2796 15.8185H60.9469V17.5H60.2796Z" fill="#7730E2"/>
<path d="M48.7353 17.5V15.8185H50.4169V9.83959H48.7353V8.15804H54.9842V9.83959H52.3253V15.8185H54.0068V17.5H48.7353Z" fill="#7730E2"/>
<path d="M39.8655 17.5V8.15804H44.0427C44.6566 8.15804 45.2127 8.29594 45.7109 8.57175C46.2181 8.83866 46.6184 9.21234 46.9121 9.69279C47.2146 10.1732 47.3658 10.7338 47.3658 11.3743C47.3658 11.9971 47.219 12.5488 46.9254 13.0292C46.6318 13.5008 46.2448 13.8744 45.7643 14.1502L46.6184 15.645C46.654 15.6983 46.6985 15.7428 46.7519 15.7784C46.8053 15.8051 46.8676 15.8185 46.9387 15.8185H48.7452V17.5H46.6451C46.2715 17.5 45.9289 17.4066 45.6175 17.2198C45.315 17.0329 45.0748 16.7882 44.8969 16.4857L43.8425 14.5907C43.7625 14.5907 43.6779 14.5907 43.589 14.5907C43.5089 14.5907 43.4288 14.5907 43.3488 14.5907H41.774V17.5H39.8655ZM41.774 12.9091H43.8159C44.1184 12.9091 44.3942 12.8513 44.6433 12.7356C44.8924 12.611 45.0881 12.4331 45.2305 12.2018C45.3817 11.9705 45.4574 11.6946 45.4574 11.3743C45.4574 11.054 45.3817 10.7782 45.2305 10.5469C45.0792 10.3156 44.8791 10.1421 44.6299 10.0264C44.3897 9.90187 44.1184 9.83959 43.8159 9.83959H41.774V12.9091Z" fill="#7730E2"/>
<path d="M34.6171 17.5C34.1011 17.5 33.6296 17.3755 33.2025 17.1263C32.7843 16.8772 32.4507 16.5436 32.2016 16.1254C31.9525 15.6983 31.8279 15.2268 31.8279 14.7108C31.8279 14.3371 31.908 13.9856 32.0681 13.6565C32.2283 13.3273 32.4462 13.0381 32.7221 12.789C32.4462 12.5399 32.2283 12.2507 32.0681 11.9215C31.908 11.5923 31.8279 11.2453 31.8279 10.8806C31.8279 10.3734 31.948 9.91522 32.1882 9.50595C32.4373 9.09668 32.7665 8.77194 33.1758 8.53171C33.594 8.28259 34.0522 8.15804 34.5504 8.15804H38.394V9.83959H34.7639C34.5771 9.83959 34.4036 9.88853 34.2435 9.98639C34.0922 10.0754 33.9677 10.1999 33.8698 10.3601C33.7808 10.5113 33.7363 10.6848 33.7363 10.8806C33.7363 11.0674 33.7808 11.2409 33.8698 11.401C33.9677 11.5523 34.0922 11.6768 34.2435 11.7747C34.4036 11.8637 34.5771 11.9082 34.7639 11.9082H37.9402V13.5897H34.844C34.6394 13.5897 34.4525 13.6431 34.2835 13.7499C34.1145 13.8477 33.981 13.9812 33.8831 14.1502C33.7853 14.3193 33.7363 14.5061 33.7363 14.7108C33.7363 14.9154 33.7853 15.1022 33.8831 15.2713C33.981 15.4403 34.1145 15.5738 34.2835 15.6717C34.4525 15.7695 34.6394 15.8185 34.844 15.8185H38.394V17.5H34.6171Z" fill="#7730E2"/>
<path d="M114.231 17.2357V11.5772C114.231 10.7853 114.395 10.1047 114.725 9.53526C115.063 8.95695 115.521 8.51209 116.099 8.2007C116.686 7.8893 117.358 7.7336 118.114 7.7336C118.871 7.7336 119.538 7.8893 120.116 8.2007C120.703 8.51209 121.162 8.95695 121.491 9.53526C121.829 10.1047 121.998 10.7853 121.998 11.5772V17.2357H120.09V11.457C120.09 11.0834 120.009 10.7408 119.849 10.4294C119.689 10.118 119.462 9.87335 119.169 9.69541C118.875 9.50857 118.524 9.41515 118.114 9.41515C117.714 9.41515 117.363 9.50857 117.06 9.69541C116.766 9.87335 116.54 10.118 116.379 10.4294C116.219 10.7408 116.139 11.0834 116.139 11.457V17.2357H114.231Z" fill="#7730E2"/>
<path d="M108.066 17.4093C107.318 17.4093 106.642 17.2847 106.037 17.0356C105.441 16.7776 104.93 16.4261 104.503 15.9813C104.075 15.5364 103.746 15.0204 103.515 14.4332C103.284 13.846 103.168 13.2187 103.168 12.5515C103.168 11.8842 103.284 11.2614 103.515 10.6831C103.746 10.0958 104.075 9.57981 104.503 9.13496C104.93 8.6901 105.441 8.34312 106.037 8.094C106.642 7.84488 107.318 7.72032 108.066 7.72032C108.813 7.72032 109.485 7.84488 110.081 8.094C110.686 8.34312 111.202 8.6901 111.629 9.13496C112.056 9.57981 112.385 10.0958 112.617 10.6831C112.848 11.2614 112.964 11.8842 112.964 12.5515C112.964 13.2187 112.848 13.846 112.617 14.4332C112.385 15.0204 112.056 15.5364 111.629 15.9813C111.202 16.4261 110.686 16.7776 110.081 17.0356C109.485 17.2847 108.813 17.4093 108.066 17.4093ZM108.066 15.7144C108.493 15.7144 108.889 15.6388 109.254 15.4875C109.618 15.3274 109.934 15.1049 110.201 14.8202C110.477 14.5266 110.686 14.1885 110.828 13.8059C110.98 13.4234 111.055 13.0052 111.055 12.5515C111.055 12.0977 110.98 11.6795 110.828 11.297C110.686 10.9144 110.477 10.5807 110.201 10.296C109.934 10.0113 109.618 9.79335 109.254 9.6421C108.889 9.48195 108.493 9.40187 108.066 9.40187C107.639 9.40187 107.243 9.48195 106.878 9.6421C106.513 9.79335 106.193 10.0113 105.917 10.296C105.65 10.5807 105.441 10.9144 105.29 11.297C105.148 11.6795 105.076 12.0977 105.076 12.5515C105.076 13.0052 105.148 13.4234 105.29 13.8059C105.441 14.1885 105.65 14.5266 105.917 14.8202C106.193 15.1049 106.513 15.3274 106.878 15.4875C107.243 15.6388 107.639 15.7144 108.066 15.7144Z" fill="#7730E2"/>
<path d="M88.5548 17.409C87.7985 17.409 87.1268 17.2533 86.5396 16.9419C85.9613 16.6305 85.5031 16.1901 85.165 15.6207C84.8358 15.0424 84.6712 14.3573 84.6712 13.5655V7.9069H86.5796V13.6856C86.5796 14.0593 86.6597 14.4018 86.8198 14.7132C86.98 15.0157 87.2069 15.2604 87.5005 15.4472C87.803 15.634 88.1544 15.7275 88.5548 15.7275C88.9641 15.7275 89.3155 15.634 89.6091 15.4472C89.9027 15.2604 90.1296 15.0157 90.2897 14.7132C90.4499 14.4018 90.5299 14.0593 90.5299 13.6856V11.2433H92.4384V13.5655C92.4384 14.3573 92.2693 15.0424 91.9312 15.6207C91.6021 16.1901 91.1438 16.6305 90.5566 16.9419C89.9783 17.2533 89.311 17.409 88.5548 17.409Z" fill="#7730E2"/>
<path d="M90.5299 13.6856V11.3634C90.5299 10.5716 90.6945 9.89095 91.0237 9.32153C91.3618 8.74322 91.82 8.29836 92.3983 7.98697C92.9855 7.67557 93.6573 7.51987 94.4135 7.51987C95.1698 7.51987 95.8371 7.67557 96.4154 7.98697C97.0026 8.29836 97.4608 8.74322 97.79 9.32153C98.1281 9.89095 98.2971 10.5716 98.2971 11.3634V17.3286H96.3887V11.2433C96.3887 10.8696 96.3086 10.5271 96.1485 10.2157C95.9883 9.90429 95.7615 9.65962 95.4678 9.48168C95.1742 9.29484 94.8228 9.20142 94.4135 9.20142C94.0132 9.20142 93.6617 9.29484 93.3592 9.48168C93.0656 9.65962 92.8387 9.90429 92.6786 10.2157C92.5184 10.5271 92.4384 10.8696 92.4384 11.2433L92.4384 13.6856L90.5299 13.6856Z" fill="#7730E2"/>
<path d="M100.764 9.70198C100.47 9.70198 100.212 9.59521 99.9898 9.38168C99.7762 9.16815 99.6695 8.91013 99.6695 8.60763C99.6695 8.30513 99.7762 8.04711 99.9898 7.83358C100.212 7.61115 100.47 7.49994 100.764 7.49994C101.066 7.49994 101.324 7.61115 101.538 7.83358C101.76 8.04711 101.871 8.30513 101.871 8.60763C101.871 8.91013 101.76 9.16815 101.538 9.38168C101.324 9.59521 101.066 9.70198 100.764 9.70198ZM101.791 17.3757C101.186 17.3757 100.71 17.2022 100.363 16.8553C100.025 16.5083 99.8563 16.0367 99.8563 15.4406V10.5694H101.685V15.3872C101.685 15.5029 101.725 15.6052 101.805 15.6942C101.894 15.7743 101.996 15.8143 102.112 15.8143H102.525V17.3757H101.791Z" fill="#7730E2"/>
</svg>
