<svg width="200" height="40" viewBox="0 0 200 40" fill="none" xmlns="http://www.w3.org/2000/svg">
<path fill-rule="evenodd" clip-rule="evenodd" d="M22.2827 15.5C22.8187 15.5 23.2531 15.9344 23.2531 16.4704L23.2532 21.7792C23.2532 21.7792 21.8483 21.7792 21.3123 21.7792L21.3123 18.8132L16.5665 23.5566L20.6741 23.5565C20.6741 23.5565 20.6742 24.9614 20.6742 25.4974L14.2236 25.4974C13.6877 25.4974 13.2532 25.063 13.2532 24.527L13.2532 19.2182L15.194 19.2182L15.1941 22.1842L19.9399 17.4408L16.9739 17.4409C16.9739 17.4409 16.9739 16.0359 16.9739 15.4999L22.2827 15.5Z" fill="#FBFEF9"/>
<path d="M29.2532 27.364V18.8762C29.2532 17.6884 29.5001 16.6674 29.9939 15.8133C30.501 14.9458 31.1883 14.2786 32.0558 13.8115C32.9366 13.3444 33.9442 13.1108 35.0786 13.1108C36.2129 13.1108 37.2139 13.3444 38.0813 13.8115C38.9622 14.2786 39.6495 14.9458 40.1432 15.8133C40.6504 16.6674 40.904 17.6884 40.904 18.8762V27.364H38.0413V18.696C38.0413 18.1355 37.9212 17.6217 37.681 17.1546C37.4408 16.6875 37.1004 16.3205 36.66 16.0535C36.2196 15.7733 35.6925 15.6332 35.0786 15.6332C34.478 15.6332 33.9509 15.7733 33.4971 16.0535C33.0567 16.3205 32.7164 16.6875 32.4762 17.1546C32.2359 17.6217 32.1158 18.1355 32.1158 18.696V27.364H29.2532Z" fill="#FBFEF9"/>
<path d="M38.0413 27.364V18.8762C38.0413 17.6884 38.2882 16.6674 38.782 15.8133C39.2891 14.9458 39.9764 14.2786 40.8439 13.8115C41.7247 13.3444 42.7323 13.1108 43.8667 13.1108C45.0011 13.1108 46.002 13.3444 46.8695 13.8115C47.7503 14.2786 48.4376 14.9458 48.9314 15.8133C49.4385 16.6674 49.6921 17.6884 49.6921 18.8762V27.364H46.8294V18.696C46.8294 18.1355 46.7093 17.6217 46.4691 17.1546C46.2289 16.6875 45.8886 16.3205 45.4482 16.0535C45.0077 15.7733 44.4806 15.6332 43.8667 15.6332C43.2661 15.6332 42.739 15.7733 42.2852 16.0535C41.8448 16.3205 41.5045 16.6875 41.2643 17.1546C41.0241 17.6217 40.9039 18.1355 40.9039 18.696L40.904 27.364H38.0413Z" fill="#FBFEF9"/>
<path d="M119.055 27.5001C118.28 27.5001 117.573 27.3132 116.933 26.9395C116.305 26.5659 115.805 26.0654 115.431 25.4381C115.057 24.7976 114.871 24.0902 114.871 23.3162C114.871 22.7557 114.991 22.2285 115.231 21.7347C115.471 21.2409 115.798 20.8072 116.212 20.4335C115.798 20.0598 115.471 19.6261 115.231 19.1323C114.991 18.6385 114.871 18.118 114.871 17.5709C114.871 16.8102 115.051 16.1229 115.411 15.509C115.785 14.8951 116.279 14.4079 116.893 14.0476C117.52 13.6739 118.207 13.4871 118.954 13.4871H124.72V16.0094H119.275C118.994 16.0094 118.734 16.0828 118.494 16.2296C118.267 16.3631 118.08 16.5499 117.933 16.7901C117.8 17.017 117.733 17.2773 117.733 17.5709C117.733 17.8511 117.8 18.1114 117.933 18.3516C118.08 18.5785 118.267 18.7653 118.494 18.9121C118.734 19.0456 118.994 19.1123 119.275 19.1123H124.039V21.6346H119.395C119.088 21.6346 118.808 21.7147 118.554 21.8748C118.3 22.0217 118.1 22.2218 117.953 22.4754C117.807 22.729 117.733 23.0092 117.733 23.3162C117.733 23.6231 117.807 23.9034 117.953 24.157C118.1 24.4105 118.3 24.6107 118.554 24.7575C118.808 24.9043 119.088 24.9777 119.395 24.9777H124.72V27.5001H119.055Z" fill="#FBFEF9"/>
<path d="M111.158 27.5001C110.33 27.5001 109.603 27.3132 108.976 26.9395C108.348 26.5525 107.861 26.0454 107.514 25.4181C107.167 24.7775 106.994 24.0769 106.994 23.3162V16.0094H103.09V13.4871H113.76V16.0094H109.856V23.6565C109.856 24.0168 109.983 24.3305 110.237 24.5974C110.49 24.8509 110.797 24.9777 111.158 24.9777H116.619L119.295 27.5001H111.158Z" fill="#FBFEF9"/>
<path d="M99.744 15.9893C99.3036 15.9893 98.9166 15.8291 98.5829 15.5088C98.2627 15.1886 98.1025 14.8015 98.1025 14.3478C98.1025 13.894 98.2627 13.507 98.5829 13.1867C98.9166 12.8531 99.3036 12.6862 99.744 12.6862C100.198 12.6862 100.585 12.8531 100.905 13.1867C101.239 13.507 101.406 13.894 101.406 14.3478C101.406 14.8015 101.239 15.1886 100.905 15.5088C100.585 15.8291 100.198 15.9893 99.744 15.9893ZM101.285 27.4999C100.378 27.4999 99.6639 27.2397 99.1435 26.7192C98.6363 26.1987 98.3828 25.4914 98.3828 24.5973V17.2905H101.125V24.5172C101.125 24.6907 101.185 24.8442 101.305 24.9776C101.439 25.0977 101.592 25.1578 101.766 25.1578H102.386V27.4999H101.285Z" fill="#FBFEF9"/>
<path d="M94.1693 27.5001C93.3419 27.5001 92.6146 27.3132 91.9873 26.9395C91.3601 26.5525 90.8729 26.0454 90.5259 25.4181C90.179 24.7775 90.0055 24.0769 90.0055 23.3162V16.0094H86.1019V13.4871H96.7717V16.0094H92.8681V23.6565C92.8681 24.0168 92.9949 24.3305 93.2485 24.5974C93.502 24.8509 93.809 24.9777 94.1693 24.9777H95.1702V27.5001H94.1693Z" fill="#FBFEF9"/>
<path d="M76.8528 27.5001V24.9777H79.3751V16.0094H76.8528V13.4871H86.2262V16.0094H82.2378V24.9777H84.7601V27.5001H76.8528Z" fill="#FBFEF9"/>
<path d="M63.5482 27.5001V13.4871H69.814C70.7348 13.4871 71.5689 13.6939 72.3163 14.1077C73.077 14.508 73.6775 15.0686 74.1179 15.7892C74.5717 16.5099 74.7986 17.3507 74.7986 18.3116C74.7986 19.2458 74.5784 20.0732 74.138 20.7938C73.6976 21.5012 73.117 22.0617 72.3964 22.4754L73.6775 24.7175C73.7309 24.7976 73.7976 24.8643 73.8777 24.9177C73.9578 24.9577 74.0512 24.9777 74.158 24.9777H76.8676V27.5001H73.7176C73.1571 27.5001 72.6432 27.3599 72.1762 27.0797C71.7224 26.7994 71.3621 26.4324 71.0951 25.9786L69.5137 23.136C69.3936 23.136 69.2668 23.136 69.1333 23.136C69.0132 23.136 68.8931 23.136 68.773 23.136H66.4108V27.5001H63.5482ZM66.4108 20.6137H69.4737C69.9274 20.6137 70.3411 20.5269 70.7148 20.3534C71.0885 20.1666 71.3821 19.8997 71.5956 19.5527C71.8225 19.2057 71.9359 18.792 71.9359 18.3116C71.9359 17.8311 71.8225 17.4174 71.5956 17.0704C71.3687 16.7234 71.0685 16.4632 70.6948 16.2897C70.3344 16.1028 69.9274 16.0094 69.4737 16.0094H66.4108V20.6137Z" fill="#FBFEF9"/>
<path d="M55.6756 27.5001C54.9015 27.5001 54.1942 27.3132 53.5536 26.9395C52.9264 26.5659 52.4259 26.0654 52.0522 25.4381C51.6785 24.7976 51.4917 24.0902 51.4917 23.3162C51.4917 22.7557 51.6118 22.2285 51.852 21.7347C52.0923 21.2409 52.4192 20.8072 52.8329 20.4335C52.4192 20.0598 52.0923 19.6261 51.852 19.1323C51.6118 18.6385 51.4917 18.118 51.4917 17.5709C51.4917 16.8102 51.6719 16.1229 52.0322 15.509C52.4059 14.8951 52.8997 14.4079 53.5136 14.0476C54.1408 13.6739 54.8281 13.4871 55.5755 13.4871H61.3408V16.0094H55.8958C55.6155 16.0094 55.3553 16.0828 55.1151 16.2296C54.8882 16.3631 54.7013 16.5499 54.5545 16.7901C54.4211 17.017 54.3544 17.2773 54.3544 17.5709C54.3544 17.8511 54.4211 18.1114 54.5545 18.3516C54.7013 18.5785 54.8882 18.7653 55.1151 18.9121C55.3553 19.0456 55.6155 19.1123 55.8958 19.1123H60.6602V21.6346H56.0159C55.7089 21.6346 55.4287 21.7147 55.1751 21.8748C54.9215 22.0217 54.7214 22.2218 54.5746 22.4754C54.4278 22.729 54.3544 23.0092 54.3544 23.3162C54.3544 23.6231 54.4278 23.9034 54.5746 24.157C54.7214 24.4105 54.9215 24.6107 55.1751 24.7575C55.4287 24.9043 55.7089 24.9777 56.0159 24.9777H61.3408V27.5001H55.6756Z" fill="#FBFEF9"/>
<path d="M175.096 27.1036V18.6158C175.096 17.428 175.343 16.407 175.837 15.5529C176.344 14.6855 177.031 14.0182 177.899 13.5511C178.779 13.084 179.787 12.8504 180.921 12.8504C182.056 12.8504 183.057 13.084 183.924 13.5511C184.805 14.0182 185.492 14.6855 185.986 15.5529C186.493 16.407 186.747 17.428 186.747 18.6158V27.1036H183.884V18.4356C183.884 17.8751 183.764 17.3613 183.524 16.8942C183.284 16.4271 182.943 16.0601 182.503 15.7931C182.062 15.5129 181.535 15.3728 180.921 15.3728C180.321 15.3728 179.794 15.5129 179.34 15.7931C178.9 16.0601 178.559 16.4271 178.319 16.8942C178.079 17.3613 177.959 17.8751 177.959 18.4356V27.1036H175.096Z" fill="#FBFEF9"/>
<path d="M165.849 27.3639C164.728 27.3639 163.713 27.1771 162.806 26.8034C161.912 26.4164 161.144 25.8893 160.504 25.222C159.863 24.5547 159.369 23.7806 159.022 22.8998C158.675 22.019 158.502 21.0781 158.502 20.0772C158.502 19.0763 158.675 18.1421 159.022 17.2746C159.369 16.3938 159.863 15.6198 160.504 14.9525C161.144 14.2852 161.912 13.7647 162.806 13.391C163.713 13.0173 164.728 12.8305 165.849 12.8305C166.97 12.8305 167.977 13.0173 168.871 13.391C169.779 13.7647 170.553 14.2852 171.194 14.9525C171.834 15.6198 172.328 16.3938 172.675 17.2746C173.022 18.1421 173.195 19.0763 173.195 20.0772C173.195 21.0781 173.022 22.019 172.675 22.8998C172.328 23.7806 171.834 24.5547 171.194 25.222C170.553 25.8893 169.779 26.4164 168.871 26.8034C167.977 27.1771 166.97 27.3639 165.849 27.3639ZM165.849 24.8216C166.489 24.8216 167.083 24.7082 167.63 24.4813C168.177 24.2411 168.651 23.9074 169.052 23.4804C169.465 23.0399 169.779 22.5328 169.992 21.9589C170.219 21.3851 170.333 20.7578 170.333 20.0772C170.333 19.3966 170.219 18.7693 169.992 18.1955C169.779 17.6216 169.465 17.1211 169.052 16.6941C168.651 16.267 168.177 15.94 167.63 15.7132C167.083 15.4729 166.489 15.3528 165.849 15.3528C165.208 15.3528 164.614 15.4729 164.067 15.7132C163.52 15.94 163.039 16.267 162.626 16.6941C162.225 17.1211 161.912 17.6216 161.685 18.1955C161.471 18.7693 161.364 19.3966 161.364 20.0772C161.364 20.7578 161.471 21.3851 161.685 21.9589C161.912 22.5328 162.225 23.0399 162.626 23.4804C163.039 23.9074 163.52 24.2411 164.067 24.4813C164.614 24.7082 165.208 24.8216 165.849 24.8216Z" fill="#FBFEF9"/>
<path d="M136.582 27.3636C135.448 27.3636 134.44 27.13 133.559 26.6629C132.692 26.1958 132.004 25.5352 131.497 24.6811C131.004 23.8136 130.757 22.786 130.757 21.5982V13.1104H133.619V21.7784C133.619 22.3389 133.739 22.8527 133.98 23.3198C134.22 23.7736 134.56 24.1406 135.001 24.4208C135.454 24.7011 135.981 24.8412 136.582 24.8412C137.196 24.8412 137.723 24.7011 138.164 24.4208C138.604 24.1406 138.944 23.7736 139.184 23.3198C139.425 22.8527 139.545 22.3389 139.545 21.7784V18.115H142.407V21.5982C142.407 22.786 142.154 23.8136 141.647 24.6811C141.153 25.5352 140.466 26.1958 139.585 26.6629C138.717 27.13 137.716 27.3636 136.582 27.3636Z" fill="#FBFEF9"/>
<path d="M139.545 21.7784V18.2952C139.545 17.1074 139.792 16.0864 140.285 15.2323C140.793 14.3649 141.48 13.6976 142.347 13.2305C143.228 12.7634 144.236 12.5298 145.37 12.5298C146.505 12.5298 147.505 12.7634 148.373 13.2305C149.254 13.6976 149.941 14.3649 150.435 15.2323C150.942 16.0864 151.196 17.1074 151.196 18.2952V27.2429H148.333V18.115C148.333 17.5545 148.213 17.0407 147.973 16.5736C147.732 16.1065 147.392 15.7395 146.952 15.4725C146.511 15.1923 145.984 15.0522 145.37 15.0522C144.77 15.0522 144.242 15.1923 143.789 15.4725C143.348 15.7395 143.008 16.1065 142.768 16.5736C142.528 17.0407 142.407 17.5545 142.407 18.115V21.7784L139.545 21.7784Z" fill="#FBFEF9"/>
<path d="M154.896 15.803C154.455 15.803 154.068 15.6428 153.735 15.3225C153.414 15.0023 153.254 14.6152 153.254 14.1615C153.254 13.7077 153.414 13.3207 153.735 13.0004C154.068 12.6668 154.455 12.4999 154.896 12.4999C155.349 12.4999 155.736 12.6668 156.057 13.0004C156.39 13.3207 156.557 13.7077 156.557 14.1615C156.557 14.6152 156.39 15.0023 156.057 15.3225C155.736 15.6428 155.349 15.803 154.896 15.803ZM156.437 27.3136C155.53 27.3136 154.816 27.0534 154.295 26.5329C153.788 26.0124 153.534 25.3051 153.534 24.411V17.1042H156.277V24.3309C156.277 24.5044 156.337 24.6579 156.457 24.7913C156.59 24.9114 156.744 24.9715 156.917 24.9715H157.538V27.3136H156.437Z" fill="#FBFEF9"/>
</svg>
