<svg width="100" height="50" viewBox="0 0 100 50" fill="none" xmlns="http://www.w3.org/2000/svg">
<path fill-rule="evenodd" clip-rule="evenodd" d="M72.2962 30.068C72.8321 30.068 73.2666 30.5025 73.2666 31.0384L73.2666 36.3473C73.2666 36.3473 71.8617 36.3473 71.3257 36.3473L71.3257 33.3813L66.5799 38.1246L70.6876 38.1246C70.6876 38.1246 70.6876 39.5295 70.6876 40.0654L64.2371 40.0655C63.7011 40.0655 63.2666 39.631 63.2666 39.095L63.2666 33.7862L65.2075 33.7862L65.2075 36.7522L69.9533 32.0089L66.9873 32.0089C66.9873 32.0089 66.9873 30.6039 66.9873 30.068L72.2962 30.068Z" fill="#8E53E8"/>
<path d="M2.26661 22.7458V14.2579C2.26661 13.0702 2.5135 12.0492 3.00729 11.1951C3.51443 10.3276 4.20173 9.66035 5.0692 9.19325C5.95002 8.72615 6.95762 8.4926 8.092 8.4926C9.22638 8.4926 10.2273 8.72615 11.0948 9.19325C11.9756 9.66035 12.6629 10.3276 13.1567 11.1951C13.6638 12.0492 13.9174 13.0702 13.9174 14.2579V22.7458H11.0547V14.0778C11.0547 13.5173 10.9346 13.0034 10.6944 12.5363C10.4542 12.0692 10.1139 11.7022 9.67346 11.4353C9.23306 11.1551 8.7059 11.0149 8.092 11.0149C7.49144 11.0149 6.96429 11.1551 6.51054 11.4353C6.07013 11.7022 5.72982 12.0692 5.48959 12.5363C5.24937 13.0034 5.12926 13.5173 5.12926 14.0778V22.7458H2.26661Z" fill="#8E53E8"/>
<path d="M11.0547 22.7458V14.2579C11.0547 13.0702 11.3016 12.0492 11.7954 11.1951C12.3026 10.3276 12.9899 9.66035 13.8573 9.19325C14.7381 8.72615 15.7457 8.4926 16.8801 8.4926C18.0145 8.4926 19.0154 8.72615 19.8829 9.19325C20.7637 9.66035 21.451 10.3276 21.9448 11.1951C22.4519 12.0492 22.7055 13.0702 22.7055 14.2579V22.7458H19.8429V14.0778C19.8429 13.5173 19.7228 13.0034 19.4825 12.5363C19.2423 12.0692 18.902 11.7022 18.4616 11.4353C18.0212 11.1551 17.494 11.0149 16.8801 11.0149C16.2796 11.0149 15.7524 11.1551 15.2987 11.4353C14.8583 11.7022 14.5179 12.0692 14.2777 12.5363C14.0375 13.0034 13.9174 13.5173 13.9174 14.0778L13.9174 22.7458H11.0547Z" fill="#8E53E8"/>
<path d="M92.068 22.8818C91.2939 22.8818 90.5866 22.695 89.946 22.3213C89.3187 21.9476 88.8183 21.4472 88.4446 20.8199C88.0709 20.1793 87.8841 19.472 87.8841 18.698C87.8841 18.1375 88.0042 17.6103 88.2444 17.1165C88.4846 16.6227 88.8116 16.189 89.2253 15.8153C88.8116 15.4416 88.4846 15.0079 88.2444 14.5141C88.0042 14.0203 87.8841 13.4998 87.8841 12.9527C87.8841 12.192 88.0643 11.5046 88.4246 10.8907C88.7983 10.2768 89.2921 9.78973 89.906 9.4294C90.5332 9.05572 91.2205 8.86888 91.9679 8.86888H97.7332V11.3912H92.2882C92.0079 11.3912 91.7477 11.4646 91.5074 11.6114C91.2806 11.7449 91.0937 11.9317 90.9469 12.1719C90.8135 12.3988 90.7467 12.6591 90.7467 12.9527C90.7467 13.2329 90.8135 13.4932 90.9469 13.7334C91.0937 13.9603 91.2806 14.1471 91.5074 14.2939C91.7477 14.4274 92.0079 14.4941 92.2882 14.4941H97.0526V17.0164H92.4083C92.1013 17.0164 91.8211 17.0965 91.5675 17.2566C91.3139 17.4034 91.1137 17.6036 90.9669 17.8572C90.8201 18.1108 90.7467 18.391 90.7467 18.698C90.7467 19.0049 90.8201 19.2852 90.9669 19.5387C91.1137 19.7923 91.3139 19.9925 91.5675 20.1393C91.8211 20.2861 92.1013 20.3595 92.4083 20.3595H97.7332V22.8818H92.068Z" fill="#8E53E8"/>
<path d="M84.1711 22.8818C83.3437 22.8818 82.6163 22.695 81.9891 22.3213C81.3618 21.9343 80.8747 21.4272 80.5277 20.7999C80.1808 20.1593 80.0073 19.4587 80.0073 18.698V11.3912H76.1036V8.86888H86.7735V11.3912H82.8699V19.0383C82.8699 19.3986 82.9967 19.7122 83.2503 19.9792C83.5038 20.2327 83.8108 20.3595 84.1711 20.3595H89.6321L92.3087 22.8818H84.1711Z" fill="#8E53E8"/>
<path d="M72.7575 11.3711C72.317 11.3711 71.93 11.2109 71.5964 10.8906C71.2761 10.5703 71.1159 10.1833 71.1159 9.72956C71.1159 9.27581 71.2761 8.88878 71.5964 8.56849C71.93 8.23484 72.317 8.06802 72.7575 8.06802C73.2112 8.06802 73.5982 8.23484 73.9185 8.56849C74.2522 8.88878 74.419 9.27581 74.419 9.72956C74.419 10.1833 74.2522 10.5703 73.9185 10.8906C73.5982 11.2109 73.2112 11.3711 72.7575 11.3711ZM74.2989 22.8817C73.3914 22.8817 72.6774 22.6215 72.1569 22.101C71.6498 21.5805 71.3962 20.8732 71.3962 19.979V12.6723H74.1387V19.899C74.1387 20.0725 74.1988 20.2259 74.3189 20.3594C74.4524 20.4795 74.6058 20.5396 74.7793 20.5396H75.3999V22.8817H74.2989Z" fill="#8E53E8"/>
<path d="M67.1828 22.8818C66.3553 22.8818 65.628 22.695 65.0007 22.3213C64.3735 21.9343 63.8864 21.4272 63.5394 20.7999C63.1924 20.1593 63.0189 19.4587 63.0189 18.698V11.3912H59.1153V8.86888H69.7852V11.3912H65.8815V19.0383C65.8815 19.3986 66.0083 19.7122 66.2619 19.9792C66.5155 20.2327 66.8224 20.3595 67.1828 20.3595H68.1837V22.8818H67.1828Z" fill="#8E53E8"/>
<path d="M49.8662 22.8818V20.3595H52.3886V11.3912H49.8662V8.86888H59.2396V11.3912H55.2512V20.3595H57.7736V22.8818H49.8662Z" fill="#8E53E8"/>
<path d="M36.5616 22.8818V8.86888H42.8274C43.7483 8.86888 44.5824 9.07574 45.3297 9.48945C46.0904 9.88982 46.691 10.4503 47.1314 11.171C47.5851 11.8917 47.812 12.7325 47.812 13.6933C47.812 14.6275 47.5918 15.455 47.1514 16.1756C46.711 16.883 46.1305 17.4435 45.4098 17.8572L46.691 20.0993C46.7444 20.1793 46.8111 20.2461 46.8912 20.2995C46.9712 20.3395 47.0647 20.3595 47.1714 20.3595H49.881V22.8818H46.731C46.1705 22.8818 45.6567 22.7417 45.1896 22.4615C44.7358 22.1812 44.3755 21.8142 44.1086 21.3604L42.5271 18.5178C42.407 18.5178 42.2802 18.5178 42.1468 18.5178C42.0267 18.5178 41.9065 18.5178 41.7864 18.5178H39.4243V22.8818H36.5616ZM39.4243 15.9955H42.4871C42.9408 15.9955 43.3546 15.9087 43.7282 15.7352C44.1019 15.5484 44.3955 15.2815 44.609 14.9345C44.8359 14.5875 44.9494 14.1738 44.9494 13.6933C44.9494 13.2129 44.8359 12.7992 44.609 12.4522C44.3822 12.1052 44.0819 11.845 43.7082 11.6715C43.3479 11.4846 42.9408 11.3912 42.4871 11.3912H39.4243V15.9955Z" fill="#8E53E8"/>
<path d="M28.689 22.8818C27.915 22.8818 27.2076 22.695 26.567 22.3213C25.9398 21.9476 25.4393 21.4472 25.0657 20.8199C24.692 20.1793 24.5051 19.472 24.5051 18.698C24.5051 18.1375 24.6253 17.6103 24.8655 17.1165C25.1057 16.6227 25.4327 16.189 25.8464 15.8153C25.4327 15.4416 25.1057 15.0079 24.8655 14.5141C24.6253 14.0203 24.5051 13.4998 24.5051 12.9527C24.5051 12.192 24.6853 11.5046 25.0456 10.8907C25.4193 10.2768 25.9131 9.78973 26.527 9.4294C27.1543 9.05572 27.8416 8.86888 28.5889 8.86888H34.3543V11.3912H28.9092C28.629 11.3912 28.3687 11.4646 28.1285 11.6114C27.9016 11.7449 27.7148 11.9317 27.568 12.1719C27.4345 12.3988 27.3678 12.6591 27.3678 12.9527C27.3678 13.2329 27.4345 13.4932 27.568 13.7334C27.7148 13.9603 27.9016 14.1471 28.1285 14.2939C28.3687 14.4274 28.629 14.4941 28.9092 14.4941H33.6736V17.0164H29.0293C28.7224 17.0164 28.4421 17.0965 28.1885 17.2566C27.935 17.4034 27.7348 17.6036 27.588 17.8572C27.4412 18.1108 27.3678 18.391 27.3678 18.698C27.3678 19.0049 27.4412 19.2852 27.588 19.5387C27.7348 19.7923 27.935 19.9925 28.1885 20.1393C28.4421 20.2861 28.7224 20.3595 29.0293 20.3595H34.3543V22.8818H28.689Z" fill="#8E53E8"/>
<path d="M46.6059 41.6717V33.1838C46.6059 31.996 46.8528 30.9751 47.3466 30.121C47.8538 29.2535 48.5411 28.5862 49.4085 28.1191C50.2894 27.652 51.297 27.4185 52.4313 27.4185C53.5657 27.4185 54.5666 27.652 55.4341 28.1191C56.3149 28.5862 57.0022 29.2535 57.496 30.121C58.0032 30.9751 58.2567 31.996 58.2567 33.1838V41.6717H55.3941V33.0036C55.3941 32.4431 55.274 31.9293 55.0337 31.4622C54.7935 30.9951 54.4532 30.6281 54.0128 30.3612C53.5724 30.0809 53.0452 29.9408 52.4313 29.9408C51.8308 29.9408 51.3036 30.0809 50.8499 30.3612C50.4095 30.6281 50.0692 30.9951 49.8289 31.4622C49.5887 31.9293 49.4686 32.4431 49.4686 33.0036V41.6717H46.6059Z" fill="#8E53E8"/>
<path d="M37.3586 41.932C36.2375 41.932 35.2232 41.7451 34.3157 41.3715C33.4216 40.9844 32.6542 40.4573 32.0136 39.79C31.373 39.1227 30.8792 38.3487 30.5322 37.4679C30.1853 36.587 30.0118 35.6462 30.0118 34.6452C30.0118 33.6443 30.1853 32.7101 30.5322 31.8427C30.8792 30.9618 31.373 30.1878 32.0136 29.5205C32.6542 28.8532 33.4216 28.3327 34.3157 27.9591C35.2232 27.5854 36.2375 27.3985 37.3586 27.3985C38.4796 27.3985 39.4872 27.5854 40.3813 27.9591C41.2889 28.3327 42.0629 28.8532 42.7035 29.5205C43.3441 30.1878 43.8379 30.9618 44.1849 31.8427C44.5319 32.7101 44.7053 33.6443 44.7053 34.6452C44.7053 35.6462 44.5319 36.587 44.1849 37.4679C43.8379 38.3487 43.3441 39.1227 42.7035 39.79C42.0629 40.4573 41.2889 40.9844 40.3813 41.3715C39.4872 41.7451 38.4796 41.932 37.3586 41.932ZM37.3586 39.3896C37.9991 39.3896 38.593 39.2762 39.1402 39.0493C39.6874 38.8091 40.1611 38.4755 40.5615 38.0484C40.9752 37.608 41.2889 37.1009 41.5024 36.527C41.7293 35.9531 41.8427 35.3259 41.8427 34.6452C41.8427 33.9646 41.7293 33.3374 41.5024 32.7635C41.2889 32.1896 40.9752 31.6892 40.5615 31.2621C40.1611 30.8351 39.6874 30.5081 39.1402 30.2812C38.593 30.041 37.9991 29.9209 37.3586 29.9209C36.718 29.9209 36.1241 30.041 35.5769 30.2812C35.0297 30.5081 34.5493 30.8351 34.1356 31.2621C33.7352 31.6892 33.4216 32.1896 33.1947 32.7635C32.9812 33.3374 32.8744 33.9646 32.8744 34.6452C32.8744 35.3259 32.9812 35.9531 33.1947 36.527C33.4216 37.1009 33.7352 37.608 34.1356 38.0484C34.5493 38.4755 35.0297 38.8091 35.5769 39.0493C36.1241 39.2762 36.718 39.3896 37.3586 39.3896Z" fill="#8E53E8"/>
<path d="M8.09199 41.9316C6.95761 41.9316 5.95001 41.698 5.06919 41.2309C4.20173 40.7639 3.51442 40.1032 3.00729 39.2491C2.5135 38.3816 2.2666 37.354 2.2666 36.1663V27.6784H5.12925V36.3464C5.12925 36.9069 5.24937 37.4208 5.48959 37.8879C5.72981 38.3416 6.07012 38.7086 6.51053 38.9889C6.96428 39.2691 7.49144 39.4093 8.09199 39.4093C8.70589 39.4093 9.23305 39.2691 9.67346 38.9889C10.1139 38.7086 10.4542 38.3416 10.6944 37.8879C10.9346 37.4208 11.0547 36.9069 11.0547 36.3464V32.683H13.9174V36.1663C13.9174 37.354 13.6638 38.3816 13.1567 39.2491C12.6629 40.1032 11.9756 40.7639 11.0948 41.2309C10.2273 41.698 9.22637 41.9316 8.09199 41.9316Z" fill="#8E53E8"/>
<path d="M11.0547 36.3464V32.8632C11.0547 31.6754 11.3016 30.6545 11.7954 29.8004C12.3026 28.9329 12.9899 28.2656 13.8573 27.7985C14.7381 27.3314 15.7457 27.0979 16.8801 27.0979C18.0145 27.0979 19.0154 27.3314 19.8829 27.7985C20.7637 28.2656 21.451 28.9329 21.9448 29.8004C22.4519 30.6545 22.7055 31.6754 22.7055 32.8632V41.811H19.8429V32.683C19.8429 32.1225 19.7228 31.6087 19.4825 31.1416C19.2423 30.6745 18.902 30.3075 18.4616 30.0406C18.0212 29.7603 17.494 29.6202 16.8801 29.6202C16.2796 29.6202 15.7524 29.7603 15.2987 30.0406C14.8582 30.3075 14.5179 30.6745 14.2777 31.1416C14.0375 31.6087 13.9174 32.1225 13.9174 32.683L13.9174 36.3464L11.0547 36.3464Z" fill="#8E53E8"/>
<path d="M26.4055 30.371C25.9651 30.371 25.5781 30.2109 25.2445 29.8906C24.9242 29.5703 24.764 29.1833 24.764 28.7295C24.764 28.2758 24.9242 27.8887 25.2445 27.5684C25.5781 27.2348 25.9651 27.068 26.4055 27.068C26.8593 27.068 27.2463 27.2348 27.5666 27.5684C27.9002 27.8887 28.0671 28.2758 28.0671 28.7295C28.0671 29.1833 27.9002 29.5703 27.5666 29.8906C27.2463 30.2109 26.8593 30.371 26.4055 30.371ZM27.947 41.8817C27.0394 41.8817 26.3255 41.6214 25.805 41.101C25.2978 40.5805 25.0443 39.8732 25.0443 38.979V31.6722H27.7868V38.8989C27.7868 39.0724 27.8469 39.2259 27.967 39.3593C28.1004 39.4795 28.2539 39.5395 28.4274 39.5395H29.048V41.8817H27.947Z" fill="#8E53E8"/>
</svg>
