<svg width="76" height="32" viewBox="0 0 76 32" fill="none" xmlns="http://www.w3.org/2000/svg">
<path fill-rule="evenodd" clip-rule="evenodd" d="M55.8071 17.0001C56.3431 17.0001 56.7776 17.4345 56.7776 17.9705L56.7776 23.2793C56.7776 23.2793 55.3727 23.2793 54.8367 23.2793L54.8367 20.3133L50.0909 25.0567L54.1986 25.0566C54.1986 25.0566 54.1986 26.4615 54.1986 26.9975L47.748 26.9975C47.2121 26.9975 46.7776 26.563 46.7776 26.0271L46.7776 20.7183L48.7185 20.7183L48.7185 23.6843L53.4643 18.9409L50.4983 18.9409C50.4983 18.9409 50.4983 17.536 50.4983 17L55.8071 17.0001Z" fill="#8E53E8"/>
<path d="M5.77759 14.9083V9.17856C5.77759 8.37676 5.94425 7.68757 6.27759 7.11099C6.61993 6.52541 7.08389 6.07496 7.66948 5.75964C8.26407 5.44433 8.94426 5.28667 9.71002 5.28667C10.4758 5.28667 11.1515 5.44433 11.737 5.75964C12.3316 6.07496 12.7956 6.52541 13.1289 7.11099C13.4713 7.68757 13.6425 8.37676 13.6425 9.17856V14.9083H11.71V9.05694C11.71 8.67856 11.6289 8.33172 11.4668 8.0164C11.3046 7.70108 11.0749 7.45334 10.7776 7.27316C10.4803 7.08397 10.1244 6.98937 9.71002 6.98937C9.30462 6.98937 8.94876 7.08397 8.64246 7.27316C8.34516 7.45334 8.11543 7.70108 7.95327 8.0164C7.7911 8.33172 7.71002 8.67856 7.71002 9.05694V14.9083H5.77759Z" fill="#8E53E8"/>
<path d="M11.71 14.9083V9.17856C11.71 8.37676 11.8767 7.68757 12.21 7.11099C12.5524 6.52541 13.0163 6.07496 13.6019 5.75964C14.1965 5.44433 14.8767 5.28667 15.6425 5.28667C16.4082 5.28667 17.0839 5.44433 17.6695 5.75964C18.2641 6.07496 18.728 6.52541 19.0614 7.11099C19.4037 7.68757 19.5749 8.37676 19.5749 9.17856V14.9083H17.6424V9.05694C17.6424 8.67856 17.5614 8.33172 17.3992 8.0164C17.237 7.70108 17.0073 7.45334 16.71 7.27316C16.4127 7.08397 16.0569 6.98937 15.6425 6.98937C15.237 6.98937 14.8812 7.08397 14.5749 7.27316C14.2776 7.45334 14.0479 7.70108 13.8857 8.0164C13.7235 8.33172 13.6424 8.67856 13.6424 9.05694L13.6425 14.9083H11.71Z" fill="#8E53E8"/>
<path d="M66.398 15.0001C65.8755 15.0001 65.3981 14.874 64.9656 14.6218C64.5422 14.3695 64.2044 14.0317 63.9521 13.6082C63.6999 13.1758 63.5737 12.6983 63.5737 12.1758C63.5737 11.7974 63.6548 11.4416 63.817 11.1082C63.9791 10.7749 64.1999 10.4821 64.4791 10.2299C64.1999 9.97761 63.9791 9.68481 63.817 9.35148C63.6548 9.01815 63.5737 8.6668 63.5737 8.29743C63.5737 7.78391 63.6953 7.31995 63.9386 6.90553C64.1908 6.49112 64.5242 6.16229 64.9386 5.91905C65.362 5.6668 65.826 5.54067 66.3305 5.54067H70.2224V7.24337H66.5467C66.3575 7.24337 66.1818 7.29292 66.0197 7.39202C65.8665 7.48211 65.7404 7.60824 65.6413 7.7704C65.5512 7.92355 65.5062 8.09923 65.5062 8.29743C65.5062 8.48662 65.5512 8.66229 65.6413 8.82445C65.7404 8.97761 65.8665 9.10373 66.0197 9.20283C66.1818 9.29292 66.3575 9.33797 66.5467 9.33797H69.7629V11.0407H66.6278C66.4206 11.0407 66.2314 11.0947 66.0602 11.2028C65.889 11.3019 65.7539 11.4371 65.6548 11.6082C65.5557 11.7794 65.5062 11.9686 65.5062 12.1758C65.5062 12.383 65.5557 12.5722 65.6548 12.7434C65.7539 12.9145 65.889 13.0497 66.0602 13.1488C66.2314 13.2479 66.4206 13.2974 66.6278 13.2974H70.2224V15.0001H66.398Z" fill="#8E53E8"/>
<path d="M61.0673 15.0001C60.5087 15.0001 60.0177 14.874 59.5943 14.6218C59.1709 14.3605 58.842 14.0181 58.6078 13.5947C58.3736 13.1623 58.2565 12.6893 58.2565 12.1758V7.24337H55.6213V5.54067H62.824V7.24337H60.1889V12.4055C60.1889 12.6488 60.2745 12.8605 60.4456 13.0407C60.6168 13.2118 60.824 13.2974 61.0673 13.2974H64.7537L66.5606 15.0001H61.0673Z" fill="#8E53E8"/>
<path d="M53.3625 7.22979C53.0652 7.22979 52.8039 7.12168 52.5787 6.90547C52.3625 6.68925 52.2544 6.42799 52.2544 6.12168C52.2544 5.81538 52.3625 5.55411 52.5787 5.3379C52.8039 5.11267 53.0652 5.00006 53.3625 5.00006C53.6688 5.00006 53.9301 5.11267 54.1463 5.3379C54.3715 5.55411 54.4841 5.81538 54.4841 6.12168C54.4841 6.42799 54.3715 6.68925 54.1463 6.90547C53.9301 7.12168 53.6688 7.22979 53.3625 7.22979ZM54.403 15.0001C53.7904 15.0001 53.3084 14.8244 52.9571 14.473C52.6147 14.1217 52.4436 13.6442 52.4436 13.0406V8.10817H54.2949V12.9865C54.2949 13.1037 54.3355 13.2073 54.4165 13.2974C54.5066 13.3784 54.6102 13.419 54.7273 13.419H55.1463V15.0001H54.403Z" fill="#8E53E8"/>
<path d="M49.5993 15.0001C49.0407 15.0001 48.5497 14.874 48.1263 14.6218C47.7029 14.3605 47.3741 14.0181 47.1398 13.5947C46.9056 13.1623 46.7885 12.6893 46.7885 12.1758V7.24337H44.1533V5.54067H51.356V7.24337H48.7209V12.4055C48.7209 12.6488 48.8065 12.8605 48.9777 13.0407C49.1488 13.2118 49.356 13.2974 49.5993 13.2974H50.275V15.0001H49.5993Z" fill="#8E53E8"/>
<path d="M37.9098 15.0001V13.2974H39.6125V7.24337H37.9098V5.54067H44.2373V7.24337H41.5449V13.2974H43.2476V15.0001H37.9098Z" fill="#8E53E8"/>
<path d="M28.9285 15.0001V5.54067H33.1582C33.7798 5.54067 34.3429 5.68031 34.8474 5.95959C35.3609 6.22986 35.7663 6.60824 36.0636 7.09472C36.3699 7.58121 36.5231 8.14878 36.5231 8.79743C36.5231 9.42806 36.3744 9.98662 36.0771 10.4731C35.7798 10.9506 35.3879 11.329 34.9014 11.6082L35.7663 13.1218C35.8023 13.1758 35.8474 13.2209 35.9014 13.2569C35.9555 13.2839 36.0185 13.2974 36.0906 13.2974H37.9198V15.0001H35.7933C35.4149 15.0001 35.0681 14.9055 34.7528 14.7163C34.4465 14.5272 34.2032 14.2794 34.0231 13.9731L32.9555 12.0542C32.8744 12.0542 32.7888 12.0542 32.6987 12.0542C32.6176 12.0542 32.5366 12.0542 32.4555 12.0542H30.8609V15.0001H28.9285ZM30.8609 10.3515H32.9285C33.2348 10.3515 33.514 10.2929 33.7663 10.1758C34.0186 10.0497 34.2167 9.8695 34.3609 9.63527C34.514 9.40103 34.5906 9.12175 34.5906 8.79743C34.5906 8.4731 34.514 8.19382 34.3609 7.95959C34.2077 7.72535 34.005 7.54968 33.7528 7.43256C33.5095 7.30644 33.2348 7.24337 32.9285 7.24337H30.8609V10.3515Z" fill="#8E53E8"/>
<path d="M23.614 15.0001C23.0915 15.0001 22.614 14.874 22.1816 14.6218C21.7582 14.3695 21.4204 14.0317 21.1681 13.6082C20.9158 13.1758 20.7897 12.6983 20.7897 12.1758C20.7897 11.7974 20.8708 11.4416 21.033 11.1082C21.1951 10.7749 21.4158 10.4821 21.6951 10.2299C21.4158 9.97761 21.1951 9.68481 21.033 9.35148C20.8708 9.01815 20.7897 8.6668 20.7897 8.29743C20.7897 7.78391 20.9113 7.31995 21.1546 6.90553C21.4068 6.49112 21.7402 6.16229 22.1546 5.91905C22.578 5.6668 23.042 5.54067 23.5465 5.54067H27.4384V7.24337H23.7627C23.5735 7.24337 23.3978 7.29292 23.2357 7.39202C23.0825 7.48211 22.9564 7.60824 22.8573 7.7704C22.7672 7.92355 22.7222 8.09923 22.7222 8.29743C22.7222 8.48662 22.7672 8.66229 22.8573 8.82445C22.9564 8.97761 23.0825 9.10373 23.2357 9.20283C23.3978 9.29292 23.5735 9.33797 23.7627 9.33797H26.9789V11.0407H23.8438C23.6366 11.0407 23.4474 11.0947 23.2762 11.2028C23.105 11.3019 22.9699 11.4371 22.8708 11.6082C22.7717 11.7794 22.7222 11.9686 22.7222 12.1758C22.7222 12.383 22.7717 12.5722 22.8708 12.7434C22.9699 12.9145 23.105 13.0497 23.2762 13.1488C23.4474 13.2479 23.6366 13.2974 23.8438 13.2974H27.4384V15.0001H23.614Z" fill="#8E53E8"/>
<path d="M35.6074 26.8248V21.1145C35.6074 20.3155 35.7735 19.6286 36.1057 19.054C36.4469 18.4704 36.9092 18.0215 37.4928 17.7072C38.0854 17.393 38.7633 17.2358 39.5265 17.2358C40.2896 17.2358 40.963 17.393 41.5466 17.7072C42.1392 18.0215 42.6016 18.4704 42.9338 19.054C43.275 19.6286 43.4456 20.3155 43.4456 21.1145V26.8248H41.5197V20.9933C41.5197 20.6162 41.4389 20.2706 41.2773 19.9563C41.1157 19.6421 40.8867 19.3952 40.5904 19.2156C40.2941 19.027 39.9395 18.9328 39.5265 18.9328C39.1224 18.9328 38.7678 19.027 38.4625 19.2156C38.1662 19.3952 37.9373 19.6421 37.7757 19.9563C37.6141 20.2706 37.5333 20.6162 37.5333 20.9933V26.8248H35.6074Z" fill="#8E53E8"/>
<path d="M29.3861 27C28.6319 27 27.9495 26.8743 27.339 26.6229C26.7374 26.3625 26.2212 26.0078 25.7902 25.5589C25.3592 25.11 25.027 24.5892 24.7936 23.9967C24.5602 23.4041 24.4434 22.7711 24.4434 22.0977C24.4434 21.4243 24.5602 20.7958 24.7936 20.2122C25.027 19.6197 25.3592 19.0989 25.7902 18.65C26.2212 18.2011 26.7374 17.8509 27.339 17.5995C27.9495 17.3481 28.6319 17.2224 29.3861 17.2224C30.1403 17.2224 30.8181 17.3481 31.4197 17.5995C32.0302 17.8509 32.551 18.2011 32.982 18.65C33.4129 19.0989 33.7451 19.6197 33.9786 20.2122C34.212 20.7958 34.3287 21.4243 34.3287 22.0977C34.3287 22.7711 34.212 23.4041 33.9786 23.9967C33.7451 24.5892 33.4129 25.11 32.982 25.5589C32.551 26.0078 32.0302 26.3625 31.4197 26.6229C30.8181 26.8743 30.1403 27 29.3861 27ZM29.3861 25.2896C29.817 25.2896 30.2166 25.2132 30.5847 25.0606C30.9528 24.899 31.2716 24.6745 31.5409 24.3872C31.8192 24.0909 32.0302 23.7498 32.1739 23.3637C32.3265 22.9776 32.4028 22.5556 32.4028 22.0977C32.4028 21.6398 32.3265 21.2178 32.1739 20.8318C32.0302 20.4457 31.8192 20.109 31.5409 19.8217C31.2716 19.5344 30.9528 19.3144 30.5847 19.1618C30.2166 19.0002 29.817 18.9194 29.3861 18.9194C28.9551 18.9194 28.5556 19.0002 28.1875 19.1618C27.8193 19.3144 27.4961 19.5344 27.2178 19.8217C26.9484 20.109 26.7374 20.4457 26.5848 20.8318C26.4411 21.2178 26.3693 21.6398 26.3693 22.0977C26.3693 22.5556 26.4411 22.9776 26.5848 23.3637C26.7374 23.7498 26.9484 24.0909 27.2178 24.3872C27.4961 24.6745 27.8193 24.899 28.1875 25.0606C28.5556 25.2132 28.9551 25.2896 29.3861 25.2896Z" fill="#8E53E8"/>
<path d="M9.69668 26.9997C8.93352 26.9997 8.25564 26.8426 7.66306 26.5283C7.07946 26.2141 6.61707 25.7696 6.27589 25.195C5.94369 24.6114 5.77759 23.9201 5.77759 23.121V17.4107H7.70347V23.2422C7.70347 23.6193 7.78428 23.965 7.94589 24.2792C8.1075 24.5845 8.33645 24.8314 8.63274 25.0199C8.93801 25.2085 9.29265 25.3028 9.69668 25.3028C10.1097 25.3028 10.4643 25.2085 10.7606 25.0199C11.0569 24.8314 11.2859 24.5845 11.4475 24.2792C11.6091 23.965 11.6899 23.6193 11.6899 23.2422V20.7776H13.6158V23.121C13.6158 23.9201 13.4452 24.6114 13.104 25.195C12.7718 25.7696 12.3094 26.2141 11.7168 26.5283C11.1332 26.8426 10.4599 26.9997 9.69668 26.9997Z" fill="#8E53E8"/>
<path d="M11.6899 23.2422V20.8988C11.6899 20.0997 11.856 19.4129 12.1882 18.8383C12.5294 18.2547 12.9918 17.8057 13.5754 17.4915C14.168 17.1773 14.8458 17.0201 15.609 17.0201C16.3722 17.0201 17.0455 17.1773 17.6291 17.4915C18.2217 17.8057 18.6841 18.2547 19.0163 18.8383C19.3575 19.4129 19.5281 20.0997 19.5281 20.8988V26.9185H17.6022V20.7776C17.6022 20.4005 17.5214 20.0548 17.3598 19.7406C17.1982 19.4264 16.9692 19.1794 16.6729 18.9999C16.3767 18.8113 16.022 18.7171 15.609 18.7171C15.205 18.7171 14.8503 18.8113 14.545 18.9999C14.2488 19.1794 14.0198 19.4264 13.8582 19.7406C13.6966 20.0548 13.6158 20.4005 13.6158 20.7776L13.6158 23.2422L11.6899 23.2422Z" fill="#8E53E8"/>
<path d="M22.0173 19.2222C21.721 19.2222 21.4607 19.1145 21.2362 18.899C21.0207 18.6835 20.913 18.4231 20.913 18.1178C20.913 17.8126 21.0207 17.5522 21.2362 17.3367C21.4607 17.1123 21.721 17 22.0173 17C22.3226 17 22.583 17.1123 22.7984 17.3367C23.0229 17.5522 23.1351 17.8126 23.1351 18.1178C23.1351 18.4231 23.0229 18.6835 22.7984 18.899C22.583 19.1145 22.3226 19.2222 22.0173 19.2222ZM23.0543 26.9661C22.4438 26.9661 21.9634 26.791 21.6133 26.4409C21.2721 26.0907 21.1015 25.6149 21.1015 25.0133V20.0976H22.9466V24.9594C22.9466 25.0762 22.987 25.1794 23.0678 25.2692C23.1576 25.35 23.2608 25.3904 23.3776 25.3904H23.7951V26.9661H23.0543Z" fill="#8E53E8"/>
</svg>
