<svg width="125" height="25" viewBox="0 0 125 25" fill="none" xmlns="http://www.w3.org/2000/svg">
<path d="M27.43 8.49996C27.1539 8.49996 26.9015 8.43329 26.6729 8.29996C26.4491 8.16663 26.2705 7.98806 26.1372 7.76425C26.0039 7.53568 25.9372 7.2833 25.9372 7.0071C25.9372 6.8071 25.98 6.61901 26.0658 6.44282C26.1515 6.26663 26.2681 6.11187 26.4158 5.97853C26.2681 5.8452 26.1515 5.69044 26.0658 5.51425C25.98 5.33806 25.9372 5.15234 25.9372 4.9571C25.9372 4.68568 26.0015 4.44044 26.13 4.22139C26.2634 4.00234 26.4396 3.82853 26.6586 3.69996C26.8824 3.56663 27.1277 3.49996 27.3943 3.49996H29.4515V4.39996H27.5086C27.4086 4.39996 27.3158 4.42615 27.23 4.47853C27.1491 4.52615 27.0824 4.59282 27.03 4.67853C26.9824 4.75949 26.9586 4.85234 26.9586 4.9571C26.9586 5.0571 26.9824 5.14996 27.03 5.23568C27.0824 5.31663 27.1491 5.3833 27.23 5.43568C27.3158 5.4833 27.4086 5.5071 27.5086 5.5071H29.2086V6.4071H27.5515C27.4419 6.4071 27.3419 6.43568 27.2515 6.49282C27.161 6.5452 27.0896 6.61663 27.0372 6.7071C26.9848 6.79758 26.9586 6.89758 26.9586 7.0071C26.9586 7.11663 26.9848 7.21663 27.0372 7.3071C27.0896 7.39758 27.161 7.46901 27.2515 7.52139C27.3419 7.57377 27.4419 7.59996 27.5515 7.59996H29.4515V8.49996H27.43Z" fill="#8E53E8"/>
<path d="M20.9199 8.49996V3.49996H21.9413V5.5071H24.127V3.49996H25.1485V8.49996H24.127V6.4071H21.9413V8.49996H20.9199Z" fill="#8E53E8"/>
<path d="M19.3808 8.49996C19.0855 8.49996 18.826 8.43329 18.6022 8.29996C18.3784 8.16187 18.2046 7.98091 18.0808 7.7571C17.957 7.52853 17.8951 7.27853 17.8951 7.0071V4.39996H16.5022V3.49996H20.3093V4.39996H18.9165V7.12853C18.9165 7.2571 18.9617 7.36901 19.0522 7.46425C19.1427 7.55472 19.2522 7.59996 19.3808 7.59996H21.0439L20.9848 8.49996H19.3808Z" fill="#8E53E8"/>
<path fill-rule="evenodd" clip-rule="evenodd" d="M12.5317 11.5C13.0677 11.5 13.5022 11.9345 13.5022 12.4704L13.5022 17.7792C13.5022 17.7792 12.0973 17.7793 11.5613 17.7793L11.5613 14.8133L6.81548 19.5566L10.9232 19.5566C10.9232 19.5566 10.9232 20.9615 10.9232 21.4974L4.47266 21.4974C3.9367 21.4974 3.50222 21.063 3.50222 20.527L3.5022 15.2182L5.44306 15.2182L5.44308 18.1842L10.1889 13.4409L7.22291 13.4409C7.22291 13.4409 7.22291 12.0359 7.2229 11.5L12.5317 11.5Z" fill="#8E53E8"/>
<path d="M16.5022 21.4093V15.7508C16.5022 14.9589 16.6668 14.2783 16.996 13.7089C17.3341 13.1306 17.7923 12.6857 18.3706 12.3743C18.9578 12.0629 19.6295 11.9072 20.3858 11.9072C21.142 11.9072 21.8093 12.0629 22.3876 12.3743C22.9749 12.6857 23.4331 13.1306 23.7622 13.7089C24.1003 14.2783 24.2694 14.9589 24.2694 15.7508V21.4093H22.3609V15.6307C22.3609 15.257 22.2809 14.9144 22.1207 14.603C21.9606 14.2916 21.7337 14.047 21.4401 13.869C21.1465 13.6822 20.7951 13.5888 20.3858 13.5888C19.9854 13.5888 19.634 13.6822 19.3315 13.869C19.0379 14.047 18.811 14.2916 18.6509 14.603C18.4907 14.9144 18.4106 15.257 18.4106 15.6307V21.4093H16.5022Z" fill="#8E53E8"/>
<path d="M22.3609 21.4093V15.7508C22.3609 14.9589 22.5255 14.2783 22.8547 13.7089C23.1928 13.1306 23.651 12.6857 24.2293 12.3743C24.8166 12.0629 25.4883 11.9072 26.2445 11.9072C27.0008 11.9072 27.6681 12.0629 28.2464 12.3743C28.8336 12.6857 29.2918 13.1306 29.621 13.7089C29.9591 14.2783 30.1281 14.9589 30.1281 15.7508V21.4093H28.2197V15.6307C28.2197 15.257 28.1396 14.9144 27.9795 14.603C27.8193 14.2916 27.5925 14.047 27.2989 13.869C27.0052 13.6822 26.6538 13.5888 26.2445 13.5888C25.8442 13.5888 25.4927 13.6822 25.1902 13.869C24.8966 14.047 24.6698 14.2916 24.5096 14.603C24.3495 14.9144 24.2694 15.257 24.2694 15.6307L24.2694 21.4093H22.3609Z" fill="#8E53E8"/>
<path d="M76.3698 21.5C75.8537 21.5 75.3822 21.3755 74.9551 21.1264C74.537 20.8772 74.2033 20.5436 73.9542 20.1254C73.7051 19.6984 73.5805 19.2268 73.5805 18.7108C73.5805 18.3371 73.6606 17.9857 73.8207 17.6565C73.9809 17.3273 74.1989 17.0381 74.4747 16.789C74.1989 16.5399 73.9809 16.2507 73.8207 15.9215C73.6606 15.5923 73.5805 15.2454 73.5805 14.8806C73.5805 14.3734 73.7006 13.9152 73.9409 13.506C74.19 13.0967 74.5192 12.772 74.9284 12.5317C75.3466 12.2826 75.8048 12.1581 76.303 12.1581H80.1466V13.8396H76.5166C76.3297 13.8396 76.1562 13.8885 75.9961 13.9864C75.8448 14.0754 75.7203 14.1999 75.6224 14.3601C75.5334 14.5113 75.489 14.6848 75.489 14.8806C75.489 15.0674 75.5334 15.2409 75.6224 15.4011C75.7203 15.5523 75.8448 15.6769 75.9961 15.7747C76.1562 15.8637 76.3297 15.9082 76.5166 15.9082H79.6928V17.5897H76.5966C76.392 17.5897 76.2052 17.6431 76.0361 17.7499C75.8671 17.8478 75.7336 17.9812 75.6358 18.1503C75.5379 18.3193 75.489 18.5062 75.489 18.7108C75.489 18.9154 75.5379 19.1023 75.6358 19.2713C75.7336 19.4404 75.8671 19.5738 76.0361 19.6717C76.2052 19.7695 76.392 19.8185 76.5966 19.8185H80.1466V21.5H76.3698Z" fill="#8E53E8"/>
<path d="M71.1052 21.5C70.5536 21.5 70.0687 21.3755 69.6505 21.1264C69.2324 20.8683 68.9076 20.5302 68.6763 20.1121C68.445 19.685 68.3293 19.2179 68.3293 18.7108V13.8396H65.7269V12.1581H72.8401V13.8396H70.2377V18.9377C70.2377 19.1779 70.3223 19.387 70.4913 19.5649C70.6603 19.734 70.865 19.8185 71.1052 19.8185H74.7459L76.5303 21.5H71.1052Z" fill="#8E53E8"/>
<path d="M63.4961 13.8262C63.2025 13.8262 62.9445 13.7194 62.7221 13.5059C62.5085 13.2924 62.4018 13.0344 62.4018 12.7319C62.4018 12.4294 62.5085 12.1713 62.7221 11.9578C62.9445 11.7354 63.2025 11.6242 63.4961 11.6242C63.7986 11.6242 64.0566 11.7354 64.2702 11.9578C64.4926 12.1713 64.6038 12.4294 64.6038 12.7319C64.6038 13.0344 64.4926 13.2924 64.2702 13.5059C64.0566 13.7194 63.7986 13.8262 63.4961 13.8262ZM64.5237 21.5C63.9187 21.5 63.4427 21.3265 63.0957 20.9795C62.7576 20.6325 62.5886 20.1609 62.5886 19.5648V14.6937H64.417V19.5115C64.417 19.6271 64.457 19.7294 64.5371 19.8184C64.626 19.8985 64.7284 19.9385 64.844 19.9385H65.2577V21.5H64.5237Z" fill="#8E53E8"/>
<path d="M59.7796 21.5C59.228 21.5 58.7431 21.3755 58.325 21.1264C57.9068 20.8683 57.5821 20.5302 57.3507 20.1121C57.1194 19.685 57.0037 19.2179 57.0037 18.7108V13.8396H54.4013V12.1581H61.5146V13.8396H58.9122V18.9377C58.9122 19.1779 58.9967 19.387 59.1657 19.5649C59.3348 19.734 59.5394 19.8185 59.7796 19.8185H60.4469V21.5H59.7796Z" fill="#8E53E8"/>
<path d="M48.2353 21.5V19.8185H49.9169V13.8396H48.2353V12.1581H54.4842V13.8396H51.8253V19.8185H53.5068V21.5H48.2353Z" fill="#8E53E8"/>
<path d="M39.3655 21.5V12.1581H43.5427C44.1566 12.1581 44.7127 12.296 45.2109 12.5718C45.7181 12.8387 46.1184 13.2124 46.4121 13.6928C46.7146 14.1733 46.8658 14.7338 46.8658 15.3744C46.8658 15.9972 46.719 16.5488 46.4254 17.0292C46.1318 17.5008 45.7448 17.8745 45.2643 18.1503L46.1184 19.645C46.154 19.6984 46.1985 19.7429 46.2519 19.7784C46.3053 19.8051 46.3676 19.8185 46.4387 19.8185H48.2452V21.5H46.1451C45.7715 21.5 45.4289 21.4066 45.1175 21.2198C44.815 21.0329 44.5748 20.7883 44.3969 20.4858L43.3425 18.5907C43.2625 18.5907 43.1779 18.5907 43.089 18.5907C43.0089 18.5907 42.9288 18.5907 42.8488 18.5907H41.274V21.5H39.3655ZM41.274 16.9091H43.3159C43.6184 16.9091 43.8942 16.8513 44.1433 16.7356C44.3924 16.6111 44.5881 16.4331 44.7305 16.2018C44.8817 15.9705 44.9574 15.6947 44.9574 15.3744C44.9574 15.0541 44.8817 14.7783 44.7305 14.5469C44.5792 14.3156 44.3791 14.1421 44.1299 14.0265C43.8897 13.9019 43.6184 13.8396 43.3159 13.8396H41.274V16.9091Z" fill="#8E53E8"/>
<path d="M34.1171 21.5C33.6011 21.5 33.1296 21.3755 32.7025 21.1264C32.2843 20.8772 31.9507 20.5436 31.7016 20.1254C31.4525 19.6984 31.3279 19.2268 31.3279 18.7108C31.3279 18.3371 31.408 17.9857 31.5681 17.6565C31.7283 17.3273 31.9462 17.0381 32.2221 16.789C31.9462 16.5399 31.7283 16.2507 31.5681 15.9215C31.408 15.5923 31.3279 15.2454 31.3279 14.8806C31.3279 14.3734 31.448 13.9152 31.6882 13.506C31.9373 13.0967 32.2665 12.772 32.6758 12.5317C33.094 12.2826 33.5522 12.1581 34.0504 12.1581H37.894V13.8396H34.2639C34.0771 13.8396 33.9036 13.8885 33.7435 13.9864C33.5922 14.0754 33.4677 14.1999 33.3698 14.3601C33.2808 14.5113 33.2363 14.6848 33.2363 14.8806C33.2363 15.0674 33.2808 15.2409 33.3698 15.4011C33.4677 15.5523 33.5922 15.6769 33.7435 15.7747C33.9036 15.8637 34.0771 15.9082 34.2639 15.9082H37.4402V17.5897H34.344C34.1394 17.5897 33.9525 17.6431 33.7835 17.7499C33.6145 17.8478 33.481 17.9812 33.3831 18.1503C33.2853 18.3193 33.2363 18.5062 33.2363 18.7108C33.2363 18.9154 33.2853 19.1023 33.3831 19.2713C33.481 19.4404 33.6145 19.5738 33.7835 19.6717C33.9525 19.7695 34.1394 19.8185 34.344 19.8185H37.894V21.5H34.1171Z" fill="#8E53E8"/>
<path d="M113.731 21.2357V15.5772C113.731 14.7853 113.895 14.1047 114.225 13.5353C114.563 12.957 115.021 12.5121 115.599 12.2007C116.186 11.8893 116.858 11.7336 117.614 11.7336C118.371 11.7336 119.038 11.8893 119.616 12.2007C120.203 12.5121 120.662 12.957 120.991 13.5353C121.329 14.1047 121.498 14.7853 121.498 15.5772V21.2357H119.59V15.4571C119.59 15.0834 119.509 14.7408 119.349 14.4294C119.189 14.118 118.962 13.8734 118.669 13.6954C118.375 13.5086 118.024 13.4152 117.614 13.4152C117.214 13.4152 116.863 13.5086 116.56 13.6954C116.266 13.8734 116.04 14.118 115.879 14.4294C115.719 14.7408 115.639 15.0834 115.639 15.4571V21.2357H113.731Z" fill="#8E53E8"/>
<path d="M107.566 21.4093C106.818 21.4093 106.142 21.2847 105.537 21.0356C104.941 20.7776 104.43 20.4262 104.003 19.9813C103.575 19.5365 103.246 19.0204 103.015 18.4332C102.784 17.846 102.668 17.2188 102.668 16.5515C102.668 15.8842 102.784 15.2614 103.015 14.6831C103.246 14.0959 103.575 13.5798 104.003 13.135C104.43 12.6901 104.941 12.3431 105.537 12.094C106.142 11.8449 106.818 11.7203 107.566 11.7203C108.313 11.7203 108.985 11.8449 109.581 12.094C110.186 12.3431 110.702 12.6901 111.129 13.135C111.556 13.5798 111.885 14.0959 112.117 14.6831C112.348 15.2614 112.464 15.8842 112.464 16.5515C112.464 17.2188 112.348 17.846 112.117 18.4332C111.885 19.0204 111.556 19.5365 111.129 19.9813C110.702 20.4262 110.186 20.7776 109.581 21.0356C108.985 21.2847 108.313 21.4093 107.566 21.4093ZM107.566 19.7144C107.993 19.7144 108.389 19.6388 108.754 19.4875C109.118 19.3274 109.434 19.1049 109.701 18.8202C109.977 18.5266 110.186 18.1885 110.328 17.806C110.48 17.4234 110.555 17.0052 110.555 16.5515C110.555 16.0977 110.48 15.6796 110.328 15.297C110.186 14.9144 109.977 14.5808 109.701 14.2961C109.434 14.0113 109.118 13.7934 108.754 13.6421C108.389 13.482 107.993 13.4019 107.566 13.4019C107.139 13.4019 106.743 13.482 106.378 13.6421C106.013 13.7934 105.693 14.0113 105.417 14.2961C105.15 14.5808 104.941 14.9144 104.79 15.297C104.648 15.6796 104.576 16.0977 104.576 16.5515C104.576 17.0052 104.648 17.4234 104.79 17.806C104.941 18.1885 105.15 18.5266 105.417 18.8202C105.693 19.1049 106.013 19.3274 106.378 19.4875C106.743 19.6388 107.139 19.7144 107.566 19.7144Z" fill="#8E53E8"/>
<path d="M88.0548 21.409C87.2985 21.409 86.6268 21.2533 86.0396 20.9419C85.4613 20.6305 85.0031 20.1901 84.665 19.6207C84.3358 19.0424 84.1712 18.3573 84.1712 17.5655V11.9069H86.0796V17.6856C86.0796 18.0593 86.1597 18.4018 86.3198 18.7132C86.48 19.0157 86.7069 19.2604 87.0005 19.4472C87.303 19.6341 87.6544 19.7275 88.0548 19.7275C88.4641 19.7275 88.8155 19.6341 89.1091 19.4472C89.4027 19.2604 89.6296 19.0157 89.7897 18.7132C89.9499 18.4018 90.0299 18.0593 90.0299 17.6856V15.2433H91.9384V17.5655C91.9384 18.3573 91.7693 19.0424 91.4312 19.6207C91.1021 20.1901 90.6438 20.6305 90.0566 20.9419C89.4783 21.2533 88.811 21.409 88.0548 21.409Z" fill="#8E53E8"/>
<path d="M90.0299 17.6856V15.3634C90.0299 14.5716 90.1945 13.891 90.5237 13.3216C90.8618 12.7432 91.32 12.2984 91.8983 11.987C92.4855 11.6756 93.1573 11.5199 93.9135 11.5199C94.6698 11.5199 95.3371 11.6756 95.9154 11.987C96.5026 12.2984 96.9608 12.7432 97.29 13.3216C97.6281 13.891 97.7971 14.5716 97.7971 15.3634V21.3286H95.8887V15.2433C95.8887 14.8697 95.8086 14.5271 95.6485 14.2157C95.4883 13.9043 95.2615 13.6596 94.9678 13.4817C94.6742 13.2949 94.3228 13.2014 93.9135 13.2014C93.5132 13.2014 93.1617 13.2949 92.8592 13.4817C92.5656 13.6596 92.3387 13.9043 92.1786 14.2157C92.0184 14.5271 91.9384 14.8697 91.9384 15.2433L91.9384 17.6856L90.0299 17.6856Z" fill="#8E53E8"/>
<path d="M100.264 13.702C99.9702 13.702 99.7122 13.5952 99.4898 13.3817C99.2762 13.1682 99.1695 12.9102 99.1695 12.6077C99.1695 12.3052 99.2762 12.0471 99.4898 11.8336C99.7122 11.6112 99.9702 11.5 100.264 11.5C100.566 11.5 100.824 11.6112 101.038 11.8336C101.26 12.0471 101.371 12.3052 101.371 12.6077C101.371 12.9102 101.26 13.1682 101.038 13.3817C100.824 13.5952 100.566 13.702 100.264 13.702ZM101.291 21.3758C100.686 21.3758 100.21 21.2023 99.8634 20.8553C99.5253 20.5083 99.3563 20.0367 99.3563 19.4406V14.5695H101.185V19.3873C101.185 19.5029 101.225 19.6052 101.305 19.6942C101.394 19.7743 101.496 19.8143 101.612 19.8143H102.025V21.3758H101.291Z" fill="#8E53E8"/>
</svg>
