<svg width="200" height="41" viewBox="0 0 200 41" fill="none" xmlns="http://www.w3.org/2000/svg">
<path fill-rule="evenodd" clip-rule="evenodd" d="M22.2827 16C22.8187 16 23.2531 16.4344 23.2531 16.9704L23.2532 22.2792C23.2532 22.2792 21.8483 22.2792 21.3123 22.2792L21.3123 19.3132L16.5665 24.0566L20.6741 24.0565C20.6741 24.0565 20.6742 25.4614 20.6742 25.9974L14.2236 25.9974C13.6877 25.9974 13.2532 25.563 13.2532 25.027L13.2532 19.7182L15.194 19.7182L15.1941 22.6842L19.9399 17.9408L16.9739 17.9409C16.9739 17.9409 16.9739 16.5359 16.9739 15.9999L22.2827 16Z" fill="#191923"/>
<path d="M29.2532 27.864V19.3762C29.2532 18.1884 29.5001 17.1674 29.9939 16.3133C30.501 15.4458 31.1883 14.7786 32.0558 14.3115C32.9366 13.8444 33.9442 13.6108 35.0786 13.6108C36.2129 13.6108 37.2139 13.8444 38.0813 14.3115C38.9622 14.7786 39.6495 15.4458 40.1432 16.3133C40.6504 17.1674 40.904 18.1884 40.904 19.3762V27.864H38.0413V19.196C38.0413 18.6355 37.9212 18.1217 37.681 17.6546C37.4408 17.1875 37.1004 16.8205 36.66 16.5535C36.2196 16.2733 35.6925 16.1332 35.0786 16.1332C34.478 16.1332 33.9509 16.2733 33.4971 16.5535C33.0567 16.8205 32.7164 17.1875 32.4762 17.6546C32.2359 18.1217 32.1158 18.6355 32.1158 19.196V27.864H29.2532Z" fill="#191923"/>
<path d="M38.0413 27.864V19.3762C38.0413 18.1884 38.2882 17.1674 38.782 16.3133C39.2891 15.4458 39.9764 14.7786 40.8439 14.3115C41.7247 13.8444 42.7323 13.6108 43.8667 13.6108C45.0011 13.6108 46.002 13.8444 46.8695 14.3115C47.7503 14.7786 48.4376 15.4458 48.9314 16.3133C49.4385 17.1674 49.6921 18.1884 49.6921 19.3762V27.864H46.8294V19.196C46.8294 18.6355 46.7093 18.1217 46.4691 17.6546C46.2289 17.1875 45.8886 16.8205 45.4482 16.5535C45.0077 16.2733 44.4806 16.1332 43.8667 16.1332C43.2661 16.1332 42.739 16.2733 42.2852 16.5535C41.8448 16.8205 41.5045 17.1875 41.2643 17.6546C41.0241 18.1217 40.9039 18.6355 40.9039 19.196L40.904 27.864H38.0413Z" fill="#191923"/>
<path d="M119.055 28.0001C118.28 28.0001 117.573 27.8132 116.933 27.4395C116.305 27.0659 115.805 26.5654 115.431 25.9381C115.057 25.2976 114.871 24.5902 114.871 23.8162C114.871 23.2557 114.991 22.7285 115.231 22.2347C115.471 21.7409 115.798 21.3072 116.212 20.9335C115.798 20.5598 115.471 20.1261 115.231 19.6323C114.991 19.1385 114.871 18.618 114.871 18.0709C114.871 17.3102 115.051 16.6229 115.411 16.009C115.785 15.3951 116.279 14.9079 116.893 14.5476C117.52 14.1739 118.207 13.9871 118.954 13.9871H124.72V16.5094H119.275C118.994 16.5094 118.734 16.5828 118.494 16.7296C118.267 16.8631 118.08 17.0499 117.933 17.2901C117.8 17.517 117.733 17.7773 117.733 18.0709C117.733 18.3511 117.8 18.6114 117.933 18.8516C118.08 19.0785 118.267 19.2653 118.494 19.4121C118.734 19.5456 118.994 19.6123 119.275 19.6123H124.039V22.1346H119.395C119.088 22.1346 118.808 22.2147 118.554 22.3748C118.3 22.5217 118.1 22.7218 117.953 22.9754C117.807 23.229 117.733 23.5092 117.733 23.8162C117.733 24.1231 117.807 24.4034 117.953 24.657C118.1 24.9105 118.3 25.1107 118.554 25.2575C118.808 25.4043 119.088 25.4777 119.395 25.4777H124.72V28.0001H119.055Z" fill="#191923"/>
<path d="M111.158 28.0001C110.33 28.0001 109.603 27.8132 108.976 27.4395C108.348 27.0525 107.861 26.5454 107.514 25.9181C107.167 25.2775 106.994 24.5769 106.994 23.8162V16.5094H103.09V13.9871H113.76V16.5094H109.856V24.1565C109.856 24.5168 109.983 24.8305 110.237 25.0974C110.49 25.3509 110.797 25.4777 111.158 25.4777H116.619L119.295 28.0001H111.158Z" fill="#191923"/>
<path d="M99.744 16.4893C99.3036 16.4893 98.9166 16.3291 98.5829 16.0088C98.2627 15.6886 98.1025 15.3015 98.1025 14.8478C98.1025 14.394 98.2627 14.007 98.5829 13.6867C98.9166 13.3531 99.3036 13.1862 99.744 13.1862C100.198 13.1862 100.585 13.3531 100.905 13.6867C101.239 14.007 101.406 14.394 101.406 14.8478C101.406 15.3015 101.239 15.6886 100.905 16.0088C100.585 16.3291 100.198 16.4893 99.744 16.4893ZM101.285 27.9999C100.378 27.9999 99.6639 27.7397 99.1435 27.2192C98.6363 26.6987 98.3828 25.9914 98.3828 25.0973V17.7905H101.125V25.0172C101.125 25.1907 101.185 25.3442 101.305 25.4776C101.439 25.5977 101.592 25.6578 101.766 25.6578H102.386V27.9999H101.285Z" fill="#191923"/>
<path d="M94.1693 28.0001C93.3419 28.0001 92.6146 27.8132 91.9873 27.4395C91.3601 27.0525 90.8729 26.5454 90.5259 25.9181C90.179 25.2775 90.0055 24.5769 90.0055 23.8162V16.5094H86.1019V13.9871H96.7717V16.5094H92.8681V24.1565C92.8681 24.5168 92.9949 24.8305 93.2485 25.0974C93.502 25.3509 93.809 25.4777 94.1693 25.4777H95.1702V28.0001H94.1693Z" fill="#191923"/>
<path d="M76.8528 28.0001V25.4777H79.3751V16.5094H76.8528V13.9871H86.2262V16.5094H82.2378V25.4777H84.7601V28.0001H76.8528Z" fill="#191923"/>
<path d="M63.5482 28.0001V13.9871H69.814C70.7348 13.9871 71.5689 14.1939 72.3163 14.6077C73.077 15.008 73.6775 15.5686 74.1179 16.2892C74.5717 17.0099 74.7986 17.8507 74.7986 18.8116C74.7986 19.7458 74.5784 20.5732 74.138 21.2938C73.6976 22.0012 73.117 22.5617 72.3964 22.9754L73.6775 25.2175C73.7309 25.2976 73.7976 25.3643 73.8777 25.4177C73.9578 25.4577 74.0512 25.4777 74.158 25.4777H76.8676V28.0001H73.7176C73.1571 28.0001 72.6432 27.8599 72.1762 27.5797C71.7224 27.2994 71.3621 26.9324 71.0951 26.4786L69.5137 23.636C69.3936 23.636 69.2668 23.636 69.1333 23.636C69.0132 23.636 68.8931 23.636 68.773 23.636H66.4108V28.0001H63.5482ZM66.4108 21.1137H69.4737C69.9274 21.1137 70.3411 21.0269 70.7148 20.8534C71.0885 20.6666 71.3821 20.3997 71.5956 20.0527C71.8225 19.7057 71.9359 19.292 71.9359 18.8116C71.9359 18.3311 71.8225 17.9174 71.5956 17.5704C71.3687 17.2234 71.0685 16.9632 70.6948 16.7897C70.3344 16.6028 69.9274 16.5094 69.4737 16.5094H66.4108V21.1137Z" fill="#191923"/>
<path d="M55.6756 28.0001C54.9015 28.0001 54.1942 27.8132 53.5536 27.4395C52.9264 27.0659 52.4259 26.5654 52.0522 25.9381C51.6785 25.2976 51.4917 24.5902 51.4917 23.8162C51.4917 23.2557 51.6118 22.7285 51.852 22.2347C52.0923 21.7409 52.4192 21.3072 52.8329 20.9335C52.4192 20.5598 52.0923 20.1261 51.852 19.6323C51.6118 19.1385 51.4917 18.618 51.4917 18.0709C51.4917 17.3102 51.6719 16.6229 52.0322 16.009C52.4059 15.3951 52.8997 14.9079 53.5136 14.5476C54.1408 14.1739 54.8281 13.9871 55.5755 13.9871H61.3408V16.5094H55.8958C55.6155 16.5094 55.3553 16.5828 55.1151 16.7296C54.8882 16.8631 54.7013 17.0499 54.5545 17.2901C54.4211 17.517 54.3544 17.7773 54.3544 18.0709C54.3544 18.3511 54.4211 18.6114 54.5545 18.8516C54.7013 19.0785 54.8882 19.2653 55.1151 19.4121C55.3553 19.5456 55.6155 19.6123 55.8958 19.6123H60.6602V22.1346H56.0159C55.7089 22.1346 55.4287 22.2147 55.1751 22.3748C54.9215 22.5217 54.7214 22.7218 54.5746 22.9754C54.4278 23.229 54.3544 23.5092 54.3544 23.8162C54.3544 24.1231 54.4278 24.4034 54.5746 24.657C54.7214 24.9105 54.9215 25.1107 55.1751 25.2575C55.4287 25.4043 55.7089 25.4777 56.0159 25.4777H61.3408V28.0001H55.6756Z" fill="#191923"/>
<path d="M175.096 27.6036V19.1158C175.096 17.928 175.343 16.907 175.837 16.0529C176.344 15.1855 177.031 14.5182 177.899 14.0511C178.779 13.584 179.787 13.3504 180.921 13.3504C182.056 13.3504 183.057 13.584 183.924 14.0511C184.805 14.5182 185.492 15.1855 185.986 16.0529C186.493 16.907 186.747 17.928 186.747 19.1158V27.6036H183.884V18.9356C183.884 18.3751 183.764 17.8613 183.524 17.3942C183.284 16.9271 182.943 16.5601 182.503 16.2931C182.062 16.0129 181.535 15.8728 180.921 15.8728C180.321 15.8728 179.794 16.0129 179.34 16.2931C178.9 16.5601 178.559 16.9271 178.319 17.3942C178.079 17.8613 177.959 18.3751 177.959 18.9356V27.6036H175.096Z" fill="#191923"/>
<path d="M165.849 27.8639C164.728 27.8639 163.713 27.6771 162.806 27.3034C161.912 26.9164 161.144 26.3893 160.504 25.722C159.863 25.0547 159.369 24.2806 159.022 23.3998C158.675 22.519 158.502 21.5781 158.502 20.5772C158.502 19.5763 158.675 18.6421 159.022 17.7746C159.369 16.8938 159.863 16.1198 160.504 15.4525C161.144 14.7852 161.912 14.2647 162.806 13.891C163.713 13.5173 164.728 13.3305 165.849 13.3305C166.97 13.3305 167.977 13.5173 168.871 13.891C169.779 14.2647 170.553 14.7852 171.194 15.4525C171.834 16.1198 172.328 16.8938 172.675 17.7746C173.022 18.6421 173.195 19.5763 173.195 20.5772C173.195 21.5781 173.022 22.519 172.675 23.3998C172.328 24.2806 171.834 25.0547 171.194 25.722C170.553 26.3893 169.779 26.9164 168.871 27.3034C167.977 27.6771 166.97 27.8639 165.849 27.8639ZM165.849 25.3216C166.489 25.3216 167.083 25.2082 167.63 24.9813C168.177 24.7411 168.651 24.4074 169.052 23.9804C169.465 23.5399 169.779 23.0328 169.992 22.4589C170.219 21.8851 170.333 21.2578 170.333 20.5772C170.333 19.8966 170.219 19.2693 169.992 18.6955C169.779 18.1216 169.465 17.6211 169.052 17.1941C168.651 16.767 168.177 16.44 167.63 16.2132C167.083 15.9729 166.489 15.8528 165.849 15.8528C165.208 15.8528 164.614 15.9729 164.067 16.2132C163.52 16.44 163.039 16.767 162.626 17.1941C162.225 17.6211 161.912 18.1216 161.685 18.6955C161.471 19.2693 161.364 19.8966 161.364 20.5772C161.364 21.2578 161.471 21.8851 161.685 22.4589C161.912 23.0328 162.225 23.5399 162.626 23.9804C163.039 24.4074 163.52 24.7411 164.067 24.9813C164.614 25.2082 165.208 25.3216 165.849 25.3216Z" fill="#191923"/>
<path d="M136.582 27.8636C135.448 27.8636 134.44 27.63 133.559 27.1629C132.692 26.6958 132.004 26.0352 131.497 25.1811C131.004 24.3136 130.757 23.286 130.757 22.0982V13.6104H133.619V22.2784C133.619 22.8389 133.739 23.3527 133.98 23.8198C134.22 24.2736 134.56 24.6406 135.001 24.9208C135.454 25.2011 135.981 25.3412 136.582 25.3412C137.196 25.3412 137.723 25.2011 138.164 24.9208C138.604 24.6406 138.944 24.2736 139.184 23.8198C139.425 23.3527 139.545 22.8389 139.545 22.2784V18.615H142.407V22.0982C142.407 23.286 142.154 24.3136 141.647 25.1811C141.153 26.0352 140.466 26.6958 139.585 27.1629C138.717 27.63 137.716 27.8636 136.582 27.8636Z" fill="#191923"/>
<path d="M139.545 22.2784V18.7952C139.545 17.6074 139.792 16.5864 140.285 15.7323C140.793 14.8649 141.48 14.1976 142.347 13.7305C143.228 13.2634 144.236 13.0298 145.37 13.0298C146.505 13.0298 147.505 13.2634 148.373 13.7305C149.254 14.1976 149.941 14.8649 150.435 15.7323C150.942 16.5864 151.196 17.6074 151.196 18.7952V27.7429H148.333V18.615C148.333 18.0545 148.213 17.5407 147.973 17.0736C147.732 16.6065 147.392 16.2395 146.952 15.9725C146.511 15.6923 145.984 15.5522 145.37 15.5522C144.77 15.5522 144.242 15.6923 143.789 15.9725C143.348 16.2395 143.008 16.6065 142.768 17.0736C142.528 17.5407 142.407 18.0545 142.407 18.615V22.2784L139.545 22.2784Z" fill="#191923"/>
<path d="M154.896 16.303C154.455 16.303 154.068 16.1428 153.735 15.8225C153.414 15.5023 153.254 15.1152 153.254 14.6615C153.254 14.2077 153.414 13.8207 153.735 13.5004C154.068 13.1668 154.455 12.9999 154.896 12.9999C155.349 12.9999 155.736 13.1668 156.057 13.5004C156.39 13.8207 156.557 14.2077 156.557 14.6615C156.557 15.1152 156.39 15.5023 156.057 15.8225C155.736 16.1428 155.349 16.303 154.896 16.303ZM156.437 27.8136C155.53 27.8136 154.816 27.5534 154.295 27.0329C153.788 26.5124 153.534 25.8051 153.534 24.911V17.6042H156.277V24.8309C156.277 25.0044 156.337 25.1579 156.457 25.2913C156.59 25.4114 156.744 25.4715 156.917 25.4715H157.538V27.8136H156.437Z" fill="#191923"/>
</svg>
