<svg width="200" height="41" viewBox="0 0 200 41" fill="none" xmlns="http://www.w3.org/2000/svg">
<path d="M45.6449 15.4999C45.2307 15.4999 44.8521 15.3999 44.5092 15.1999C44.1735 14.9999 43.9057 14.7321 43.7057 14.3964C43.5057 14.0535 43.4057 13.6749 43.4057 13.2607C43.4057 12.9607 43.4699 12.6785 43.5985 12.4142C43.7271 12.1499 43.9021 11.9178 44.1235 11.7178C43.9021 11.5178 43.7271 11.2857 43.5985 11.0214C43.4699 10.7571 43.4057 10.4785 43.4057 10.1857C43.4057 9.77851 43.5021 9.41065 43.6949 9.08208C43.8949 8.75351 44.1592 8.4928 44.4878 8.29994C44.8235 8.09994 45.1914 7.99994 45.5914 7.99994H48.6771V9.34994H45.7628C45.6128 9.34994 45.4735 9.38922 45.3449 9.4678C45.2235 9.53922 45.1235 9.63922 45.0449 9.7678C44.9735 9.88922 44.9378 10.0285 44.9378 10.1857C44.9378 10.3357 44.9735 10.4749 45.0449 10.6035C45.1235 10.7249 45.2235 10.8249 45.3449 10.9035C45.4735 10.9749 45.6128 11.0107 45.7628 11.0107H48.3128V12.3607H45.8271C45.6628 12.3607 45.5128 12.4035 45.3771 12.4892C45.2414 12.5678 45.1342 12.6749 45.0557 12.8107C44.9771 12.9464 44.9378 13.0964 44.9378 13.2607C44.9378 13.4249 44.9771 13.5749 45.0557 13.7107C45.1342 13.8464 45.2414 13.9535 45.3771 14.0321C45.5128 14.1107 45.6628 14.1499 45.8271 14.1499H48.6771V15.4999H45.6449Z" fill="#191923"/>
<path d="M35.8797 15.4999V7.99994H37.4118V11.0107H40.6904V7.99994H42.2226V15.4999H40.6904V12.3607H37.4118V15.4999H35.8797Z" fill="#191923"/>
<path d="M33.571 15.4999C33.1282 15.4999 32.7389 15.3999 32.4032 15.1999C32.0675 14.9928 31.8067 14.7214 31.621 14.3857C31.4353 14.0428 31.3425 13.6678 31.3425 13.2607V9.34994H29.2532V7.99994H34.9639V9.34994H32.8746V13.4428C32.8746 13.6357 32.9425 13.8035 33.0782 13.9464C33.2139 14.0821 33.3782 14.1499 33.571 14.1499H36.0657L35.9771 15.4999H33.571Z" fill="#191923"/>
<path fill-rule="evenodd" clip-rule="evenodd" d="M22.2827 21C22.8187 21 23.2531 21.4344 23.2531 21.9704L23.2532 27.2792C23.2532 27.2792 21.8483 27.2792 21.3123 27.2792L21.3123 24.3132L16.5665 29.0566L20.6741 29.0565C20.6741 29.0565 20.6742 30.4614 20.6742 30.9974L14.2236 30.9974C13.6877 30.9974 13.2532 30.563 13.2532 30.027L13.2532 24.7182L15.194 24.7182L15.1941 27.6842L19.9399 22.9408L16.9739 22.9409C16.9739 22.9409 16.9739 21.5359 16.9739 20.9999L22.2827 21Z" fill="#191923"/>
<path d="M29.2532 32.864V24.3762C29.2532 23.1884 29.5001 22.1674 29.9939 21.3133C30.501 20.4458 31.1883 19.7786 32.0558 19.3115C32.9366 18.8444 33.9442 18.6108 35.0786 18.6108C36.2129 18.6108 37.2139 18.8444 38.0813 19.3115C38.9622 19.7786 39.6495 20.4458 40.1432 21.3133C40.6504 22.1674 40.904 23.1884 40.904 24.3762V32.864H38.0413V24.196C38.0413 23.6355 37.9212 23.1217 37.681 22.6546C37.4408 22.1875 37.1004 21.8205 36.66 21.5535C36.2196 21.2733 35.6925 21.1332 35.0786 21.1332C34.478 21.1332 33.9509 21.2733 33.4971 21.5535C33.0567 21.8205 32.7164 22.1875 32.4762 22.6546C32.2359 23.1217 32.1158 23.6355 32.1158 24.196V32.864H29.2532Z" fill="#191923"/>
<path d="M38.0413 32.864V24.3762C38.0413 23.1884 38.2882 22.1674 38.782 21.3133C39.2891 20.4458 39.9764 19.7786 40.8439 19.3115C41.7247 18.8444 42.7323 18.6108 43.8667 18.6108C45.0011 18.6108 46.002 18.8444 46.8695 19.3115C47.7503 19.7786 48.4376 20.4458 48.9314 21.3133C49.4385 22.1674 49.6921 23.1884 49.6921 24.3762V32.864H46.8294V24.196C46.8294 23.6355 46.7093 23.1217 46.4691 22.6546C46.2289 22.1875 45.8886 21.8205 45.4482 21.5535C45.0077 21.2733 44.4806 21.1332 43.8667 21.1332C43.2661 21.1332 42.739 21.2733 42.2852 21.5535C41.8448 21.8205 41.5045 22.1875 41.2643 22.6546C41.0241 23.1217 40.9039 23.6355 40.9039 24.196L40.904 32.864H38.0413Z" fill="#191923"/>
<path d="M119.055 33.0001C118.28 33.0001 117.573 32.8132 116.933 32.4395C116.305 32.0659 115.805 31.5654 115.431 30.9381C115.057 30.2976 114.871 29.5902 114.871 28.8162C114.871 28.2557 114.991 27.7285 115.231 27.2347C115.471 26.7409 115.798 26.3072 116.212 25.9335C115.798 25.5598 115.471 25.1261 115.231 24.6323C114.991 24.1385 114.871 23.618 114.871 23.0709C114.871 22.3102 115.051 21.6229 115.411 21.009C115.785 20.3951 116.279 19.9079 116.893 19.5476C117.52 19.1739 118.207 18.9871 118.954 18.9871H124.72V21.5094H119.275C118.994 21.5094 118.734 21.5828 118.494 21.7296C118.267 21.8631 118.08 22.0499 117.933 22.2901C117.8 22.517 117.733 22.7773 117.733 23.0709C117.733 23.3511 117.8 23.6114 117.933 23.8516C118.08 24.0785 118.267 24.2653 118.494 24.4121C118.734 24.5456 118.994 24.6123 119.275 24.6123H124.039V27.1346H119.395C119.088 27.1346 118.808 27.2147 118.554 27.3748C118.3 27.5217 118.1 27.7218 117.953 27.9754C117.807 28.229 117.733 28.5092 117.733 28.8162C117.733 29.1231 117.807 29.4034 117.953 29.657C118.1 29.9105 118.3 30.1107 118.554 30.2575C118.808 30.4043 119.088 30.4777 119.395 30.4777H124.72V33.0001H119.055Z" fill="#191923"/>
<path d="M111.158 33.0001C110.33 33.0001 109.603 32.8132 108.976 32.4395C108.348 32.0525 107.861 31.5454 107.514 30.9181C107.167 30.2775 106.994 29.5769 106.994 28.8162V21.5094H103.09V18.9871H113.76V21.5094H109.856V29.1565C109.856 29.5168 109.983 29.8305 110.237 30.0974C110.49 30.3509 110.797 30.4777 111.158 30.4777H116.619L119.295 33.0001H111.158Z" fill="#191923"/>
<path d="M99.744 21.4893C99.3036 21.4893 98.9166 21.3291 98.5829 21.0088C98.2627 20.6886 98.1025 20.3015 98.1025 19.8478C98.1025 19.394 98.2627 19.007 98.5829 18.6867C98.9166 18.3531 99.3036 18.1862 99.744 18.1862C100.198 18.1862 100.585 18.3531 100.905 18.6867C101.239 19.007 101.406 19.394 101.406 19.8478C101.406 20.3015 101.239 20.6886 100.905 21.0088C100.585 21.3291 100.198 21.4893 99.744 21.4893ZM101.285 32.9999C100.378 32.9999 99.6639 32.7397 99.1435 32.2192C98.6363 31.6987 98.3828 30.9914 98.3828 30.0973V22.7905H101.125V30.0172C101.125 30.1907 101.185 30.3442 101.305 30.4776C101.439 30.5977 101.592 30.6578 101.766 30.6578H102.386V32.9999H101.285Z" fill="#191923"/>
<path d="M94.1693 33.0001C93.3419 33.0001 92.6146 32.8132 91.9873 32.4395C91.3601 32.0525 90.8729 31.5454 90.5259 30.9181C90.179 30.2775 90.0055 29.5769 90.0055 28.8162V21.5094H86.1019V18.9871H96.7717V21.5094H92.8681V29.1565C92.8681 29.5168 92.9949 29.8305 93.2485 30.0974C93.502 30.3509 93.809 30.4777 94.1693 30.4777H95.1702V33.0001H94.1693Z" fill="#191923"/>
<path d="M76.8528 33.0001V30.4777H79.3751V21.5094H76.8528V18.9871H86.2262V21.5094H82.2378V30.4777H84.7601V33.0001H76.8528Z" fill="#191923"/>
<path d="M63.5482 33.0001V18.9871H69.814C70.7348 18.9871 71.5689 19.1939 72.3163 19.6077C73.077 20.008 73.6775 20.5686 74.1179 21.2892C74.5717 22.0099 74.7986 22.8507 74.7986 23.8116C74.7986 24.7458 74.5784 25.5732 74.138 26.2938C73.6976 27.0012 73.117 27.5617 72.3964 27.9754L73.6775 30.2175C73.7309 30.2976 73.7976 30.3643 73.8777 30.4177C73.9578 30.4577 74.0512 30.4777 74.158 30.4777H76.8676V33.0001H73.7176C73.1571 33.0001 72.6432 32.8599 72.1762 32.5797C71.7224 32.2994 71.3621 31.9324 71.0951 31.4786L69.5137 28.636C69.3936 28.636 69.2668 28.636 69.1333 28.636C69.0132 28.636 68.8931 28.636 68.773 28.636H66.4108V33.0001H63.5482ZM66.4108 26.1137H69.4737C69.9274 26.1137 70.3411 26.0269 70.7148 25.8534C71.0885 25.6666 71.3821 25.3997 71.5956 25.0527C71.8225 24.7057 71.9359 24.292 71.9359 23.8116C71.9359 23.3311 71.8225 22.9174 71.5956 22.5704C71.3687 22.2234 71.0685 21.9632 70.6948 21.7897C70.3344 21.6028 69.9274 21.5094 69.4737 21.5094H66.4108V26.1137Z" fill="#191923"/>
<path d="M55.6756 33.0001C54.9015 33.0001 54.1942 32.8132 53.5536 32.4395C52.9264 32.0659 52.4259 31.5654 52.0522 30.9381C51.6785 30.2976 51.4917 29.5902 51.4917 28.8162C51.4917 28.2557 51.6118 27.7285 51.852 27.2347C52.0923 26.7409 52.4192 26.3072 52.8329 25.9335C52.4192 25.5598 52.0923 25.1261 51.852 24.6323C51.6118 24.1385 51.4917 23.618 51.4917 23.0709C51.4917 22.3102 51.6719 21.6229 52.0322 21.009C52.4059 20.3951 52.8997 19.9079 53.5136 19.5476C54.1408 19.1739 54.8281 18.9871 55.5755 18.9871H61.3408V21.5094H55.8958C55.6155 21.5094 55.3553 21.5828 55.1151 21.7296C54.8882 21.8631 54.7013 22.0499 54.5545 22.2901C54.4211 22.517 54.3544 22.7773 54.3544 23.0709C54.3544 23.3511 54.4211 23.6114 54.5545 23.8516C54.7013 24.0785 54.8882 24.2653 55.1151 24.4121C55.3553 24.5456 55.6155 24.6123 55.8958 24.6123H60.6602V27.1346H56.0159C55.7089 27.1346 55.4287 27.2147 55.1751 27.3748C54.9215 27.5217 54.7214 27.7218 54.5746 27.9754C54.4278 28.229 54.3544 28.5092 54.3544 28.8162C54.3544 29.1231 54.4278 29.4034 54.5746 29.657C54.7214 29.9105 54.9215 30.1107 55.1751 30.2575C55.4287 30.4043 55.7089 30.4777 56.0159 30.4777H61.3408V33.0001H55.6756Z" fill="#191923"/>
<path d="M175.096 32.6036V24.1158C175.096 22.928 175.343 21.907 175.837 21.0529C176.344 20.1855 177.031 19.5182 177.899 19.0511C178.779 18.584 179.787 18.3504 180.921 18.3504C182.056 18.3504 183.057 18.584 183.924 19.0511C184.805 19.5182 185.492 20.1855 185.986 21.0529C186.493 21.907 186.747 22.928 186.747 24.1158V32.6036H183.884V23.9356C183.884 23.3751 183.764 22.8613 183.524 22.3942C183.284 21.9271 182.943 21.5601 182.503 21.2931C182.062 21.0129 181.535 20.8728 180.921 20.8728C180.321 20.8728 179.794 21.0129 179.34 21.2931C178.9 21.5601 178.559 21.9271 178.319 22.3942C178.079 22.8613 177.959 23.3751 177.959 23.9356V32.6036H175.096Z" fill="#191923"/>
<path d="M165.849 32.8639C164.728 32.8639 163.713 32.6771 162.806 32.3034C161.912 31.9164 161.144 31.3893 160.504 30.722C159.863 30.0547 159.369 29.2806 159.022 28.3998C158.675 27.519 158.502 26.5781 158.502 25.5772C158.502 24.5763 158.675 23.6421 159.022 22.7746C159.369 21.8938 159.863 21.1198 160.504 20.4525C161.144 19.7852 161.912 19.2647 162.806 18.891C163.713 18.5173 164.728 18.3305 165.849 18.3305C166.97 18.3305 167.977 18.5173 168.871 18.891C169.779 19.2647 170.553 19.7852 171.194 20.4525C171.834 21.1198 172.328 21.8938 172.675 22.7746C173.022 23.6421 173.195 24.5763 173.195 25.5772C173.195 26.5781 173.022 27.519 172.675 28.3998C172.328 29.2806 171.834 30.0547 171.194 30.722C170.553 31.3893 169.779 31.9164 168.871 32.3034C167.977 32.6771 166.97 32.8639 165.849 32.8639ZM165.849 30.3216C166.489 30.3216 167.083 30.2082 167.63 29.9813C168.177 29.7411 168.651 29.4074 169.052 28.9804C169.465 28.5399 169.779 28.0328 169.992 27.4589C170.219 26.8851 170.333 26.2578 170.333 25.5772C170.333 24.8966 170.219 24.2693 169.992 23.6955C169.779 23.1216 169.465 22.6211 169.052 22.1941C168.651 21.767 168.177 21.44 167.63 21.2132C167.083 20.9729 166.489 20.8528 165.849 20.8528C165.208 20.8528 164.614 20.9729 164.067 21.2132C163.52 21.44 163.039 21.767 162.626 22.1941C162.225 22.6211 161.912 23.1216 161.685 23.6955C161.471 24.2693 161.364 24.8966 161.364 25.5772C161.364 26.2578 161.471 26.8851 161.685 27.4589C161.912 28.0328 162.225 28.5399 162.626 28.9804C163.039 29.4074 163.52 29.7411 164.067 29.9813C164.614 30.2082 165.208 30.3216 165.849 30.3216Z" fill="#191923"/>
<path d="M136.582 32.8636C135.448 32.8636 134.44 32.63 133.559 32.1629C132.692 31.6958 132.004 31.0352 131.497 30.1811C131.004 29.3136 130.757 28.286 130.757 27.0982V18.6104H133.619V27.2784C133.619 27.8389 133.739 28.3527 133.98 28.8198C134.22 29.2736 134.56 29.6406 135.001 29.9208C135.454 30.2011 135.981 30.3412 136.582 30.3412C137.196 30.3412 137.723 30.2011 138.164 29.9208C138.604 29.6406 138.944 29.2736 139.184 28.8198C139.425 28.3527 139.545 27.8389 139.545 27.2784V23.615H142.407V27.0982C142.407 28.286 142.154 29.3136 141.647 30.1811C141.153 31.0352 140.466 31.6958 139.585 32.1629C138.717 32.63 137.716 32.8636 136.582 32.8636Z" fill="#191923"/>
<path d="M139.545 27.2784V23.7952C139.545 22.6074 139.792 21.5864 140.285 20.7323C140.793 19.8649 141.48 19.1976 142.347 18.7305C143.228 18.2634 144.236 18.0298 145.37 18.0298C146.505 18.0298 147.505 18.2634 148.373 18.7305C149.254 19.1976 149.941 19.8649 150.435 20.7323C150.942 21.5864 151.196 22.6074 151.196 23.7952V32.7429H148.333V23.615C148.333 23.0545 148.213 22.5407 147.973 22.0736C147.732 21.6065 147.392 21.2395 146.952 20.9725C146.511 20.6923 145.984 20.5522 145.37 20.5522C144.77 20.5522 144.242 20.6923 143.789 20.9725C143.348 21.2395 143.008 21.6065 142.768 22.0736C142.528 22.5407 142.407 23.0545 142.407 23.615V27.2784L139.545 27.2784Z" fill="#191923"/>
<path d="M154.896 21.303C154.455 21.303 154.068 21.1428 153.735 20.8225C153.414 20.5023 153.254 20.1152 153.254 19.6615C153.254 19.2077 153.414 18.8207 153.735 18.5004C154.068 18.1668 154.455 17.9999 154.896 17.9999C155.349 17.9999 155.736 18.1668 156.057 18.5004C156.39 18.8207 156.557 19.2077 156.557 19.6615C156.557 20.1152 156.39 20.5023 156.057 20.8225C155.736 21.1428 155.349 21.303 154.896 21.303ZM156.437 32.8136C155.53 32.8136 154.816 32.5534 154.295 32.0329C153.788 31.5124 153.534 30.8051 153.534 29.911V22.6042H156.277V29.8309C156.277 30.0044 156.337 30.1579 156.457 30.2913C156.59 30.4114 156.744 30.4715 156.917 30.4715H157.538V32.8136H156.437Z" fill="#191923"/>
</svg>
