<svg width="100" height="51" viewBox="0 0 100 51" fill="none" xmlns="http://www.w3.org/2000/svg">
<path fill-rule="evenodd" clip-rule="evenodd" d="M72.2962 30.568C72.8321 30.568 73.2666 31.0025 73.2666 31.5384L73.2666 36.8473C73.2666 36.8473 71.8617 36.8473 71.3257 36.8473L71.3257 33.8813L66.5799 38.6246L70.6876 38.6246C70.6876 38.6246 70.6876 40.0295 70.6876 40.5654L64.2371 40.5655C63.7011 40.5655 63.2666 40.131 63.2666 39.595L63.2666 34.2862L65.2075 34.2862L65.2075 37.2522L69.9533 32.5089L66.9873 32.5089C66.9873 32.5089 66.9873 31.1039 66.9873 30.568L72.2962 30.568Z" fill="#191923"/>
<path d="M2.26661 23.2458V14.7579C2.26661 13.5702 2.5135 12.5492 3.00729 11.6951C3.51443 10.8276 4.20173 10.1604 5.0692 9.69325C5.95002 9.22615 6.95762 8.9926 8.092 8.9926C9.22638 8.9926 10.2273 9.22615 11.0948 9.69325C11.9756 10.1604 12.6629 10.8276 13.1567 11.6951C13.6638 12.5492 13.9174 13.5702 13.9174 14.7579V23.2458H11.0547V14.5778C11.0547 14.0173 10.9346 13.5034 10.6944 13.0363C10.4542 12.5692 10.1139 12.2022 9.67346 11.9353C9.23306 11.6551 8.7059 11.5149 8.092 11.5149C7.49144 11.5149 6.96429 11.6551 6.51054 11.9353C6.07013 12.2022 5.72982 12.5692 5.48959 13.0363C5.24937 13.5034 5.12926 14.0173 5.12926 14.5778V23.2458H2.26661Z" fill="#191923"/>
<path d="M11.0547 23.2458V14.7579C11.0547 13.5702 11.3016 12.5492 11.7954 11.6951C12.3026 10.8276 12.9899 10.1604 13.8573 9.69325C14.7381 9.22615 15.7457 8.9926 16.8801 8.9926C18.0145 8.9926 19.0154 9.22615 19.8829 9.69325C20.7637 10.1604 21.451 10.8276 21.9448 11.6951C22.4519 12.5492 22.7055 13.5702 22.7055 14.7579V23.2458H19.8429V14.5778C19.8429 14.0173 19.7228 13.5034 19.4825 13.0363C19.2423 12.5692 18.902 12.2022 18.4616 11.9353C18.0212 11.6551 17.494 11.5149 16.8801 11.5149C16.2796 11.5149 15.7524 11.6551 15.2987 11.9353C14.8583 12.2022 14.5179 12.5692 14.2777 13.0363C14.0375 13.5034 13.9174 14.0173 13.9174 14.5778L13.9174 23.2458H11.0547Z" fill="#191923"/>
<path d="M92.068 23.3818C91.2939 23.3818 90.5866 23.195 89.946 22.8213C89.3187 22.4476 88.8183 21.9472 88.4446 21.3199C88.0709 20.6793 87.8841 19.972 87.8841 19.198C87.8841 18.6375 88.0042 18.1103 88.2444 17.6165C88.4846 17.1227 88.8116 16.689 89.2253 16.3153C88.8116 15.9416 88.4846 15.5079 88.2444 15.0141C88.0042 14.5203 87.8841 13.9998 87.8841 13.4527C87.8841 12.692 88.0643 12.0046 88.4246 11.3907C88.7983 10.7768 89.2921 10.2897 89.906 9.9294C90.5332 9.55572 91.2205 9.36888 91.9679 9.36888H97.7332V11.8912H92.2882C92.0079 11.8912 91.7477 11.9646 91.5074 12.1114C91.2806 12.2449 91.0937 12.4317 90.9469 12.6719C90.8135 12.8988 90.7467 13.1591 90.7467 13.4527C90.7467 13.7329 90.8135 13.9932 90.9469 14.2334C91.0937 14.4603 91.2806 14.6471 91.5074 14.7939C91.7477 14.9274 92.0079 14.9941 92.2882 14.9941H97.0526V17.5164H92.4083C92.1013 17.5164 91.8211 17.5965 91.5675 17.7566C91.3139 17.9034 91.1137 18.1036 90.9669 18.3572C90.8201 18.6108 90.7467 18.891 90.7467 19.198C90.7467 19.5049 90.8201 19.7852 90.9669 20.0387C91.1137 20.2923 91.3139 20.4925 91.5675 20.6393C91.8211 20.7861 92.1013 20.8595 92.4083 20.8595H97.7332V23.3818H92.068Z" fill="#191923"/>
<path d="M84.1711 23.3818C83.3437 23.3818 82.6163 23.195 81.9891 22.8213C81.3618 22.4343 80.8747 21.9272 80.5277 21.2999C80.1808 20.6593 80.0073 19.9587 80.0073 19.198V11.8912H76.1036V9.36888H86.7735V11.8912H82.8699V19.5383C82.8699 19.8986 82.9967 20.2122 83.2503 20.4792C83.5038 20.7327 83.8108 20.8595 84.1711 20.8595H89.6321L92.3087 23.3818H84.1711Z" fill="#191923"/>
<path d="M72.7575 11.8711C72.317 11.8711 71.93 11.7109 71.5964 11.3906C71.2761 11.0703 71.1159 10.6833 71.1159 10.2296C71.1159 9.77581 71.2761 9.38878 71.5964 9.06849C71.93 8.73484 72.317 8.56802 72.7575 8.56802C73.2112 8.56802 73.5982 8.73484 73.9185 9.06849C74.2522 9.38878 74.419 9.77581 74.419 10.2296C74.419 10.6833 74.2522 11.0703 73.9185 11.3906C73.5982 11.7109 73.2112 11.8711 72.7575 11.8711ZM74.2989 23.3817C73.3914 23.3817 72.6774 23.1215 72.1569 22.601C71.6498 22.0805 71.3962 21.3732 71.3962 20.479V13.1723H74.1387V20.399C74.1387 20.5725 74.1988 20.7259 74.3189 20.8594C74.4524 20.9795 74.6058 21.0396 74.7793 21.0396H75.3999V23.3817H74.2989Z" fill="#191923"/>
<path d="M67.1828 23.3818C66.3553 23.3818 65.628 23.195 65.0007 22.8213C64.3735 22.4343 63.8864 21.9272 63.5394 21.2999C63.1924 20.6593 63.0189 19.9587 63.0189 19.198V11.8912H59.1153V9.36888H69.7852V11.8912H65.8815V19.5383C65.8815 19.8986 66.0083 20.2122 66.2619 20.4792C66.5155 20.7327 66.8224 20.8595 67.1828 20.8595H68.1837V23.3818H67.1828Z" fill="#191923"/>
<path d="M49.8662 23.3818V20.8595H52.3886V11.8912H49.8662V9.36888H59.2396V11.8912H55.2512V20.8595H57.7736V23.3818H49.8662Z" fill="#191923"/>
<path d="M36.5616 23.3818V9.36888H42.8274C43.7483 9.36888 44.5824 9.57574 45.3297 9.98945C46.0904 10.3898 46.691 10.9503 47.1314 11.671C47.5851 12.3917 47.812 13.2325 47.812 14.1933C47.812 15.1275 47.5918 15.955 47.1514 16.6756C46.711 17.383 46.1305 17.9435 45.4098 18.3572L46.691 20.5993C46.7444 20.6793 46.8111 20.7461 46.8912 20.7995C46.9712 20.8395 47.0647 20.8595 47.1714 20.8595H49.881V23.3818H46.731C46.1705 23.3818 45.6567 23.2417 45.1896 22.9615C44.7358 22.6812 44.3755 22.3142 44.1086 21.8604L42.5271 19.0178C42.407 19.0178 42.2802 19.0178 42.1468 19.0178C42.0267 19.0178 41.9065 19.0178 41.7864 19.0178H39.4243V23.3818H36.5616ZM39.4243 16.4955H42.4871C42.9408 16.4955 43.3546 16.4087 43.7282 16.2352C44.1019 16.0484 44.3955 15.7815 44.609 15.4345C44.8359 15.0875 44.9494 14.6738 44.9494 14.1933C44.9494 13.7129 44.8359 13.2992 44.609 12.9522C44.3822 12.6052 44.0819 12.345 43.7082 12.1715C43.3479 11.9846 42.9408 11.8912 42.4871 11.8912H39.4243V16.4955Z" fill="#191923"/>
<path d="M28.689 23.3818C27.915 23.3818 27.2076 23.195 26.567 22.8213C25.9398 22.4476 25.4393 21.9472 25.0657 21.3199C24.692 20.6793 24.5051 19.972 24.5051 19.198C24.5051 18.6375 24.6253 18.1103 24.8655 17.6165C25.1057 17.1227 25.4327 16.689 25.8464 16.3153C25.4327 15.9416 25.1057 15.5079 24.8655 15.0141C24.6253 14.5203 24.5051 13.9998 24.5051 13.4527C24.5051 12.692 24.6853 12.0046 25.0456 11.3907C25.4193 10.7768 25.9131 10.2897 26.527 9.9294C27.1543 9.55572 27.8416 9.36888 28.5889 9.36888H34.3543V11.8912H28.9092C28.629 11.8912 28.3687 11.9646 28.1285 12.1114C27.9016 12.2449 27.7148 12.4317 27.568 12.6719C27.4345 12.8988 27.3678 13.1591 27.3678 13.4527C27.3678 13.7329 27.4345 13.9932 27.568 14.2334C27.7148 14.4603 27.9016 14.6471 28.1285 14.7939C28.3687 14.9274 28.629 14.9941 28.9092 14.9941H33.6736V17.5164H29.0293C28.7224 17.5164 28.4421 17.5965 28.1885 17.7566C27.935 17.9034 27.7348 18.1036 27.588 18.3572C27.4412 18.6108 27.3678 18.891 27.3678 19.198C27.3678 19.5049 27.4412 19.7852 27.588 20.0387C27.7348 20.2923 27.935 20.4925 28.1885 20.6393C28.4421 20.7861 28.7224 20.8595 29.0293 20.8595H34.3543V23.3818H28.689Z" fill="#191923"/>
<path d="M46.6059 42.1717V33.6838C46.6059 32.496 46.8528 31.4751 47.3466 30.621C47.8538 29.7535 48.5411 29.0862 49.4085 28.6191C50.2894 28.152 51.297 27.9185 52.4313 27.9185C53.5657 27.9185 54.5666 28.152 55.4341 28.6191C56.3149 29.0862 57.0022 29.7535 57.496 30.621C58.0032 31.4751 58.2567 32.496 58.2567 33.6838V42.1717H55.3941V33.5036C55.3941 32.9431 55.274 32.4293 55.0337 31.9622C54.7935 31.4951 54.4532 31.1281 54.0128 30.8612C53.5724 30.5809 53.0452 30.4408 52.4313 30.4408C51.8308 30.4408 51.3036 30.5809 50.8499 30.8612C50.4095 31.1281 50.0692 31.4951 49.8289 31.9622C49.5887 32.4293 49.4686 32.9431 49.4686 33.5036V42.1717H46.6059Z" fill="#191923"/>
<path d="M37.3586 42.432C36.2375 42.432 35.2232 42.2451 34.3157 41.8715C33.4216 41.4844 32.6542 40.9573 32.0136 40.29C31.373 39.6227 30.8792 38.8487 30.5322 37.9679C30.1853 37.087 30.0118 36.1462 30.0118 35.1452C30.0118 34.1443 30.1853 33.2101 30.5322 32.3427C30.8792 31.4618 31.373 30.6878 32.0136 30.0205C32.6542 29.3532 33.4216 28.8327 34.3157 28.4591C35.2232 28.0854 36.2375 27.8985 37.3586 27.8985C38.4796 27.8985 39.4872 28.0854 40.3813 28.4591C41.2889 28.8327 42.0629 29.3532 42.7035 30.0205C43.3441 30.6878 43.8379 31.4618 44.1849 32.3427C44.5319 33.2101 44.7053 34.1443 44.7053 35.1452C44.7053 36.1462 44.5319 37.087 44.1849 37.9679C43.8379 38.8487 43.3441 39.6227 42.7035 40.29C42.0629 40.9573 41.2889 41.4844 40.3813 41.8715C39.4872 42.2451 38.4796 42.432 37.3586 42.432ZM37.3586 39.8896C37.9991 39.8896 38.593 39.7762 39.1402 39.5493C39.6874 39.3091 40.1611 38.9755 40.5615 38.5484C40.9752 38.108 41.2889 37.6009 41.5024 37.027C41.7293 36.4531 41.8427 35.8259 41.8427 35.1452C41.8427 34.4646 41.7293 33.8374 41.5024 33.2635C41.2889 32.6896 40.9752 32.1892 40.5615 31.7621C40.1611 31.3351 39.6874 31.0081 39.1402 30.7812C38.593 30.541 37.9991 30.4209 37.3586 30.4209C36.718 30.4209 36.1241 30.541 35.5769 30.7812C35.0297 31.0081 34.5493 31.3351 34.1356 31.7621C33.7352 32.1892 33.4216 32.6896 33.1947 33.2635C32.9812 33.8374 32.8744 34.4646 32.8744 35.1452C32.8744 35.8259 32.9812 36.4531 33.1947 37.027C33.4216 37.6009 33.7352 38.108 34.1356 38.5484C34.5493 38.9755 35.0297 39.3091 35.5769 39.5493C36.1241 39.7762 36.718 39.8896 37.3586 39.8896Z" fill="#191923"/>
<path d="M8.09199 42.4316C6.95761 42.4316 5.95001 42.198 5.06919 41.7309C4.20173 41.2639 3.51442 40.6032 3.00729 39.7491C2.5135 38.8816 2.2666 37.854 2.2666 36.6663V28.1784H5.12925V36.8464C5.12925 37.4069 5.24937 37.9208 5.48959 38.3879C5.72981 38.8416 6.07012 39.2086 6.51053 39.4889C6.96428 39.7691 7.49144 39.9093 8.09199 39.9093C8.70589 39.9093 9.23305 39.7691 9.67346 39.4889C10.1139 39.2086 10.4542 38.8416 10.6944 38.3879C10.9346 37.9208 11.0547 37.4069 11.0547 36.8464V33.183H13.9174V36.6663C13.9174 37.854 13.6638 38.8816 13.1567 39.7491C12.6629 40.6032 11.9756 41.2639 11.0948 41.7309C10.2273 42.198 9.22637 42.4316 8.09199 42.4316Z" fill="#191923"/>
<path d="M11.0547 36.8464V33.3632C11.0547 32.1754 11.3016 31.1545 11.7954 30.3004C12.3026 29.4329 12.9899 28.7656 13.8573 28.2985C14.7381 27.8314 15.7457 27.5979 16.8801 27.5979C18.0145 27.5979 19.0154 27.8314 19.8829 28.2985C20.7637 28.7656 21.451 29.4329 21.9448 30.3004C22.4519 31.1545 22.7055 32.1754 22.7055 33.3632V42.311H19.8429V33.183C19.8429 32.6225 19.7228 32.1087 19.4825 31.6416C19.2423 31.1745 18.902 30.8075 18.4616 30.5406C18.0212 30.2603 17.494 30.1202 16.8801 30.1202C16.2796 30.1202 15.7524 30.2603 15.2987 30.5406C14.8582 30.8075 14.5179 31.1745 14.2777 31.6416C14.0375 32.1087 13.9174 32.6225 13.9174 33.183L13.9174 36.8464L11.0547 36.8464Z" fill="#191923"/>
<path d="M26.4055 30.871C25.9651 30.871 25.5781 30.7109 25.2445 30.3906C24.9242 30.0703 24.764 29.6833 24.764 29.2295C24.764 28.7758 24.9242 28.3887 25.2445 28.0684C25.5781 27.7348 25.9651 27.568 26.4055 27.568C26.8593 27.568 27.2463 27.7348 27.5666 28.0684C27.9002 28.3887 28.0671 28.7758 28.0671 29.2295C28.0671 29.6833 27.9002 30.0703 27.5666 30.3906C27.2463 30.7109 26.8593 30.871 26.4055 30.871ZM27.947 42.3817C27.0394 42.3817 26.3255 42.1214 25.805 41.601C25.2978 41.0805 25.0443 40.3732 25.0443 39.479V32.1722H27.7868V39.3989C27.7868 39.5724 27.8469 39.7259 27.967 39.8593C28.1004 39.9795 28.2539 40.0395 28.4274 40.0395H29.048V42.3817H27.947Z" fill="#191923"/>
</svg>
