<svg width="126" height="26" viewBox="0 0 126 26" fill="none" xmlns="http://www.w3.org/2000/svg">
<path fill-rule="evenodd" clip-rule="evenodd" d="M13.0317 7.99997C13.5677 7.99997 14.0022 8.43444 14.0022 8.9704L14.0022 14.2792C14.0022 14.2792 12.5973 14.2792 12.0613 14.2792L12.0613 11.3132L7.31548 16.0566L11.4232 16.0565C11.4232 16.0565 11.4232 17.4614 11.4232 17.9974L4.97266 17.9974C4.4367 17.9974 4.00222 17.563 4.00222 17.027L4.0022 11.7182L5.94306 11.7182L5.94308 14.6842L10.6889 9.94084L7.72291 9.94086C7.72291 9.94086 7.72291 8.53589 7.7229 7.99994L13.0317 7.99997Z" fill="#191923"/>
<path d="M17.0022 17.9093V12.2507C17.0022 11.4589 17.1668 10.7783 17.496 10.2089C17.8341 9.63054 18.2923 9.18569 18.8706 8.87429C19.4578 8.56289 20.1295 8.40719 20.8858 8.40719C21.642 8.40719 22.3093 8.56289 22.8876 8.87429C23.4749 9.18569 23.9331 9.63054 24.2622 10.2089C24.6003 10.7783 24.7694 11.4589 24.7694 12.2507V17.9093H22.8609V12.1306C22.8609 11.757 22.7809 11.4144 22.6207 11.103C22.4606 10.7916 22.2337 10.5469 21.9401 10.369C21.6465 10.1822 21.2951 10.0887 20.8858 10.0887C20.4854 10.0887 20.134 10.1822 19.8315 10.369C19.5379 10.5469 19.311 10.7916 19.1509 11.103C18.9907 11.4144 18.9106 11.757 18.9106 12.1306V17.9093H17.0022Z" fill="#191923"/>
<path d="M22.8609 17.9093V12.2507C22.8609 11.4589 23.0255 10.7783 23.3547 10.2089C23.6928 9.63054 24.151 9.18569 24.7293 8.87429C25.3166 8.56289 25.9883 8.40719 26.7445 8.40719C27.5008 8.40719 28.1681 8.56289 28.7464 8.87429C29.3336 9.18569 29.7918 9.63054 30.121 10.2089C30.4591 10.7783 30.6281 11.4589 30.6281 12.2507V17.9093H28.7197V12.1306C28.7197 11.757 28.6396 11.4144 28.4795 11.103C28.3193 10.7916 28.0925 10.5469 27.7989 10.369C27.5052 10.1822 27.1538 10.0887 26.7445 10.0887C26.3442 10.0887 25.9927 10.1822 25.6902 10.369C25.3966 10.5469 25.1698 10.7916 25.0096 11.103C24.8495 11.4144 24.7694 11.757 24.7694 12.1306L24.7694 17.9093H22.8609Z" fill="#191923"/>
<path d="M76.8698 18C76.3537 18 75.8822 17.8755 75.4551 17.6263C75.037 17.3772 74.7033 17.0436 74.4542 16.6254C74.2051 16.1983 74.0805 15.7268 74.0805 15.2108C74.0805 14.8371 74.1606 14.4856 74.3207 14.1565C74.4809 13.8273 74.6989 13.5381 74.9747 13.289C74.6989 13.0399 74.4809 12.7507 74.3207 12.4215C74.1606 12.0923 74.0805 11.7453 74.0805 11.3806C74.0805 10.8734 74.2006 10.4152 74.4409 10.0059C74.69 9.59668 75.0192 9.27194 75.4284 9.03171C75.8466 8.78259 76.3048 8.65804 76.803 8.65804H80.6466V10.3396H77.0166C76.8297 10.3396 76.6562 10.3885 76.4961 10.4864C76.3448 10.5754 76.2203 10.6999 76.1224 10.8601C76.0334 11.0113 75.989 11.1848 75.989 11.3806C75.989 11.5674 76.0334 11.7409 76.1224 11.901C76.2203 12.0523 76.3448 12.1768 76.4961 12.2747C76.6562 12.3637 76.8297 12.4082 77.0166 12.4082H80.1928V14.0897H77.0966C76.892 14.0897 76.7052 14.1431 76.5361 14.2499C76.3671 14.3477 76.2336 14.4812 76.1358 14.6502C76.0379 14.8193 75.989 15.0061 75.989 15.2108C75.989 15.4154 76.0379 15.6022 76.1358 15.7713C76.2336 15.9403 76.3671 16.0738 76.5361 16.1717C76.7052 16.2695 76.892 16.3185 77.0966 16.3185H80.6466V18H76.8698Z" fill="#191923"/>
<path d="M71.6052 18C71.0536 18 70.5687 17.8755 70.1505 17.6263C69.7324 17.3683 69.4076 17.0302 69.1763 16.6121C68.945 16.185 68.8293 15.7179 68.8293 15.2108V10.3396H66.2269V8.65804H73.3401V10.3396H70.7377V15.4376C70.7377 15.6779 70.8223 15.8869 70.9913 16.0649C71.1603 16.2339 71.365 16.3185 71.6052 16.3185H75.2459L77.0303 18H71.6052Z" fill="#191923"/>
<path d="M63.9961 10.3262C63.7025 10.3262 63.4445 10.2194 63.2221 10.0059C63.0085 9.79235 62.9018 9.53433 62.9018 9.23183C62.9018 8.92933 63.0085 8.67131 63.2221 8.45778C63.4445 8.23535 63.7025 8.12414 63.9961 8.12414C64.2986 8.12414 64.5566 8.23535 64.7702 8.45778C64.9926 8.67131 65.1038 8.92933 65.1038 9.23183C65.1038 9.53433 64.9926 9.79235 64.7702 10.0059C64.5566 10.2194 64.2986 10.3262 63.9961 10.3262ZM65.0237 17.9999C64.4187 17.9999 63.9427 17.8264 63.5957 17.4795C63.2576 17.1325 63.0886 16.6609 63.0886 16.0648V11.1936H64.917V16.0114C64.917 16.1271 64.957 16.2294 65.0371 16.3184C65.126 16.3985 65.2284 16.4385 65.344 16.4385H65.7577V17.9999H65.0237Z" fill="#191923"/>
<path d="M60.2796 18C59.728 18 59.2431 17.8755 58.825 17.6263C58.4068 17.3683 58.0821 17.0302 57.8507 16.6121C57.6194 16.185 57.5037 15.7179 57.5037 15.2108V10.3396H54.9013V8.65804H62.0146V10.3396H59.4122V15.4376C59.4122 15.6779 59.4967 15.8869 59.6657 16.0649C59.8348 16.2339 60.0394 16.3185 60.2796 16.3185H60.9469V18H60.2796Z" fill="#191923"/>
<path d="M48.7353 18V16.3185H50.4169V10.3396H48.7353V8.65804H54.9842V10.3396H52.3253V16.3185H54.0068V18H48.7353Z" fill="#191923"/>
<path d="M39.8655 18V8.65804H44.0427C44.6566 8.65804 45.2127 8.79594 45.7109 9.07175C46.2181 9.33866 46.6184 9.71234 46.9121 10.1928C47.2146 10.6732 47.3658 11.2338 47.3658 11.8743C47.3658 12.4971 47.219 13.0488 46.9254 13.5292C46.6318 14.0008 46.2448 14.3744 45.7643 14.6502L46.6184 16.145C46.654 16.1983 46.6985 16.2428 46.7519 16.2784C46.8053 16.3051 46.8676 16.3185 46.9387 16.3185H48.7452V18H46.6451C46.2715 18 45.9289 17.9066 45.6175 17.7198C45.315 17.5329 45.0748 17.2882 44.8969 16.9857L43.8425 15.0907C43.7625 15.0907 43.6779 15.0907 43.589 15.0907C43.5089 15.0907 43.4288 15.0907 43.3488 15.0907H41.774V18H39.8655ZM41.774 13.4091H43.8159C44.1184 13.4091 44.3942 13.3513 44.6433 13.2356C44.8924 13.111 45.0881 12.9331 45.2305 12.7018C45.3817 12.4705 45.4574 12.1946 45.4574 11.8743C45.4574 11.554 45.3817 11.2782 45.2305 11.0469C45.0792 10.8156 44.8791 10.6421 44.6299 10.5264C44.3897 10.4019 44.1184 10.3396 43.8159 10.3396H41.774V13.4091Z" fill="#191923"/>
<path d="M34.6171 18C34.1011 18 33.6296 17.8755 33.2025 17.6263C32.7843 17.3772 32.4507 17.0436 32.2016 16.6254C31.9525 16.1983 31.8279 15.7268 31.8279 15.2108C31.8279 14.8371 31.908 14.4856 32.0681 14.1565C32.2283 13.8273 32.4462 13.5381 32.7221 13.289C32.4462 13.0399 32.2283 12.7507 32.0681 12.4215C31.908 12.0923 31.8279 11.7453 31.8279 11.3806C31.8279 10.8734 31.948 10.4152 32.1882 10.0059C32.4373 9.59668 32.7665 9.27194 33.1758 9.03171C33.594 8.78259 34.0522 8.65804 34.5504 8.65804H38.394V10.3396H34.7639C34.5771 10.3396 34.4036 10.3885 34.2435 10.4864C34.0922 10.5754 33.9677 10.6999 33.8698 10.8601C33.7808 11.0113 33.7363 11.1848 33.7363 11.3806C33.7363 11.5674 33.7808 11.7409 33.8698 11.901C33.9677 12.0523 34.0922 12.1768 34.2435 12.2747C34.4036 12.3637 34.5771 12.4082 34.7639 12.4082H37.9402V14.0897H34.844C34.6394 14.0897 34.4525 14.1431 34.2835 14.2499C34.1145 14.3477 33.981 14.4812 33.8831 14.6502C33.7853 14.8193 33.7363 15.0061 33.7363 15.2108C33.7363 15.4154 33.7853 15.6022 33.8831 15.7713C33.981 15.9403 34.1145 16.0738 34.2835 16.1717C34.4525 16.2695 34.6394 16.3185 34.844 16.3185H38.394V18H34.6171Z" fill="#191923"/>
<path d="M114.231 17.7357V12.0772C114.231 11.2853 114.395 10.6047 114.725 10.0353C115.063 9.45695 115.521 9.01209 116.099 8.7007C116.686 8.3893 117.358 8.2336 118.114 8.2336C118.871 8.2336 119.538 8.3893 120.116 8.7007C120.703 9.01209 121.162 9.45695 121.491 10.0353C121.829 10.6047 121.998 11.2853 121.998 12.0772V17.7357H120.09V11.957C120.09 11.5834 120.009 11.2408 119.849 10.9294C119.689 10.618 119.462 10.3734 119.169 10.1954C118.875 10.0086 118.524 9.91515 118.114 9.91515C117.714 9.91515 117.363 10.0086 117.06 10.1954C116.766 10.3734 116.54 10.618 116.379 10.9294C116.219 11.2408 116.139 11.5834 116.139 11.957V17.7357H114.231Z" fill="#191923"/>
<path d="M108.066 17.9093C107.318 17.9093 106.642 17.7847 106.037 17.5356C105.441 17.2776 104.93 16.9261 104.503 16.4813C104.075 16.0364 103.746 15.5204 103.515 14.9332C103.284 14.346 103.168 13.7187 103.168 13.0515C103.168 12.3842 103.284 11.7614 103.515 11.1831C103.746 10.5958 104.075 10.0798 104.503 9.63496C104.93 9.1901 105.441 8.84312 106.037 8.594C106.642 8.34488 107.318 8.22032 108.066 8.22032C108.813 8.22032 109.485 8.34488 110.081 8.594C110.686 8.84312 111.202 9.1901 111.629 9.63496C112.056 10.0798 112.385 10.5958 112.617 11.1831C112.848 11.7614 112.964 12.3842 112.964 13.0515C112.964 13.7187 112.848 14.346 112.617 14.9332C112.385 15.5204 112.056 16.0364 111.629 16.4813C111.202 16.9261 110.686 17.2776 110.081 17.5356C109.485 17.7847 108.813 17.9093 108.066 17.9093ZM108.066 16.2144C108.493 16.2144 108.889 16.1388 109.254 15.9875C109.618 15.8274 109.934 15.6049 110.201 15.3202C110.477 15.0266 110.686 14.6885 110.828 14.3059C110.98 13.9234 111.055 13.5052 111.055 13.0515C111.055 12.5977 110.98 12.1795 110.828 11.797C110.686 11.4144 110.477 11.0807 110.201 10.796C109.934 10.5113 109.618 10.2933 109.254 10.1421C108.889 9.98195 108.493 9.90187 108.066 9.90187C107.639 9.90187 107.243 9.98195 106.878 10.1421C106.513 10.2933 106.193 10.5113 105.917 10.796C105.65 11.0807 105.441 11.4144 105.29 11.797C105.148 12.1795 105.076 12.5977 105.076 13.0515C105.076 13.5052 105.148 13.9234 105.29 14.3059C105.441 14.6885 105.65 15.0266 105.917 15.3202C106.193 15.6049 106.513 15.8274 106.878 15.9875C107.243 16.1388 107.639 16.2144 108.066 16.2144Z" fill="#191923"/>
<path d="M88.5548 17.909C87.7985 17.909 87.1268 17.7533 86.5396 17.4419C85.9613 17.1305 85.5031 16.6901 85.165 16.1207C84.8358 15.5424 84.6712 14.8573 84.6712 14.0655V8.4069H86.5796V14.1856C86.5796 14.5593 86.6597 14.9018 86.8198 15.2132C86.98 15.5157 87.2069 15.7604 87.5005 15.9472C87.803 16.134 88.1544 16.2275 88.5548 16.2275C88.9641 16.2275 89.3155 16.134 89.6091 15.9472C89.9027 15.7604 90.1296 15.5157 90.2897 15.2132C90.4499 14.9018 90.5299 14.5593 90.5299 14.1856V11.7433H92.4384V14.0655C92.4384 14.8573 92.2693 15.5424 91.9312 16.1207C91.6021 16.6901 91.1438 17.1305 90.5566 17.4419C89.9783 17.7533 89.311 17.909 88.5548 17.909Z" fill="#191923"/>
<path d="M90.5299 14.1856V11.8634C90.5299 11.0716 90.6945 10.3909 91.0237 9.82153C91.3618 9.24322 91.82 8.79836 92.3983 8.48697C92.9855 8.17557 93.6573 8.01987 94.4135 8.01987C95.1698 8.01987 95.8371 8.17557 96.4154 8.48697C97.0026 8.79836 97.4608 9.24322 97.79 9.82153C98.1281 10.3909 98.2971 11.0716 98.2971 11.8634V17.8286H96.3887V11.7433C96.3887 11.3696 96.3086 11.0271 96.1485 10.7157C95.9883 10.4043 95.7615 10.1596 95.4678 9.98168C95.1742 9.79484 94.8228 9.70142 94.4135 9.70142C94.0132 9.70142 93.6617 9.79484 93.3592 9.98168C93.0656 10.1596 92.8387 10.4043 92.6786 10.7157C92.5184 11.0271 92.4384 11.3696 92.4384 11.7433L92.4384 14.1856L90.5299 14.1856Z" fill="#191923"/>
<path d="M100.764 10.202C100.47 10.202 100.212 10.0952 99.9898 9.88168C99.7762 9.66815 99.6695 9.41013 99.6695 9.10763C99.6695 8.80513 99.7762 8.54711 99.9898 8.33358C100.212 8.11115 100.47 7.99994 100.764 7.99994C101.066 7.99994 101.324 8.11115 101.538 8.33358C101.76 8.54711 101.871 8.80513 101.871 9.10763C101.871 9.41013 101.76 9.66815 101.538 9.88168C101.324 10.0952 101.066 10.202 100.764 10.202ZM101.791 17.8757C101.186 17.8757 100.71 17.7022 100.363 17.3553C100.025 17.0083 99.8563 16.5367 99.8563 15.9406V11.0694H101.685V15.8872C101.685 16.0029 101.725 16.1052 101.805 16.1942C101.894 16.2743 101.996 16.3143 102.112 16.3143H102.525V17.8757H101.791Z" fill="#191923"/>
</svg>
