<svg width="100" height="51" viewBox="0 0 100 51" fill="none" xmlns="http://www.w3.org/2000/svg">
<path d="M18.6584 10.568C18.2441 10.568 17.8655 10.468 17.5227 10.268C17.187 10.068 16.9191 9.80014 16.7191 9.46442C16.5191 9.12156 16.4191 8.74299 16.4191 8.32871C16.4191 8.02871 16.4834 7.74656 16.612 7.48228C16.7405 7.21799 16.9155 6.98585 17.137 6.78585C16.9155 6.58585 16.7405 6.35371 16.612 6.08942C16.4834 5.82514 16.4191 5.54656 16.4191 5.25371C16.4191 4.84656 16.5155 4.47871 16.7084 4.15014C16.9084 3.82156 17.1727 3.56085 17.5012 3.36799C17.837 3.16799 18.2048 3.06799 18.6048 3.06799H21.6905V4.41799H18.7762C18.6262 4.41799 18.487 4.45728 18.3584 4.53585C18.237 4.60728 18.137 4.70728 18.0584 4.83585C17.987 4.95728 17.9512 5.09656 17.9512 5.25371C17.9512 5.40371 17.987 5.54299 18.0584 5.67156C18.137 5.79299 18.237 5.89299 18.3584 5.97156C18.487 6.04299 18.6262 6.07871 18.7762 6.07871H21.3262V7.42871H18.8405C18.6762 7.42871 18.5262 7.47156 18.3905 7.55728C18.2548 7.63585 18.1477 7.74299 18.0691 7.87871C17.9905 8.01442 17.9512 8.16442 17.9512 8.32871C17.9512 8.49299 17.9905 8.64299 18.0691 8.77871C18.1477 8.91442 18.2548 9.02156 18.3905 9.10014C18.5262 9.17871 18.6762 9.21799 18.8405 9.21799H21.6905V10.568H18.6584Z" fill="#191923"/>
<path d="M8.89314 10.568V3.06799H10.4253V6.07871H13.7039V3.06799H15.236V10.568H13.7039V7.42871H10.4253V10.568H8.89314Z" fill="#191923"/>
<path d="M6.58447 10.568C6.14161 10.568 5.75232 10.468 5.41661 10.268C5.08089 10.0608 4.82018 9.78942 4.63447 9.45371C4.44875 9.11085 4.35589 8.73585 4.35589 8.32871V4.41799H2.26661V3.06799H7.97732V4.41799H5.88804V8.51085C5.88804 8.70371 5.95589 8.87156 6.09161 9.01442C6.22732 9.15014 6.39161 9.21799 6.58447 9.21799H9.0791L8.99049 10.568H6.58447Z" fill="#191923"/>
<path fill-rule="evenodd" clip-rule="evenodd" d="M72.2962 36.068C72.8321 36.068 73.2666 36.5025 73.2666 37.0385L73.2666 42.3473C73.2666 42.3473 71.8617 42.3473 71.3257 42.3473L71.3257 39.3813L66.5799 44.1246L70.6876 44.1246C70.6876 44.1246 70.6876 45.5295 70.6876 46.0655L64.2371 46.0655C63.7011 46.0655 63.2666 45.631 63.2666 45.0951L63.2666 39.7862L65.2075 39.7862L65.2075 42.7522L69.9533 38.0089L66.9873 38.0089C66.9873 38.0089 66.9873 36.6039 66.9873 36.068L72.2962 36.068Z" fill="#191923"/>
<path d="M2.26661 28.7458V20.258C2.26661 19.0702 2.5135 18.0492 3.00729 17.1951C3.51443 16.3276 4.20173 15.6604 5.0692 15.1933C5.95002 14.7262 6.95762 14.4926 8.092 14.4926C9.22638 14.4926 10.2273 14.7262 11.0948 15.1933C11.9756 15.6604 12.6629 16.3276 13.1567 17.1951C13.6638 18.0492 13.9174 19.0702 13.9174 20.258V28.7458H11.0547V20.0778C11.0547 19.5173 10.9346 19.0035 10.6944 18.5364C10.4542 18.0693 10.1139 17.7023 9.67346 17.4353C9.23306 17.1551 8.7059 17.015 8.092 17.015C7.49144 17.015 6.96429 17.1551 6.51054 17.4353C6.07013 17.7023 5.72982 18.0693 5.48959 18.5364C5.24937 19.0035 5.12926 19.5173 5.12926 20.0778V28.7458H2.26661Z" fill="#191923"/>
<path d="M11.0547 28.7458V20.258C11.0547 19.0702 11.3016 18.0492 11.7954 17.1951C12.3026 16.3276 12.9899 15.6604 13.8573 15.1933C14.7381 14.7262 15.7457 14.4926 16.8801 14.4926C18.0145 14.4926 19.0154 14.7262 19.8829 15.1933C20.7637 15.6604 21.451 16.3276 21.9448 17.1951C22.4519 18.0492 22.7055 19.0702 22.7055 20.258V28.7458H19.8429V20.0778C19.8429 19.5173 19.7228 19.0035 19.4825 18.5364C19.2423 18.0693 18.902 17.7023 18.4616 17.4353C18.0212 17.1551 17.494 17.015 16.8801 17.015C16.2796 17.015 15.7524 17.1551 15.2987 17.4353C14.8583 17.7023 14.5179 18.0693 14.2777 18.5364C14.0375 19.0035 13.9174 19.5173 13.9174 20.0778L13.9174 28.7458H11.0547Z" fill="#191923"/>
<path d="M92.068 28.8819C91.2939 28.8819 90.5866 28.695 89.946 28.3213C89.3187 27.9477 88.8183 27.4472 88.4446 26.8199C88.0709 26.1794 87.8841 25.472 87.8841 24.698C87.8841 24.1375 88.0042 23.6103 88.2444 23.1165C88.4846 22.6227 88.8116 22.189 89.2253 21.8153C88.8116 21.4416 88.4846 21.0079 88.2444 20.5141C88.0042 20.0203 87.8841 19.4998 87.8841 18.9527C87.8841 18.192 88.0643 17.5047 88.4246 16.8908C88.7983 16.2769 89.2921 15.7897 89.906 15.4294C90.5332 15.0557 91.2205 14.8689 91.9679 14.8689H97.7332V17.3912H92.2882C92.0079 17.3912 91.7477 17.4646 91.5074 17.6114C91.2806 17.7449 91.0937 17.9317 90.9469 18.1719C90.8135 18.3988 90.7467 18.6591 90.7467 18.9527C90.7467 19.2329 90.8135 19.4932 90.9469 19.7334C91.0937 19.9603 91.2806 20.1471 91.5074 20.2939C91.7477 20.4274 92.0079 20.4941 92.2882 20.4941H97.0526V23.0164H92.4083C92.1013 23.0164 91.8211 23.0965 91.5675 23.2567C91.3139 23.4035 91.1137 23.6036 90.9669 23.8572C90.8201 24.1108 90.7467 24.391 90.7467 24.698C90.7467 25.0049 90.8201 25.2852 90.9669 25.5388C91.1137 25.7923 91.3139 25.9925 91.5675 26.1393C91.8211 26.2861 92.1013 26.3595 92.4083 26.3595H97.7332V28.8819H92.068Z" fill="#191923"/>
<path d="M84.1711 28.8819C83.3437 28.8819 82.6163 28.695 81.9891 28.3213C81.3618 27.9343 80.8747 27.4272 80.5277 26.7999C80.1808 26.1593 80.0073 25.4587 80.0073 24.698V17.3912H76.1036V14.8689H86.7735V17.3912H82.8699V25.0383C82.8699 25.3986 82.9967 25.7123 83.2503 25.9792C83.5038 26.2327 83.8108 26.3595 84.1711 26.3595H89.6321L92.3087 28.8819H84.1711Z" fill="#191923"/>
<path d="M72.7575 17.3711C72.317 17.3711 71.93 17.2109 71.5964 16.8906C71.2761 16.5704 71.1159 16.1833 71.1159 15.7296C71.1159 15.2758 71.2761 14.8888 71.5964 14.5685C71.93 14.2349 72.317 14.068 72.7575 14.068C73.2112 14.068 73.5982 14.2349 73.9185 14.5685C74.2522 14.8888 74.419 15.2758 74.419 15.7296C74.419 16.1833 74.2522 16.5704 73.9185 16.8906C73.5982 17.2109 73.2112 17.3711 72.7575 17.3711ZM74.2989 28.8817C73.3914 28.8817 72.6774 28.6215 72.1569 28.101C71.6498 27.5805 71.3962 26.8732 71.3962 25.9791V18.6723H74.1387V25.899C74.1387 26.0725 74.1988 26.226 74.3189 26.3594C74.4524 26.4795 74.6058 26.5396 74.7793 26.5396H75.3999V28.8817H74.2989Z" fill="#191923"/>
<path d="M67.1828 28.8819C66.3553 28.8819 65.628 28.695 65.0007 28.3213C64.3735 27.9343 63.8864 27.4272 63.5394 26.7999C63.1924 26.1593 63.0189 25.4587 63.0189 24.698V17.3912H59.1153V14.8689H69.7852V17.3912H65.8815V25.0383C65.8815 25.3986 66.0083 25.7123 66.2619 25.9792C66.5155 26.2327 66.8224 26.3595 67.1828 26.3595H68.1837V28.8819H67.1828Z" fill="#191923"/>
<path d="M49.8662 28.8819V26.3595H52.3886V17.3912H49.8662V14.8689H59.2396V17.3912H55.2512V26.3595H57.7736V28.8819H49.8662Z" fill="#191923"/>
<path d="M36.5616 28.8819V14.8689H42.8274C43.7483 14.8689 44.5824 15.0758 45.3297 15.4895C46.0904 15.8898 46.691 16.4504 47.1314 17.171C47.5851 17.8917 47.812 18.7325 47.812 19.6934C47.812 20.6276 47.5918 21.455 47.1514 22.1757C46.711 22.883 46.1305 23.4435 45.4098 23.8572L46.691 26.0993C46.7444 26.1794 46.8111 26.2461 46.8912 26.2995C46.9712 26.3395 47.0647 26.3595 47.1714 26.3595H49.881V28.8819H46.731C46.1705 28.8819 45.6567 28.7417 45.1896 28.4615C44.7358 28.1812 44.3755 27.8142 44.1086 27.3604L42.5271 24.5178C42.407 24.5178 42.2802 24.5178 42.1468 24.5178C42.0267 24.5178 41.9065 24.5178 41.7864 24.5178H39.4243V28.8819H36.5616ZM39.4243 21.9955H42.4871C42.9408 21.9955 43.3546 21.9087 43.7282 21.7352C44.1019 21.5484 44.3955 21.2815 44.609 20.9345C44.8359 20.5875 44.9494 20.1738 44.9494 19.6934C44.9494 19.2129 44.8359 18.7992 44.609 18.4522C44.3822 18.1052 44.0819 17.845 43.7082 17.6715C43.3479 17.4846 42.9408 17.3912 42.4871 17.3912H39.4243V21.9955Z" fill="#191923"/>
<path d="M28.689 28.8819C27.915 28.8819 27.2076 28.695 26.567 28.3213C25.9398 27.9477 25.4393 27.4472 25.0657 26.8199C24.692 26.1794 24.5051 25.472 24.5051 24.698C24.5051 24.1375 24.6253 23.6103 24.8655 23.1165C25.1057 22.6227 25.4327 22.189 25.8464 21.8153C25.4327 21.4416 25.1057 21.0079 24.8655 20.5141C24.6253 20.0203 24.5051 19.4998 24.5051 18.9527C24.5051 18.192 24.6853 17.5047 25.0456 16.8908C25.4193 16.2769 25.9131 15.7897 26.527 15.4294C27.1543 15.0557 27.8416 14.8689 28.5889 14.8689H34.3543V17.3912H28.9092C28.629 17.3912 28.3687 17.4646 28.1285 17.6114C27.9016 17.7449 27.7148 17.9317 27.568 18.1719C27.4345 18.3988 27.3678 18.6591 27.3678 18.9527C27.3678 19.2329 27.4345 19.4932 27.568 19.7334C27.7148 19.9603 27.9016 20.1471 28.1285 20.2939C28.3687 20.4274 28.629 20.4941 28.9092 20.4941H33.6736V23.0164H29.0293C28.7224 23.0164 28.4421 23.0965 28.1885 23.2567C27.935 23.4035 27.7348 23.6036 27.588 23.8572C27.4412 24.1108 27.3678 24.391 27.3678 24.698C27.3678 25.0049 27.4412 25.2852 27.588 25.5388C27.7348 25.7923 27.935 25.9925 28.1885 26.1393C28.4421 26.2861 28.7224 26.3595 29.0293 26.3595H34.3543V28.8819H28.689Z" fill="#191923"/>
<path d="M46.6059 47.6717V39.1838C46.6059 37.996 46.8528 36.9751 47.3466 36.121C47.8538 35.2535 48.5411 34.5862 49.4085 34.1191C50.2894 33.652 51.297 33.4185 52.4313 33.4185C53.5657 33.4185 54.5666 33.652 55.4341 34.1191C56.3149 34.5862 57.0022 35.2535 57.496 36.121C58.0032 36.9751 58.2567 37.996 58.2567 39.1838V47.6717H55.3941V39.0036C55.3941 38.4431 55.274 37.9293 55.0337 37.4622C54.7935 36.9951 54.4532 36.6281 54.0128 36.3612C53.5724 36.0809 53.0452 35.9408 52.4313 35.9408C51.8308 35.9408 51.3036 36.0809 50.8499 36.3612C50.4095 36.6281 50.0692 36.9951 49.8289 37.4622C49.5887 37.9293 49.4686 38.4431 49.4686 39.0036V47.6717H46.6059Z" fill="#191923"/>
<path d="M37.3586 47.932C36.2375 47.932 35.2232 47.7452 34.3157 47.3715C33.4216 46.9845 32.6542 46.4573 32.0136 45.79C31.373 45.1227 30.8792 44.3487 30.5322 43.4679C30.1853 42.5871 30.0118 41.6462 30.0118 40.6453C30.0118 39.6443 30.1853 38.7101 30.5322 37.8427C30.8792 36.9619 31.373 36.1878 32.0136 35.5205C32.6542 34.8532 33.4216 34.3328 34.3157 33.9591C35.2232 33.5854 36.2375 33.3986 37.3586 33.3986C38.4796 33.3986 39.4872 33.5854 40.3813 33.9591C41.2889 34.3328 42.0629 34.8532 42.7035 35.5205C43.3441 36.1878 43.8379 36.9619 44.1849 37.8427C44.5319 38.7101 44.7053 39.6443 44.7053 40.6453C44.7053 41.6462 44.5319 42.5871 44.1849 43.4679C43.8379 44.3487 43.3441 45.1227 42.7035 45.79C42.0629 46.4573 41.2889 46.9845 40.3813 47.3715C39.4872 47.7452 38.4796 47.932 37.3586 47.932ZM37.3586 45.3897C37.9991 45.3897 38.593 45.2762 39.1402 45.0493C39.6874 44.8091 40.1611 44.4755 40.5615 44.0484C40.9752 43.608 41.2889 43.1009 41.5024 42.527C41.7293 41.9531 41.8427 41.3259 41.8427 40.6453C41.8427 39.9646 41.7293 39.3374 41.5024 38.7635C41.2889 38.1897 40.9752 37.6892 40.5615 37.2621C40.1611 36.8351 39.6874 36.5081 39.1402 36.2812C38.593 36.041 37.9991 35.9209 37.3586 35.9209C36.718 35.9209 36.1241 36.041 35.5769 36.2812C35.0297 36.5081 34.5493 36.8351 34.1356 37.2621C33.7352 37.6892 33.4216 38.1897 33.1947 38.7635C32.9812 39.3374 32.8744 39.9646 32.8744 40.6453C32.8744 41.3259 32.9812 41.9531 33.1947 42.527C33.4216 43.1009 33.7352 43.608 34.1356 44.0484C34.5493 44.4755 35.0297 44.8091 35.5769 45.0493C36.1241 45.2762 36.718 45.3897 37.3586 45.3897Z" fill="#191923"/>
<path d="M8.09199 47.9316C6.95761 47.9316 5.95001 47.6981 5.06919 47.231C4.20173 46.7639 3.51442 46.1033 3.00729 45.2491C2.5135 44.3817 2.2666 43.354 2.2666 42.1663V33.6784H5.12925V42.3464C5.12925 42.907 5.24937 43.4208 5.48959 43.8879C5.72981 44.3416 6.07012 44.7086 6.51053 44.9889C6.96428 45.2692 7.49144 45.4093 8.09199 45.4093C8.70589 45.4093 9.23305 45.2692 9.67346 44.9889C10.1139 44.7086 10.4542 44.3416 10.6944 43.8879C10.9346 43.4208 11.0547 42.907 11.0547 42.3464V38.6831H13.9174V42.1663C13.9174 43.354 13.6638 44.3817 13.1567 45.2491C12.6629 46.1033 11.9756 46.7639 11.0948 47.231C10.2273 47.6981 9.22637 47.9316 8.09199 47.9316Z" fill="#191923"/>
<path d="M11.0547 42.3464V38.8632C11.0547 37.6754 11.3016 36.6545 11.7954 35.8004C12.3026 34.9329 12.9899 34.2656 13.8573 33.7985C14.7381 33.3314 15.7457 33.0979 16.8801 33.0979C18.0145 33.0979 19.0154 33.3314 19.8829 33.7985C20.7637 34.2656 21.451 34.9329 21.9448 35.8004C22.4519 36.6545 22.7055 37.6754 22.7055 38.8632V47.811H19.8429V38.683C19.8429 38.1225 19.7228 37.6087 19.4825 37.1416C19.2423 36.6745 18.902 36.3075 18.4616 36.0406C18.0212 35.7603 17.494 35.6202 16.8801 35.6202C16.2796 35.6202 15.7524 35.7603 15.2987 36.0406C14.8582 36.3075 14.5179 36.6745 14.2777 37.1416C14.0375 37.6087 13.9174 38.1225 13.9174 38.6831L13.9174 42.3464L11.0547 42.3464Z" fill="#191923"/>
<path d="M26.4055 36.371C25.9651 36.371 25.5781 36.2109 25.2445 35.8906C24.9242 35.5703 24.764 35.1833 24.764 34.7295C24.764 34.2758 24.9242 33.8888 25.2445 33.5685C25.5781 33.2348 25.9651 33.068 26.4055 33.068C26.8593 33.068 27.2463 33.2348 27.5666 33.5685C27.9002 33.8888 28.0671 34.2758 28.0671 34.7295C28.0671 35.1833 27.9002 35.5703 27.5666 35.8906C27.2463 36.2109 26.8593 36.371 26.4055 36.371ZM27.947 47.8817C27.0394 47.8817 26.3255 47.6215 25.805 47.101C25.2978 46.5805 25.0443 45.8732 25.0443 44.979V37.6723H27.7868V44.8989C27.7868 45.0724 27.8469 45.2259 27.967 45.3594C28.1004 45.4795 28.2539 45.5395 28.4274 45.5395H29.048V47.8817H27.947Z" fill="#191923"/>
</svg>
