<svg width="76" height="33" viewBox="0 0 76 33" fill="none" xmlns="http://www.w3.org/2000/svg">
<path d="M16.7054 7.00003C16.4293 7.00003 16.1769 6.93336 15.9483 6.80003C15.7245 6.6667 15.5459 6.48813 15.4126 6.26432C15.2793 6.03574 15.2126 5.78336 15.2126 5.50717C15.2126 5.30717 15.2554 5.11908 15.3412 4.94289C15.4269 4.7667 15.5435 4.61194 15.6912 4.4786C15.5435 4.34527 15.4269 4.19051 15.3412 4.01432C15.2554 3.83813 15.2126 3.65241 15.2126 3.45717C15.2126 3.18574 15.2769 2.94051 15.4054 2.72146C15.5388 2.50241 15.715 2.3286 15.934 2.20003C16.1578 2.0667 16.4031 2.00003 16.6697 2.00003H18.7269V2.90003H16.784C16.684 2.90003 16.5912 2.92622 16.5054 2.9786C16.4245 3.02622 16.3578 3.09289 16.3054 3.1786C16.2578 3.25955 16.234 3.35241 16.234 3.45717C16.234 3.55717 16.2578 3.65003 16.3054 3.73574C16.3578 3.8167 16.4245 3.88336 16.5054 3.93574C16.5912 3.98336 16.684 4.00717 16.784 4.00717H18.484V4.90717H16.8269C16.7173 4.90717 16.6173 4.93574 16.5269 4.99289C16.4364 5.04527 16.365 5.1167 16.3126 5.20717C16.2602 5.29765 16.234 5.39765 16.234 5.50717C16.234 5.6167 16.2602 5.7167 16.3126 5.80717C16.365 5.89765 16.4364 5.96908 16.5269 6.02146C16.6173 6.07384 16.7173 6.10003 16.8269 6.10003H18.7269V7.00003H16.7054Z" fill="#191923"/>
<path d="M10.1953 7.00003V2.00003H11.2167V4.00717H13.4024V2.00003H14.4238V7.00003H13.4024V4.90717H11.2167V7.00003H10.1953Z" fill="#191923"/>
<path d="M8.65616 7.00003C8.36092 7.00003 8.1014 6.93336 7.87759 6.80003C7.65378 6.66194 7.47997 6.48098 7.35616 6.25717C7.23235 6.0286 7.17044 5.7786 7.17044 5.50717V2.90003H5.77759V2.00003H9.58473V2.90003H8.19187V5.6286C8.19187 5.75717 8.23711 5.86908 8.32759 5.96432C8.41806 6.05479 8.52759 6.10003 8.65616 6.10003H10.3192L10.2602 7.00003H8.65616Z" fill="#191923"/>
<path fill-rule="evenodd" clip-rule="evenodd" d="M55.8071 21.0001C56.3431 21.0001 56.7776 21.4345 56.7776 21.9705L56.7776 27.2793C56.7776 27.2793 55.3727 27.2793 54.8367 27.2793L54.8367 24.3133L50.0909 29.0567L54.1986 29.0566C54.1986 29.0566 54.1986 30.4615 54.1986 30.9975L47.748 30.9975C47.2121 30.9975 46.7776 30.563 46.7776 30.0271L46.7776 24.7183L48.7185 24.7183L48.7185 27.6843L53.4643 22.9409L50.4983 22.9409C50.4983 22.9409 50.4983 21.536 50.4983 21L55.8071 21.0001Z" fill="#191923"/>
<path d="M5.77759 18.9083V13.1786C5.77759 12.3768 5.94425 11.6876 6.27759 11.111C6.61993 10.5254 7.08389 10.075 7.66948 9.75964C8.26407 9.44433 8.94426 9.28667 9.71002 9.28667C10.4758 9.28667 11.1515 9.44433 11.737 9.75964C12.3316 10.075 12.7956 10.5254 13.1289 11.111C13.4713 11.6876 13.6425 12.3768 13.6425 13.1786V18.9083H11.71V13.0569C11.71 12.6786 11.6289 12.3317 11.4668 12.0164C11.3046 11.7011 11.0749 11.4533 10.7776 11.2732C10.4803 11.084 10.1244 10.9894 9.71002 10.9894C9.30462 10.9894 8.94876 11.084 8.64246 11.2732C8.34516 11.4533 8.11543 11.7011 7.95327 12.0164C7.7911 12.3317 7.71002 12.6786 7.71002 13.0569V18.9083H5.77759Z" fill="#191923"/>
<path d="M11.71 18.9083V13.1786C11.71 12.3768 11.8767 11.6876 12.21 11.111C12.5524 10.5254 13.0163 10.075 13.6019 9.75964C14.1965 9.44433 14.8767 9.28667 15.6425 9.28667C16.4082 9.28667 17.0839 9.44433 17.6695 9.75964C18.2641 10.075 18.728 10.5254 19.0614 11.111C19.4037 11.6876 19.5749 12.3768 19.5749 13.1786V18.9083H17.6424V13.0569C17.6424 12.6786 17.5614 12.3317 17.3992 12.0164C17.237 11.7011 17.0073 11.4533 16.71 11.2732C16.4127 11.084 16.0569 10.9894 15.6425 10.9894C15.237 10.9894 14.8812 11.084 14.5749 11.2732C14.2776 11.4533 14.0479 11.7011 13.8857 12.0164C13.7235 12.3317 13.6424 12.6786 13.6424 13.0569L13.6425 18.9083H11.71Z" fill="#191923"/>
<path d="M66.398 19.0001C65.8755 19.0001 65.3981 18.874 64.9656 18.6218C64.5422 18.3695 64.2044 18.0317 63.9521 17.6082C63.6999 17.1758 63.5737 16.6983 63.5737 16.1758C63.5737 15.7974 63.6548 15.4416 63.817 15.1082C63.9791 14.7749 64.1999 14.4821 64.4791 14.2299C64.1999 13.9776 63.9791 13.6848 63.817 13.3515C63.6548 13.0181 63.5737 12.6668 63.5737 12.2974C63.5737 11.7839 63.6953 11.32 63.9386 10.9055C64.1908 10.4911 64.5242 10.1623 64.9386 9.91905C65.362 9.6668 65.826 9.54067 66.3305 9.54067H70.2224V11.2434H66.5467C66.3575 11.2434 66.1818 11.2929 66.0197 11.392C65.8665 11.4821 65.7404 11.6082 65.6413 11.7704C65.5512 11.9236 65.5062 12.0992 65.5062 12.2974C65.5062 12.4866 65.5512 12.6623 65.6413 12.8245C65.7404 12.9776 65.8665 13.1037 66.0197 13.2028C66.1818 13.2929 66.3575 13.338 66.5467 13.338H69.7629V15.0407H66.6278C66.4206 15.0407 66.2314 15.0947 66.0602 15.2028C65.889 15.3019 65.7539 15.4371 65.6548 15.6082C65.5557 15.7794 65.5062 15.9686 65.5062 16.1758C65.5062 16.383 65.5557 16.5722 65.6548 16.7434C65.7539 16.9145 65.889 17.0497 66.0602 17.1488C66.2314 17.2479 66.4206 17.2974 66.6278 17.2974H70.2224V19.0001H66.398Z" fill="#191923"/>
<path d="M61.0673 19.0001C60.5087 19.0001 60.0177 18.874 59.5943 18.6218C59.1709 18.3605 58.842 18.0181 58.6078 17.5947C58.3736 17.1623 58.2565 16.6893 58.2565 16.1758V11.2434H55.6213V9.54067H62.824V11.2434H60.1889V16.4055C60.1889 16.6488 60.2745 16.8605 60.4456 17.0407C60.6168 17.2118 60.824 17.2974 61.0673 17.2974H64.7537L66.5606 19.0001H61.0673Z" fill="#191923"/>
<path d="M53.3625 11.2298C53.0652 11.2298 52.8039 11.1217 52.5787 10.9055C52.3625 10.6893 52.2544 10.428 52.2544 10.1217C52.2544 9.81538 52.3625 9.55412 52.5787 9.3379C52.8039 9.11267 53.0652 9.00006 53.3625 9.00006C53.6688 9.00006 53.9301 9.11267 54.1463 9.3379C54.3715 9.55412 54.4841 9.81538 54.4841 10.1217C54.4841 10.428 54.3715 10.6893 54.1463 10.9055C53.9301 11.1217 53.6688 11.2298 53.3625 11.2298ZM54.403 19.0001C53.7904 19.0001 53.3084 18.8244 52.9571 18.473C52.6147 18.1217 52.4436 17.6442 52.4436 17.0406V12.1082H54.2949V16.9865C54.2949 17.1037 54.3355 17.2073 54.4165 17.2974C54.5066 17.3784 54.6102 17.419 54.7273 17.419H55.1463V19.0001H54.403Z" fill="#191923"/>
<path d="M49.5993 19.0001C49.0407 19.0001 48.5497 18.874 48.1263 18.6218C47.7029 18.3605 47.3741 18.0181 47.1398 17.5947C46.9056 17.1623 46.7885 16.6893 46.7885 16.1758V11.2434H44.1533V9.54067H51.356V11.2434H48.7209V16.4055C48.7209 16.6488 48.8065 16.8605 48.9777 17.0407C49.1488 17.2118 49.356 17.2974 49.5993 17.2974H50.275V19.0001H49.5993Z" fill="#191923"/>
<path d="M37.9098 19.0001V17.2974H39.6125V11.2434H37.9098V9.54067H44.2373V11.2434H41.5449V17.2974H43.2476V19.0001H37.9098Z" fill="#191923"/>
<path d="M28.9285 19.0001V9.54067H33.1582C33.7798 9.54067 34.3429 9.68031 34.8474 9.95959C35.3609 10.2299 35.7663 10.6082 36.0636 11.0947C36.3699 11.5812 36.5231 12.1488 36.5231 12.7974C36.5231 13.4281 36.3744 13.9866 36.0771 14.4731C35.7798 14.9506 35.3879 15.329 34.9014 15.6082L35.7663 17.1218C35.8023 17.1758 35.8474 17.2209 35.9014 17.2569C35.9555 17.2839 36.0185 17.2974 36.0906 17.2974H37.9198V19.0001H35.7933C35.4149 19.0001 35.0681 18.9055 34.7528 18.7163C34.4465 18.5272 34.2032 18.2794 34.0231 17.9731L32.9555 16.0542C32.8744 16.0542 32.7888 16.0542 32.6987 16.0542C32.6176 16.0542 32.5366 16.0542 32.4555 16.0542H30.8609V19.0001H28.9285ZM30.8609 14.3515H32.9285C33.2348 14.3515 33.514 14.2929 33.7663 14.1758C34.0186 14.0497 34.2167 13.8695 34.3609 13.6353C34.514 13.401 34.5906 13.1218 34.5906 12.7974C34.5906 12.4731 34.514 12.1938 34.3609 11.9596C34.2077 11.7254 34.005 11.5497 33.7528 11.4326C33.5095 11.3064 33.2348 11.2434 32.9285 11.2434H30.8609V14.3515Z" fill="#191923"/>
<path d="M23.614 19.0001C23.0915 19.0001 22.614 18.874 22.1816 18.6218C21.7582 18.3695 21.4204 18.0317 21.1681 17.6082C20.9158 17.1758 20.7897 16.6983 20.7897 16.1758C20.7897 15.7974 20.8708 15.4416 21.033 15.1082C21.1951 14.7749 21.4158 14.4821 21.6951 14.2299C21.4158 13.9776 21.1951 13.6848 21.033 13.3515C20.8708 13.0181 20.7897 12.6668 20.7897 12.2974C20.7897 11.7839 20.9113 11.32 21.1546 10.9055C21.4068 10.4911 21.7402 10.1623 22.1546 9.91905C22.578 9.6668 23.042 9.54067 23.5465 9.54067H27.4384V11.2434H23.7627C23.5735 11.2434 23.3978 11.2929 23.2357 11.392C23.0825 11.4821 22.9564 11.6082 22.8573 11.7704C22.7672 11.9236 22.7222 12.0992 22.7222 12.2974C22.7222 12.4866 22.7672 12.6623 22.8573 12.8245C22.9564 12.9776 23.0825 13.1037 23.2357 13.2028C23.3978 13.2929 23.5735 13.338 23.7627 13.338H26.9789V15.0407H23.8438C23.6366 15.0407 23.4474 15.0947 23.2762 15.2028C23.105 15.3019 22.9699 15.4371 22.8708 15.6082C22.7717 15.7794 22.7222 15.9686 22.7222 16.1758C22.7222 16.383 22.7717 16.5722 22.8708 16.7434C22.9699 16.9145 23.105 17.0497 23.2762 17.1488C23.4474 17.2479 23.6366 17.2974 23.8438 17.2974H27.4384V19.0001H23.614Z" fill="#191923"/>
<path d="M35.6074 30.8248V25.1145C35.6074 24.3155 35.7735 23.6286 36.1057 23.054C36.4469 22.4704 36.9092 22.0215 37.4928 21.7072C38.0854 21.393 38.7633 21.2358 39.5265 21.2358C40.2896 21.2358 40.963 21.393 41.5466 21.7072C42.1392 22.0215 42.6016 22.4704 42.9338 23.054C43.275 23.6286 43.4456 24.3155 43.4456 25.1145V30.8248H41.5197V24.9933C41.5197 24.6162 41.4389 24.2706 41.2773 23.9563C41.1157 23.6421 40.8867 23.3952 40.5904 23.2156C40.2941 23.027 39.9395 22.9328 39.5265 22.9328C39.1224 22.9328 38.7678 23.027 38.4625 23.2156C38.1662 23.3952 37.9373 23.6421 37.7757 23.9563C37.6141 24.2706 37.5333 24.6162 37.5333 24.9933V30.8248H35.6074Z" fill="#191923"/>
<path d="M29.3861 31C28.6319 31 27.9495 30.8743 27.339 30.6229C26.7374 30.3625 26.2212 30.0078 25.7902 29.5589C25.3592 29.11 25.027 28.5892 24.7936 27.9967C24.5602 27.4041 24.4434 26.7711 24.4434 26.0977C24.4434 25.4243 24.5602 24.7958 24.7936 24.2122C25.027 23.6197 25.3592 23.0989 25.7902 22.65C26.2212 22.2011 26.7374 21.8509 27.339 21.5995C27.9495 21.3481 28.6319 21.2224 29.3861 21.2224C30.1403 21.2224 30.8181 21.3481 31.4197 21.5995C32.0302 21.8509 32.551 22.2011 32.982 22.65C33.4129 23.0989 33.7451 23.6197 33.9786 24.2122C34.212 24.7958 34.3287 25.4243 34.3287 26.0977C34.3287 26.7711 34.212 27.4041 33.9786 27.9967C33.7451 28.5892 33.4129 29.11 32.982 29.5589C32.551 30.0078 32.0302 30.3625 31.4197 30.6229C30.8181 30.8743 30.1403 31 29.3861 31ZM29.3861 29.2896C29.817 29.2896 30.2166 29.2132 30.5847 29.0606C30.9528 28.899 31.2716 28.6745 31.5409 28.3872C31.8192 28.0909 32.0302 27.7498 32.1739 27.3637C32.3265 26.9776 32.4028 26.5556 32.4028 26.0977C32.4028 25.6398 32.3265 25.2178 32.1739 24.8318C32.0302 24.4457 31.8192 24.109 31.5409 23.8217C31.2716 23.5344 30.9528 23.3144 30.5847 23.1618C30.2166 23.0002 29.817 22.9194 29.3861 22.9194C28.9551 22.9194 28.5556 23.0002 28.1875 23.1618C27.8193 23.3144 27.4961 23.5344 27.2178 23.8217C26.9484 24.109 26.7374 24.4457 26.5848 24.8318C26.4411 25.2178 26.3693 25.6398 26.3693 26.0977C26.3693 26.5556 26.4411 26.9776 26.5848 27.3637C26.7374 27.7498 26.9484 28.0909 27.2178 28.3872C27.4961 28.6745 27.8193 28.899 28.1875 29.0606C28.5556 29.2132 28.9551 29.2896 29.3861 29.2896Z" fill="#191923"/>
<path d="M9.69668 30.9997C8.93352 30.9997 8.25564 30.8426 7.66306 30.5283C7.07946 30.2141 6.61707 29.7696 6.27589 29.195C5.94369 28.6114 5.77759 27.9201 5.77759 27.121V21.4107H7.70347V27.2422C7.70347 27.6193 7.78428 27.965 7.94589 28.2792C8.1075 28.5845 8.33645 28.8314 8.63274 29.0199C8.93801 29.2085 9.29265 29.3028 9.69668 29.3028C10.1097 29.3028 10.4643 29.2085 10.7606 29.0199C11.0569 28.8314 11.2859 28.5845 11.4475 28.2792C11.6091 27.965 11.6899 27.6193 11.6899 27.2422V24.7776H13.6158V27.121C13.6158 27.9201 13.4452 28.6114 13.104 29.195C12.7718 29.7696 12.3094 30.2141 11.7168 30.5283C11.1332 30.8426 10.4599 30.9997 9.69668 30.9997Z" fill="#191923"/>
<path d="M11.6899 27.2422V24.8988C11.6899 24.0997 11.856 23.4129 12.1882 22.8383C12.5294 22.2547 12.9918 21.8057 13.5754 21.4915C14.168 21.1773 14.8458 21.0201 15.609 21.0201C16.3722 21.0201 17.0455 21.1773 17.6291 21.4915C18.2217 21.8057 18.6841 22.2547 19.0163 22.8383C19.3575 23.4129 19.5281 24.0997 19.5281 24.8988V30.9185H17.6022V24.7776C17.6022 24.4005 17.5214 24.0548 17.3598 23.7406C17.1982 23.4264 16.9692 23.1794 16.6729 22.9999C16.3767 22.8113 16.022 22.7171 15.609 22.7171C15.205 22.7171 14.8503 22.8113 14.545 22.9999C14.2488 23.1794 14.0198 23.4264 13.8582 23.7406C13.6966 24.0548 13.6158 24.4005 13.6158 24.7776L13.6158 27.2422L11.6899 27.2422Z" fill="#191923"/>
<path d="M22.0173 23.2222C21.721 23.2222 21.4607 23.1145 21.2362 22.899C21.0207 22.6835 20.913 22.4231 20.913 22.1178C20.913 21.8126 21.0207 21.5522 21.2362 21.3367C21.4607 21.1123 21.721 21 22.0173 21C22.3226 21 22.583 21.1123 22.7984 21.3367C23.0229 21.5522 23.1351 21.8126 23.1351 22.1178C23.1351 22.4231 23.0229 22.6835 22.7984 22.899C22.583 23.1145 22.3226 23.2222 22.0173 23.2222ZM23.0543 30.9661C22.4438 30.9661 21.9634 30.791 21.6133 30.4409C21.2721 30.0907 21.1015 29.6149 21.1015 29.0133V24.0976H22.9466V28.9594C22.9466 29.0762 22.987 29.1794 23.0678 29.2692C23.1576 29.35 23.2608 29.3904 23.3776 29.3904H23.7951V30.9661H23.0543Z" fill="#191923"/>
</svg>
