<svg width="76" height="33" viewBox="0 0 76 33" fill="none" xmlns="http://www.w3.org/2000/svg">
<path fill-rule="evenodd" clip-rule="evenodd" d="M55.8071 17.5001C56.3431 17.5001 56.7776 17.9345 56.7776 18.4705L56.7776 23.7793C56.7776 23.7793 55.3727 23.7793 54.8367 23.7793L54.8367 20.8133L50.0909 25.5567L54.1986 25.5566C54.1986 25.5566 54.1986 26.9615 54.1986 27.4975L47.748 27.4975C47.2121 27.4975 46.7776 27.063 46.7776 26.5271L46.7776 21.2183L48.7185 21.2183L48.7185 24.1843L53.4643 19.4409L50.4983 19.4409C50.4983 19.4409 50.4983 18.036 50.4983 17.5L55.8071 17.5001Z" fill="#191923"/>
<path d="M5.77759 15.4083V9.67856C5.77759 8.87676 5.94425 8.18757 6.27759 7.61099C6.61993 7.02541 7.08389 6.57496 7.66948 6.25964C8.26407 5.94433 8.94426 5.78667 9.71002 5.78667C10.4758 5.78667 11.1515 5.94433 11.737 6.25964C12.3316 6.57496 12.7956 7.02541 13.1289 7.61099C13.4713 8.18757 13.6425 8.87676 13.6425 9.67856V15.4083H11.71V9.55694C11.71 9.17856 11.6289 8.83172 11.4668 8.5164C11.3046 8.20108 11.0749 7.95334 10.7776 7.77316C10.4803 7.58397 10.1244 7.48937 9.71002 7.48937C9.30462 7.48937 8.94876 7.58397 8.64246 7.77316C8.34516 7.95334 8.11543 8.20108 7.95327 8.5164C7.7911 8.83172 7.71002 9.17856 7.71002 9.55694V15.4083H5.77759Z" fill="#191923"/>
<path d="M11.71 15.4083V9.67856C11.71 8.87676 11.8767 8.18757 12.21 7.61099C12.5524 7.02541 13.0163 6.57496 13.6019 6.25964C14.1965 5.94433 14.8767 5.78667 15.6425 5.78667C16.4082 5.78667 17.0839 5.94433 17.6695 6.25964C18.2641 6.57496 18.728 7.02541 19.0614 7.61099C19.4037 8.18757 19.5749 8.87676 19.5749 9.67856V15.4083H17.6424V9.55694C17.6424 9.17856 17.5614 8.83172 17.3992 8.5164C17.237 8.20108 17.0073 7.95334 16.71 7.77316C16.4127 7.58397 16.0569 7.48937 15.6425 7.48937C15.237 7.48937 14.8812 7.58397 14.5749 7.77316C14.2776 7.95334 14.0479 8.20108 13.8857 8.5164C13.7235 8.83172 13.6424 9.17856 13.6424 9.55694L13.6425 15.4083H11.71Z" fill="#191923"/>
<path d="M66.398 15.5001C65.8755 15.5001 65.3981 15.374 64.9656 15.1218C64.5422 14.8695 64.2044 14.5317 63.9521 14.1082C63.6999 13.6758 63.5737 13.1983 63.5737 12.6758C63.5737 12.2974 63.6548 11.9416 63.817 11.6082C63.9791 11.2749 64.1999 10.9821 64.4791 10.7299C64.1999 10.4776 63.9791 10.1848 63.817 9.85148C63.6548 9.51815 63.5737 9.1668 63.5737 8.79743C63.5737 8.28391 63.6953 7.81995 63.9386 7.40553C64.1908 6.99112 64.5242 6.66229 64.9386 6.41905C65.362 6.1668 65.826 6.04067 66.3305 6.04067H70.2224V7.74337H66.5467C66.3575 7.74337 66.1818 7.79292 66.0197 7.89202C65.8665 7.98211 65.7404 8.10824 65.6413 8.2704C65.5512 8.42355 65.5062 8.59923 65.5062 8.79743C65.5062 8.98662 65.5512 9.16229 65.6413 9.32445C65.7404 9.47761 65.8665 9.60373 66.0197 9.70283C66.1818 9.79292 66.3575 9.83797 66.5467 9.83797H69.7629V11.5407H66.6278C66.4206 11.5407 66.2314 11.5947 66.0602 11.7028C65.889 11.8019 65.7539 11.9371 65.6548 12.1082C65.5557 12.2794 65.5062 12.4686 65.5062 12.6758C65.5062 12.883 65.5557 13.0722 65.6548 13.2434C65.7539 13.4145 65.889 13.5497 66.0602 13.6488C66.2314 13.7479 66.4206 13.7974 66.6278 13.7974H70.2224V15.5001H66.398Z" fill="#191923"/>
<path d="M61.0673 15.5001C60.5087 15.5001 60.0177 15.374 59.5943 15.1218C59.1709 14.8605 58.842 14.5181 58.6078 14.0947C58.3736 13.6623 58.2565 13.1893 58.2565 12.6758V7.74337H55.6213V6.04067H62.824V7.74337H60.1889V12.9055C60.1889 13.1488 60.2745 13.3605 60.4456 13.5407C60.6168 13.7118 60.824 13.7974 61.0673 13.7974H64.7537L66.5606 15.5001H61.0673Z" fill="#191923"/>
<path d="M53.3625 7.72979C53.0652 7.72979 52.8039 7.62168 52.5787 7.40547C52.3625 7.18925 52.2544 6.92799 52.2544 6.62168C52.2544 6.31538 52.3625 6.05411 52.5787 5.8379C52.8039 5.61267 53.0652 5.50006 53.3625 5.50006C53.6688 5.50006 53.9301 5.61267 54.1463 5.8379C54.3715 6.05411 54.4841 6.31538 54.4841 6.62168C54.4841 6.92799 54.3715 7.18925 54.1463 7.40547C53.9301 7.62168 53.6688 7.72979 53.3625 7.72979ZM54.403 15.5001C53.7904 15.5001 53.3084 15.3244 52.9571 14.973C52.6147 14.6217 52.4436 14.1442 52.4436 13.5406V8.60817H54.2949V13.4865C54.2949 13.6037 54.3355 13.7073 54.4165 13.7974C54.5066 13.8784 54.6102 13.919 54.7273 13.919H55.1463V15.5001H54.403Z" fill="#191923"/>
<path d="M49.5993 15.5001C49.0407 15.5001 48.5497 15.374 48.1263 15.1218C47.7029 14.8605 47.3741 14.5181 47.1398 14.0947C46.9056 13.6623 46.7885 13.1893 46.7885 12.6758V7.74337H44.1533V6.04067H51.356V7.74337H48.7209V12.9055C48.7209 13.1488 48.8065 13.3605 48.9777 13.5407C49.1488 13.7118 49.356 13.7974 49.5993 13.7974H50.275V15.5001H49.5993Z" fill="#191923"/>
<path d="M37.9098 15.5001V13.7974H39.6125V7.74337H37.9098V6.04067H44.2373V7.74337H41.5449V13.7974H43.2476V15.5001H37.9098Z" fill="#191923"/>
<path d="M28.9285 15.5001V6.04067H33.1582C33.7798 6.04067 34.3429 6.18031 34.8474 6.45959C35.3609 6.72986 35.7663 7.10824 36.0636 7.59472C36.3699 8.08121 36.5231 8.64878 36.5231 9.29743C36.5231 9.92806 36.3744 10.4866 36.0771 10.9731C35.7798 11.4506 35.3879 11.829 34.9014 12.1082L35.7663 13.6218C35.8023 13.6758 35.8474 13.7209 35.9014 13.7569C35.9555 13.7839 36.0185 13.7974 36.0906 13.7974H37.9198V15.5001H35.7933C35.4149 15.5001 35.0681 15.4055 34.7528 15.2163C34.4465 15.0272 34.2032 14.7794 34.0231 14.4731L32.9555 12.5542C32.8744 12.5542 32.7888 12.5542 32.6987 12.5542C32.6176 12.5542 32.5366 12.5542 32.4555 12.5542H30.8609V15.5001H28.9285ZM30.8609 10.8515H32.9285C33.2348 10.8515 33.514 10.7929 33.7663 10.6758C34.0186 10.5497 34.2167 10.3695 34.3609 10.1353C34.514 9.90103 34.5906 9.62175 34.5906 9.29743C34.5906 8.9731 34.514 8.69382 34.3609 8.45959C34.2077 8.22535 34.005 8.04968 33.7528 7.93256C33.5095 7.80644 33.2348 7.74337 32.9285 7.74337H30.8609V10.8515Z" fill="#191923"/>
<path d="M23.614 15.5001C23.0915 15.5001 22.614 15.374 22.1816 15.1218C21.7582 14.8695 21.4204 14.5317 21.1681 14.1082C20.9158 13.6758 20.7897 13.1983 20.7897 12.6758C20.7897 12.2974 20.8708 11.9416 21.033 11.6082C21.1951 11.2749 21.4158 10.9821 21.6951 10.7299C21.4158 10.4776 21.1951 10.1848 21.033 9.85148C20.8708 9.51815 20.7897 9.1668 20.7897 8.79743C20.7897 8.28391 20.9113 7.81995 21.1546 7.40553C21.4068 6.99112 21.7402 6.66229 22.1546 6.41905C22.578 6.1668 23.042 6.04067 23.5465 6.04067H27.4384V7.74337H23.7627C23.5735 7.74337 23.3978 7.79292 23.2357 7.89202C23.0825 7.98211 22.9564 8.10824 22.8573 8.2704C22.7672 8.42355 22.7222 8.59923 22.7222 8.79743C22.7222 8.98662 22.7672 9.16229 22.8573 9.32445C22.9564 9.47761 23.0825 9.60373 23.2357 9.70283C23.3978 9.79292 23.5735 9.83797 23.7627 9.83797H26.9789V11.5407H23.8438C23.6366 11.5407 23.4474 11.5947 23.2762 11.7028C23.105 11.8019 22.9699 11.9371 22.8708 12.1082C22.7717 12.2794 22.7222 12.4686 22.7222 12.6758C22.7222 12.883 22.7717 13.0722 22.8708 13.2434C22.9699 13.4145 23.105 13.5497 23.2762 13.6488C23.4474 13.7479 23.6366 13.7974 23.8438 13.7974H27.4384V15.5001H23.614Z" fill="#191923"/>
<path d="M35.6074 27.3248V21.6145C35.6074 20.8155 35.7735 20.1286 36.1057 19.554C36.4469 18.9704 36.9092 18.5215 37.4928 18.2072C38.0854 17.893 38.7633 17.7358 39.5265 17.7358C40.2896 17.7358 40.963 17.893 41.5466 18.2072C42.1392 18.5215 42.6016 18.9704 42.9338 19.554C43.275 20.1286 43.4456 20.8155 43.4456 21.6145V27.3248H41.5197V21.4933C41.5197 21.1162 41.4389 20.7706 41.2773 20.4563C41.1157 20.1421 40.8867 19.8952 40.5904 19.7156C40.2941 19.527 39.9395 19.4328 39.5265 19.4328C39.1224 19.4328 38.7678 19.527 38.4625 19.7156C38.1662 19.8952 37.9373 20.1421 37.7757 20.4563C37.6141 20.7706 37.5333 21.1162 37.5333 21.4933V27.3248H35.6074Z" fill="#191923"/>
<path d="M29.3861 27.5C28.6319 27.5 27.9495 27.3743 27.339 27.1229C26.7374 26.8625 26.2212 26.5078 25.7902 26.0589C25.3592 25.61 25.027 25.0892 24.7936 24.4967C24.5602 23.9041 24.4434 23.2711 24.4434 22.5977C24.4434 21.9243 24.5602 21.2958 24.7936 20.7122C25.027 20.1197 25.3592 19.5989 25.7902 19.15C26.2212 18.7011 26.7374 18.3509 27.339 18.0995C27.9495 17.8481 28.6319 17.7224 29.3861 17.7224C30.1403 17.7224 30.8181 17.8481 31.4197 18.0995C32.0302 18.3509 32.551 18.7011 32.982 19.15C33.4129 19.5989 33.7451 20.1197 33.9786 20.7122C34.212 21.2958 34.3287 21.9243 34.3287 22.5977C34.3287 23.2711 34.212 23.9041 33.9786 24.4967C33.7451 25.0892 33.4129 25.61 32.982 26.0589C32.551 26.5078 32.0302 26.8625 31.4197 27.1229C30.8181 27.3743 30.1403 27.5 29.3861 27.5ZM29.3861 25.7896C29.817 25.7896 30.2166 25.7132 30.5847 25.5606C30.9528 25.399 31.2716 25.1745 31.5409 24.8872C31.8192 24.5909 32.0302 24.2498 32.1739 23.8637C32.3265 23.4776 32.4028 23.0556 32.4028 22.5977C32.4028 22.1398 32.3265 21.7178 32.1739 21.3318C32.0302 20.9457 31.8192 20.609 31.5409 20.3217C31.2716 20.0344 30.9528 19.8144 30.5847 19.6618C30.2166 19.5002 29.817 19.4194 29.3861 19.4194C28.9551 19.4194 28.5556 19.5002 28.1875 19.6618C27.8193 19.8144 27.4961 20.0344 27.2178 20.3217C26.9484 20.609 26.7374 20.9457 26.5848 21.3318C26.4411 21.7178 26.3693 22.1398 26.3693 22.5977C26.3693 23.0556 26.4411 23.4776 26.5848 23.8637C26.7374 24.2498 26.9484 24.5909 27.2178 24.8872C27.4961 25.1745 27.8193 25.399 28.1875 25.5606C28.5556 25.7132 28.9551 25.7896 29.3861 25.7896Z" fill="#191923"/>
<path d="M9.69668 27.4997C8.93352 27.4997 8.25564 27.3426 7.66306 27.0283C7.07946 26.7141 6.61707 26.2696 6.27589 25.695C5.94369 25.1114 5.77759 24.4201 5.77759 23.621V17.9107H7.70347V23.7422C7.70347 24.1193 7.78428 24.465 7.94589 24.7792C8.1075 25.0845 8.33645 25.3314 8.63274 25.5199C8.93801 25.7085 9.29265 25.8028 9.69668 25.8028C10.1097 25.8028 10.4643 25.7085 10.7606 25.5199C11.0569 25.3314 11.2859 25.0845 11.4475 24.7792C11.6091 24.465 11.6899 24.1193 11.6899 23.7422V21.2776H13.6158V23.621C13.6158 24.4201 13.4452 25.1114 13.104 25.695C12.7718 26.2696 12.3094 26.7141 11.7168 27.0283C11.1332 27.3426 10.4599 27.4997 9.69668 27.4997Z" fill="#191923"/>
<path d="M11.6899 23.7422V21.3988C11.6899 20.5997 11.856 19.9129 12.1882 19.3383C12.5294 18.7547 12.9918 18.3057 13.5754 17.9915C14.168 17.6773 14.8458 17.5201 15.609 17.5201C16.3722 17.5201 17.0455 17.6773 17.6291 17.9915C18.2217 18.3057 18.6841 18.7547 19.0163 19.3383C19.3575 19.9129 19.5281 20.5997 19.5281 21.3988V27.4185H17.6022V21.2776C17.6022 20.9005 17.5214 20.5548 17.3598 20.2406C17.1982 19.9264 16.9692 19.6794 16.6729 19.4999C16.3767 19.3113 16.022 19.2171 15.609 19.2171C15.205 19.2171 14.8503 19.3113 14.545 19.4999C14.2488 19.6794 14.0198 19.9264 13.8582 20.2406C13.6966 20.5548 13.6158 20.9005 13.6158 21.2776L13.6158 23.7422L11.6899 23.7422Z" fill="#191923"/>
<path d="M22.0173 19.7222C21.721 19.7222 21.4607 19.6145 21.2362 19.399C21.0207 19.1835 20.913 18.9231 20.913 18.6178C20.913 18.3126 21.0207 18.0522 21.2362 17.8367C21.4607 17.6123 21.721 17.5 22.0173 17.5C22.3226 17.5 22.583 17.6123 22.7984 17.8367C23.0229 18.0522 23.1351 18.3126 23.1351 18.6178C23.1351 18.9231 23.0229 19.1835 22.7984 19.399C22.583 19.6145 22.3226 19.7222 22.0173 19.7222ZM23.0543 27.4661C22.4438 27.4661 21.9634 27.291 21.6133 26.9409C21.2721 26.5907 21.1015 26.1149 21.1015 25.5133V20.5976H22.9466V25.4594C22.9466 25.5762 22.987 25.6794 23.0678 25.7692C23.1576 25.85 23.2608 25.8904 23.3776 25.8904H23.7951V27.4661H23.0543Z" fill="#191923"/>
</svg>
