<svg width="76" height="32" viewBox="0 0 76 32" fill="none" xmlns="http://www.w3.org/2000/svg">
<path d="M16.7054 6.50003C16.4293 6.50003 16.1769 6.43336 15.9483 6.30003C15.7245 6.1667 15.5459 5.98813 15.4126 5.76432C15.2793 5.53574 15.2126 5.28336 15.2126 5.00717C15.2126 4.80717 15.2554 4.61908 15.3412 4.44289C15.4269 4.2667 15.5435 4.11194 15.6912 3.9786C15.5435 3.84527 15.4269 3.69051 15.3412 3.51432C15.2554 3.33813 15.2126 3.15241 15.2126 2.95717C15.2126 2.68574 15.2769 2.44051 15.4054 2.22146C15.5388 2.00241 15.715 1.8286 15.934 1.70003C16.1578 1.5667 16.4031 1.50003 16.6697 1.50003H18.7269V2.40003H16.784C16.684 2.40003 16.5912 2.42622 16.5054 2.4786C16.4245 2.52622 16.3578 2.59289 16.3054 2.6786C16.2578 2.75955 16.234 2.85241 16.234 2.95717C16.234 3.05717 16.2578 3.15003 16.3054 3.23574C16.3578 3.3167 16.4245 3.38336 16.5054 3.43574C16.5912 3.48336 16.684 3.50717 16.784 3.50717H18.484V4.40717H16.8269C16.7173 4.40717 16.6173 4.43574 16.5269 4.49289C16.4364 4.54527 16.365 4.6167 16.3126 4.70717C16.2602 4.79765 16.234 4.89765 16.234 5.00717C16.234 5.1167 16.2602 5.2167 16.3126 5.30717C16.365 5.39765 16.4364 5.46908 16.5269 5.52146C16.6173 5.57384 16.7173 5.60003 16.8269 5.60003H18.7269V6.50003H16.7054Z" fill="#FBFEF9"/>
<path d="M10.1953 6.50003V1.50003H11.2167V3.50717H13.4024V1.50003H14.4238V6.50003H13.4024V4.40717H11.2167V6.50003H10.1953Z" fill="#FBFEF9"/>
<path d="M8.65616 6.50003C8.36092 6.50003 8.1014 6.43336 7.87759 6.30003C7.65378 6.16194 7.47997 5.98098 7.35616 5.75717C7.23235 5.5286 7.17044 5.2786 7.17044 5.00717V2.40003H5.77759V1.50003H9.58473V2.40003H8.19187V5.1286C8.19187 5.25717 8.23711 5.36908 8.32759 5.46432C8.41806 5.55479 8.52759 5.60003 8.65616 5.60003H10.3192L10.2602 6.50003H8.65616Z" fill="#FBFEF9"/>
<path fill-rule="evenodd" clip-rule="evenodd" d="M55.8071 20.5001C56.3431 20.5001 56.7776 20.9345 56.7776 21.4705L56.7776 26.7793C56.7776 26.7793 55.3727 26.7793 54.8367 26.7793L54.8367 23.8133L50.0909 28.5567L54.1986 28.5566C54.1986 28.5566 54.1986 29.9615 54.1986 30.4975L47.748 30.4975C47.2121 30.4975 46.7776 30.063 46.7776 29.5271L46.7776 24.2183L48.7185 24.2183L48.7185 27.1843L53.4643 22.4409L50.4983 22.4409C50.4983 22.4409 50.4983 21.036 50.4983 20.5L55.8071 20.5001Z" fill="#FBFEF9"/>
<path d="M5.77759 18.4083V12.6786C5.77759 11.8768 5.94425 11.1876 6.27759 10.611C6.61993 10.0254 7.08389 9.57496 7.66948 9.25964C8.26407 8.94433 8.94426 8.78667 9.71002 8.78667C10.4758 8.78667 11.1515 8.94433 11.737 9.25964C12.3316 9.57496 12.7956 10.0254 13.1289 10.611C13.4713 11.1876 13.6425 11.8768 13.6425 12.6786V18.4083H11.71V12.5569C11.71 12.1786 11.6289 11.8317 11.4668 11.5164C11.3046 11.2011 11.0749 10.9533 10.7776 10.7732C10.4803 10.584 10.1244 10.4894 9.71002 10.4894C9.30462 10.4894 8.94876 10.584 8.64246 10.7732C8.34516 10.9533 8.11543 11.2011 7.95327 11.5164C7.7911 11.8317 7.71002 12.1786 7.71002 12.5569V18.4083H5.77759Z" fill="#FBFEF9"/>
<path d="M11.71 18.4083V12.6786C11.71 11.8768 11.8767 11.1876 12.21 10.611C12.5524 10.0254 13.0163 9.57496 13.6019 9.25964C14.1965 8.94433 14.8767 8.78667 15.6425 8.78667C16.4082 8.78667 17.0839 8.94433 17.6695 9.25964C18.2641 9.57496 18.728 10.0254 19.0614 10.611C19.4037 11.1876 19.5749 11.8768 19.5749 12.6786V18.4083H17.6424V12.5569C17.6424 12.1786 17.5614 11.8317 17.3992 11.5164C17.237 11.2011 17.0073 10.9533 16.71 10.7732C16.4127 10.584 16.0569 10.4894 15.6425 10.4894C15.237 10.4894 14.8812 10.584 14.5749 10.7732C14.2776 10.9533 14.0479 11.2011 13.8857 11.5164C13.7235 11.8317 13.6424 12.1786 13.6424 12.5569L13.6425 18.4083H11.71Z" fill="#FBFEF9"/>
<path d="M66.398 18.5001C65.8755 18.5001 65.3981 18.374 64.9656 18.1218C64.5422 17.8695 64.2044 17.5317 63.9521 17.1082C63.6999 16.6758 63.5737 16.1983 63.5737 15.6758C63.5737 15.2974 63.6548 14.9416 63.817 14.6082C63.9791 14.2749 64.1999 13.9821 64.4791 13.7299C64.1999 13.4776 63.9791 13.1848 63.817 12.8515C63.6548 12.5181 63.5737 12.1668 63.5737 11.7974C63.5737 11.2839 63.6953 10.82 63.9386 10.4055C64.1908 9.99112 64.5242 9.66229 64.9386 9.41905C65.362 9.1668 65.826 9.04067 66.3305 9.04067H70.2224V10.7434H66.5467C66.3575 10.7434 66.1818 10.7929 66.0197 10.892C65.8665 10.9821 65.7404 11.1082 65.6413 11.2704C65.5512 11.4236 65.5062 11.5992 65.5062 11.7974C65.5062 11.9866 65.5512 12.1623 65.6413 12.3245C65.7404 12.4776 65.8665 12.6037 66.0197 12.7028C66.1818 12.7929 66.3575 12.838 66.5467 12.838H69.7629V14.5407H66.6278C66.4206 14.5407 66.2314 14.5947 66.0602 14.7028C65.889 14.8019 65.7539 14.9371 65.6548 15.1082C65.5557 15.2794 65.5062 15.4686 65.5062 15.6758C65.5062 15.883 65.5557 16.0722 65.6548 16.2434C65.7539 16.4145 65.889 16.5497 66.0602 16.6488C66.2314 16.7479 66.4206 16.7974 66.6278 16.7974H70.2224V18.5001H66.398Z" fill="#FBFEF9"/>
<path d="M61.0673 18.5001C60.5087 18.5001 60.0177 18.374 59.5943 18.1218C59.1709 17.8605 58.842 17.5181 58.6078 17.0947C58.3736 16.6623 58.2565 16.1893 58.2565 15.6758V10.7434H55.6213V9.04067H62.824V10.7434H60.1889V15.9055C60.1889 16.1488 60.2745 16.3605 60.4456 16.5407C60.6168 16.7118 60.824 16.7974 61.0673 16.7974H64.7537L66.5606 18.5001H61.0673Z" fill="#FBFEF9"/>
<path d="M53.3625 10.7298C53.0652 10.7298 52.8039 10.6217 52.5787 10.4055C52.3625 10.1893 52.2544 9.92799 52.2544 9.62168C52.2544 9.31538 52.3625 9.05412 52.5787 8.8379C52.8039 8.61267 53.0652 8.50006 53.3625 8.50006C53.6688 8.50006 53.9301 8.61267 54.1463 8.8379C54.3715 9.05412 54.4841 9.31538 54.4841 9.62168C54.4841 9.92799 54.3715 10.1893 54.1463 10.4055C53.9301 10.6217 53.6688 10.7298 53.3625 10.7298ZM54.403 18.5001C53.7904 18.5001 53.3084 18.3244 52.9571 17.973C52.6147 17.6217 52.4436 17.1442 52.4436 16.5406V11.6082H54.2949V16.4865C54.2949 16.6037 54.3355 16.7073 54.4165 16.7974C54.5066 16.8784 54.6102 16.919 54.7273 16.919H55.1463V18.5001H54.403Z" fill="#FBFEF9"/>
<path d="M49.5993 18.5001C49.0407 18.5001 48.5497 18.374 48.1263 18.1218C47.7029 17.8605 47.3741 17.5181 47.1398 17.0947C46.9056 16.6623 46.7885 16.1893 46.7885 15.6758V10.7434H44.1533V9.04067H51.356V10.7434H48.7209V15.9055C48.7209 16.1488 48.8065 16.3605 48.9777 16.5407C49.1488 16.7118 49.356 16.7974 49.5993 16.7974H50.275V18.5001H49.5993Z" fill="#FBFEF9"/>
<path d="M37.9098 18.5001V16.7974H39.6125V10.7434H37.9098V9.04067H44.2373V10.7434H41.5449V16.7974H43.2476V18.5001H37.9098Z" fill="#FBFEF9"/>
<path d="M28.9285 18.5001V9.04067H33.1582C33.7798 9.04067 34.3429 9.18031 34.8474 9.45959C35.3609 9.72986 35.7663 10.1082 36.0636 10.5947C36.3699 11.0812 36.5231 11.6488 36.5231 12.2974C36.5231 12.9281 36.3744 13.4866 36.0771 13.9731C35.7798 14.4506 35.3879 14.829 34.9014 15.1082L35.7663 16.6218C35.8023 16.6758 35.8474 16.7209 35.9014 16.7569C35.9555 16.7839 36.0185 16.7974 36.0906 16.7974H37.9198V18.5001H35.7933C35.4149 18.5001 35.0681 18.4055 34.7528 18.2163C34.4465 18.0272 34.2032 17.7794 34.0231 17.4731L32.9555 15.5542C32.8744 15.5542 32.7888 15.5542 32.6987 15.5542C32.6176 15.5542 32.5366 15.5542 32.4555 15.5542H30.8609V18.5001H28.9285ZM30.8609 13.8515H32.9285C33.2348 13.8515 33.514 13.7929 33.7663 13.6758C34.0186 13.5497 34.2167 13.3695 34.3609 13.1353C34.514 12.901 34.5906 12.6218 34.5906 12.2974C34.5906 11.9731 34.514 11.6938 34.3609 11.4596C34.2077 11.2254 34.005 11.0497 33.7528 10.9326C33.5095 10.8064 33.2348 10.7434 32.9285 10.7434H30.8609V13.8515Z" fill="#FBFEF9"/>
<path d="M23.614 18.5001C23.0915 18.5001 22.614 18.374 22.1816 18.1218C21.7582 17.8695 21.4204 17.5317 21.1681 17.1082C20.9158 16.6758 20.7897 16.1983 20.7897 15.6758C20.7897 15.2974 20.8708 14.9416 21.033 14.6082C21.1951 14.2749 21.4158 13.9821 21.6951 13.7299C21.4158 13.4776 21.1951 13.1848 21.033 12.8515C20.8708 12.5181 20.7897 12.1668 20.7897 11.7974C20.7897 11.2839 20.9113 10.82 21.1546 10.4055C21.4068 9.99112 21.7402 9.66229 22.1546 9.41905C22.578 9.1668 23.042 9.04067 23.5465 9.04067H27.4384V10.7434H23.7627C23.5735 10.7434 23.3978 10.7929 23.2357 10.892C23.0825 10.9821 22.9564 11.1082 22.8573 11.2704C22.7672 11.4236 22.7222 11.5992 22.7222 11.7974C22.7222 11.9866 22.7672 12.1623 22.8573 12.3245C22.9564 12.4776 23.0825 12.6037 23.2357 12.7028C23.3978 12.7929 23.5735 12.838 23.7627 12.838H26.9789V14.5407H23.8438C23.6366 14.5407 23.4474 14.5947 23.2762 14.7028C23.105 14.8019 22.9699 14.9371 22.8708 15.1082C22.7717 15.2794 22.7222 15.4686 22.7222 15.6758C22.7222 15.883 22.7717 16.0722 22.8708 16.2434C22.9699 16.4145 23.105 16.5497 23.2762 16.6488C23.4474 16.7479 23.6366 16.7974 23.8438 16.7974H27.4384V18.5001H23.614Z" fill="#FBFEF9"/>
<path d="M35.6074 30.3248V24.6145C35.6074 23.8155 35.7735 23.1286 36.1057 22.554C36.4469 21.9704 36.9092 21.5215 37.4928 21.2072C38.0854 20.893 38.7633 20.7358 39.5265 20.7358C40.2896 20.7358 40.963 20.893 41.5466 21.2072C42.1392 21.5215 42.6016 21.9704 42.9338 22.554C43.275 23.1286 43.4456 23.8155 43.4456 24.6145V30.3248H41.5197V24.4933C41.5197 24.1162 41.4389 23.7706 41.2773 23.4563C41.1157 23.1421 40.8867 22.8952 40.5904 22.7156C40.2941 22.527 39.9395 22.4328 39.5265 22.4328C39.1224 22.4328 38.7678 22.527 38.4625 22.7156C38.1662 22.8952 37.9373 23.1421 37.7757 23.4563C37.6141 23.7706 37.5333 24.1162 37.5333 24.4933V30.3248H35.6074Z" fill="#FBFEF9"/>
<path d="M29.3861 30.5C28.6319 30.5 27.9495 30.3743 27.339 30.1229C26.7374 29.8625 26.2212 29.5078 25.7902 29.0589C25.3592 28.61 25.027 28.0892 24.7936 27.4967C24.5602 26.9041 24.4434 26.2711 24.4434 25.5977C24.4434 24.9243 24.5602 24.2958 24.7936 23.7122C25.027 23.1197 25.3592 22.5989 25.7902 22.15C26.2212 21.7011 26.7374 21.3509 27.339 21.0995C27.9495 20.8481 28.6319 20.7224 29.3861 20.7224C30.1403 20.7224 30.8181 20.8481 31.4197 21.0995C32.0302 21.3509 32.551 21.7011 32.982 22.15C33.4129 22.5989 33.7451 23.1197 33.9786 23.7122C34.212 24.2958 34.3287 24.9243 34.3287 25.5977C34.3287 26.2711 34.212 26.9041 33.9786 27.4967C33.7451 28.0892 33.4129 28.61 32.982 29.0589C32.551 29.5078 32.0302 29.8625 31.4197 30.1229C30.8181 30.3743 30.1403 30.5 29.3861 30.5ZM29.3861 28.7896C29.817 28.7896 30.2166 28.7132 30.5847 28.5606C30.9528 28.399 31.2716 28.1745 31.5409 27.8872C31.8192 27.5909 32.0302 27.2498 32.1739 26.8637C32.3265 26.4776 32.4028 26.0556 32.4028 25.5977C32.4028 25.1398 32.3265 24.7178 32.1739 24.3318C32.0302 23.9457 31.8192 23.609 31.5409 23.3217C31.2716 23.0344 30.9528 22.8144 30.5847 22.6618C30.2166 22.5002 29.817 22.4194 29.3861 22.4194C28.9551 22.4194 28.5556 22.5002 28.1875 22.6618C27.8193 22.8144 27.4961 23.0344 27.2178 23.3217C26.9484 23.609 26.7374 23.9457 26.5848 24.3318C26.4411 24.7178 26.3693 25.1398 26.3693 25.5977C26.3693 26.0556 26.4411 26.4776 26.5848 26.8637C26.7374 27.2498 26.9484 27.5909 27.2178 27.8872C27.4961 28.1745 27.8193 28.399 28.1875 28.5606C28.5556 28.7132 28.9551 28.7896 29.3861 28.7896Z" fill="#FBFEF9"/>
<path d="M9.69668 30.4997C8.93352 30.4997 8.25564 30.3426 7.66306 30.0283C7.07946 29.7141 6.61707 29.2696 6.27589 28.695C5.94369 28.1114 5.77759 27.4201 5.77759 26.621V20.9107H7.70347V26.7422C7.70347 27.1193 7.78428 27.465 7.94589 27.7792C8.1075 28.0845 8.33645 28.3314 8.63274 28.5199C8.93801 28.7085 9.29265 28.8028 9.69668 28.8028C10.1097 28.8028 10.4643 28.7085 10.7606 28.5199C11.0569 28.3314 11.2859 28.0845 11.4475 27.7792C11.6091 27.465 11.6899 27.1193 11.6899 26.7422V24.2776H13.6158V26.621C13.6158 27.4201 13.4452 28.1114 13.104 28.695C12.7718 29.2696 12.3094 29.7141 11.7168 30.0283C11.1332 30.3426 10.4599 30.4997 9.69668 30.4997Z" fill="#FBFEF9"/>
<path d="M11.6899 26.7422V24.3988C11.6899 23.5997 11.856 22.9129 12.1882 22.3383C12.5294 21.7547 12.9918 21.3057 13.5754 20.9915C14.168 20.6773 14.8458 20.5201 15.609 20.5201C16.3722 20.5201 17.0455 20.6773 17.6291 20.9915C18.2217 21.3057 18.6841 21.7547 19.0163 22.3383C19.3575 22.9129 19.5281 23.5997 19.5281 24.3988V30.4185H17.6022V24.2776C17.6022 23.9005 17.5214 23.5548 17.3598 23.2406C17.1982 22.9264 16.9692 22.6794 16.6729 22.4999C16.3767 22.3113 16.022 22.2171 15.609 22.2171C15.205 22.2171 14.8503 22.3113 14.545 22.4999C14.2488 22.6794 14.0198 22.9264 13.8582 23.2406C13.6966 23.5548 13.6158 23.9005 13.6158 24.2776L13.6158 26.7422L11.6899 26.7422Z" fill="#FBFEF9"/>
<path d="M22.0173 22.7222C21.721 22.7222 21.4607 22.6145 21.2362 22.399C21.0207 22.1835 20.913 21.9231 20.913 21.6178C20.913 21.3126 21.0207 21.0522 21.2362 20.8367C21.4607 20.6123 21.721 20.5 22.0173 20.5C22.3226 20.5 22.583 20.6123 22.7984 20.8367C23.0229 21.0522 23.1351 21.3126 23.1351 21.6178C23.1351 21.9231 23.0229 22.1835 22.7984 22.399C22.583 22.6145 22.3226 22.7222 22.0173 22.7222ZM23.0543 30.4661C22.4438 30.4661 21.9634 30.291 21.6133 29.9409C21.2721 29.5907 21.1015 29.1149 21.1015 28.5133V23.5976H22.9466V28.4594C22.9466 28.5762 22.987 28.6794 23.0678 28.7692C23.1576 28.85 23.2608 28.8904 23.3776 28.8904H23.7951V30.4661H23.0543Z" fill="#FBFEF9"/>
</svg>
