<svg width="64" height="65" viewBox="0 0 64 65" fill="none" xmlns="http://www.w3.org/2000/svg">
<g clip-path="url(#clip0_604_2179)">
<path fill-rule="evenodd" clip-rule="evenodd" d="M57.7891 0.500185C61.2192 0.500175 63.9998 3.28152 63.9998 6.71249L64 40.6975C64 40.6975 55.0086 40.6976 51.5785 40.6976L51.5784 21.7104L21.205 52.0754L47.4942 52.0752C47.4942 52.0752 47.4943 61.0689 47.4943 64.4998L6.21094 64.5C2.78083 64.5 0.000167239 61.7187 0.000157658 58.2877L0 24.3027L12.4215 24.3026L12.4216 43.2898L42.795 12.9249L23.8126 12.925C23.8126 12.925 23.8125 3.93097 23.8125 0.5L57.7891 0.500185Z" fill="#191923"/>
</g>
<defs>
<clipPath id="clip0_604_2179">
<rect width="64" height="64" fill="white" transform="translate(0 0.5)"/>
</clipPath>
</defs>
</svg>
